/* XPM */
static char *_c71a98b7eaa48fae50c20695ea3a51fG7tLVeGfQxyZvzWz[] = {
/* columns rows colors chars-per-pixel */
"64 64 205 2 ",
"   c None",
".  c #010102",
"X  c #0A0605",
"o  c #050A06",
"O  c #03040B",
"+  c #05090A",
"@  c #0C0C0C",
"#  c #08070D",
"$  c #100D0E",
"%  c #0C100E",
"&  c #12120E",
"*  c #1B1509",
"=  c #010113",
"-  c #020C14",
";  c #0C0E12",
":  c #051116",
">  c #0D1213",
",  c #0C151A",
"<  c #08181A",
"1  c #131313",
"2  c #161816",
"3  c #191A15",
"4  c #14151A",
"5  c #18161A",
"6  c #161A1B",
"7  c #1B1C1C",
"8  c #271917",
"9  c #1D201D",
"0  c #17211D",
"q  c #202000",
"w  c #21221E",
"e  c #2C2B1E",
"r  c #2E2813",
"t  c #161D21",
"y  c #1D1D22",
"u  c #1C2123",
"i  c #1D2528",
"p  c #1D292A",
"a  c #142423",
"s  c #1B2B31",
"d  c #222223",
"f  c #242826",
"g  c #2C2C25",
"h  c #232529",
"j  c #29272A",
"k  c #252A2C",
"l  c #2B2C2C",
"z  c #312C25",
"x  c #2D312F",
"c  c #3E3C2E",
"v  c #3A3726",
"b  c #262E31",
"n  c #2C2D32",
"m  c #352E33",
"M  c #2D3234",
"N  c #2E3539",
"B  c #293637",
"V  c #333434",
"C  c #393636",
"Z  c #353936",
"A  c #33363A",
"S  c #343A3B",
"D  c #3A3B3C",
"F  c #3B3B35",
"G  c #412D1C",
"H  c #463837",
"J  c #3D413D",
"K  c #4B452D",
"L  c #434135",
"P  c #494435",
"I  c #44423D",
"U  c #4D4939",
"Y  c #554D34",
"T  c #524E3C",
"R  c #564A39",
"E  c #5C563C",
"W  c #595538",
"Q  c #685C3A",
"!  c #634E3C",
"~  c #363D41",
"^  c #3B3E42",
"/  c #443E45",
"(  c #5D3D40",
")  c #3D4244",
"_  c #3D4449",
"`  c #3F484C",
"'  c #364144",
"]  c #424345",
"[  c #43454A",
"{  c #454A4D",
"}  c #4B4B4C",
"|  c #484947",
" . c #504C4B",
".. c #4D504E",
"X. c #46514E",
"o. c #545344",
"O. c #5A5544",
"+. c #5A594C",
"@. c #5E5848",
"#. c #454C52",
"$. c #4C4D52",
"%. c #474751",
"&. c #524D51",
"*. c #465252",
"=. c #4C5255",
"-. c #4D5559",
";. c #4E5859",
":. c #535454",
">. c #535857",
",. c #585857",
"<. c #53555A",
"1. c #545A5D",
"2. c #5B5B5C",
"3. c #585757",
"4. c #655C46",
"5. c #665D52",
"6. c #56605F",
"7. c #64644B",
"8. c #696449",
"9. c #716948",
"0. c #6B6554",
"q. c #6C6B5B",
"w. c #676554",
"e. c #796C58",
"r. c #7C7355",
"t. c #77715C",
"y. c #555D62",
"u. c #5B5D62",
"i. c #5E5E68",
"p. c #625C60",
"a. c #5B6265",
"s. c #5E6569",
"d. c #5E6A6B",
"f. c #626363",
"g. c #636967",
"h. c #64676A",
"j. c #636A6D",
"k. c #6B6B6B",
"l. c #6D6767",
"z. c #776A6B",
"x. c #7D7563",
"c. c #767764",
"v. c #656C71",
"b. c #6A6E72",
"n. c #6C7375",
"m. c #697375",
"M. c #737374",
"N. c #7B7477",
"B. c #7A7478",
"V. c #737A7B",
"C. c #7B7B7B",
"Z. c #737876",
"A. c #65706C",
"S. c #85795D",
"D. c #857C67",
"F. c #847B7E",
"G. c #80777B",
"H. c #7E8072",
"J. c #8A8468",
"K. c #878375",
"L. c #928973",
"P. c #A79B76",
"I. c #7C7D81",
"U. c #757F80",
"Y. c #867E81",
"T. c #7C8383",
"R. c #868686",
"E. c #828484",
"W. c #8B8185",
"Q. c #838B8D",
"!. c #8D8E8E",
"~. c #888788",
"^. c #90858A",
"/. c #8C908E",
"(. c #898F92",
"). c #968B90",
"_. c #8B9392",
"`. c #8F999B",
"'. c #949493",
"]. c #949A9C",
"[. c #979698",
"{. c #9C998A",
"}. c #A2969B",
"|. c #B0A793",
" X c #9CA4A4",
".X c #A2A2A2",
"XX c #A1AAAC",
"oX c #A9A7A9",
"OX c #B5A8AD",
"+X c #B2A4A8",
"@X c #ACB2B3",
"#X c #B6B3B5",
"$X c #B2B4A9",
"%X c #C2B796",
"&X c #C1B4B7",
"*X c #D3C7AC",
"=X c #C8BBC0",
"-X c #BCC4C4",
";X c #C3C9CA",
":X c #C5C4C6",
">X c #D6C6CB",
",X c #CAD3D4",
"<X c #C7D1D2",
"1X c #D2D8D9",
"2X c #E0D8C5",
/* pixels */
"                      '..X.X                                                                                                    ",
"                      ~.'.'.E.                                                                                                  ",
"                      C.} } B.                                                                                                  ",
"                      C.} l Z ,.R.              [.        '.].      ~./.                                                        ",
"                      Z.c 9 9 o F k.'.        f.:.V.E.  f.2.f.B.  a.>.Z.R.                                                      ",
"                      l.w 3 3 w $ 3 ] :.:.:.] V x F J :.D g l ] >.Z x x X.>.k.E.                                                ",
"                      l 9 w 7 * @ 1 . . . . . 2 5 w 5 . 1 h f 7 & 7 d d 7 1 7 } E.F.C.E.!.!.Q.~.                                ",
"            !.C.E.k.Z F } | ] D V d d f 7 2 $ 2 2 7 j j d 8 1 2 7 h f V x x V } f.2.f.k.k.k.5.C.                                ",
"          @X@X@X.X:.D J >.,.,.,.,.:...:.$.:.&. .] C F ^ F C V V D I C D ] | | :.3.3.,.,.>.,.:.f.                                ",
"           X@X@X!.F | | $.2.f.2.u.u.w.i.2.f.f.p.3.3.3.,.>.:.:.:.:.:...:.3.u.3.&.:.} | ] H :.) ^ k.                              ",
"          y.s : O u >.| } 3.>.3.5.u.f.2.2.5.u.2.f.p.2.,.5.h.2.2.2.,.2.2.w.a.,.2.3.:.3.5.C h 4 O ~.I.f.Q.C.j.b.Q.E.Q.`.          ",
"          [ a p O 7 k.2.3.2.3.:.3.>.,.f.>.2.h.,.,.3.&.>.} $.2.2.,.2.3.>.>. .:.k.f.,.&.] . . y y v.Q.. ` { #.#.<.-.-.d.V. X      ",
"    -X_.Q.A.;.6.l l 6.V V V l l l d l C j d V d 5 7 d l 6 8 N V j l 7 d V d d C C V } C f _ y.y.` V.M ) &.&.h.:.y.y.-.-.j._.    ",
"    ;X@XXX`.`.T.^ 1 f . . . . . X @ $ X 3 $ o 1 3 7 5 3 7 2 & 1 7 . + 5 $ @ + . . . ^ V d _ s.Q.*.V.{ m &.( z.| -.y.v.v.y.d.XX  ",
"    -X,X,X1X1X<XT.. x @ 1 1 5 7 4 y O . . . . = y = . 4 3 O . . . g V 1 9 7 8 y 1 $ l 1 h A $.v.^ h.$.7 m H / N -.y.i.j.d.a.(.`.",
"    ;X,X,X1X;X-XQ.u l . ; 5 d f l @ P w.+.o.+.+.F P 5.q.H o.0.0.c.K.L + d d u 7 @ 1 M 1 n ^ <.i.[ =.3.4 > - = ~ -.-.<.a.v.j.n.y.",
"    -X XXX].Q.A.X.0 w O 1 . O . . e 5.U T O.4.Y 9.J.0.K E 8.e.J.J.Z . j y d d d $ 1 l d h A %.%.D 3.u.h 4 l n $.<./ [ _ y.d.v.-.",
"    #X_.T.#.M ` X.0 9 > . v L.|.K.X @.r U 5.4.e.S.R 8 ! 8.e.z.e.H . j y d 8 d d 5 ; 1 1 t y y h ^ $.:.y h ^ %.[ n %.$.-._ <.a.j.",
"    ].b.S . . 0 B 6 d . x J.%X*X2X{.R Y ! S.S.t.U . P Q r.D.| . ; u y y 8 u w 9 d @ 2 1 l A %.%.] &.:.h y [ $.n / j.=.v.a.#.a.b.",
"    n.*.7 + > . > 9 V . o.J.P.Q |.%XW Q 9.S.9.v z P 8.r.8.e # 9 d d y 9 9 9 y y 7 @ d 4 m A { =.$.[ <.1.y ^ / A $.A b h 1.V.s.s.",
"    >.1.N . . . y y V . o.P D.G r.t.Y E 0.4.8 v T E w.7.g O 9 w 9 w 7 d y 9 y w 5 $ l 3 d 1 0 x D ^ ^ u.n D / ^ ^ ^ ~ b ~ m.j.m.",
"    [ [ 1.D n A d 4 d . H x.D.5.W q E J z . H E 4.7.o.. . 8 7 3 w 7 7 d 8 d 9 d 7 @ Z o . . . . O D D $.A n n A A _ ) A b n.v.b.",
"    S p _ u.2.A 4 t l . c w.e * e L W r v 4.Q 4.q.o.. 2 9 7 7 3 9 d d d y w w y 1 @ D @ . . o + . j ^ [ d t 4 ^ ^ A ~ N { y.y.d.",
"    N a p k ^ k # d n O o . . % g g e 7.v W 7.H X & 5 7 7 5 7 5 7 u u 8 d d 9 9 2 @ ] @ . . . . . S [ ] / 6 y h %./ { #.-.~ a.i.",
"    N < a u t u + t d = @ * 2 @ o . + F z . . O 1 4 5 4 7 3 3 7 7 8 9 u w w 9 y 4 @ :.2 d Z S V D [ { [ =.u h u h A ' S k ) 1.s.",
"    M 0 u 0 u u > 6 9 X @ @ > 1 2 1 1 . O 5 5 5 3 3 4 3 5 5 5 5 7 u d d 9 9 y 1 $ @ } 7 u k N B ^ ^ ] %.[ f > f f u 0 S ;.>.V._.",
"    > . . . . O . 6 7 . @ $ % 1 1 1 & 1 2 1 1 1 1 1 $ 1 1 1 1 1 6 5 8 7 8 5 5 3 @ . F 1 1 i S S %.:.^ %.1.] o M N Z Z >.        ",
"    T.R.Q.(.v.i M > 1 1 + @ @ $ @ @ @ + @ @ $ 1 $ ; $ $ 1 $ $ @ > 1 1 6 6 1 1 $ 7 9 f 1 h S _ ` %.<.^ n 2.2.J ) ) >.g.          ",
"2.a.v.n.V.U.j.1.>.0 2 f . @ @ @ @ @ @ @ @ @ @ @ $ 1 1 % & 1 @ @ @ $ 1 1 1 @ & O f 5 g T.<., u u y n h y g.                      ",
"2.V A M b M ' ` N k 6 1 3 @ + + X X @ + o X X + o + @ % $ @ @ @ o @ 1 2 1 O $ 3 X $.k.      i u n h n ^                         ",
"2.D C C V M V M V Z f d d 1 @ % % @ @ + O o + & $ @ @ @ o o . d f 9 l d . + . ; D           n y A -.v.-.                        ",
"k.3.Z l V V V C ] ] ] H V 7 2 > @ + o . . . + X @ @ @ + . O o l V j } Z . 6 ; 7 1.        ] O A y.-.V.g.                        ",
"                        g.V 2 > 0 7 5 2 1 1 1 o o @ @ > 1 @ @ x m l ..C . 0 6 h D         J $.b.%.[ T.j.F.[.                    ",
"                          >.S J S V x f 9 1 % 1 > % 1 2 1 & > l V l ..D . k u n [ S [ ] ^ >.h.<.-.-.s.k.&X.X2.                  ",
"                            { x S F V Z S V l d 5 2 > % @ % . l D f | M . M a k k X.a.g.k.f.^ [ 1.*.N ).>Xz.{                   ",
"                            V . O . @ 4 f Z D ] F Z l 7 % . . d h @ l 9 . S k , h           ] . b ;.V.B.F.m j                   ",
"                            l : u 4 . @ # 4 1 5 l Z Z C Z x 3 l x l l 6 . 1.S k :.          ] D *._ p.$.).^.C.F.                ",
"                            ^ u b 6 y u ; n y . . . . & w x S S V f d 5 . g._ A j.          C S x : h / ^..X^.Y.^.              ",
"                            ) N n t h l 7 V d . @ + @ % % d u 6 5 9 l Z ..k.Z =.C.            2.+ O ^ B.p.+X=X^.F.              ",
"                            ^ ~ ~ h ; y n Z 7 . . . . . @ D [ 6 . . . 1 x u . { I.              J a S k.(.Y.OX+Xl.              ",
"                            A _ ^ h > 7 h ] 7 . @ @ X o o | 1.J . + @ u [ . > k                 S ~ *.*.n.&.=X+XN.N.            ",
"                            A _ ^ d @ 9 d ] 2 . $ $ $ 5 1 X.a.{ i ; 4 l -.4 A %.                ^ p S n . G.OX&XF.M.            ",
"                            [ ~ ^ 7 > d l V . . . . . X % ;.a.*.m t A n %.4 ^ =.                  l . > [ F.).>XOXG.N.          ",
"                            [ ) A 7 > h A Z . . . . . X + =.a.{ h h ] %.u.O #.-.                  1.A > 3.G.Y.}.OXN.Z.          ",
"                            ^ _ A 4 > M C A . 1 2 1 1 1 0 ;.s.` h n / &.y.. $.y.                    _ l 5 Y.[.}.#XE.2.          ",
"                          <.%.` N ; u S ~ n . # X + 1 X x 6.s.` y N [ { / : -.n.                    =.A 5 2.Y.k.!._.:.          ",
"                          =._ _ N = p N S l . O . . o . M s.a.` t ^ %.u.%., a.V.                    *.S N *.j.j.h.j.h.          ",
"                          [ ` ` b O b S S 8 X @ + o @ . Z 2.a.` = %.$.h.^ M v.a.                  [ S ' *.y.u.j.                ",
"                          ^ #.%.i , B J N 1 . @ $ @ 5 @ ) 1.1.B O %.<.p.y ~ v.                    V n ' 1.f.                    ",
"                          [ #.' t u S N V . . . . . % . ] >.=.J ; $.y.u.# { 1.                      } h.                        ",
"                        $.%.#.~ : k ' A f . 1 o O o . 3 X.2.{ _ k $.y.<.O [ <.                                                  ",
"                        D ~ %.~ : M ' C u . @ @ X @ o l -.a.{ b k <.a.$.- <.}                                                   ",
"                        V [ ) y t A ~ ^ j . . . . @ @ x =.y.` h N -.s.^ , -.:.                                                  ",
"                      2.% D C 4 N [ ~ ^ 5 . @ O . . X ' <.*.~ t ~ y.y.h p $.                                                    ",
"                    F d 1 l n 4 ~ _ ) D . & 1 @ @ @ 5 _ -.#.) t *.a.y.t A <.                                                    ",
"                    . . u A A A A A ] h . . . @ 2 1 j [ *.-.^ B a.v.s.: *.=.                                                    ",
"                    } C Z h d h A ^ / j j j 5 . . . C [ { %.n ^ y.h.%.y <.%.                                                    ",
"                          f.} ] A n l ~ ~ ^ [ ^ d 4 A [ [ [ n [ u.i.n ^ $.                                                      ",
"                                b.:.%./ ~ y n m ^ { { ^ n h 4 %.u.%., ^ [                                                       ",
"                                      I.z.i.%.^ V A ^ [ ^ [ ^ ^ ^ y O h }                                                       ",
"                                              M.p.$.[ ^ A [ %.&.y.n y t                                                         ",
"                                                      h.3.{ ^ [ u.j { f.k.                                                      ",
"                                                            M.k.3.y D ] k.                                                      ",
"                                                                    f.,.                                                        "
};
