/* XPM */
static char *_a0562a53dfb47589409babcc6f534afbmrVwWkZdpI5ll3u[] = {
/* columns rows colors chars-per-pixel */
"64 64 193 2 ",
"   c None",
".  c #760837",
"X  c #790A30",
"o  c #76083A",
"O  c #75083D",
"+  c #9A1404",
"@  c #850F18",
"#  c #830E1C",
"$  c #861014",
"%  c #851017",
"&  c #A01603",
"*  c #A51700",
"=  c #A51703",
"-  c #AA1800",
";  c #AB1900",
":  c #AE1900",
">  c #B11A00",
",  c #B31B00",
"<  c #B41B00",
"1  c #B61C00",
"2  c #B81E00",
"3  c #BF2100",
"4  c #C02200",
"5  c #C32400",
"6  c #C42400",
"7  c #C62500",
"8  c #C72600",
"9  c #C92700",
"0  c #CC2900",
"q  c #CD2A00",
"w  c #CE2A00",
"e  c #CF2B00",
"r  c #D12C00",
"t  c #D32E00",
"y  c #D42E00",
"u  c #D52F00",
"i  c #D63000",
"p  c #D73000",
"a  c #D93200",
"s  c #DA3200",
"d  c #DD3400",
"f  c #DF3600",
"g  c #E13800",
"h  c #E43900",
"j  c #E53B00",
"k  c #E63B00",
"l  c #EA3D00",
"z  c #EB3E00",
"x  c #EC3E00",
"c  c #ED3E00",
"v  c #F03F00",
"b  c #EE4300",
"n  c #F24000",
"m  c #F34100",
"M  c #F44000",
"N  c #F54000",
"B  c #F64100",
"V  c #F64300",
"C  c #F34400",
"Z  c #F24700",
"A  c #F84100",
"S  c #F94100",
"D  c #F94200",
"F  c #FA4200",
"G  c #FB4200",
"H  c #FA4300",
"J  c #FC4200",
"K  c #FD4200",
"L  c #FD4300",
"P  c #FE4300",
"I  c #FF4300",
"U  c #FF4501",
"Y  c #FF4601",
"T  c #FF4602",
"R  c #F14C00",
"E  c #FF4801",
"W  c #FF4803",
"Q  c #FF4C05",
"!  c #FF4F07",
"~  c #FF5007",
"^  c #FF5108",
"/  c #FF5209",
"(  c #FF540A",
")  c #FF550A",
"_  c #FF560A",
"`  c #FF560B",
"'  c #FF570C",
"]  c #FF590D",
"[  c #FF5A0E",
"{  c #FF5F11",
"}  c #FF6111",
"|  c #FF6313",
" . c #FF6610",
".. c #FF6414",
"X. c #FF6817",
"o. c #FF6918",
"O. c #FF6B1A",
"+. c #FF711F",
"@. c #FF7522",
"#. c #FF7725",
"$. c #FF7927",
"%. c #FF7A28",
"&. c #FF7C2A",
"*. c #FF7D2B",
"=. c #FF7F2D",
"-. c #FF7B58",
";. c #FF7C59",
":. c #FF7D5A",
">. c #FF7A5F",
",. c #FF6E69",
"<. c #FF6C6D",
"1. c #FF7362",
"2. c #FF7164",
"3. c #FF7165",
"4. c #FF7067",
"5. c #FF746A",
"6. c #FF6E75",
"7. c #FF6F79",
"8. c #FF707C",
"9. c #FF8634",
"0. c #FF8937",
"q. c #FF8A38",
"w. c #FF893B",
"e. c #FF8C3B",
"r. c #FF8D3B",
"t. c #FF8641",
"y. c #FF8741",
"u. c #FF8742",
"i. c #FF8840",
"p. c #FF8841",
"a. c #FF8A40",
"s. c #FF8A41",
"d. c #FF8A43",
"f. c #FF8D43",
"g. c #FF8E42",
"h. c #FF8B45",
"j. c #FF8D45",
"k. c #FF834A",
"l. c #FF824F",
"z. c #FF8053",
"x. c #FF8153",
"c. c #FF8452",
"v. c #FF8255",
"b. c #FF8256",
"n. c #FF7080",
"m. c #FF7285",
"M. c #FF7388",
"N. c #FF758C",
"B. c #FF7690",
"V. c #FF7692",
"C. c #FF7796",
"Z. c #FF7893",
"A. c #FF799A",
"S. c #FF7BA1",
"D. c #FF7CA4",
"F. c #FF7FAD",
"G. c #FF82B2",
"H. c #FF83BA",
"J. c #FF87BE",
"K. c #FF87C1",
"L. c #FF86C3",
"P. c #FF88C8",
"I. c #FF8DD1",
"U. c #FF8DD2",
"Y. c #FF8ED5",
"T. c #FF91D9",
"R. c #FF9BE1",
"E. c #FF9BE6",
"W. c #FF9AE9",
"Q. c #FF9FE8",
"!. c #FF9EEA",
"~. c #FEA0E7",
"^. c #FFA0E7",
"/. c #FEA8E9",
"(. c #FFB1E9",
"). c #FFB6EB",
"_. c #FFB5EC",
"`. c #FFB9E9",
"'. c #FFBBEC",
"]. c #FFBFEC",
"[. c #FFC1EC",
"{. c #FFCBEA",
"}. c #FFD2EC",
"|. c #FFD7EC",
" X c #FFDAEC",
".X c #FFDCEC",
"XX c #FFE0EC",
"oX c #FFE7EC",
"OX c #FFEDEC",
"+X c #FFF0EC",
"@X c #FFF7EC",
"#X c #FFFBEC",
"$X c #FFFEEC",
/* pixels */
"                                                                                                                                ",
"                                                                                                                                ",
"                                                                                                                                ",
"                                                                                                                                ",
"                                                                                                                                ",
"                                                                                                                                ",
"                                                                                                                                ",
"                                                                                                                                ",
"                                                                                                                                ",
"                                                                                                                                ",
"                                                                                                                                ",
"                                                                                                                                ",
"                                                                                                                                ",
"                                                                                                                                ",
"                                                                                                                                ",
"                                                                                                                                ",
"                                                                                                                                ",
"                                                                                                                                ",
"                                                                                                                                ",
"                                                                                                                                ",
"                                                                                                                                ",
"                                                                                                                                ",
"                                                                                                                                ",
"                                                                                                                                ",
"                                                                                                                                ",
"                                                                                                                                ",
"                                                          # 2 q q > $                                                           ",
"                                                    * < 7 f M K K m k q =                                                       ",
"                                                  > z M F K W ] ] ~ T F c 9 .                                                   ",
"                                                  g ' { ( W ] %.y.l.w.O.T M 7                                                   ",
"                                                -  .0.p.y.9.q.l.V.H.6.j.X.T z +                                                 ",
"                                                s @.c.1.m.N.7.S.E.T.4.v.r...F r                                                 ",
"                                                R =.v.M.P.W.(.{. X`.G.8.<.j.~ z *                                               ",
"                                                b =.>.L.!.[.oX#X#X.XR.D.n.v. .F e                                               ",
"                                                i } f.V.!.'.|.@X#X+X[.Y.4.p.X.F y                                               ",
"                                                3 F  .j.5.K.~.}.OXXX).U.:.%.O.M :                                               ",
"                                                - v W } $.-.F.~._./.U.C.:.&.( k %                                               ",
"                                                X i F T Q #.z.A.K.N.,.4.k.%.' 9                                                 ",
"                                                  * h K T ( $.p.f.r.9.p.q.O.C +                                                 ",
"                                                    > z F T T ^ ^ ^ ( +.$.Z 1                                                   ",
"                                                      4 f c M K K F K W V 7                                                     ",
"                                                        % : 7 r s s y i 7                                                       ",
"                                                              O o                                                               ",
"                                                                                                                                ",
"                                                                                                                                ",
"                                                                                                                                ",
"                                                                                                                                ",
"                                                                                                                                ",
"                                                                                                                                ",
"                                                                                                                                ",
"                                                                                                                                ",
"                                                                                                                                ",
"                                                                                                                                ",
"                                                                                                                                ",
"                                                                                                                                ",
"                                                                                                                                ",
"                                                                                                                                ",
"                                                                                                                                ",
"                                                                                                                                ",
"                                                                                                                                ",
"                                                                                                                                ",
"                                                                                                                                ",
"                                                                                                                                ",
"                                                                                                                                "
};
