/* XPM */
static char *_f8db99b70834538a1b4c5bfb2e17d41S4lzisi1jwgZsvot[] = {
/* columns rows colors chars-per-pixel */
"64 64 174 2 ",
"   c None",
".  c #BC003C",
"X  c #CF001F",
"o  c #EE0006",
"O  c #EE000C",
"+  c #F40003",
"@  c #FB0003",
"#  c #F3000C",
"$  c #E20013",
"%  c #EB0014",
"&  c #E5001E",
"*  c #F50015",
"=  c #FC0014",
"-  c #F7001B",
";  c #FC001B",
":  c #CD0027",
">  c #C6002E",
",  c #CB002D",
"<  c #D20026",
"1  c #DD002C",
"2  c #CC0035",
"3  c #C5003B",
"4  c #D50031",
"5  c #D5003B",
"6  c #DB003B",
"7  c #DB0033",
"8  c #E60021",
"9  c #ED0022",
"0  c #E4002C",
"q  c #ED002B",
"w  c #F40024",
"e  c #FB0022",
"r  c #F7002F",
"t  c #FD012C",
"y  c #ED0034",
"u  c #EC003D",
"i  c #E30035",
"p  c #F30034",
"a  c #FD0034",
"s  c #F1003A",
"d  c #FF013C",
"f  c #9F004B",
"g  c #990054",
"h  c #9D005B",
"j  c #AE0042",
"k  c #AB004B",
"l  c #B90044",
"z  c #B5004D",
"x  c #BC004B",
"c  c #A70055",
"v  c #AC005D",
"b  c #B30055",
"n  c #BB0052",
"m  c #BA005B",
"M  c #B3005B",
"N  c #800062",
"B  c #8D0064",
"V  c #87006E",
"C  c #8D006F",
"Z  c #930063",
"A  c #9D0067",
"S  c #95006C",
"D  c #98006B",
"F  c #870076",
"G  c #87007F",
"H  c #8D007C",
"J  c #8B0073",
"K  c #91007C",
"L  c #940074",
"P  c #A30060",
"I  c #AA0063",
"U  c #B10061",
"Y  c #C40044",
"T  c #C5004D",
"R  c #D20041",
"E  c #DB0045",
"W  c #D20049",
"Q  c #C60050",
"!  c #E30042",
"~  c #FE0044",
"^  c #FF004B",
"/  c #FF0B4B",
"(  c #FF0152",
")  c #FF005C",
"_  c #FF0263",
"`  c #FF0D64",
"'  c #FF006C",
"]  c #FF0274",
"[  c #FF0875",
"{  c #FF027C",
"}  c #FF0C7B",
"|  c #FF1372",
" . c #FF1B74",
".. c #FF2170",
"X. c #640085",
"o. c #6D0086",
"O. c #750087",
"+. c #720088",
"@. c #7D008A",
"#. c #860083",
"$. c #8C0084",
"%. c #83008A",
"&. c #8D008C",
"*. c #900083",
"=. c #FF0283",
"-. c #FF0C84",
";. c #FF048B",
":. c #FF0A8E",
">. c #FF1585",
",. c #FF1A86",
"<. c #FF138A",
"1. c #FF1D8D",
"2. c #FF0393",
"3. c #FF0996",
"4. c #FF059B",
"5. c #FF1394",
"6. c #FF1C93",
"7. c #FF139D",
"8. c #FF1A9B",
"9. c #FF2A81",
"0. c #FF278F",
"q. c #FF2392",
"w. c #FF239B",
"e. c #FF299E",
"r. c #FF329D",
"t. c #FF389F",
"y. c #FF1DA3",
"u. c #FF23A4",
"i. c #FF2CA3",
"p. c #FF26A8",
"a. c #FF2EAB",
"s. c #FF34A2",
"d. c #FF39A5",
"f. c #FF32AC",
"g. c #FF3DAD",
"h. c #FF34B2",
"j. c #FF3BB4",
"k. c #FF43AE",
"l. c #FF42B4",
"z. c #FF4CB7",
"x. c #FF42BA",
"c. c #FF4BBC",
"v. c #FF52BE",
"b. c #FF4DC1",
"n. c #FF54C2",
"m. c #FF5BC5",
"M. c #FF5BC9",
"N. c #FF62CB",
"B. c #FF6ACC",
"V. c #FF67D1",
"C. c #FF6BD2",
"Z. c #FF71D5",
"A. c #FF75D9",
"S. c #FF7ADC",
"D. c #FF82DF",
"F. c #FF83E2",
"G. c #FF8AE6",
"H. c #FF8FE8",
"J. c #FF93EA",
"K. c #FE9CEC",
"L. c #FFA4EC",
"P. c #FFACEC",
"I. c #FEB5EC",
"U. c #FFBBEC",
"Y. c #FFC3EC",
"T. c #FFCCEC",
"R. c #FFD4EC",
"E. c #FFDDEC",
"W. c #FFE4EC",
"Q. c #FFEEEC",
"!. c #FFEBEC",
"~. c #FFF5EC",
"^. c #FFFDEC",
"/. c #FFFDEC",
/* pixels */
"                                                                                                                                ",
"                                                                                                                                ",
"                                                                                                                                ",
"                                                                                                                                ",
"                                                                                                                                ",
"                                                                                                                                ",
"                                                                                                                                ",
"                                                                                                                                ",
"                                                                                                                                ",
"                                                                                                                                ",
"                                                                                                                                ",
"                                                                                                                                ",
"                                                                                                                                ",
"                                                                                                                                ",
"                                                                                                                                ",
"                                                                                                                                ",
"                                                                                                                                ",
"                                                                                                                                ",
"                                                                                                                                ",
"                                                          +.*.H B $.X.                                                          ",
"                                                    @.L z 3 7 7 0 Q P D $.o.                                                    ",
"                                              V C D v Q q = = = ; y ! E T I K X.                                                ",
"                                          f > 2 2 0 y u a ^ ( ( ^ ^ d p p ! T A J                                               ",
"                                          X + + - = a ^ ) { 3.2.3.;.] _ ~ r p i Y H                                             ",
"                                        j o @ = t ~ ) ' ] :.y.u.y.y.y.3.] ( a e 9 x #.                                          ",
"                                      N < @ d ` [ -.=.{ { :.y.j.c.b.b.b.e.-.] ^ ; 0 v O.                                        ",
"                                      g % t 0.a.h.a.8.3.8.i.h.M.Z.F.S.S.v.e.-.' d e R C                                         ",
"                                      3 - ..z.v.n.M.v.l.x.z.n.Z.G.J.G.C.N.c.q.} _ a q n $.                                      ",
"                                    g % a r.M.B.M.Z.S.Z.C.V.C.G.K.L.S.m.v.z.d.,.[ ~ e 5 D                                       ",
"                                    . + ( e.c.V.Z.S.H.J.H.H.J.P.Y.P.F.B.N.N.N.k.1._ t 9 x #.                                    ",
"                                    : = 9.k.c.V.S.F.J.K.P.Y.E.W.Q.R.L.G.A.S.S.Z.l.[ a = 4 Z                                     ",
"                                    , =  .k.N.D.H.J.L.P.T.~.^.^.^.Q.U.G.A.Z.C.A.M.,.~ = & 3                                     ",
"                                    l * ` t.n.S.H.K.Y.W.~.^.^.^.^.~.T.L.J.F.A.V.n.<.~ = @ $                                     ",
"                                    k 0 e | t.N.G.K.I.U.Y.W.^.^.^.^.!.Y.K.F.C.c.j.w._ a @ :                                     ",
"                                    $.Y w ~ } s.B.S.J.G.J.U.!.~.^.~.Q.T.P.G.V.k.f.f.} ~ & k                                     ",
"                                    $.T w d ] >.g.l.B.F.H.K.I.W.!.W.T.P.K.F.N.f.6.w.} r 4 B                                     ",
"                                    @.M r t _ -.1.<.j.B.F.G.K.U.U.I.L.J.S.S.V.x.y.3._ w Y F                                     ",
"                                      D 6 e ^ ] { ;.7.h.M.A.G.L.L.K.G.F.S.C.M.b.a.-.^ 0 b                                       ",
"                                      *.n y a _ =.;.3.y.h.M.A.F.G.S.V.N.C.V.b.h.a.| e 5 C                                       ",
"                                        D W p a ' ;.4.y.p.j.M.M.n.n.x.j.b.b.b.a.6./ # l                                         ",
"                                        %.I E p ~ ] 2.2.2.8.i.e.e.a.6.8.a.h.x.e.) = 1 B                                         ",
"                                          *.M ! r a ) ' ] =.=.;.3.-.=.:.8.p.s.` = 1 h                                           ",
"                                            *.n 9 ; a a ^ ) _ ] =.] ' ] -.:.` ; & c                                             ",
"                                              B 4 E ! s a r a d ~ a t t a e @ O .                                               ",
"                                                Z P U Q E ! u u w w q 9 * # o ,                                                 ",
"                                                    &.K D U m m Y 3 x x l . .                                                   ",
"                                                          @.%.&.%.%.#.                                                          ",
"                                                                                                                                ",
"                                                                                                                                ",
"                                                                                                                                ",
"                                                                                                                                ",
"                                                                                                                                ",
"                                                                                                                                ",
"                                                                                                                                ",
"                                                                                                                                ",
"                                                                                                                                ",
"                                                                                                                                ",
"                                                                                                                                ",
"                                                                                                                                ",
"                                                                                                                                ",
"                                                                                                                                ",
"                                                                                                                                ",
"                                                                                                                                ",
"                                                                                                                                "
};
