/* XPM */
static char *e8bd80b3536f4e3bdc06a00af76393cblkFzDf4wrh8sMBoL[] = {
/* columns rows colors chars-per-pixel */
"64 64 193 2 ",
"   c None",
".  c #73007C",
"X  c #FD002C",
"o  c #FC0024",
"O  c #E3003F",
"+  c #EF0038",
"@  c #F50032",
"#  c #FD0034",
"$  c #F4003E",
"%  c #FC003C",
"&  c #9E006C",
"*  c #96007B",
"=  c #9A007D",
"-  c #A6006F",
";  c #AF006A",
":  c #BB0067",
">  c #B9006C",
",  c #A4007B",
"<  c #AA0073",
"1  c #B40078",
"2  c #BB007B",
"3  c #BC0072",
"4  c #DE004D",
"5  c #C1005D",
"6  c #D6005D",
"7  c #DE0054",
"8  c #E1004B",
"9  c #EC0049",
"0  c #E60043",
"q  c #F20044",
"w  c #FC0043",
"e  c #FD004C",
"r  c #E30053",
"t  c #ED0053",
"y  c #E40059",
"u  c #EE005D",
"i  c #FD0053",
"p  c #FE005C",
"a  c #F30051",
"s  c #CF006F",
"d  c #C80062",
"f  c #DB0062",
"g  c #DC006B",
"h  c #D40065",
"j  c #C30074",
"k  c #C80077",
"l  c #CA007D",
"z  c #C7007B",
"x  c #D60075",
"c  c #DC0074",
"v  c #DC007C",
"b  c #D2007E",
"n  c #E50063",
"m  c #EA0064",
"M  c #E1006E",
"N  c #EC006A",
"B  c #F60062",
"V  c #FD0063",
"C  c #F4006D",
"Z  c #FE006C",
"A  c #E30075",
"S  c #EA0072",
"D  c #E7007A",
"F  c #FF0072",
"G  c #FF017B",
"H  c #F10071",
"J  c #3F0083",
"K  c #440085",
"L  c #400089",
"P  c #4E0087",
"I  c #5F0087",
"U  c #53008A",
"Y  c #5D008B",
"T  c #64008C",
"R  c #6B008C",
"E  c #660086",
"W  c #74008E",
"Q  c #7C008C",
"!  c #6D0092",
"~  c #720092",
"^  c #7B0094",
"/  c #7A009A",
"(  c #89008F",
")  c #860089",
"_  c #910085",
"`  c #990082",
"'  c #960088",
"]  c #9B008B",
"[  c #830091",
"{  c #860099",
"}  c #8A009A",
"|  c #930092",
" . c #9E0095",
".. c #95009B",
"X. c #9D009A",
"o. c #AC0086",
"O. c #A9008E",
"+. c #A50087",
"@. c #B40084",
"#. c #B9008A",
"$. c #B0008E",
"%. c #A50094",
"&. c #A80095",
"*. c #B40092",
"=. c #BB0093",
"-. c #C60087",
";. c #CF0087",
":. c #C3008C",
">. c #CD0089",
",. c #D40085",
"<. c #D80088",
"1. c #D60089",
"2. c #C70091",
"3. c #C90090",
"4. c #D70092",
"5. c #E30081",
"6. c #FF0185",
"7. c #FF008B",
"8. c #FF0293",
"9. c #FF019C",
"0. c #FF089D",
"q. c #FF1592",
"w. c #FF01A4",
"e. c #FF01AB",
"r. c #FF09A4",
"t. c #FF02B3",
"y. c #FF0CB4",
"u. c #FF01BB",
"i. c #FF0CBA",
"p. c #FF14BA",
"a. c #FF1BBB",
"s. c #FF21BB",
"d. c #FF01C4",
"f. c #FF0EC3",
"g. c #FF03CB",
"h. c #FF0DCB",
"j. c #FF13C4",
"k. c #FF1AC2",
"l. c #FF15CD",
"z. c #FF1FCB",
"x. c #FF05D3",
"c. c #FF0CD3",
"v. c #FF14D3",
"b. c #FF1CD5",
"n. c #FF1CD9",
"m. c #FF2CC6",
"M. c #FF2DCA",
"N. c #FF26CC",
"B. c #FF37C7",
"V. c #FF34CC",
"C. c #FF3CCF",
"Z. c #FF23D5",
"A. c #FF2BD4",
"S. c #FF23D9",
"D. c #FF2DDA",
"F. c #FF33D3",
"G. c #FF3CD3",
"H. c #FF34DB",
"J. c #FF3CDB",
"K. c #FF41CE",
"L. c #FF45D4",
"P. c #FF4BD7",
"I. c #FF43DD",
"U. c #FF4CDC",
"Y. c #FF54DC",
"T. c #FF5BDE",
"R. c #FF61DE",
"E. c #FF69DE",
"W. c #FF4EE0",
"Q. c #FF54E1",
"!. c #FF5CE1",
"~. c #FF63E2",
"^. c #FF6CE4",
"/. c #FF73E6",
"(. c #FF79E7",
"). c #FF7DE8",
"_. c #FF85EA",
"`. c #FF82E9",
"'. c #FF8CEA",
"]. c #FE94EC",
"[. c #FF9BEC",
"{. c #FFA4EC",
"}. c #FEAAEC",
"|. c #FEB3EC",
" X c #FFBCEC",
".X c #FFC2EC",
"XX c #FFCDEC",
"oX c #FFD3EC",
"OX c #FFDDEC",
"+X c #FFE3EC",
"@X c #FFECEC",
"#X c #FFF3EC",
"$X c #FFFDEC",
/* pixels */
"                                                                                                                                ",
"                                                                                                                                ",
"                                                                                                                                ",
"                                                                                                                                ",
"                                                                                                                                ",
"                                                                                                                                ",
"                                                                                                                                ",
"                                                                                                                                ",
"                                                                                                                                ",
"                                                                                                                                ",
"                                                                                                                                ",
"                                                                                                                                ",
"                                                                                                                                ",
"                                                                                                                                ",
"                                                                                                                                ",
"                                                                                                                                ",
"                                                      T J / [ [ = ^ U K                                                         ",
"                                                  Y } @.3 x c g n :.&.%.{ Y                                                     ",
"                                            W ^ /  .#.c q w w w e S <.,.:.*...!                                                 ",
"                                        ; 1 @.l n v 5.p p p V p V V V V S D >.*./ W                                             ",
"                                      5 0 9 y u i V V Z 9.t.t.t.e.w.6.Z V V C v -.@.!                                           ",
"                                    - O o X % e e G 8.9.u.h.c.c.c.c.g.d.9.F p B i n $.~                                         ",
"                                  ) d @ # e p F 7.w.w.e.u.l.D.Z.b.S.n.n.c.w.7.Z p w g o.U                                       ",
"                                  < 8 X Z 0.r.u.g.u.t.t.u.l.S.I.W.Q.W.Q.J.j.t.t.8.i w x ..                                      ",
"                                  > # i a.A.D.H.n.d.g.c.z.A.H.Q./.).`._.^.G.k.i.w.G i u #.^                                     ",
"                                Q 6 w q.P.P.P.Q.Q.H.A.H.L.L.T./.`.].'.).~.T.L.p.t.w.F e c %.Y                                   ",
"                                1 $ Z V.!.~.Y.Q.^./.R.T.R.T.^.'.].[._.^.T.~.U.m.a.r.7.p u -.[                                   ",
"                                7 X G F.Q.^.^.^.).'.).)././.`.].}.}.`.!.U.L.P.L.s.y.w.Z e g O.E                                 ",
"                              = 9 w r.Z.L.~././._.].[.[.[.[.[. XoX|.'.(./.R./.^.Y.m.y.7.e t z (                                 ",
"                              ; @ V B.P.L.~./.).'.].[.}..X+X@X#X#X+X|.].)./.(._.(.T.f.9.p % f +.                                ",
"                              < $ i s.K.T.`.'.].].[.{..X#X$X$X$X$X#X.X].(./.^.^././.V.w.p w r 3 ,                               ",
"                              | y e a.C.T./.'.].[.XX@X#X$X$X$X$X$X$XXX{.].'.`./.^.^.Z.w.V w % + :                               ",
"                              & 9 w V k.C.~.`.[.{..XXXoX@X$X$X$X$X$X#XXX{.].(.^.Y.I.b.e.F e X O .                               ",
"                              Y } x i 6.y.C./.].[.[.[.{. X#X$X$X$X$X@XoX X[./.^.L.H.J.f.w.F % d                                 ",
"                              K &.A i G e.u.V.!./.'._.).[..X@X$X$X$X@XoX X}._.~.L.M.H.S.r.p h o.                                ",
"                                 .x i Z w.t.M.G.m.E._.].].]. X@X+XOXXX{.].'.`.!.A.j.j.l.0.a h '                                 ",
"                                { ;.i p 8.t.z.p.j.J.~.`.].'.{. X|.|.{.].`.).(.^.W.n.h.i.6.t k (                                 ",
"                                T #.N e G t.t.t.d.v.H.!./.'.].}.}.].].].)./.~.!.Q.H.c.t.p n #.E                                 ",
"                                K X.b B V 9.t.u.d.h.n.D.Q./.).].[.'./.^.~.(.^.W.H.H.N.7.e x |                                   ",
"                                  ! =.c p C 9.d.g.x.n.D.J.!./.^.^.~.Y.Y.U.!.!.U.H.S.a.i $ 2 T                                   ",
"                                  K } 3.S V F w.g.x.x.v.b.J.U.G.C.P.V.Z.H.I.I.I.J.f.6.% r =                                     ",
"                                    Y X.;.S Z G e.d.g.d.d.j.j.l.v.b.f.i.l.A.F.I.N.6.w 9 2                                       ",
"                                      ! &.,.N e Z 6.9.w.t.u.u.d.g.u.u.u.h.v.A.A.8.% a 2 W                                       ",
"                                        ! &.M # p Z Z 6.8.9.9.e.d.e.w.e.t.h.j.0.e q j [                                         ",
"                                          R s t ,.S Z V p V Z G 6.Z V V Z G p # @ 6 _                                           ",
"                                            _ 2 *.2.<.S H C C B e i p a q % X o 8 ,                                             ",
"                                              W ^ ..%.=.3.4.<.4.m y c c g f r 4 d                                               ",
"                                                    U ! ..X.X.%. .+.O.] ' ` ` *                                                 ",
"                                                          J K P K K                                                             ",
"                                                                                                                                ",
"                                                                                                                                ",
"                                                                                                                                ",
"                                                                                                                                ",
"                                                                                                                                ",
"                                                                                                                                ",
"                                                                                                                                ",
"                                                                                                                                ",
"                                                                                                                                ",
"                                                                                                                                ",
"                                                                                                                                ",
"                                                                                                                                ",
"                                                                                                                                ",
"                                                                                                                                ",
"                                                                                                                                "
};
