/* XPM */
static char *_3f387b12cdb4bdfaa68856122fefc23DlrqEeS5zcuJN7al[] = {
/* columns rows colors chars-per-pixel */
"64 64 144 2 ",
"   c None",
".  c #7F0056",
"X  c #78005E",
"o  c #7D0064",
"O  c #7E006B",
"+  c #BC0003",
"@  c #B6000E",
"#  c #BE000B",
"$  c #AD0017",
"%  c #A5001C",
"&  c #AA001A",
"*  c #B20014",
"=  c #BD0016",
"-  c #B5001C",
";  c #B8001D",
":  c #9D0037",
">  c #920039",
",  c #AC0025",
"<  c #AB002E",
"1  c #B30023",
"2  c #A10033",
"3  c #C60001",
"4  c #CD0001",
"5  c #C3000B",
"6  c #CA0009",
"7  c #D40000",
"8  c #DB0000",
"9  c #C30011",
"0  c #E30000",
"q  c #EC0000",
"w  c #F50000",
"e  c #FC0000",
"r  c #FF0C05",
"t  c #FF020B",
"y  c #FF0E0A",
"u  c #FF1408",
"i  c #FF0314",
"p  c #FF0C15",
"a  c #FF001C",
"s  c #FF0B1E",
"d  c #FF1B14",
"f  c #FF1B1D",
"g  c #FF2612",
"h  c #FF0223",
"j  c #FF0E23",
"k  c #FF042B",
"l  c #FF092C",
"z  c #FF1224",
"x  c #FF1E25",
"c  c #FF152A",
"v  c #FF0437",
"b  c #FF0C35",
"n  c #FF053C",
"m  c #FF0F39",
"M  c #FF1036",
"N  c #FF1933",
"B  c #FF143D",
"V  c #FF1F3C",
"C  c #FF2125",
"Z  c #FF212F",
"A  c #FF223C",
"S  c #860045",
"D  c #8B004D",
"F  c #940044",
"G  c #94004B",
"H  c #870056",
"J  c #8C0056",
"K  c #830059",
"L  c #8B005B",
"P  c #A10040",
"I  c #830065",
"U  c #83006B",
"Y  c #800071",
"T  c #FF1443",
"R  c #FF1A42",
"E  c #FF2D45",
"W  c #FF254D",
"Q  c #FF2E4C",
"!  c #FF3048",
"~  c #FF2451",
"^  c #FF2C54",
"/  c #FF2759",
"(  c #FF2C5A",
")  c #FF3053",
"_  c #FF315D",
"`  c #FF2D61",
"'  c #FF3465",
"]  c #FF336A",
"[  c #FF3B6B",
"{  c #FF3C74",
"}  c #FF4575",
"|  c #FF437D",
" . c #FF4B7D",
".. c #FF4380",
"X. c #FF4E84",
"o. c #FF4E8C",
"O. c #FF5083",
"+. c #FF538E",
"@. c #FF5593",
"#. c #FF5B9C",
"$. c #FF5DA2",
"%. c #FF62A4",
"&. c #FF66AC",
"*. c #FF69AB",
"=. c #FF6BB3",
"-. c #FF6FBA",
";. c #FF71BC",
":. c #FF76C3",
">. c #FF79C6",
",. c #FF7CCB",
"<. c #FF80CD",
"1. c #FF83D3",
"2. c #FF87D8",
"3. c #FF8ADD",
"4. c #FF8DE1",
"5. c #FF92E5",
"6. c #FF9CE7",
"7. c #FF95EA",
"8. c #FF9AEA",
"9. c #FFA4EB",
"0. c #FEABEC",
"q. c #FFB3EB",
"w. c #FEBAEC",
"e. c #FFC0EC",
"r. c #FFCEEC",
"t. c #FFCDEC",
"y. c #FFCBEC",
"u. c #FFD0EC",
"i. c #FFD1EC",
"p. c #FFD3EC",
"a. c #FFD8EC",
"s. c #FFD9EC",
"d. c #FFDDEC",
"f. c #FFE6EC",
"g. c #FFE7EC",
"h. c #FFECEC",
"j. c #FFEDEC",
"k. c #FFF0EC",
"l. c #FFF7EC",
"z. c #FFF8EC",
"x. c #FFF9EC",
"c. c #FFFAEC",
"v. c #FFFCEC",
"b. c #FFFEEC",
/* pixels */
"                                                                                                                                ",
"                                                                                                                                ",
"                                                                                                                                ",
"                                                                                                                                ",
"                                                                                                                                ",
"                                                                                                                                ",
"                                                                                                                                ",
"                                                                                                                                ",
"                                                                                                                                ",
"                                                                                                                                ",
"                                                                                                                                ",
"                                                                                                                                ",
"                                                                                                                                ",
"                                                                                                                                ",
"                                                                                                                                ",
"                                                                                                                                ",
"                                                                                                                                ",
"                                                                                                                                ",
"                                                                                                                                ",
"                                                                                                                                ",
"                                                                                                                                ",
"                                                                                                                                ",
"                                                                                                                                ",
"                                                        o 2 - 6 4 ; F K                                                         ",
"                                                    F 2 = 0 w e e q 8 7 1 G                                                     ",
"                                                3 7 8 q w e e t t e e e q 7 , D                                                 ",
"                                              + w e e e e t l B B b k i e e w 4 H                                               ",
"                                            > 8 e y t a a a b / { | | ' z t e q 9 O                                             ",
"                                            * e C ( ' ( B R ^ | &.,.,.*.[ c t e 0 2                                             ",
"                                            7 g } @.@.$.+.o.+.&.2.7.2.&.@.) z e w 4 L                                           ",
"                                          $ w f X.&.&.,.1.,.>.2.9.9.,.#.@.O.Q p e q ,                                           ",
"                                          3 u E  .&.>.3.8.9.w.t.d.t.6.>.;.;.%.Q e w 4 .                                         ",
"                                          4 y ! @.,.3.7.0.y.k.c.v.j.q.2.;.;.;. .r e 0 $                                         ",
"                                          @ w x  .;.5.0.i.f.l.b.v.z.p.9.3.>.&.} p e e 4                                         ",
"                                          : 8 e Z O.<.6.9.q.a.c.v.v.g.w.5.-.| ' N e q &                                         ",
"                                          L 4 e t A X.*.2.4.0.a.k.j.p.0.5.=.] W N e 8 S                                         ",
"                                          U 5 e e j V ^ #.,.4.0.e.w.9.3.,.=.{ R s w 3                                           ",
"                                            < 0 e i k b ( @.>.5.9.7.2.,.;.#...~ t q ,                                           ",
"                                            L 6 w e a v T ` @.;.:.-.#.#.&.o.] A y 7 K                                           ",
"                                              P 7 e e k n B ( [ [ [ ^ ( { | ^ y w *                                             ",
"                                              Y < 8 e e i a k l b b l b ~ ( d w 5                                               ",
"                                                O - q w e e e t i t t i j y e 4                                                 ",
"                                                  X # 6 8 q w e e e w e w e 8 >                                                 ",
"                                                      J P 1 9 6 7 7 7 4 7 7 %                                                   ",
"                                                            I L L L J                                                           ",
"                                                                                                                                ",
"                                                                                                                                ",
"                                                                                                                                ",
"                                                                                                                                ",
"                                                                                                                                ",
"                                                                                                                                ",
"                                                                                                                                ",
"                                                                                                                                ",
"                                                                                                                                ",
"                                                                                                                                ",
"                                                                                                                                ",
"                                                                                                                                ",
"                                                                                                                                ",
"                                                                                                                                ",
"                                                                                                                                ",
"                                                                                                                                ",
"                                                                                                                                ",
"                                                                                                                                ",
"                                                                                                                                "
};
