/* XPM */
static char *ac3c4f71fff846b8b064ac7ed34f71beHEhGQ4hYIYZe3rPn[] = {
/* columns rows colors chars-per-pixel */
"64 64 232 2 ",
"   c None",
".  c #120E7E",
"X  c #0C0D83",
"o  c #0C0D8C",
"O  c #070D8C",
"+  c #130F83",
"@  c #110D8C",
"#  c #121283",
"$  c #1D1482",
"%  c #14118C",
"&  c #1C168C",
"*  c #0C0E94",
"=  c #0D0F9C",
"-  c #060D98",
";  c #130E92",
":  c #110F9B",
">  c #190F94",
",  c #0D1094",
"<  c #0D109F",
"1  c #141495",
"2  c #1C1594",
"3  c #12119C",
"4  c #1C149C",
"5  c #1D199C",
"6  c #181891",
"7  c #0F118B",
"8  c #22178B",
"9  c #231A97",
"0  c #0E0FA4",
"q  c #0E0FA9",
"w  c #150FA5",
"e  c #0E10A3",
"r  c #0E10AE",
"t  c #1311A2",
"y  c #1B13A3",
"u  c #1412AB",
"i  c #1B13AE",
"p  c #1D1BAC",
"a  c #1D1AA3",
"s  c #0D11B3",
"d  c #0E11BB",
"f  c #1311B2",
"g  c #1C13B1",
"h  c #1B1BB4",
"j  c #1212BD",
"k  c #1B17BC",
"l  c #0C0EB2",
"z  c #2B1CA1",
"x  c #281DAA",
"c  c #2417A9",
"v  c #2213B4",
"b  c #2114BC",
"n  c #271AB7",
"m  c #2B22A8",
"M  c #3222A9",
"N  c #2C21B5",
"B  c #3421B4",
"V  c #3323BB",
"C  c #3527BB",
"Z  c #0D11C4",
"A  c #0E11CA",
"S  c #1113C4",
"D  c #1D14C5",
"F  c #1B1AC6",
"G  c #1514CB",
"H  c #1C1BC9",
"J  c #1E16CC",
"K  c #1213D2",
"L  c #1316DC",
"P  c #191AD9",
"I  c #0E13D4",
"U  c #241CC2",
"Y  c #2A1ACD",
"T  c #2818C8",
"R  c #2B1AD5",
"E  c #2718D7",
"W  c #351CDD",
"Q  c #3619DA",
"!  c #2823C5",
"~  c #372ACA",
"^  c #3829D4",
"/  c #2824DB",
"(  c #1115E1",
")  c #1C1DE2",
"_  c #1819E7",
"`  c #1B1BF2",
"'  c #1518FC",
"]  c #1C1CFC",
"[  c #1719F6",
"{  c #0D1CFF",
"}  c #251CEC",
"|  c #2A1BE6",
" . c #361BEB",
".. c #281DFA",
"X. c #361CF8",
"o. c #1E21E2",
"O. c #392CE7",
"+. c #3C31E9",
"@. c #2423FD",
"#. c #2C26FE",
"$. c #2B29FF",
"%. c #2A26F5",
"&. c #3324FE",
"*. c #3B24FF",
"=. c #332BFF",
"-. c #3C2CFF",
";. c #3826F4",
":. c #3C33FE",
">. c #3D3AFF",
",. c #2B22E0",
"<. c #4129C3",
"1. c #472CD8",
"2. c #4A32DC",
"3. c #431FF2",
"4. c #402BE8",
"5. c #4A34EA",
"6. c #4424FE",
"7. c #4A25FE",
"8. c #432CFF",
"9. c #4C2CFF",
"0. c #4428F3",
"q. c #582AFF",
"w. c #4D35F4",
"e. c #4433FF",
"r. c #4B35FF",
"t. c #4A3BFF",
"y. c #4538FF",
"u. c #5335FF",
"i. c #5C33FF",
"p. c #553CFE",
"a. c #5B3CFF",
"s. c #5B3BF5",
"d. c #5331E5",
"f. c #6234FE",
"g. c #6935FF",
"h. c #633DFE",
"j. c #6B3EFF",
"k. c #723CFF",
"l. c #7837FF",
"z. c #622FFF",
"x. c #5343FF",
"c. c #5B44FF",
"v. c #5C4AFF",
"b. c #554AFF",
"n. c #4C42FF",
"m. c #6443FF",
"M. c #6B44FF",
"N. c #634BFF",
"B. c #6B4BFF",
"V. c #7344FF",
"C. c #7B46FF",
"Z. c #734CFF",
"A. c #7C4DFF",
"S. c #6C54FF",
"D. c #6B59FF",
"F. c #7353FF",
"G. c #7D55FF",
"H. c #7D5BFF",
"J. c #765BFF",
"K. c #7D61FF",
"L. c #823FFF",
"P. c #844DFF",
"I. c #8449FF",
"U. c #994DFF",
"Y. c #8454FF",
"T. c #8A55FF",
"R. c #835BFF",
"E. c #8A5DFF",
"W. c #935CFF",
"Q. c #9C5BFF",
"!. c #9755FF",
"~. c #AE5DFF",
"^. c #B65BFF",
"/. c #8361FF",
"(. c #8B65FF",
"). c #8969FF",
"_. c #9C62FF",
"`. c #9969FF",
"'. c #9468FF",
"]. c #997AFF",
"[. c #8C71FF",
"{. c #A365FF",
"}. c #A36BFF",
"|. c #AD6CFF",
" X c #AA67FF",
".X c #B46BFF",
"XX c #B86BFF",
"oX c #AC75FF",
"OX c #A776FF",
"+X c #B174FF",
"@X c #BA74FF",
"#X c #B47CFF",
"$X c #BB7AFF",
"%X c #C27BFF",
"&X c #C675FF",
"*X c #D47DFF",
"=X c #D975FF",
"-X c #CC6BFF",
";X c #AB87FF",
":X c #BB82FF",
">X c #B88AFF",
",X c #CB84FF",
"<X c #CD8BFF",
"1X c #C586FF",
"2X c #D58DFF",
"3X c #DC8AFF",
"4X c #DA84FF",
"5X c #DB94FF",
"6X c #D997FF",
"7X c #E884FF",
"8X c #E297FF",
"9X c #E59BFF",
"0X c #EC9DFF",
"qX c #E996FF",
"wX c #FC9CFF",
"eX c #F69DFF",
"rX c #FF84FF",
"tX c #E9A4FF",
"yX c #E7ABFF",
"uX c #FBA2FF",
"iX c #FBA8FF",
"pX c #FDB3FF",
"aX c #FEBDFF",
"sX c #F7B1FF",
"dX c #FFC5FF",
"fX c #FFCBFF",
"gX c #FFD3FF",
"hX c #FEDCFF",
"jX c #FEE0FF",
"kX c #FFEEFF",
"lX c #FFF4FF",
"zX c #FFFEFF",
/* pixels */
"                                                                                                                                ",
"                                                                                                                                ",
"                                                                                                                                ",
"                                                                                                                                ",
"                                                                                                                                ",
"                                                                                                                                ",
"                                                                                                                                ",
"                                                                                                                                ",
"                                                                                                                                ",
"                                                                                                                                ",
"                                                                                                                                ",
"                                                                                                                                ",
"                                                                                                                                ",
"                                                                                                                                ",
"                                                            X X # .                                                             ",
"                                                    @ @ O , , , 5 = * O o X                                                     ",
"                                              X o O * w v g h h h r 0 0 = * o o                                                 ",
"                                        # # 7 , - 0 q f R H F F H d s s q q = * o X                                             ",
"                                    $ 8 6 1 3 v b l d G | P ) P o.P A G Z d f q 0 * @ #                                         ",
"                                    9 M m p i k Q  .K _ &.#.#.#.@.#.[ _ ( K S j r e 3 o X                                       ",
"                                  8 z C C ! F G P X.[ ] *.e.r.e.e.:.$.$.@.` L K Z k v : o                                       ",
"                                8 8 M <.^ ^ ,.} ] X.X...*.a.a.a.t.t.>.:.:.$.] ` ) W T i : o                                     ",
"                                8 9 C 2.5.;.=.#.@.*.*.7.8.u.r.m.m.v.b.n.b.e.*...6.7.W T i ; X                                   ",
"                                9 B 1.s.h.a.t.-.$.9.=.=.i.h.t.N.Y./.D.(.(.G.h.i.q.6. .Q T 0 ; X                                 ",
"                              # 9 n d.m.M.M.Z.Z.:.u.u.t.C.I.c.S./.}.oX#X`.T.T.k.u.6.6.3.Y g : o                                 ",
"                              % v d.h.Z.Y.Z.c.S.F.B.P.P.P.~.G.H.oX1X:X}.W.Y._.P.l.z.q.7. .b w ; X                               ",
"                            # a C 5.m.T.Q.W.Y.F.`.H.R.{.=X-X XoX2XeX1X_.A.P.!.~.U.I.l.q. .Y g : @                               ",
"                            6 M ~ 5.p.Z.E.E.R.H.%X%X`.}.=XrX7X8XiXiX,XT.~.^.U.Q.!.l.l.f.6.E b w ; .                             ",
"                            2 M 2.s.a.h.A.E.H.E.oX5X9X0X9XuXuXiXdXpX8X*X*X&X.X{.|.(.V.i.q.3.Y v 4 @                             ",
"                          . 9 ~ d.Z.A.Z.G._.|.}.OX:X2XiXpXfXjXjXlXjXaXwX*X&XXX_.'.`.G.a.7.3.Q n 9 @                             ",
"                            2 V d.f.C.Y.`.oX$X#X<X0X5XsXjXzXzXzXzXzXdXwX*X.X_.R.B.S./.m.*. .Y b c 8 8                           ",
"                            ; x 2.a.V.T.W.+X,X%X9XfXgXhXlXzXzXzXzXzXfX0X2X,XoX`.H.D.J.x.&. .E b B M 8                           ",
"                            2 N b O.i.A.Q. X4X3X0XaXsXaXfXlXzXzXzXzXlXfXtX2X4X.XG.N.v.t.&.} E ^ ~ m                             ",
"                            o - f J X.7.M._.,X8X9X2X2XuXsXjXzXzXzXzXkXdXsXiX3X{.W.A.t.v.r.;.w.1.B 8                             ",
"                            o 3 f J X.*.7.i.T.W.$X,X@X=X8XpXhXlXlXlXjXfXpXpX9X(.D.C.k.b.p.e.+.v 4 &                             ",
"                            X * u D | 6.9.i.A.V.U.+X@X&X<X<XyXhXgXfXfXpXeX2X#XR.N.a.g.g.p.r.4.v 4 %                             ",
"                            X , u D E X.6.h.j.z.j.G.}.#X;X].>XaXiXsXyXwX7X}.'.K.F.c.t.8.g.a.W v 4 +                             ",
"                              * w k E X.6.r.7.8.e.p.x.D.[.].>XtXiX6X;X1X3X_.H.S.S.N.p.:.e.+.k y > +                             ",
"                              o * u D | 6.6.*.*.8.>.t.n.v.).#X%XtX5XoX+X}.{.R.S.m.v.b.>.:.O.h 3 >                               ",
"                              X * w s G } *.*.8.9.u.p.n.B.E.{.@X$X4X-XQ.Y.T./.G.N.p.p.n.+.^ p 1 +                               ",
"                                o = q j K } *.$.-.:.u.c.M.P.{.{. XXX!.M.V.I.B.N.B.m.y.t.O.! a 7                                 ",
"                                X * < r j K X.&.$.$.-.e.e.m.M.j.k.V.V.u.>.c.M.b.m.m.y.+.~ p 1 X                                 ",
"                                  o * e s Z | } @.#.$.@.&.-.8.u.8.r.-.f.i.y.h.M.N.t.4.^ N a %                                   ",
"                                    X = 0 l Y | ) ` ' ' ] ..#.] =.#.{ #.9.r.r.a.m.w.~ n 3 %                                     ",
"                                    . o - 0 T Y Z I ( _ [ ] ' ' =...] ] $.8.y.t.w.1.n a @                                       ",
"                                      X o 1 N u s d A K L L ( _ %._ ( ) o.O.4.+.^ V x 6 +                                       ",
"                                          o 9 : e r s d Z Z Z P / G G F F ! ^ ~ C m 2 #                                         ",
"                                            @ ; * = < 0 r r s l k F f f u p p x m 5 #                                           ",
"                                              X X o * * * = = = = t t 3 = 3 6 6 & &                                             ",
"                                                    . X o o o * o O ; o # # #                                                   ",
"                                                                                                                                ",
"                                                                                                                                ",
"                                                                                                                                ",
"                                                                                                                                ",
"                                                                                                                                ",
"                                                                                                                                ",
"                                                                                                                                ",
"                                                                                                                                ",
"                                                                                                                                ",
"                                                                                                                                ",
"                                                                                                                                ",
"                                                                                                                                ",
"                                                                                                                                ",
"                                                                                                                                "
};
