/* XPM */
static char *result[] = {
/* columns rows colors chars-per-pixel */
"64 64 187 2 ",
"   c #FF002F",
".  c #FF0035",
"X  c #FF003C",
"o  c #BD0073",
"O  c #B5007D",
"+  c #DA005D",
"@  c #ED0047",
"#  c #E4004B",
"$  c #FE0043",
"%  c #F4004B",
"&  c #FF004C",
"*  c #F40042",
"=  c #E10056",
"-  c #EA0057",
";  c #E7005F",
":  c #ED005D",
">  c #F20054",
",  c #FF0054",
"<  c #F70059",
"1  c #FF005C",
"2  c #C90060",
"3  c #C5006E",
"4  c #D30060",
"5  c #D3006B",
"6  c #DA006D",
"7  c #DC0062",
"8  c #C60074",
"9  c #CD0077",
"0  c #C4007C",
"q  c #CD007B",
"w  c #D10074",
"e  c #D5007C",
"r  c #EA0064",
"t  c #E70069",
"y  c #EC006B",
"u  c #F30063",
"i  c #FF0063",
"p  c #F50068",
"a  c #FE006B",
"s  c #E50074",
"d  c #EB0074",
"f  c #E4007D",
"g  c #EA007B",
"h  c #FF0074",
"j  c #F0007C",
"k  c #FF007C",
"l  c #370083",
"z  c #3A0085",
"x  c #420087",
"c  c #480086",
"v  c #450089",
"b  c #4B008E",
"n  c #53008B",
"m  c #5B008C",
"M  c #550086",
"N  c #6C008E",
"B  c #62008C",
"V  c #630091",
"C  c #690094",
"Z  c #720095",
"A  c #7C0094",
"S  c #7A0098",
"D  c #72009B",
"F  c #7A00A1",
"G  c #8D008E",
"H  c #840095",
"J  c #8C0094",
"K  c #82009C",
"L  c #8C009A",
"P  c #940096",
"I  c #90009D",
"U  c #9B009B",
"Y  c #AC0089",
"T  c #BF0080",
"R  c #BD008C",
"E  c #B40086",
"W  c #A70091",
"Q  c #A6009D",
"!  c #A9009D",
"~  c #B90095",
"^  c #B20098",
"/  c #9400A0",
"(  c #9900A2",
")  c #A600A3",
"_  c #AF00A2",
"`  c #BC00A2",
"'  c #B900A9",
"]  c #B400A6",
"[  c #C30084",
"{  c #C80082",
"}  c #C4008C",
"|  c #CB008E",
" . c #D70080",
".. c #DC0085",
"X. c #D2008B",
"o. c #DD008C",
"O. c #C50097",
"+. c #CC0095",
"@. c #C5009A",
"#. c #CC009D",
"$. c #D40095",
"%. c #DA0096",
"&. c #D2009B",
"*. c #E30083",
"=. c #EB0084",
"-. c #E5008A",
";. c #E90089",
":. c #F60080",
">. c #FF0083",
",. c #F0008C",
"<. c #FF008C",
"1. c #E20094",
"2. c #E3009B",
"3. c #FF0093",
"4. c #FF009C",
"5. c #C500A5",
"6. c #CA00A3",
"7. c #C300A9",
"8. c #DA00AF",
"9. c #FF00A4",
"0. c #FF00AB",
"q. c #FF00B3",
"w. c #FF01BB",
"e. c #FF00C3",
"r. c #FF0CC5",
"t. c #FF01CB",
"y. c #FF0CCB",
"u. c #FF01D4",
"i. c #FF0ED5",
"p. c #FF01DB",
"a. c #FF0BDB",
"s. c #FF13D3",
"d. c #FF1AD6",
"f. c #FF13DC",
"g. c #FF23D0",
"h. c #FF27DB",
"j. c #FF2ADC",
"k. c #FF35DB",
"l. c #FF3CDC",
"z. c #FF03E3",
"x. c #FF0AE5",
"c. c #FF04EA",
"v. c #FF0DEA",
"b. c #FF13E4",
"n. c #FF14EC",
"m. c #FF1EEB",
"M. c #FF1EE5",
"N. c #FF23E3",
"B. c #FF2CE4",
"V. c #FF23EC",
"C. c #FF2AEB",
"Z. c #FF3BE5",
"A. c #FF34EB",
"S. c #FF3BEB",
"D. c #FF35E5",
"F. c #FF45DE",
"G. c #FF44E4",
"H. c #FF4CE5",
"J. c #FF44EC",
"K. c #FF4CEB",
"L. c #FF52E3",
"P. c #FF5AE6",
"I. c #FF55EB",
"U. c #FF5CEB",
"Y. c #FF63EB",
"T. c #FF6CEC",
"R. c #FF73EC",
"E. c #FF7BEC",
"W. c #FF83EC",
"Q. c #FF8CEC",
"!. c #EE99EC",
"~. c #FF93EC",
"^. c #FF9BEC",
"/. c #F497EC",
"(. c #FFA4EC",
"). c #FFABEC",
"_. c #FFB4EC",
"`. c #FFBBEC",
"'. c #FFC5EC",
"]. c #FFCDEC",
"[. c #FFD5EC",
"{. c #FFDAEC",
"}. c #FFE3EC",
"|. c #FFEAEC",
" X c #FFF4EC",
".X c #FFFEEC",
"XX c None",
/* pixels */
"XXXXXXXXXXXXXXXXXXXXXXXXXXXXXXXXXXXXXXXXXXXXXXXXXXXXXXXXXXXXXXXXXXXXXXXXXXXXXXXXXXXXXXXXXXXXXXXXXXXXXXXXXXXXXXXXXXXXXXXXXXXXXXXX",
"XXXXXXXXXXXXXXXXXXXXXXXXXXXXXXXXXXXXXXXXXXXXXXXXXXXXXXXXXXXXXXXXXXXXXXXXXXXXXXXXXXXXXXXXXXXXXXXXXXXXXXXXXXXXXXXXXXXXXXXXXXXXXXXX",
"XXXXXXXXXXXXXXXXXXXXXXXXXXXXXXXXXXXXXXXXXXXXXXXXXXXXXXXXXXXXXXXXXXXXXXXXXXXXXXXXXXXXXXXXXXXXXXXXXXXXXXXXXXXXXXXXXXXXXXXXXXXXXXXX",
"XXXXXXXXXXXXXXXXXXXXXXXXXXXXXXXXXXXXXXXXXXXXXXXXXXXXXXXXXXXXXXXXXXXXXXXXXXXXXXXXXXXXXXXXXXXXXXXXXXXXXXXXXXXXXXXXXXXXXXXXXXXXXXXX",
"XXXXXXXXXXXXXXXXXXXXXXXXXXXXXXXXXXXXXXXXXXXXXXXXXXXXXXXXXXXXXXXXXXXXXXXXXXXXXXXXXXXXXXXXXXXXXXXXXXXXXXXXXXXXXXXXXXXXXXXXXXXXXXXX",
"XXXXXXXXXXXXXXXXXXXXXXXXXXXXXXXXXXXXXXXXXXXXXXXXXXXXXXXXXXXXXXXXXXXXXXXXXXXXXXXXXXXXXXXXXXXXXXXXXXXXXXXXXXXXXXXXXXXXXXXXXXXXXXXX",
"XXXXXXXXXXXXXXXXXXXXXXXXXXXXXXXXXXXXXXXXXXXXXXXXXXXXXXXXXXXXXXXXXXXXXXXXXXXXXXXXXXXXXXXXXXXXXXXXXXXXXXXXXXXXXXXXXXXXXXXXXXXXXXXX",
"XXXXXXXXXXXXXXXXXXXXXXXXXXXXXXXXXXXXXXXXXXXXXXXXXXXXXXXXXXXXXXXXXXXXXXXXXXXXXXXXXXXXXXXXXXXXXXXXXXXXXXXXXXXXXXXXXXXXXXXXXXXXXXXX",
"XXXXXXXXXXXXXXXXXXXXXXXXXXXXXXXXXXXXXXXXXXXXXXXXXXXXXXXXXXXXXXXXXXXXXXXXXXXXXXXXXXXXXXXXXXXXXXXXXXXXXXXXXXXXXXXXXXXXXXXXXXXXXXXX",
"XXXXXXXXXXXXXXXXXXXXXXXXXXXXXXXXXXXXXXXXXXXXXXXXXXXXXXXXXXXXXXXXXXXXXXXXXXXXXXXXXXXXXXXXXXXXXXXXXXXXXXXXXXXXXXXXXXXXXXXXXXXXXXXX",
"XXXXXXXXXXXXXXXXXXXXXXXXXXXXXXXXXXXXXXXXXXXXXXXXXXXXXXXXXXXXXXXXXXXXXXXXXXXXXXXXXXXXXXXXXXXXXXXXXXXXXXXXXXXXXXXXXXXXXXXXXXXXXXXX",
"XXXXXXXXXXXXXXXXXXXXXXXXXXXXXXXXXXXXXXXXXXXXXXXXXXXXXXXXXXXXXXXXXXXXXXXXXXXXXXXXXXXXXXXXXXXXXXXXXXXXXXXXXXXXXXXXXXXXXXXXXXXXXXXX",
"XXXXXXXXXXXXXXXXXXXXXXXXXXXXXXXXXXXXXXXXXXXXXXXXXXXXXXXXXXXXXXXXXXXXXXXXXXXXXXXXXXXXXXXXXXXXXXXXXXXXXXXXXXXXXXXXXXXXXXXXXXXXXXXX",
"XXXXXXXXXXXXXXXXXXXXXXXXXXXXXXXXXXXXXXXXXXXXXXXXXXXXXXXXXXXXXXXXXXXXXXXXXXXXXXXXXXXXXXXXXXXXXXXXXXXXXXXXXXXXXXXXXXXXXXXXXXXXXXXX",
"XXXXXXXXXXXXXXXXXXXXXXXXXXXXXXXXXXXXXXXXXXXXXXXXXXXXXXXXXXXXl x m l XXXXXXXXXXXXXXXXXXXXXXXXXXXXXXXXXXXXXXXXXXXXXXXXXXXXXXXXXXXX",
"XXXXXXXXXXXXXXXXXXXXXXXXXXXXXXXXXXXXXXXXXXXXXXXXXXXXH I b ) _ I 6 ` S Z V v XXXXXXXXXXXXXXXXXXXXXXXXXXXXXXXXXXXXXXXXXXXXXXXXXXXX",
"XXXXXXXXXXXXXXXXXXXXXXXXXXXXXXXXXXXXXXXXXXXXXXn Z S )  .y u 1 i 1 ..6.6.' I D n XXXXXXXXXXXXXXXXXXXXXXXXXXXXXXXXXXXXXXXXXXXXXXXX",
"XXXXXXXXXXXXXXXXXXXXXXXXXXXXXXXXXXXXXXXXJ H L I D #.&.g & , 1 1 , k =.-.-.$.5.) S v XXXXXXXXXXXXXXXXXXXXXXXXXXXXXXXXXXXXXXXXXXXX",
"XXXXXXXXXXXXXXXXXXXXXXXXXXXXXXXXXXXXW o 0 { @.u p 2.,.a k k >.k k h h h k k -.%.5.K H C XXXXXXXXXXXXXXXXXXXXXXXXXXXXXXXXXXXXXXXX",
"XXXXXXXXXXXXXXXXXXXXXXXXXXXXXXXXXXXX2 @ @ r t h 1 >.a >.w.u.u.p.t.u.9.4.k h h :.-.$.| S l XXXXXXXXXXXXXXXXXXXXXXXXXXXXXXXXXXXXXX",
"XXXXXXXXXXXXXXXXXXXXXXXXXXXXXXXXXXO # . X & , 1 a 4.0.w.u.x.n.x.n.v.c.c.u.9.>.i h i u @.L XXXXXXXXXXXXXXXXXXXXXXXXXXXXXXXXXXXXXX",
"XXXXXXXXXXXXXXXXXXXXXXXXXXXXXXXXG 3 * X , i h <.0.w.w.e.t.b.C.V.n.m.n.n.v.z.q.4.k a & g | C XXXXXXXXXXXXXXXXXXXXXXXXXXXXXXXXXXXX",
"XXXXXXXXXXXXXXXXXXXXXXXXXXXXXXXXE = X i 9.0.e.p.z.e.t.w.u.b.n.J.S.K.J.S.I.n.u.e.t.0.i , t ] n XXXXXXXXXXXXXXXXXXXXXXXXXXXXXXXXXX",
"XXXXXXXXXXXXXXXXXXXXXXXXXXXXXXXX8 $ $ r.V.V.n.x.c.t.z.c.f.B.V.K.T.E.R.W.W.U.N.i.y.w.<.i 1 +.I n XXXXXXXXXXXXXXXXXXXXXXXXXXXXXXXX",
"XXXXXXXXXXXXXXXXXXXXXXXXXXXXXXZ 5 $ >.Z.G.G.P.U.v.a.n.m.l.l.J.T.E.Q.~.~.E.Y.I.j.a.e.w.>., g @.S XXXXXXXXXXXXXXXXXXXXXXXXXXXXXXXX",
"XXXXXXXXXXXXXXXXXXXXXXXXXXXXXX~ & i d.U.P.H.S.Y.T.I.F.L.U.H.Y.W.W.^.~.E.Y.U.T.L.g.y.e.w.a i X.) n XXXXXXXXXXXXXXXXXXXXXXXXXXXXXX",
"XXXXXXXXXXXXXXXXXXXXXXXXXXXXA 7 . 4.Z.U.T.U.Y.U.W.E.R.T.Y.Y.R.Q.^.).~.R.P.L.I.G.l.g.r.w.<., d @.A XXXXXXXXXXXXXXXXXXXXXXXXXXXXXX",
"XXXXXXXXXXXXXXXXXXXXXXXXXXXXE $ $ 3.C.L.T.R.R.R.~.~.W.W.R.W.Q.^._.`.~.T.H.H.k.I.P.g.s.y.0.i 1 e ! m XXXXXXXXXXXXXXXXXXXXXXXXXXXX",
"XXXXXXXXXXXXXXXXXXXXXXXXXXXX[ $ i s.M.B.P.R.R.E.Q.^.).^.).).).`.}.].^.Q.W.W.T.E.E.R.G.i.e.k & r } H XXXXXXXXXXXXXXXXXXXXXXXXXXXX",
"XXXXXXXXXXXXXXXXXXXXXXXXXXM +   <.G.L.H.Y.R.E.Q.~.~.^._.]. X.X.X.X.X{.).~.R.R.E.W.W.T.M.t.3., , w Q XXXXXXXXXXXXXXXXXXXXXXXXXXXX",
"XXXXXXXXXXXXXXXXXXXXXXXXXXXX0 $ i s.F.U.W.Q.~.~.^.(.(.]..X.X.X.X.X.X}.(.W.T.R.Y.U.T.W.J.t.3., 1 6 T Y XXXXXXXXXXXXXXXXXXXXXXXXXX",
"XXXXXXXXXXXXXXXXXXXXXXXXXXXX! > i b.k.P.T.Q.~.~.(.|. X.X.X.X.X.X.X.X|.).^.^.Q.Q.E.R.E.C.u.3.1 1 $ * o XXXXXXXXXXXXXXXXXXXXXXXXXX",
"XXXXXXXXXXXXXXXXXXXXXXXXXXXX5 $ , a b.l.U.R.^.^.).{.].{.|..X.X.X.X.X.X X_.^.Q.E.T.I.K.m.p.3.1 , . = XXXXXXXXXXXXXXXXXXXXXXXXXXXX",
"XXXXXXXXXXXXXXXXXXXXXXXXXXXXV F =.1 4.t.k.T.~.(.(.^.^.).'..X.X.X.X.X.X}.'._.~.R.T.F.m.K.n.w.w.i X 8 XXXXXXXXXXXXXXXXXXXXXXXXXXXX",
"XXXXXXXXXXXXXXXXXXXXXXXXXXXXm #.g 1 3.e.t.f.Y.Y.Q.~.E.R.(.'..X.X.X.X.X|.[.'.).E.T.H.j.J.C.v.3.u q ^ XXXXXXXXXXXXXXXXXXXXXXXXXXXX",
"XXXXXXXXXXXXXXXXXXXXXXXXXXXXn ' ..i >.e.e.i.L.k.l.Q.Q.Q.^.^._..X X|.|.'.(.^.~.E.U.C.y.s.m.b.h y w J XXXXXXXXXXXXXXXXXXXXXXXXXXXX",
"XXXXXXXXXXXXXXXXXXXXXXXXXXXXv ) ..i h q.e.N.h.y.j.Y.E.~./.Q./.[._.'.'.).W.Q.W.E.T.S.n.x.s.y.i t [ H XXXXXXXXXXXXXXXXXXXXXXXXXXXX",
"XXXXXXXXXXXXXXXXXXXXXXXXXXXXXXK X.p 1 3.t.i.w.p.v.V.K.E.Q.~.^.`._.^.!.^.^.T.R.T.T.I.A.v.n.4.a e ~ m XXXXXXXXXXXXXXXXXXXXXXXXXXXX",
"XXXXXXXXXXXXXXXXXXXXXXXXXXXXXXV 5.*.i k e.e.t.u.x.v.C.J.I.W.~.~.).^.Q.Q.W.E.E.U.K.J.J.m.z.k 1 | ! XXXXXXXXXXXXXXXXXXXXXXXXXXXXXX",
"XXXXXXXXXXXXXXXXXXXXXXXXXXXXXXv L $.j a 3.e.t.u.p.b.C.V.I.T.R.Q.~.^.U.Y.P.P.W.T.K.C.A.C.9.1 < ` B XXXXXXXXXXXXXXXXXXXXXXXXXXXXXX",
"XXXXXXXXXXXXXXXXXXXXXXXXXXXXXXXXC ] o.h h 3.t.z.z.x.n.B.D.U.R.Y.U.U.H.K.H.F.U.I.K.S.n.m.h $ ; H XXXXXXXXXXXXXXXXXXXXXXXXXXXXXXXX",
"XXXXXXXXXXXXXXXXXXXXXXXXXXXXXXXXx S 7.-.k a 9.u.c.c.x.v.v.S.K.B.h.H.l.b.V.A.J.J.S.S.n.4.& < 9 m XXXXXXXXXXXXXXXXXXXXXXXXXXXXXXXX",
"XXXXXXXXXXXXXXXXXXXXXXXXXXXXXXXXXXm ( #.-.>.h 4.u.z.z.u.p.p.a.a.z.m.z.y.s.n.B.D.K.C.4.& & 6 U XXXXXXXXXXXXXXXXXXXXXXXXXXXXXXXXXX",
"XXXXXXXXXXXXXXXXXXXXXXXXXXXXXXXXXXXXV ) &.1., h <.9.w.e.t.u.t.p.x.p.t.p.u.x.n.C.A.w.& , e U XXXXXXXXXXXXXXXXXXXXXXXXXXXXXXXXXXXX",
"XXXXXXXXXXXXXXXXXXXXXXXXXXXXXXXXXXXXl C ) +.& & >.h >.4.0.w.w.w.z.t.w.t.t.p.n.n.w.i $ 6 ) XXXXXXXXXXXXXXXXXXXXXXXXXXXXXXXXXXXXXX",
"XXXXXXXXXXXXXXXXXXXXXXXXXXXXXXXXXXXXXXz b } & f 1.k k h h k <.3.q.3.>.>.>.3.9.h , X - R c XXXXXXXXXXXXXXXXXXXXXXXXXXXXXXXXXXXXXX",
"XXXXXXXXXXXXXXXXXXXXXXXXXXXXXXXXXXXXXXXXXXH 5 +.6.%.-.:.k h >.1 a i a i , & , X . > 8 N XXXXXXXXXXXXXXXXXXXXXXXXXXXXXXXXXXXXXXXX",
"XXXXXXXXXXXXXXXXXXXXXXXXXXXXXXXXXXXXXXXXXXXXP L I ' 5.$.%.1.=.8.i , =.g t t : % % 4 P XXXXXXXXXXXXXXXXXXXXXXXXXXXXXXXXXXXXXXXXXX",
"XXXXXXXXXXXXXXXXXXXXXXXXXXXXXXXXXXXXXXXXXXXXXXc n C S ( ] 7.5.5.6.e | +.O.} [ 0 8 O XXXXXXXXXXXXXXXXXXXXXXXXXXXXXXXXXXXXXXXXXXXX",
"XXXXXXXXXXXXXXXXXXXXXXXXXXXXXXXXXXXXXXXXXXXXXXXXXXXXl v V C C S Z b L A C C N XXXXXXXXXXXXXXXXXXXXXXXXXXXXXXXXXXXXXXXXXXXXXXXXXX",
"XXXXXXXXXXXXXXXXXXXXXXXXXXXXXXXXXXXXXXXXXXXXXXXXXXXXXXXXXXXXXXXXXXXXXXXXXXXXXXXXXXXXXXXXXXXXXXXXXXXXXXXXXXXXXXXXXXXXXXXXXXXXXXXX",
"XXXXXXXXXXXXXXXXXXXXXXXXXXXXXXXXXXXXXXXXXXXXXXXXXXXXXXXXXXXXXXXXXXXXXXXXXXXXXXXXXXXXXXXXXXXXXXXXXXXXXXXXXXXXXXXXXXXXXXXXXXXXXXXX",
"XXXXXXXXXXXXXXXXXXXXXXXXXXXXXXXXXXXXXXXXXXXXXXXXXXXXXXXXXXXXXXXXXXXXXXXXXXXXXXXXXXXXXXXXXXXXXXXXXXXXXXXXXXXXXXXXXXXXXXXXXXXXXXXX",
"XXXXXXXXXXXXXXXXXXXXXXXXXXXXXXXXXXXXXXXXXXXXXXXXXXXXXXXXXXXXXXXXXXXXXXXXXXXXXXXXXXXXXXXXXXXXXXXXXXXXXXXXXXXXXXXXXXXXXXXXXXXXXXXX",
"XXXXXXXXXXXXXXXXXXXXXXXXXXXXXXXXXXXXXXXXXXXXXXXXXXXXXXXXXXXXXXXXXXXXXXXXXXXXXXXXXXXXXXXXXXXXXXXXXXXXXXXXXXXXXXXXXXXXXXXXXXXXXXXX",
"XXXXXXXXXXXXXXXXXXXXXXXXXXXXXXXXXXXXXXXXXXXXXXXXXXXXXXXXXXXXXXXXXXXXXXXXXXXXXXXXXXXXXXXXXXXXXXXXXXXXXXXXXXXXXXXXXXXXXXXXXXXXXXXX",
"XXXXXXXXXXXXXXXXXXXXXXXXXXXXXXXXXXXXXXXXXXXXXXXXXXXXXXXXXXXXXXXXXXXXXXXXXXXXXXXXXXXXXXXXXXXXXXXXXXXXXXXXXXXXXXXXXXXXXXXXXXXXXXXX",
"XXXXXXXXXXXXXXXXXXXXXXXXXXXXXXXXXXXXXXXXXXXXXXXXXXXXXXXXXXXXXXXXXXXXXXXXXXXXXXXXXXXXXXXXXXXXXXXXXXXXXXXXXXXXXXXXXXXXXXXXXXXXXXXX",
"XXXXXXXXXXXXXXXXXXXXXXXXXXXXXXXXXXXXXXXXXXXXXXXXXXXXXXXXXXXXXXXXXXXXXXXXXXXXXXXXXXXXXXXXXXXXXXXXXXXXXXXXXXXXXXXXXXXXXXXXXXXXXXXX",
"XXXXXXXXXXXXXXXXXXXXXXXXXXXXXXXXXXXXXXXXXXXXXXXXXXXXXXXXXXXXXXXXXXXXXXXXXXXXXXXXXXXXXXXXXXXXXXXXXXXXXXXXXXXXXXXXXXXXXXXXXXXXXXXX",
"XXXXXXXXXXXXXXXXXXXXXXXXXXXXXXXXXXXXXXXXXXXXXXXXXXXXXXXXXXXXXXXXXXXXXXXXXXXXXXXXXXXXXXXXXXXXXXXXXXXXXXXXXXXXXXXXXXXXXXXXXXXXXXXX",
"XXXXXXXXXXXXXXXXXXXXXXXXXXXXXXXXXXXXXXXXXXXXXXXXXXXXXXXXXXXXXXXXXXXXXXXXXXXXXXXXXXXXXXXXXXXXXXXXXXXXXXXXXXXXXXXXXXXXXXXXXXXXXXXX",
"XXXXXXXXXXXXXXXXXXXXXXXXXXXXXXXXXXXXXXXXXXXXXXXXXXXXXXXXXXXXXXXXXXXXXXXXXXXXXXXXXXXXXXXXXXXXXXXXXXXXXXXXXXXXXXXXXXXXXXXXXXXXXXXX",
"XXXXXXXXXXXXXXXXXXXXXXXXXXXXXXXXXXXXXXXXXXXXXXXXXXXXXXXXXXXXXXXXXXXXXXXXXXXXXXXXXXXXXXXXXXXXXXXXXXXXXXXXXXXXXXXXXXXXXXXXXXXXXXXX"
};
