/* XPM */
static char *_eb7102bfd884e49cfe176d1d821524eAXcloW2ubUxKLUfG[] = {
/* columns rows colors chars-per-pixel */
"57 64 80 1 ",
"  c #4B4A4B",
". c #504F50",
"X c #545455",
"o c #575758",
"O c #585758",
"+ c #5C5C5D",
"@ c #5F5F60",
"# c #605F60",
"$ c #646364",
"% c #676768",
"& c #686768",
"* c #6C6B6C",
"= c #6F6F70",
"- c #706F70",
"; c #737374",
": c #777778",
"> c #787778",
", c #7B7B7C",
"< c #7F7F80",
"1 c #807F80",
"2 c #848384",
"3 c #888787",
"4 c #888788",
"5 c #8A8A8A",
"6 c #8D8C8D",
"7 c #8F8E8F",
"8 c gray56",
"9 c #919192",
"0 c #929292",
"q c #939394",
"w c #949394",
"e c #959495",
"r c #969596",
"t c gray59",
"y c #989798",
"u c #999899",
"i c #9A9A9A",
"p c #9B9A9B",
"a c gray61",
"s c gray62",
"d c #9F9F9F",
"f c #A0A0A0",
"g c #A4A3A4",
"h c #AAA9AA",
"j c gray80",
"k c #CDCDCD",
"l c gray81",
"z c #D0CFD0",
"x c #D1D0D1",
"c c gray83",
"v c #D5D5D5",
"b c #D7D7D7",
"n c #D7D7D8",
"m c #D8D7D8",
"M c #D8D8D8",
"N c #DADADA",
"B c #DBDBDB",
"V c gainsboro",
"C c gray87",
"Z c #DFDEDF",
"A c #DFDFDF",
"S c #E1E1E0",
"D c gray89",
"F c #E3E4E3",
"G c #E4E4E4",
"H c gray90",
"J c gray91",
"K c gray92",
"L c #ECECEC",
"P c #EFEFEF",
"I c #EFF0EF",
"U c gray94",
"Y c #F1F0F1",
"T c #F3F3F3",
"R c #F4F4F4",
"E c gray97",
"W c #F8F8F8",
"Q c gray98",
"! c #FBFBFB",
"~ c white",
/* pixels */
"NU~CK~GD~LC~!k>*22222,21,1,1,:,,,<,12122**v~LN~RN!~NR~CK~",
"LURLLRLLUULLRC>*=****=;;;--;-*=;-;;;--*-*;CELLULLUUKUULLU",
"~LN~Rv!~NU~NUU>$@o+OXooO@+###$#$$&&$#X+$$>DDL~CK~GD~KN~RN",
"GL~GK~KG~LG!!v,$$$$$$%**%***=***;;;;*#$&*:v~LG!RDRRDU~GL~",
"DU!GK~KG~LGRRN,$*##$*;:**=-;;;=;;--;*+$&*:v~LD!RDRRDU~GL~",
"~LN~Rv!~nU~NUU>$*@$#X++O++@##$#$$$$$*#$&&>GDL~CK~GD~KN~Rv",
"LURKLRLLRLKURC,*&$$O XX++#++@$#$$$@O$$$*-:N!LLUUKUUKLRLLR",
"CL~DK~GG~LC~!z,**$$+$**;--;;;:>::;-*$$@;>-v~LC~RN!~NU~CL~",
"~UN~RNR~CU~CLU2**$$+***;;:;;;:>>:;;*%$$;;:GGL~DK~GD~LC~RC",
"RLKUULURLUUKUG2**$&@*;;;:>;:::;;;;;;*$$**>ZULRKLRLLUULUUK",
"NU~CK~GC~LN~!k2-***+O$$$$$$&*&*****%*%%*;>v~LN~Rv~~NR~NK~",
"~LD!RDR!DU~DUK2;-$*+X++$#$$$$$$&%$%$*&*-*>DKL~GK!KG~LD!RD",
"~UD!RGRRDU!DUK2;***$O$$$$**=;--*--*****;;2DKL~GL~KG!UG!UD",
"vU~CG~GD~LN~!k3:***$XO+++#$$$&*****$*&*:>,v~KN~Rv!~vU~NK~",
"RLKUULUUKURKRG2>***;59999ttwtyiyyiit>%*>>2DUKRLLRLLRUKUUK",
"~LC~UN~!CU~CUU2;;**-2656666699wwttt6>*=>13DGL~DK~GD~LC~RN",
"CU~DG~GG~LC~!k5:****&-**=;:>,,,1,11;=**,22v~LC~RN!~NU~CL~",
"KURKLRLLRULURC2:*=-&*;;:;::>,211111>=*;:22CRLKRLLUUKURLLR",
"~LN~Rv!~vU~NLR2:*-;&*;;;;;:>,,,,11<>==;,25GDL~CK~GD~LN~RN",
"DU~GL~KG~LDR!v2;**;&#*$&&$*=;;:;;>;****>,2N~LG!RDRRDU!GL!",
"DU~GL~GG~KG!!v1-===$+&$*$**=;;;;;;;&*;*::,B~LG!UDRRDU~GL~",
"~LN~!v!~NR~NLR,-=;=$&***===;>>>>>,>-*-;>;,DDL~CK~DD~KN~Rv",
"KUULLRLLULLURC2-*;;@X+oOO+++$$&****#*;*>>1C!LLUUKUUKLRLLR",
"CU~DK~GD~KC~!x2>*=*&,422245555668865>-*:,2v~LC~RN!~NU~DK~",
"~UC~RN!~NU~CUU5>*;**599999wqttitpppt,*=>23GGL~DK~GD~LC~RC",
"UUKUUKUULUUKUD3;*=;$ ..XO++$+$$$$$#O&*=,22DULRLLRLLUULUUK",
"NU~CK~DC~LC~~j3;**;$+$$$$&&$$******&*=-,22v~LN~Rv~~NR~NK~",
"!LD!UDR!DU!DUL2:**;$O@$$$&$%$***&&*&*=->,2DKU~GL!KG~LD!RD",
"~LD!UDR!DU!DUL2:=**&O$$$&$$$$$$$$$$+&==,>2GKL!GK~KD~LG!UD",
"NU~CG~GC~LN~!k2;;*=&O$$$$$$$$**;&&&+***>,,v~LN~!v!~vR~NL~",
"ULLUUKUUKURKUG2;*=;$$****;******=**&**=>;,DULRLLRLKRLLRUK",
"~UC~!N!~NU~CUU2;*$*+ XoO+$+o$$++#+#+&**>;,GGL~CK~GD~LC~RN",
"CU~DK~GD~LC~!x2**26295,,1,11,2222122;&-;=:v~LC~RC!~NU~CL~",
"LULKLRLKRLKURA,*=<&=istssffffssffssp>$*=*:N!LKUUKUUKURLLR",
"~LN~Rv!~vU~NIU,*=$@++$**-;:>>,,,,,,>=&&=*>GDL~CK~GD~LN~RN",
"DU~GL~KK~UGR!v,&**&+**=:-:>>,,,,111>*$&**:v~LG!UDRRDU!GL~",
"DU~GK~GG!LG!~v:&*$%+$-***;;:>>12222>*$$**:n~KD~UDRRDU!GL!",
"~LN~!v!~NU~NUU:$$$$+*=-=;;;;::,,,,>;&$$&$:GDL~CL~GD~LN~Rv",
"KUULLRLLRLKUUC,$$$$+$&%&***;::::::;*$$$&*:N!LLUUKUUKURLLR",
"CU~DK~GD~LC~~x,$*$$+@*$*$&***=;;;;;*$$$&*>v~LC~RN!~NU~DK~",
"~LC~RN!!NU~CUU>$*@$O+$@$$$$***==*;;$$#$&$>DGL~GK~GD~LC~RC",
"RULUUKUUKURKUG>$%@$+&;===;;;::>,>,>:&+$&$;CULUKLRLLUULULK",
"NU~CG~GD~LN~~k,$$#+*sgsdggfffgggghhf:O$$$*v~KN~!v~~NR~CK~",
"!LG!RDR!GL!DLL:$$+$O+$$$$$***;;;:;;*$+$&$;DKK~DK!KG~LD!RD",
"~LD!RDR!DU!DUK>$$@$OO@+@+$$$*****;=&$#$$$,DKK!GK~KG!LG!UD",
"NU~CG~DC~LN~!k,$*@$+O$$%$****=;=;;:*&+$&$:v~KN~Rv!~vR~NK~",
"UUKUULURKUULRG>%*@$O+$$$$***;;;;;;;*&$$&*,AULRLKRLLRLLRPK",
"~UC~RNR~CU~CUU,$&$$+$*$****;;::::;;*$$$$$:DGL~GK~GD~LC~RN",
"CU~DK~GG~LC~Rx>&*$$+$&&*%%*=;;;;;;:*%@$%*;v~LC~RN!~NU~DK~",
"KLRKLRLLRUKURC>**@$Oo$@$$@$&*****;*$$+$%*:N!LKRLLUUKURKLR",
"~LN~Rv!~NU~NUU,*&@$+&====;;;::,>,,>:*+$*$>GDL~CK~GD~LN~RN",
"GL~GK~KG!LG!!v<%$@+*sgffggggghhhhhhg:o$&*:v~LG!RDRRDU!GL!",
"DU!GK~KG~LD!Rm2*$@$O+$$$$%%**=;;:;;*$+$$*:m~LG!UDRRDU~GL~",
"~LN~Rv!~NU~NLR2*$+$OO$+$@$%&**===;**$+$&*,GDL~CK~GD~KN~Rv",
"LURKLRLLUUKURC2;***$O$$$$%***==;;:;**$*;;:N~LKRUKUUKLRLLR",
"CL~DK~GG~LN~!x2;***$o@#+@#$$&****;*$***::,v~LC~RN!~NU~DK~",
"~LC~RN!~NU~CUU2:=*=&#&&$$***--;;::;***=>:2GDL~DK~GD~LC~UC",
"RLKUUKURLUUKUG2>=*=&$*&***;;;:::;::****212DULRLLRLLULKRUK",
"NU~CK~GC~LN~!k5:*==&+&$$$$&*-;;-;;;****,22v~LN~Rv~~NR~NK~",
"~LD!UDR!DU~DLL3;**;$+$&&&$$***=-*;=$*-;,,2DKL~GK!KG~LG~UD",
"~UD!UDRRDU!GUK3:=*;*$*=****-***;;;;;;**,24GKL~GL~KG!LG!UD",
"NL~CK~GD~LN~~k3;***=&==****;-;;*;**-;*-,42v~LN~Rv!~NR~CK~",
"RUKUULUULUULRG2-***&+$$$$$&******-*=***;>2DULRLLRLKULLUUK",
"~LN~RN!~NU~NUR,-*&*$+#+$$$$$$*%$***;**%;;2GDL~CK~GD~LC~RN"
};
