/* XPM */
static char *_908baea77c64721a06022b2131b5d55fAxMsfZHlDMSfvNB[] = {
/* columns rows colors chars-per-pixel */
"64 64 239 2 ",
"   c #0A090A",
".  c #180100",
"X  c #220000",
"o  c #341A00",
"O  c #302A2A",
"+  c #412F16",
"@  c #534837",
"#  c #3D3B4C",
"$  c #3D4145",
"%  c #3F4348",
"&  c #3E4252",
"*  c #41454C",
"=  c #47494E",
"-  c #474A54",
";  c #524E5A",
":  c #4C5255",
">  c #4E545B",
",  c #595556",
"<  c #53555A",
"1  c #535A5D",
"2  c #5B5A5A",
"3  c #645D5B",
"4  c #6A635B",
"5  c #505567",
"6  c #565C61",
"7  c #5A5E63",
"8  c #5B5C6A",
"9  c #625F66",
"0  c #73536B",
"q  c #5C6265",
"w  c #5E6469",
"e  c #576277",
"r  c #5C6273",
"t  c #696565",
"y  c #6A6564",
"u  c #61666A",
"i  c #64696D",
"p  c #6D6A6A",
"a  c #766B6A",
"s  c #736C6C",
"d  c #74706E",
"f  c #636572",
"g  c #666B72",
"h  c #6A6D73",
"j  c #646778",
"k  c #656A7A",
"l  c #6A6D7B",
"z  c #736E72",
"x  c #716F79",
"c  c #6C7176",
"v  c #66707E",
"b  c #6E737A",
"n  c #737274",
"m  c #7B7474",
"M  c #7D7A77",
"N  c #72757B",
"B  c #7D767B",
"V  c #75797E",
"C  c #7D7A7C",
"Z  c #834B6C",
"A  c #857978",
"S  c #837C7C",
"D  c #907E7C",
"F  c #85817F",
"G  c #8B807E",
"H  c #93817E",
"J  c #6A6E82",
"K  c #6C7385",
"L  c #6D7689",
"P  c #727682",
"I  c #767A83",
"U  c #7A7C84",
"Y  c #71768B",
"T  c #737C8B",
"R  c #7B7E89",
"E  c #6C7792",
"W  c #747C92",
"Q  c #767F98",
"!  c #847E81",
"~  c #867D85",
"^  c #9C7688",
"/  c #7A8189",
"(  c #7D828C",
")  c #6E839D",
"_  c #758293",
"`  c #7C8494",
"'  c #7A839B",
"]  c #7E8A99",
"[  c #7989A3",
"{  c #7C90A7",
"}  c #848283",
"|  c #8B8383",
" . c #82838C",
".. c #8C8689",
"X. c #8A888B",
"o. c #8E8A8D",
"O. c #918584",
"+. c #938B8C",
"@. c #968A8C",
"#. c #98918E",
"$. c #838692",
"%. c #8B8694",
"&. c #858A95",
"*. c #898B95",
"=. c #848C9B",
"-. c #8B8E9A",
";. c #938E92",
":. c #978F94",
">. c #87929D",
",. c #8C919D",
"<. c #959294",
"1. c #9B9394",
"2. c #9E9A96",
"3. c #91919D",
"4. c #9B959A",
"5. c #9C9A9C",
"6. c #A29495",
"7. c #A2979A",
"8. c #A39B9D",
"9. c #A7A09E",
"0. c #878DA1",
"q. c #8693A2",
"w. c #8C94A3",
"e. c #8697AA",
"r. c #8E96AA",
"t. c #8C9BAC",
"y. c #9195A3",
"u. c #9499A6",
"i. c #9D9AA3",
"p. c #9397A9",
"a. c #949AAB",
"s. c #9A9DAD",
"d. c #899CB3",
"f. c #8B9EB2",
"g. c #9196B5",
"h. c #939EB2",
"j. c #9A9FB1",
"k. c #A98BA4",
"l. c #A49DA2",
"z. c #A59EA6",
"x. c #9AA2AC",
"c. c #8DA1B4",
"v. c #8DA2BB",
"b. c #93A1B4",
"n. c #9CA2B4",
"m. c #94A5BC",
"M. c #9BA5BB",
"N. c #96A8BF",
"B. c #9BA9BE",
"V. c #ABA4A5",
"C. c #A7A4A9",
"Z. c #ACA5AA",
"A. c #B2AAAD",
"S. c #A3A4B4",
"D. c #ADACB4",
"F. c #A2A6B9",
"G. c #A2A9BD",
"H. c #ABAABA",
"J. c #B3ADB3",
"K. c #B6AAB7",
"L. c #ADB0BD",
"P. c #BAB1B5",
"I. c #B6B3BA",
"U. c #BBB4BA",
"Y. c #C2B8BD",
"T. c #8CA4C4",
"R. c #8EA7C9",
"E. c #99A5C3",
"W. c #95A8C2",
"Q. c #9CABC2",
"!. c #91ABCC",
"~. c #9EB1C9",
"^. c #95B0D3",
"/. c #A3ACC3",
"(. c #ABADC3",
"). c #A3AEC9",
"_. c #ADADCE",
"`. c #A4B1C6",
"'. c #A5B2CA",
"]. c #AAB4C8",
"[. c #A9B5CC",
"{. c #ABBACE",
"}. c #B3B2C5",
"|. c #BAB9C6",
" X c #B4B5CB",
".X c #A4B6D2",
"XX c #AAB3D4",
"oX c #AABBD2",
"OX c #A8B9D7",
"+X c #AEBAD9",
"@X c #B3B6D3",
"#X c #B4BBD3",
"$X c #BABCD3",
"%X c #B3BCDB",
"&X c #C2BDC3",
"*X c #C2BFCE",
"=X c #C3BCD4",
"-X c #ADC3DE",
";X c #B7C4DA",
":X c #B3C4DE",
">X c #B9C4DE",
",X c #AEC5E0",
"<X c #B3C5E1",
"1X c #BBC6E1",
"2X c #B5C9E2",
"3X c #BDCAE1",
"4X c #C8C3CA",
"5X c #C5C4D3",
"6X c #C8C7D8",
"7X c #CCCBDC",
"8X c #D1CCD4",
"9X c #D0CED6",
"0X c #D3CFDB",
"qX c #D5D2DB",
"wX c #D9D6DA",
"eX c #E0DEDF",
"rX c #C3CDE1",
"tX c #CBCBE2",
"yX c #C7D2E4",
"uX c #CBD2E4",
"iX c #D4D3E1",
"pX c #DDDAE4",
"aX c #DEDCE4",
"sX c #E2DEE7",
"dX c #E3E1E6",
"fX c #E5E4EB",
"gX c #E8E7ED",
"hX c #EBE9EE",
"jX c #E7E6F0",
"kX c #EDECF3",
"lX c #EFEDF9",
"zX c #F0EFF5",
"xX c #F0EFF9",
"cX c #EFF0F5",
"vX c #F2F1F6",
"bX c #F4F3FB",
"nX c #F8F7FE",
"mX c #F7F8FD",
"MX c #FBFCFE",
/* pixels */
"2 , 2 2 2 3 , < t M d t w : = $ $ $ $ $ $ $ $ $ $ $ * $ % % = % % : = % % : : & : % : : > > 1 > 1 6 q M F a G G #.#.#.#.M X.2.2.",
"F } F M M F n F +.x.#.X./ 1 1 1 1 1 > : : : : : = : 1 : : : : : : 1 : 1 1 : 1 1 1 1 1 1 6 6 q 6 6 6 q F F d +.#.2.2.#.2.M <.C.9.",
"d n m d p M p M F <.F n c 1 1 1 1 1 : : 1 1 1 1 1 6 1 1 2 6 6 2 6 6 6 6 6 q q q q q q q w w i w q w 2 4 , 2 m d d d p p 3 d X.| ",
"p p t u t p 3 t p m d d q 1 1 6 6 1 < : 2 7 7 6 6 q 7 q q q q q q q q q q w w q w w w w w i i w w q q F A M +.#.#.#.#.2.F o.V.V.",
"o.#.o.X.F #.| F <.2.2.#.F 1 6 7 q 6 < : q 7 w 2 2 w q u q q q q w q w w u u w w i w w i i i i i t q t #.+.o.V.9.V.C.9.V.X.5.I.I.",
"F F F F F F M p M #.F p q 1 6 q 2 q 1 1 q w w q u w q q q u u q t w w w u u w i i i i i i i i i i i q d d d | X.M M F X.d C #.o.",
"c d p 2 p F d n X.F d m c q q q w q 1 < u u u u q u u i i u u u i i i i u u i i i i i i i i c h i i p #.8.8.8.V.+.| 2.9.+.5.D.D.",
"<.o.2.5.2.2.} X.2.#.M o.X.q q q w u q 1 t u u u u u u u i i i i i i i i i i i p g i c i c c c h g c d 2.Z.A.V.A.1.;.C.Z.+.C.U.I.",
"C } }  .:.U p p M M 3 d h q w u w w w 1 i i i i i i i i i i i i w i i i i i c i c h h h c c N c h x s A A B | +.} | +.;.m X.4.1.",
"2 < * - ; 9 f 9 l n i 5 * 7 q w i i w 6 h i i i i i g p h g g i i i i i p c c c c h c c c N N N N N z D D @.P.J.P.U.U.&XV.J.U.4X",
",.w.*.S.|. XS.z.}.S.}.z.h q 6 w i i w 7 c i i i h i h h h h g g i h c c n c c c c c c N N V V N N V z D | ;.P.P.U.P.Y.4X8.J.4XU.",
"Y ~ w.k.&XS.%.S.$X(.}.J.i.8 6 u g h w q c c c c c c h c h n c h c c d c c N c c c N N V V U C c V I s a a z 1.1.#.4.2.4.X.<.Z.V.",
"(.K._.}.D.z.H.F.$X X;X|.$.q q w c c w w b h c c c c c c n c c c c N N N c c c N V N V V V / / c N N n 6.6.7.Y.Y.Y.4X4X4XA.4X8X8X",
"=X=XtX=X&X}.$X@X@X5X4X7X3.6 q i c b g w b b b b N N n N N n N N N N N V V N V N V V V V V / / q c g x D | +.K.J.A.U.P.Y.5.J.;XU.",
"iX0Xk.^ z.y.@X$X6X7X$X|.( w w h b b g w N N N N m V N N V N N N N V V V V V V V V V M / / / / c i 8 %.C.C.4.U.Y.&X4X4X4XA.4X8X4X",
"^ ^ Z Z 0 Y =X6X7X8XU.I.3.h b b N V h i V N N V V N N N V M V V V V V C V V V / V / / / / / / b N 8 D.zXwXwXbXkXvXcXcXvXeXhXvXcX",
"Z 0 P ^ ~ g.}.=X}.=X4X8XK.l N b c b h g I V N I V N V B V V V I B U U I I U U R / / / ( ( ( ( / R Y S.hXwXwXkXhXhXhXgXgXdXdXjXhX",
"%X@XS.-.r. XiXiX6XiXsX4XC.V V P $.y.N g I B I B I B I V I I C U I U U R ! ( U U / } / ( ` ( $.] &.` S.dXaXhXhXhXgXdXhXhXgXjXkXkX",
"@X6X5XD.U }.tXtXtXtXtX8XI.V I I 4XqX*.u ~ I I I U I I U U R R U R U U ! U  .! ( } ( ( $.$.] &.&.*.` D.hXhXkXcXvXdXfXcXcXhXcXcXcX",
"iX6X6XI.z.$XuXtXtXtX7XpX8X .c -.5X5X&.f R U U I R U } R ! ~ ( ( R } R } (  . . . . . .` $.&.=.-.>.&.D.dXhXhXdXdXqXqXdXdXdXjXjXcX",
"|.L.|.|.K.|.6X6X6X7X7X0XqX&.P R I P N k R R ~ R R  .! ~  . . .(  . . .(  . . . .$.$.$.&.&.=.=.>.,.-.i.7XgXgXdXpXaXaXsXdXjXkXkXcX",
"V.z.I.Z.i.j.3.0.$XiX6XiX5XR I R R R N k R R R ( U  . .R X. .$.X.X. . .X.$.$.&.$.&.&.&.-.-.-.,.,.w.=.I.vXkXhXvXvXcXbXbXbXcXcXcXkX",
"p x h ; , 9 9 5 5XpX7XpXD.w R R Y I N l $.R ~ $.~ ( ` X. .X.$.X.X.$.$.%.&.&.&.&.*.*.>.>.,.,.,.3.y.-.H.sXgXgXvXhXcXkXkXkXhXhXhXkX",
"p t y z z d 0 9 B | ~ l.U K R I I R N l (  .R ` $.R $.&.$.$.$.$.&.$.%.&.*.*.*.-.-.*.-.>.w.,.w.w.w.w.S.qXsXhXkXkXkXkXcXcXcXhXhXhX",
"7.8.8.9.V.V.@.F 6.6.#.Y.;.Y R P P ( N j `  .$.$. .$.$.&.%.X. .&.&.&.%.*.*.-.*.-.,.,.,.w.,.w.y.p.p.w.H.lXvXlXlXxXcXcXcXbXxXgXgXdX",
"2.l.V.8.A.V.O.^ 8.#.#.6...I R N I &.I j $.( $.$.$.$.$.*.&.*.*.*.*.*.-.-.-.-.-.-.,.y.w.y.w.u.y.p.p.p.H.sXdXfXgXkXbXvXlXlXxXhXgXkX",
"+.1.l.1.z.Z.S A @.^ @.D x I R l x f f h $.$. .%.%.%.*.*.&.&.*.*.*.-.-.:.-.-.y.3.3.,.3.w.u.t.a.a.u.a.s.qXgXkXkXlXxXxXbXbXvXkXbXbX",
"C.A.A.l.K.P.4.@.6.6.7.O.;.R R R 9 O 9 N ( $.$.$.$.$.&.X.*.*.-.*.-.-.3.-.:.-.3.3.u.,.y.p.a.u.u.a.i.a.n.dXvXxXlXxXbXxXbXbXbXkXxXbX",
"..4.;.@.4.l.~ A 4.8.@.| U I ( R & # 9 N $.` $.&.&.X.&.&.-.-.,.*.-.-.-.3.3.3.3.3.y.y.u.u.p.p.a.j.x.s.s.8XqXaXkXlXjXjXlXlXvXcXbXbX",
"..+...! 7.;.a 9 Z.P.D ^ B I ( ( P I P l $.$.$.&.&.&.*.-.>.-.*.,.-.3.3.3.3.y.y.3.,.p.u.u.a.s.s.s.j.j.S.pXjXlXlXbXlXlXbXbXbXbXbXvX",
"A.A.C.;.A.K.4...*X0XV.6.;.R ( ` $.$.I l $.$.$.&.&.*.-.&.&.-.*.,.3.3.3.3.,.3.y.y.p.p.a.i.s.j.j.s.j.j.H.gXlXbXbXbXlXlXbXbXbXbXbXbX",
"<.4.;.B :.z...B l.Z.@.A B Y ( ` ~ ' I l $.$.&.&.*.=.-.*.-.,.,.,.3.3.3.y.y.y.p.p.p.p.i.s.s.s.j.j.S.j.H.sXbXlXlXkXkXbXbXbXvXbXbXbX",
"4.4.5.5.1.4.o.X.J.6.8.8.*.( ` ` $.$.U l &.&.` &.=.$.$.=.-.-.*.,.3.y.3.y.y.y.p.p.i.a.j.s.x.S.s.S.F.j. XbXlXjXbXnXnXnXnXnXbXnXnXnX",
"D.J.C.A.Z.J.z.8.P.J.K.K.l.` ` $.$.&.R l =.&.&.&.&.R =.~ &.,.3.,.y.y.3.i.y.i.p.s.a.i.s.n.n.j.M.S.F.j.@XxXxXjXxXxXxXbXbXbXnXbXMXbX",
"<.<.o.;.;.;.| ! :.;...;.V _ ] ] =.$.R P =.=.-.&.T *.U Y -.y.,.,.y.u.u.u.y.u.s.a.s.s.j.j.S.n.F.F.F.F.(.sXsXjXsXkXxXbXbXbXzXbXbXbX",
"N P R Y I I x l P B R U $.` ` =.=.=.U P 0.=.-.R $.$.k =.w.y.y.3.y.p.p.p.u.p.s.s.j.j.S.S.n.F.F.F.F.F. XxXbXxXnXbXbXnXbXnXnXbXMXnX",
"q.q.q.q.q.w.=.w.p.-.w.w._ L ` &.' =.T P -.-.=.R *.l ~ r.y.u.y.y.w.a.a.j.a.a.s.j.j.S.S.F.F.F.F.F.G.F. XxXbXxXxXxXvXbXbXmXvXbXMXbX",
"L b P I B P x u h x u - r L ` ] =.&.R P 0.=.$.K l Q 0.y.u.w.u.w.t.a.s.a.s.s.s.s.n.n.S.M.S.G.G.G.G.(._.sXkXkXzXxXvXvXvXvXvXvXmXvX",
"....} +...| A s ! ~ U , 6 T ] ] 0.=.W P w.-.=.$.&.w.p.p.p.u.a.p.u.a.a.s.j.x.s.s.j.F.F.G.G.G./.G.(./. XbXnXbXnXMXMXMXMXMXMXMXMXMX",
"! ! S S A A a a O.~ ~ f 5 ` ] =.0.0.R P 0.0.r.r.p.p.p.p.u.a.a.a.a.j.j.j.s.j.j.n.n.F.F.G.G.F.H./.H./.$XxXbXxXbXbXbXMXMXMXmXmXMXMX",
"m A d d m a 3 a m m a < K =.' >.{ =.` Y w.w.r.p.a.u.a.a.a.a.s.a.a.b.j.j.j.h.b.n.M.M.G.G.G.G.H.G./.(. XgXbXhXbXkXbXmXmXvXmXvXmXMX",
"7.1.+.D +.O.H O.#.1.H V K ] ] >.>.q.` Y w.r.r.t.t.a.p.a.h.h.b.b.j.h.x.b.j.j.n.M.M.F.G.F.G.G./.).(.(. XbXMXbXMXMXMXMXMXMXMXvXMXMX",
"O.| G A A A A G #.7.G U > _ ] >.q.w.' T r.r.a.t.a.t.t.a.a.j.b.n.n.b.j.b.j.n.n.n.M.M.G.M.G.G./.`.).(.}.sXvXsXlXbXvXvXvXzXhXhXlXcX",
"p y d A M m d a C F V c w _ { q.q.w.$.Y r.r.f.a.t.h.h.h.b.b.b.b.m.b.n.n.n.n.n.S.j.F.G./.G.G./.(.(.].K.4XwX4X9XqXwXwXwX8X8X4X8X8X",
"D | D O.O.O.+.n V / / ( T ] >.e.e.w.] T r.t.f.h.h.h.h.j.j.b.b.n.M.M.M.M.M.M.M.M.F.F.G./.G./.).G.`.`.}.dXdX8XdXdXdXeXhXhXdXeXcXgX",
"| #.#.+.6.1.1./ ] &.&.&./ ] w.e.e.t.] T a.h.h.h.h.h.b.b.b.n.n.M.M.M.M.M.M.G.F.n.F.G.G.G.G./.(.).].].].qXtXiXqXwXqXK.8X0X8XA.wXeX",
"= , , ; , < - T >.*.>.,./ ] q.t.r.t.=._ f.h.h.h.h.h.b.b.n.n.n.M.M.M./././.G.G.M.M.B././.B.G./.).].].].>X2X3X3XuX}.# ; 5 ; # 2 m ",
"; - * * & * * / >.&.*.>.` { w.t.t.t.] W m.h.h.h.b.h.M.b.M.b.n.M.M./.E././.G./././.G././././.`.).'.@X[.:X3X2X2X>X XJ K J J J k r ",
"r j r u 8 8 > T w.w.>.>.>.q.t.t.t.a.>._ c.c.b.m.b.b.b.M.M.M.M.M.M.M./.Q.~././././.Q.`.`.`.B.`.G.[.].{.:X2X:X<X2X>Xg.g.g.g.g.g.g.",
"j q f r j f ; _ >.e.w.w.>.>.t.b.b.f.>._ b.m.m.b.b.b.M.m.b.M.M.M.M.E./.).).).).).`./.`.].].`.`.N.r.` /.:X,X-X<X3X1XE.E.R._._.XX_.",
"J r j j k r > I >.3.t.>.>._ t.N.c.h.=._ m.v.m.m.m.m.b.E.E.M.M.M.G.E./.).).'.).].].`.].'.'.].`.L.a._ '.OX-X,X,X2X1XXX_.XXXXXXXX+X",
"K J k J J b r _ t.f.t.p.q./ e.f.c.c.q.' m.b.m.b.m.h.M.M.m.M.Q.E.E./.~.).).'.).].].'.'.'.'.'.~.{.b.] Q.OX,X-X,X,X<XXXXXXX%X+X%X%X",
"Y K K L T J e { c.c.t.f.e._ { { f.b.>._ m.c.m.m.m.h.M.m.M.M.Q.Q.Q./.Q.).'.].).`.'.'.[.[.{.[.'.~.`.B.W.OX-X-X,X-X%XXX%X%X%X%X1X%X",
"Q Y J L Y J e { c.f.t.f.t./ q.m.t.f.q.' m.m.m.m.m.W.m.M.Q.m.m.Q.Q.Q.Q.).'.'.'.).'.'.[.[.~.[.[.[.{.;XQ.-X,X-X-X-X1X+X1X1X1X1X1XrX",
"Y Y Y W Y J e [ c.v.v.c.e._ _ v.b.b.q.' m.W.m.W.W.W.M.m.m.W.N.m.B.W./.'.'.).].).'.oX[.[.].[.`.-XoXoX'.OX2X-X-X-X<X%XrX1XrX1X1XtX",
"E Y Q ' W K e [ v.T.T.R.v.f.e.m.c.b.q._ m.m.v.N.m.m.W.m.m.m.Q.m.N.Q.Q.Q.'.).'.'.[..X.X[.~.{.{.~.oXoX[.OX-X-X-X-X1X%X1X1X%X%X%XrX",
"W Q Q Q E E e { !.^.!.!.!.v.v.v.c.v.>._ N.N.N.m.m.m.m.N.N.Q.W.N.Q.Q.Q.~.~.[.[.'.'.{.oXoX'.{.-X{.-X;X~.OX-X-X-X-X1X1X1X1X%X1X1X<X",
"Q Q Q [ ) E e ) !.^.^.^.R.[ c.v.m.c.>._ v.N.m.v.N.N.m.m.N.N.N.W.E.Q.Q.Q.~.~.'.[.{.`.'..X.X.X[.{.-X-X~..X-X-X-X-XrX1X1X1XrXrXrX1X",
"0.' Q Q [ ' e E T.T.R.R.v.f.c.v.m.m.q._ N.N.N.m.m.m.m.N.N.N.W.Q.Q.Q.Q.~.~.'.~.[.`.{.{.{.-X{.{.-X].;X'..X2X2X-X-X1XrXrXyXuXuXtXrX",
"Y K Y L W K 5 ) !.T.T.R.v.f.c.v.v.v.>._ N.W.v.N.W.m.b.m.N.N.B.N.N.W.Q.Q.Q.~.~.'.-X~.'.`.{.`.-X`.L.-X'.~.2X-X-X2X3XrXyXyXuXuXuXrX",
"r j k k l J - ) !.R.R.T.v.{ c.v.c.c.] / x.n.B.N.Q.N.B.B.N.B.G.G.B.G.`.`.`.`.{.{.-X{.{.-X].-X{.;X;X-Xx.~.-X-X:X:X>X%XOX%X;X%XoX#X",
"J k k l l K & E ^.!.!.!.v.f.t.f.t.c.>.4 4 4 t d V b n n I n I N V V U / / X.X.*.*.<.<.<.x.x.5.#.#.D.~..X-X-X:X2XyX>XXXXXoX;X>XrX",
"n z n n n u 1 K e.e.{ d.] v v i g g i O O O O . . . . . .     . X X X o o X o + + @ @ @ : 2 4 4 2 w / v.-XoX-X;XuX6X9X;X;X9X0XuX",
"} | G | O.X.<.<.<.<.<.<.#.X.| } G G G G A A G S D F A m a 3 m d a M F G O.G O.@.H #.1.2.6.O.A m a m A o.|.4X6X9XqXwXwXwXwXsXwXwX"
};
