/* XPM */
static char *_b5979d80bb44d41f750b01ef59f6f93mn5xBlTn9KzGytYX[] = {
/* columns rows colors chars-per-pixel */
"64 64 234 2 ",
"   c None",
".  c #010101",
"X  c #0B0304",
"o  c #050906",
"O  c #0B0A05",
"+  c #03030A",
"@  c #0B050B",
"#  c #050B0B",
"$  c #0C0C0C",
"%  c #110400",
"&  c #130A02",
"*  c #1D0F04",
"=  c #120D0C",
"-  c #16050B",
";  c #031203",
":  c #0D1100",
">  c #06130D",
",  c #0C120B",
"<  c #081A08",
"1  c #14140D",
"2  c #1C150E",
"3  c #1B1B0D",
"4  c #141907",
"5  c #000012",
"6  c #040D12",
"7  c #0C0D12",
"8  c #030318",
"9  c #030C1A",
"0  c #0E0818",
"q  c #120D13",
"w  c #170C16",
"e  c #041212",
"r  c #0C1314",
"t  c #0D1A15",
"y  c #0E1519",
"u  c #0D1A1B",
"i  c #041B19",
"p  c #131314",
"a  c #1A1513",
"s  c #141A14",
"d  c #1B1A15",
"f  c #131419",
"g  c #1B151B",
"h  c #131A1C",
"j  c #1B1B1C",
"k  c #220000",
"l  c #251407",
"z  c #221C16",
"x  c #2C1E11",
"c  c #211C1A",
"v  c #2C1C1A",
"b  c #261112",
"n  c #15230C",
"m  c #0A221D",
"M  c #15231B",
"N  c #1B231C",
"B  c #182616",
"V  c #21210D",
"C  c #24241C",
"Z  c #2A231D",
"A  c #23291B",
"S  c #2C2B1C",
"D  c #2A2817",
"F  c #332E1C",
"G  c #3D281D",
"H  c #2B311D",
"J  c #32311A",
"K  c #001A22",
"L  c #0B1C21",
"P  c #091526",
"I  c #141D23",
"U  c #1C1E22",
"Y  c #191725",
"T  c #221D22",
"R  c #2E1E25",
"E  c #0C2224",
"W  c #142224",
"Q  c #1C2423",
"!  c #152926",
"~  c #1C2A23",
"^  c #14252B",
"/  c #19262C",
"(  c #1B2C29",
")  c #15282A",
"_  c #1D352B",
"`  c #1B3429",
"'  c #1C2E32",
"]  c #122030",
"[  c #232424",
"{  c #2A2523",
"}  c #242A25",
"|  c #2A2B23",
" . c #252429",
".. c #2A252A",
"X. c #232B2A",
"o. c #2C2C2A",
"O. c #322B24",
"+. c #322D2B",
"@. c #352724",
"#. c #233424",
"$. c #23332B",
"%. c #2C322D",
"&. c #2A3D2C",
"*. c #263C28",
"=. c #333425",
"-. c #3B3624",
";. c #32332C",
":. c #39342B",
">. c #313829",
",. c #3C3B2C",
"<. c #393A24",
"1. c #212C34",
"2. c #2F2C31",
"3. c #342D34",
"4. c #223435",
"5. c #2C3333",
"6. c #2D3B32",
"7. c #24343A",
"8. c #2D3C3B",
"9. c #243C31",
"0. c #343534",
"q. c #333934",
"w. c #3A3B34",
"e. c #353438",
"r. c #3C3C3C",
"t. c #373737",
"y. c #453829",
"u. c #433D3A",
"i. c #463B38",
"p. c #503F36",
"a. c #3D432D",
"s. c #3D4225",
"d. c #27463D",
"f. c #3D4333",
"g. c #36423C",
"h. c #3B413D",
"j. c #334735",
"k. c #28422D",
"l. c #515017",
"z. c #4A4516",
"x. c #43442E",
"c. c #484529",
"v. c #444334",
"b. c #4A4634",
"n. c #4B4C34",
"m. c #44443C",
"M. c #4B453C",
"N. c #4D4C3C",
"B. c #464A35",
"V. c #574C38",
"C. c #5E523E",
"Z. c #52472A",
"A. c #604E3F",
"S. c #67522F",
"D. c #3E3E41",
"F. c #284247",
"G. c #324644",
"H. c #3D4343",
"J. c #3D4942",
"K. c #374A47",
"L. c #3F524F",
"P. c #334D52",
"I. c #3A585D",
"U. c #434443",
"Y. c #454A45",
"T. c #4B4B45",
"R. c #434549",
"E. c #444C4B",
"W. c #4B4D4B",
"Q. c #4D4546",
"!. c #534D49",
"~. c #5D4E4F",
"^. c #594943",
"/. c #4D544D",
"(. c #4F5B47",
"). c #535243",
"_. c #53524C",
"`. c #5D594C",
"'. c #5B574C",
"]. c #4C4E50",
"[. c #4B5652",
"{. c #465956",
"}. c #545352",
"|. c #5F5A54",
" X c #565B5C",
".X c #585C5B",
"XX c #555D53",
"oX c #665A48",
"OX c #615C5C",
"+X c #635853",
"@X c #715A53",
"#X c #52604F",
"$X c #5F6054",
"%X c #59625E",
"&X c #55655C",
"*X c #6A6447",
"=X c #69625F",
"-X c #676856",
";X c #736A5D",
":X c #786A59",
">X c #787358",
",X c #7A7649",
"<X c #5C5E61",
"1X c #615F61",
"2X c #476667",
"3X c #5C6466",
"4X c #646465",
"5X c #6C6B64",
"6X c #666969",
"7X c #776862",
"8X c #6C746E",
"9X c #78736A",
"0X c #6E6F7B",
"qX c #6C7970",
"wX c #777776",
"eX c #8E6F5E",
"rX c #83715C",
"tX c #847261",
"yX c #897A6B",
"uX c #88796F",
"iX c #73817C",
"pX c #928554",
"aX c #8C877C",
"sX c #968A7A",
"dX c #9B8A6F",
"fX c #A18F73",
"gX c #A9977D",
"hX c #938D88",
"jX c #B49E88",
"kX c #A39B95",
"lX c #B8A38F",
"zX c #B8A487",
"xX c #BAA896",
"cX c #C5AD99",
/* pixels */
"                                                                                                                                ",
"                                                                                                                                ",
"                                                                                                                                ",
"                                                                                                                                ",
"                                                                                                                                ",
"                                                                                                                                ",
"                                                            W.R.U.W.                                                            ",
"                                                         .9 8 T 0 5 X.}.wX                                                      ",
"                                                        y.rX:X^.uXsX9X& H.                            hX  =X4X4X                ",
"                                                      D.:XzXgXdXfXxXcX:.R.                        |.=X6XW.t.[ t.wX              ",
"                                                      E.^.zXlXlXlXcXzXi.+ 3X                    ^.V.C.O .  . .. wX              ",
"                                                      u.p.7X~.7XuXhXtX| 5XwX                  ).l y.O.. 7 $ O R.0X              ",
"                                                    W.. ;X+X. +X{ S yXQ.kX+X                  b.-.=.w.. + r.).6X                ",
"                                                    }.. N.;Xi.;X@XyXrXR ).-X                Z @.b.:.n v.{ e.W.                  ",
"                                                  ;.;.o.n +X(.+XtXeX@X^.G >X$X            :.{ 2 3 d n n.w.3.W.                  ",
"                                                  d } :.>.Y.6X5XfXtX=X~.D D $X            s :.c { 4 >.{ Z.*XuX1X                ",
"                                          Y._.}.%.1 | =.U.%X[.6XaXsX!.3.& Z m.u.4X        . 1 g a O.,.{ l.,X9X                  ",
"                                    t.= Y.[.r.N < . S H o.h  X8XaXV.. %.& { m.&.m.%XqX    r.e.C ;.=.A c.n.).                    ",
"                                    } d s B Z X.k.( | 4 /.qX[.. . OXhX/.a 2 %.k.j.k.&.} . R.W.[ m.. : B.U.                      ",
"                                    p N q.N v j d.d.r Y h.iXH.Q . =XaX.X{ X 6 B *.k.*.#., . Q.T.} O { U.                        ",
"                                    6.N B | b a 4.4...Y K./.[ Q U.5XQ.N , j j t < ; ; ; . ...X0.. d 0.}.                        ",
"                                    g.[.Y.u.{ j c a u...^ 8.:.Z t.U.h > m j j . C q.h.J.[   j . 1 p . r.                        ",
"                                    . X.q.^.i.r.z k v p W [ N.V.N.o ' ! e a +.Q.4X4XW.R.[ . O $ . . j                           ",
"                                    e.6 . :X~.U.c U.{ s 4  .%.a.H h / # f o $ j j B #.. . , , $ 7 f !.                          ",
"                                    H.K 8.qXXXh.8.3XK.5., y %.(.N y # 6 f p r.. ~ 6.j.N %.p X 7 7 f _.                          ",
"                                  <X5.K.G.2X&X>.I.2XK.0.e I X.>.N e.0.s r y m.A M j.M #.q.. . 7 0 $ 0.                          ",
"                                   .X.H.K.{.{.;.L.G.{.&.~ X.q.>.j R.{ j e # Y.{ t M ~ B v.;X+.- ..D.t.                          ",
"                                  . !.=.j 5.1.c <.:XXXd.~ ~ h.a.S +.l Y L e N.| # $ o.d Z.C.N.c .X6X[.                          ",
"                                  J m.Z +. . ...X *X(._ G.! X.=.A o.Z z j . w.,.u ) A x @.+XZ.S.0.I                             ",
"                                ,.<.Z j w . ,.*X3 ( X.$.4.' I 9 u u $ F Z . | :.u 1.j x +.P l.pXi.                              ",
"                                v.C X a $ $ y.b.z ;.Q 1.P.F.4.^ W / I 1 { g . n.x.Y ..{ X C * >XT.                              ",
"                                m.j . q O 2 = . C | } 5.I.F.) + u L ^ t O a & n.oXX R g . o.:.2 {                               ",
"                                T.d + q = O f +.T C { , ) ) X.} Q X.6 d = - a # V.G k I 5.< = %                                 ",
"                                m.c . q w @ z :.2  .0.. 8.g.t.}.T.e.0 2 { g = + G S.% 7.8.h.7                                   ",
"                                <.H . a f q @.V.{ X.X.r N X.j } o.W.{ a a f O a . oXV.. [ [                                     ",
"                                  S } p = c ^.>Xm.o. .7 . . q p # 5.d o . . O 7 + } 7X!.$                                       ",
"                                        X & F S :.:.w.:.. $ a N c . s p . o , f f . o.OX                                        ",
"                                        _.O.. 0 c O.b.@.. p $ q @ $ q f . j r + .                                               ",
"                                        +X;.. 7 . =.w., . r # > s r # h 7 f 6 z :.                                              ",
"                                          . o s d p P ] > > h h M h e r y Q + =.`.                                              ",
"                                          $ o A c s ` t u u f g r y e f f W +  .m.                                              ",
"                                        . p ~ A d o u W u r + + + r y e I u 7 . 0.                                              ",
"                                        . N B =.2 > ! W ( r + . + y y e h y h . f.                                              ",
"                                        o ( ` ,.d h E ^ W r o . 7 r I f h h h o %.                                              ",
"                                        o ! *.a.2 , W / h r # + 7 r h h h r h M ` <                                             ",
"                                        s m &.v.7 h E ) u o + . r r f y y r y e 6.X.                                            ",
"                                      Y.} ` s.n.5 / M E o $ o . $ p j p 7 h h r 5.H.                                            ",
"                                      W.N ` a.v.. W ~ M + j o . $ p h h r I u u Q U.                                            ",
"                                      Q.M ` x.a.9 M N y j j . . $ g Y f 7 r h e h U.                                            ",
"                                      U.< 9.Z.<.8 ! N + [ s . . , Q f p # r Q r h h.                                            ",
"                                      U., 9.c.D 8 Q s @ g p . . $ j f s # e I Q , H.                                            ",
"                                      e.X.#.x.A K I = f $ $ o . . $ r r 7 y u Q $ q.E.                                          ",
"                                    6X[ M ~ a.n E P $ + . . . . . . $ 6 . h h # s 6.[.                                          ",
"                                     XU . N a.s L y & 7 f . $ $ . $ 7 p h h y f M 8.[.                                          ",
"                                    <Xo O S ,.t L s 1 f j $ . . @ $ f f U f Q r o &.E.                                          ",
"                                    6X. . A :.9 L N 1 p r . t.t.. f g q 7 f 7 . . u 3X                                          ",
"                                      j | J -.+ W $ 1 . t.o.h.U.. q g 7 7 @ U s . ( 3X                                          ",
"                                        -.l.z.    @ . ..U.      s . q w T q U @ . . %X                                          ",
"                                          c.J     f 7 e.          . w g T f       . 8X6X                                        ",
"                                            c     f ..w           = q w 3.                                                      ",
"                                                  g 3.Y           [ @ g U                                                       ",
"                                                X T g =           ... q @ .                                                     ",
"                                              . $ s @ +         r. .. a j 7                                                     ",
"                                              o @ $ @ .           @ . o $ 7                                                     "
};
