/* XPM */
static char *_1a7353ffe614032ce5029f3626a8f0a48w2gz8duEocqKLY[] = {
/* columns rows colors chars-per-pixel */
"46 64 248 2 ",
"   c #020202",
".  c #0B0101",
"X  c #0A0A04",
"o  c #02040A",
"O  c #0A0109",
"+  c #020A09",
"@  c #0C0C0B",
"#  c #150401",
"$  c #1A0601",
"%  c #140A04",
"&  c #1B0903",
"*  c #130C0B",
"=  c #1B0D0C",
"-  c #0D130C",
";  c #17150A",
":  c #000211",
">  c #040C13",
",  c #090F16",
"<  c #140A13",
"1  c #041216",
"2  c #0D1213",
"3  c #06191B",
"4  c #141313",
"5  c #1B1512",
"6  c #1B1A15",
"7  c #161618",
"8  c #131A1B",
"9  c #1C1C1C",
"0  c #230302",
"q  c #270707",
"w  c #210A03",
"e  c #220B09",
"r  c #320300",
"t  c #370701",
"y  c #3C0B00",
"u  c #271907",
"i  c #24120A",
"p  c #3A1707",
"a  c #220F11",
"s  c #231B14",
"d  c #261816",
"f  c #361817",
"g  c #3C1D13",
"h  c #1C221E",
"j  c #3A2508",
"k  c #343105",
"l  c #25241C",
"z  c #2B241D",
"x  c #362719",
"c  c #3D391A",
"v  c #0B1B21",
"b  c #151D27",
"n  c #1B1D23",
"m  c #201B21",
"M  c #1B2424",
"N  c #192729",
"B  c #182D2D",
"V  c #1C2B36",
"C  c #222424",
"Z  c #2B2322",
"A  c #252826",
"S  c #2B2C25",
"D  c #24242A",
"F  c #242A2B",
"G  c #2B2C2B",
"H  c #332D23",
"J  c #332C2A",
"K  c #382928",
"L  c #2B322B",
"P  c #393329",
"I  c #252C34",
"U  c #2C3234",
"Y  c #2A3839",
"T  c #333434",
"R  c #353A35",
"E  c #3B3B35",
"W  c #333639",
"Q  c #373738",
"!  c #3C3C3B",
"~  c #440300",
"^  c #450A05",
"/  c #540301",
"(  c #431306",
")  c #441B0C",
"_  c #48180A",
"`  c #53160A",
"'  c #491E14",
"]  c #521C14",
"[  c #472A09",
"{  c #562E08",
"}  c #4C360E",
"|  c #472517",
" . c #552412",
".. c #572818",
"X. c #433919",
"o. c #5A3617",
"O. c #672F17",
"+. c #612D1A",
"@. c #472924",
"#. c #582922",
"$. c #45382C",
"%. c #583725",
"&. c #463A37",
"*. c #513C38",
"=. c #683929",
"-. c #6C3731",
";. c #3A423D",
":. c #494515",
">. c #754A1B",
",. c #5A4829",
"<. c #56522E",
"1. c #4A4634",
"2. c #43423D",
"3. c #554937",
"4. c #634223",
"5. c #6B442B",
"6. c #674B28",
"7. c #6C4F2E",
"8. c #674835",
"9. c #6C4D33",
"0. c #734A37",
"q. c #675639",
"w. c #795737",
"e. c #73543A",
"r. c #6A623E",
"t. c #1C3D44",
"y. c #293743",
"u. c #363C42",
"i. c #433D42",
"p. c #3C4344",
"a. c #3B4548",
"s. c #31484A",
"d. c #3A4554",
"f. c #3A5153",
"g. c #434443",
"h. c #494743",
"j. c #4A4A44",
"k. c #45454A",
"l. c #434A4C",
"z. c #4B4D4B",
"x. c #564A46",
"c. c #565549",
"v. c #54534C",
"b. c #474A54",
"n. c #584B52",
"m. c #445354",
"M. c #4B5352",
"N. c #485759",
"B. c #535453",
"V. c #5C5554",
"C. c #585855",
"Z. c #525B5B",
"A. c #5C5C5B",
"S. c #644D4B",
"D. c #675B48",
"F. c #765B47",
"G. c #675B56",
"H. c #765050",
"J. c #5F6258",
"K. c #6C6347",
"L. c #756447",
"P. c #62635C",
"I. c #6B6458",
"U. c #766756",
"Y. c #797657",
"T. c #4B5D62",
"R. c #455C6F",
"E. c #5D5C62",
"W. c #5A6669",
"Q. c #526C73",
"!. c #646564",
"~. c #6B6A64",
"^. c #646C6B",
"/. c #6B6B6A",
"(. c #776A66",
"). c #68726C",
"_. c #79756B",
"`. c #696D72",
"'. c #7D6D70",
"]. c #6C7777",
"[. c #737474",
"{. c #787976",
"}. c #7A7B7A",
"|. c #936A3C",
" X c #886B4C",
".X c #88764B",
"XX c #886B57",
"oX c #947757",
"OX c #877867",
"+X c #88726C",
"@X c #997D68",
"#X c #938B68",
"$X c #85837B",
"%X c #9A8B79",
"&X c #A9906F",
"*X c #526D80",
"=X c #777C82",
"-X c #7B8486",
";X c #7B8C96",
":X c #7E9297",
">X c #778EA0",
",X c #848584",
"<X c #888787",
"1X c #8B8B83",
"2X c #8C8D8C",
"3X c #938B89",
"4X c #8B918C",
"5X c #98968B",
"6X c #909394",
"7X c #979896",
"8X c #A2998E",
"9X c #A59B9B",
"0X c #9FA19D",
"qX c #BBA786",
"wX c #A8A298",
"eX c #8B96A2",
"rX c #8A9BA5",
"tX c #AA9DA4",
"yX c #8FA2A8",
"uX c #99A3A5",
"iX c #A5A4A4",
"pX c #ABA9A9",
"aX c #AEAFB0",
"sX c #B3B2B3",
"dX c #B9B8B8",
"   c #DDBB9F",
"gX c #E4BB8F",
"hX c #CAB7B9",
"jX c #C6BCBD",
"kX c #9CB1C4",
"lX c #BEBDC1",
"zX c #AAB9D1",
"xX c #BDCBCD",
"cX c #C4C4C3",
"vX c #C9C8C7",
"bX c #D5CAC9",
"nX c #CBD2CC",
"mX c #D4D3CD",
"MX c #CBD4D1",
"NX c #D4D4D4",
"BX c #D8D8D5",
"VX c #C6D8E6",
"CX c #D3E7EE",
"ZX c #E3E4E3",
"AX c #EBE8E8",
"SX c #EFF0F0",
"DX c #F2F3F3",
"   c #FFFFFF",
/* pixels */
"                                      FX=XB.uX                                              ",
"                                CXAXFX}.D.oX0 0X                                            ",
"                              vXxXCXFX&XgXFXqXXX                                            ",
"                        BX}.<XaXCXCXmX%X#XoXXX5.jX                                          ",
"                        nX,XZX2X=XuXcX#XXXOX@X@X!.A.G.                                      ",
"                        cX}.pX$X$.j.}.~.&XH.U.#X@ 3X1XmX$X=X7XbX                            ",
"                    dXiXpX7X4X{.H a z ! 1.XXF.< Q   [.,X-XrXrX,X,XNX                        ",
"                cX[.!.2X}.4X5XP.o s Z H . 2.! k.D d   - f.Q.:XuX,XiX                        ",
"                7X[.2Xb.a.].2XV.l A l 1.).G 2.9 . U ! k.V M.m.*X;X:X                        ",
"                7X  ^.M.U p.}.[.F W G.&.A.&.c.=X1Xc.L s.U l.p.u.M.B.0X                      ",
"                BX!.  ^.Q 8 z.~.U.B.V.,XW.V.dXsX_.Y.K.N N Y v Z.v.j.cX                      ",
"                  sX  J z.. S z.#X{.V T.Q.>XVXxXv.<.Y.I.c.v W S   C                         ",
"                  [.  7 J 2.j.j.<.a.V B Q.;XzXzX:XN.u L.D.I.U.j T.-XpX                      ",
"                    9 h   4 3.~.h.m M ^.$Xs.kXzXyX`.u j c 1.<.1.t.rX;X                      ",
"                pX  9 M.B.E h I.3.# k.P.Y.Q yX:XI.[.$.$XY.    l y.].-XdX                    ",
"                /.o U ^.z.S L _.q.z > B.U.b.>XwX5XV.o 4X5X  W 2.B z.;X-X                    ",
"              BXX S ).).2.E ; %XU.$ L R &.L g.I.)._.&.S.5X6 X E Y g.}.W.dX                  ",
"              sX  {.wX4XB.L u wXG.# M   s o eX/.  9 S @.1Xc.  G l.l.).;XNX                  ",
"              [.A P.{.~.g.  H 9XG.. v h U V aXeX  W 6 [ %XV.X D S T Q }.3XBX                ",
"            NXB.9 ).$XM.&.T P 8XD.6 u.T a.d.:X;XE Y H [ _.3.n.Y ; &.Q ].B.sX                ",
"              BX! 6 ;.S &.~.z OXU.l G J M.y.,X=XJ.;.$.& +X&.&.T X 6 -   7X                  ",
"              dX  T S   W B.H $XL.o 3.1.E.z.6X7XJ.Y.OX1.9X  7X7X  Z J.Y /.                  ",
"              aX  C 9 G G T v.5X9.4 s K./.3.(.,X$XK.r.b.OX  ,XdX  8 W.^.`.                  ",
"              BXo 9 X [.!.  5X8X[ D k @.g.P G.8Xj.,..XY x   /.dX  9 N.N.}.                  ",
"              aXl h X W.].o 7X%Xt m u D.l.J x.P.A.OX#XS f $ j.xX-   ! g.;.!.vX              ",
"            NX  4 R   Z.a.  _.F.{ o ; q.E x $.F.V.U.Y.H $ H   vX{.  h.C.!   nX              ",
"              iX  R v.W.p.% . x 6.: ; k k u &.@.:.K.X.. i @.o lXsX  k.z.  }.                ",
"                D + j.v.! = # | 8.o   x c x o N <.K.3.n d x . tXlX  T M 2 7XBXDX            ",
"                ,X  ; @ T % . #.,.;.n m   6 o Q.f.X c.^.c.4.0 G.`.< A m U E.].BX            ",
"                7X  J g.7 K # e.q.;.M.7 b C   W.Q.&.;.W.K.>.] 0 X ! /.,XA.B.k.iXAX          ",
"                iX  {.Y + Z . 9.q.N.Z.; R 9 @ T.s.c.L Y C.{ ..| n ! !./.B.g.W Z.xXDX        ",
"                iXg.E   D = x 4.,.R.b.  a.M ; f.f.z.A B c.4.#.p < Q M !.}.C.m T ,XZX        ",
"                    dXz.  h y 4.%.R.y.  j.B - f.m.!.U : 8.8.|  .* dXiX2XB.C S 1.E.NX        ",
"                      tX  x ) w.D.s.U X 2.I 4 a.f.G.C : ,.e.%.#.T W.p.T D 7 P 1.z.dXSX      ",
"                      3X  H p F.D.t.I   2.I 9 l.b.[.G o X.e.| %.T M.W G S C P c.B.2XZX      ",
"                      <XX x r 5.1.B F   h.W 4 p.a.A.u.  q.oXq #.Z V.D b.[.[.J 2.J.iXSX      ",
"                      '.. x ( e.c.M 8   E ! C M.W.[.C   1..Xr #.f x.<XcXZXZX!.{.aXZX        ",
"                      *.# @._ =.{.[.J   z g.! M.).J.  . c  X .^ #.q bX      cXNXSX          ",
"                    NX# d ) _ 7.sX0Xx.F .   .       < 6 l q.+.^ -.r hX                      ",
"                    cX# | g ..w.4X,XG.8 & a = a d s   l + q.-.y -.0 ,X                      ",
"                    aX  @.g  .e.T.T.C.% & $ # & $ $ # x b 3.>._ %./ S.                      ",
"                    <X. @.) =.8.;.s.E # # $ i # & & # u > 1.5.] ..-.e cX                    ",
"                    i.a ^ g =.e.v L l % & # # & # $ = % > E 6...` H.0 aX                    ",
"                  MXO g ^ ' 5.8.v ;.l % & & # & & & $ # , Z 6.=.^ -.t pX                    ",
"                  dX  #.^ ( 6.8.v C 5 & $ $ & & & & $ ; 6 6 6.=.( -.~ 3X                    ",
"                  wX  @.t _ 8.%.> n % & & $ e & $ $ $ 9 z - ,.=.y -.` F.                    ",
"                  1X  | p ] 9.%.3 T 5 # $ & i $ & w $ - ; X ,.5._ _  .^                     ",
"                  I.X @.o.( w.I.W.W ; & & $ & & $ $ = > ; o ,.5.y =.XXO.hX                  ",
"                  K 0 ..o.t 0.D.T.V 5 # & & & & & = % * l o $.5.~ +..X>.5X                  ",
"                BX  @.( } _ 5.F.Y M 6 # & $ & & $ & # * B 3 H 6.` ~ .X|.H.                  ",
"                tX. @.[ o.| #.q.N M 5 $ & & & $ & & & * 8 v H 6.] _ .XoX/ vX                ",
"                3X. @.[ X.) =.D.p.F % $ & & $ & % & & $ 1 1 H 6.( ..6.F./ tX                ",
"                i.% ' } } g %.8.F 4 $ & & $ $ & % $ $ & 4 , d 4. . .=.w. .H.                ",
"              mX  f p [ [ | [ %.@   & & & & $ $ $ % $ 0 = 2 O ,.O.=.` F..Xr AX              ",
"              pX  @.p ) p 0 ..e.S # i $ $ = $ $ & & & $ & 4   J 7. .~ [  X~ tX              ",
"              /.  z r _  .f r 9.J   & $ $ & $ $ w # & $ & 7 b o X.7.H.w.+./ H.              ",
"            BX. g t p o.7.oX>.O.T Z & d 0 w e w z a d = . 9 n 1 3 P P ,.L...0 hX            ",
"            pX  @.w x d & 1.I.$.T F     . = . &   .   = Z 4 2 > 8 > o X K H.%.t pX          ",
"          bX*.0 f f a l U Y 3 W Z J K S.= $ x e P.B.V.%   * F 7 8 8 I d.f.&.~ =.% cX        ",
"    bXXX0 $ $ K g i % n Y T.Y M 9 MX        NXmX        dXdXG   G 1 Y y.Y m.7X@XaX          ",
"    hX3XU.H.Q   $ Z Z W a.;.M                               2X    G ! y.N.W.                ",
"            BXmXA.  ! N.W.m.T T cX                            xX6XO N 1 O   ).              ",
"                    .     u.  sX                                AX-Xk.E.E.B.4X              ",
"                  cXsXpX,XQ sX                                                              "
};
