/* XPM */
static char *_946a6742d5242f1ec96401ea6c21dc5Z6eElwa9MHwuuQmS[] = {
/* columns rows colors chars-per-pixel */
"46 64 244 2 ",
"   c #020202",
".  c #0B0101",
"X  c #0A0A04",
"o  c #02040A",
"O  c #0A0109",
"+  c #01090C",
"@  c #0C0C0A",
"#  c #040A05",
"$  c #150401",
"%  c #1A0601",
"&  c #140A04",
"*  c #1B0903",
"=  c #1B0D0C",
"-  c #130D0B",
";  c #0D130C",
":  c #17150A",
">  c #000211",
",  c #040C13",
"<  c #070F19",
"1  c #041216",
"2  c #0A1517",
"3  c #141313",
"4  c #1B1512",
"5  c #1B1A15",
"6  c #131A1B",
"7  c #1C1C1C",
"8  c #161618",
"9  c #140A13",
"0  c #230302",
"q  c #210A03",
"w  c #220B09",
"e  c #270606",
"r  c #320300",
"t  c #3C0B00",
"y  c #370803",
"u  c #24120A",
"i  c #271907",
"p  c #3A1707",
"a  c #231B14",
"s  c #261816",
"d  c #3A1B15",
"f  c #220F11",
"g  c #1D221E",
"h  c #3A2508",
"j  c #2B241D",
"k  c #25241C",
"l  c #362719",
"z  c #3D391A",
"x  c #343105",
"c  c #0B1B21",
"v  c #1B1D23",
"b  c #151D27",
"n  c #201B21",
"m  c #1A2628",
"M  c #1C2B36",
"N  c #182D2D",
"B  c #222424",
"V  c #2B2322",
"C  c #2A2C25",
"Z  c #24242A",
"A  c #242B2B",
"S  c #2B2C2B",
"D  c #252826",
"F  c #332D23",
"G  c #332C2A",
"H  c #382928",
"J  c #2B322B",
"K  c #383228",
"L  c #252C34",
"P  c #2C3334",
"I  c #2A3839",
"U  c #333434",
"Y  c #3B3B35",
"T  c #3C3C3B",
"R  c #353837",
"E  c #440300",
"W  c #450A05",
"Q  c #540301",
"!  c #441B0C",
"~  c #461609",
"^  c #53160A",
"/  c #491E14",
"(  c #521C14",
")  c #472A09",
"_  c #4C360E",
"`  c #472517",
"'  c #552412",
"]  c #572818",
"[  c #433919",
"{  c #5A3617",
"}  c #562E08",
"|  c #612D1A",
" . c #672F17",
".. c #472924",
"X. c #572A22",
"o. c #45382C",
"O. c #583825",
"+. c #463A37",
"@. c #513C38",
"#. c #683929",
"$. c #6C3731",
"%. c #3A423D",
"&. c #754A1B",
"*. c #5A4829",
"=. c #42413D",
"-. c #494533",
";. c #554937",
":. c #56522E",
">. c #634223",
",. c #6B442B",
"<. c #674B28",
"1. c #6C4D33",
"2. c #674835",
"3. c #734A37",
"4. c #675639",
"5. c #73543A",
"6. c #795737",
"7. c #6C4F2E",
"8. c #6A623E",
"9. c #494515",
"0. c #1C3D44",
"q. c #363C42",
"w. c #293743",
"e. c #433D42",
"r. c #2E4147",
"t. c #3B4446",
"y. c #3B514A",
"u. c #3A4554",
"i. c #3A5153",
"p. c #254552",
"a. c #434543",
"s. c #4A4A43",
"d. c #45454A",
"f. c #424A4C",
"g. c #4A4A47",
"h. c #564A46",
"j. c #4A514B",
"k. c #55544B",
"l. c #474A54",
"z. c #445354",
"x. c #4B5352",
"c. c #485759",
"v. c #545452",
"b. c #515C5B",
"n. c #5B5B5A",
"m. c #5B5654",
"M. c #584B52",
"N. c #644C4B",
"B. c #675B48",
"V. c #765B47",
"C. c #675B56",
"Z. c #765050",
"A. c #5F6258",
"S. c #6C6347",
"D. c #756447",
"F. c #62635C",
"G. c #6B6458",
"H. c #766756",
"J. c #797657",
"K. c #495C66",
"L. c #5E5C62",
"P. c #596669",
"I. c #526C73",
"U. c #6B6A64",
"Y. c #636C6C",
"T. c #6B6B6A",
"R. c #646565",
"E. c #776A66",
"W. c #68726C",
"Q. c #79756B",
"!. c #696D72",
"~. c #6C7777",
"^. c #747574",
"/. c #7A7A79",
"(. c #787975",
"). c #7D6D70",
"_. c #936A3C",
"`. c #88764B",
"'. c #947757",
"]. c #886B52",
"[. c #846962",
"{. c #877867",
"}. c #997D68",
"|. c #8C7B77",
" X c #7F817E",
".X c #85837B",
"XX c #9A8B79",
"oX c #938B68",
"OX c #A9906F",
"+X c #777C82",
"@X c #526D80",
"#X c #7B8486",
"$X c #7B8C96",
"%X c #7E9297",
"&X c #778EA0",
"*X c #848584",
"=X c #8B8B83",
"-X c #898988",
";X c #918E8B",
":X c #958685",
">X c #8B918C",
",X c #98968B",
"<X c #818D97",
"1X c #989896",
"2X c #909394",
"3X c #A59B9B",
"4X c #A2998E",
"5X c #9FA19D",
"6X c #A6A299",
"7X c #BBA786",
"8X c #8A9BA5",
"9X c #8B96A2",
"0X c #AA9DA4",
"qX c #99A3A5",
"wX c #8FA2A8",
"eX c #A5A5A4",
"rX c #ABA9A9",
"tX c #AEB0AF",
"yX c #B7B6B6",
"uX c #AEAEB0",
"iX c #DDBB9F",
"pX c #C6BCBD",
"aX c #CAB7B9",
"sX c #E4BB8F",
"dX c #C2C1BF",
"fX c #BEBDC1",
"gX c #AAB9D1",
"hX c #9CB1C4",
"jX c #BDCBCD",
"kX c #C4C4C3",
"lX c #C9C8C7",
"zX c #D5CBCB",
"xX c #CCD2CD",
"cX c #D3D3CE",
"   c #D4D4D4",
"bX c #D9D8D7",
"nX c #CBD4D1",
"mX c #E5E1DD",
"MX c #E8D9E0",
"NX c #D3E9EE",
"BX c #E7E7E6",
"   c white",
"CX c #F6E5E3",
"ZX c #D7D8DF",
/* pixels */
"                                        +Xv.0X                                              ",
"                                BXBXVX+XB.'.q 1X                                            ",
"                              lXjXNXVXOXsXiX7X].BX                                          ",
"                        bX/.-XtXNXNXVXXXoX'.[.,.pXBX                                        ",
"                        xX*XBX-X XwXkXoXE.{.}.}.T.m.C.mX                                    ",
"                        kX/.eX.Xo.g.~.E.OXV.H.}.@ ;X=XcX#X/.3XlX                            ",
"                    yXeXrX1X2X(.F u j +.;.].V.3 U   (.*X*X8X8X*X*XcX                        ",
"                kX^.R.>X/.>X,XF.o 7 V F   +.T d.Z a   ; i.I.%XqX-XqX                        ",
"                1X^.-Xz.f.^.-Xv.k D k -.Y.J =.6 . P =.d.M x.z.@X$X<X                        ",
"                1X  Y.l.L a./.^.A R C.+.n.+.m.+X=Xk.J r.P j.t.q.v.x.5X                      ",
"                bXR.  T.R 8 g.T.E.k.m.*XP.n.yXuXQ.J.S.N m P 1 b.k.j.dX                      ",
"                  tX  U g.  C k.oX/.Z c.I.&XZXjXk.:.J.G.k.c R J   D bX                      ",
"                  ^.  5 G a.s.s.:.t.M N ~.$XgXgX%Xc.i S.B.G.H.h K.+XrX                      ",
"                    7 7   5 s.G.d.B m Y. Xr.hXgXwX!.: ) [ -.;.-.w.8X$X                      ",
"                uX  g x.v.Y k G.;.$ d.F.J.R 8X&XG.W.o..XJ.    k w.~.#XyX                    ",
"                T.  L Y.j.C S Q.4.j , v.G.d.9X6X,XC.o >X,X  R %.N z.$X XBX                  ",
"                X C W.W.=.Y : XXH.% J Y o.J a.G.U.(.+.N.2Xs X Y P t. XP.yX                  ",
"              tX  (.eX>Xv.F i 6XC.$ m   7 + 2XT.  v C [ XXh.# S f.f.W.$XcX                  ",
"              ^.D A.(.U.=.  F 6XC.. c g P M uX9X  R : ) .Xm.X B J K R /.;XbX                ",
"              v.k W. Xx.T U o.,XB.4 q.U t.u.<X&X%.I F ) Q.h.M.U 4 Y R ~.M.yX                ",
"              bXT g Y C T U.k {.H.k S J x.w.*X$XF.%.o.q |.+.+.U X a @ o 1X                  ",
"              yX  U D   R v.l .XV.o ;.-.L.g.;X2XA.J.{.-.4X  1X,X  V A.I Y.                  ",
"              tX  B 7 S S U k.4X1.3 i S.T.h.E.|..XS.S.l.{.  -XyX  5 P.Y.!.                  ",
"                O 7 X ^.R.  ;X4X) Z l [ a.K C.4Xa.*.`.I l   !.yX  7 z.c.+X                  ",
"              uXk g # Y.~.o ,XXXy Z i B.u.H h.G.n.{.OXD d $ g.jX; o T a.=.R.lX              ",
"                3 R   b.t.O Q.H.} o : 4.%.h @.B.m.S.J.G * l   lX^.  a.n.T   xX              ",
"              eX  R k.P.t.. . l >.> : x x i +.H 9.S.z   u ..o fXyXo g.g.  (.                ",
"                Z # s.j.T = $ ` 2.o   l z l O M :.S.:.v s l O 0XyX  U m   uX                ",
"                *X  3 @ U & $ X.:.%.v 7   8 + P.z.  k.P.S.{ e C.!.o g g   lX                ",
"                1X  G a.8 H $ 2.4.%.b.5 v B   P.I.+.%.P.A.&.( w   B d.-XR.                  ",
"                eX  (.P + s . 5.4.K.c.& R 8 @ K.y.k.J I n.} ] h 7 X D /. XlX                ",
"                eXa.Y   Z = l <.*.K.l.. y.v : i.i.g.Z N h.&.X.p @ Y   (.xXxX                ",
"                    yXM.  g y >.O.K.q.  s.m ; i.i.G.S > 2.2./ ` $ lXbX                      ",
"                      3X  l ! 6.B.p.L # =.L 3 t.i.F.Z > *.5.O.X.  kX                        ",
"                      ;X  F ! 6.B.0.L   =.P g f.c.).S o [ 5.` O.. 3X                        ",
"                      :XX l r ,.-.N A   g.U 3 t.u.n.q.  4.'.y X.$ :X                        ",
"                      ).. H W 5.k.m 6   Y q.B l.P.W.B   -.`.y X.y N.                        ",
"                      @.* ` ~ >.{.~.G   j a.%.k.W.A.O . l `.' W X.r MX                      ",
"                      $ s d ( 7.yX1Xh.L .   .       9 : D 4.| W $.0 aX                      ",
"                    kX. ` d ' 5.>X*XC.8 * f * = s k O k + <.,.t #.0 *X                      ",
"                    uX  ..d ' 5.I.c.k.& * * $ % % $ $ l m ;.<.^ O.^ N.                      ",
"                    :X  ..! #.2.%.y.Y & $ * w $ * * & u < o.,.( ] $.e kX                    ",
"                    e.w ~ ! $.5.c J k & * $ * * $ * = * < o.<.] ^ Z.0 uX                    ",
"                    o / W ! >.2.c I D $ * * $ % % * * . < j <.#.W $.y rX                    ",
"                  yX  ..W t ,.2.c B 4 * * * * * * * % : 7 5 <.#.~ $.E :X                    ",
"                  6X  ..y ~ 2.*.+ g & w * $ q * % * % 7 k ; *.#.t #.^ V.                    ",
"                  :X  ` h ( 1.O.c P 4 $ % * w % * * * ; u # *.,.~ ~ ' W mX                  ",
"                  G.. [ O.W 6.H.P.P - * * % * w % % w 1 & o *.,.y #.]. .aX                  ",
"                  F 0 ] { t 2.V.K.A 4 $ = * * * q = & @ m   o.,.E | `.&.,X                  ",
"                  . ..~ ) / ,.B.I m 5 $ % % * * * % & - N 2 F <.^ E `._.Z.                  ",
"                rX. ..) { ` X.4.N v 4 * * * * % * % % - g c l <./ ^ `.'.Q lX                ",
"                :X. ..) _ / O.V.t.D & % * * % % & * q * 1 1 F <.~ ] <.V.Q 0X                ",
"                e.$ d _ _ l #.2.A 4 & % * % % * & & * * 3 , k >.' ] #.V.} Z.                ",
"              zXO d p } h ` ! O.@   * * % * % % $ * % 0 = 9 . @.| | W _.`.r bX              ",
"              rX  H p ! p 0 ] 4.C $ w % % * * * * * * * * 3 # G 7.' y ) ].E 0X              ",
"              !.  l r ~ ' d r 7.C . * * * = $ * 0 $ * % * 8 6 o z 3.Z.6.] Q Z.BX            ",
"            bX  d r p { 7.'.&. .K C & s 0 w w 0 j 4 s = . 7 v 1 1 K o.-.D.{ 0 aX            ",
"            0X. ..u l s * -.G.o.U S     . = . *   . . - V 3 ; , 7 + o # ..N.O.E rX          ",
"          zX+.e d d f k J I 2 I V G H N.w $ H w C.v.m.&   - A 8 6 6 L u.i.-.E #.- kX        ",
"    zXE.0 % $ H d u $ v I K.I m 6 nX      mXcXcX        pXyXS   C 2 M r.q.x.,X|.tX          ",
"    aX:X[.C.o.O % F s R f.t.m   o                           >X    L R I i.P.                ",
"              zXn.o q.c.P.f.U U kX                            jX1X. M < O   W.              ",
"                    O     q.O uX                                MX#Xf.L.L.v.-XCX            ",
"                  kXyXrX/.Y yX                                                              "
};
