/* XPM */
static char *_061a62df093446afb772ace34c5a9a9OJj5e9oKJgBJjmD2[] = {
/* columns rows colors chars-per-pixel */
"64 64 234 2 ",
"   c None",
".  c #010101",
"X  c #0B0304",
"o  c #050906",
"O  c #0B0A05",
"+  c #03030A",
"@  c #0B050B",
"#  c #050B0B",
"$  c #0C0C0C",
"%  c #110400",
"&  c #130A02",
"*  c #1D0F04",
"=  c #120D0C",
"-  c #16050B",
";  c #031203",
":  c #0D1100",
">  c #06130D",
",  c #0C120B",
"<  c #081A08",
"1  c #14140D",
"2  c #1C150E",
"3  c #1B1B0D",
"4  c #141907",
"5  c #000012",
"6  c #040D12",
"7  c #0C0D12",
"8  c #030318",
"9  c #030C1A",
"0  c #0E0818",
"q  c #120D13",
"w  c #170C16",
"e  c #041212",
"r  c #0C1314",
"t  c #0D1A15",
"y  c #0E1519",
"u  c #0D1A1B",
"i  c #041B19",
"p  c #131314",
"a  c #1A1513",
"s  c #141A14",
"d  c #1B1A15",
"f  c #131419",
"g  c #1B151B",
"h  c #131A1C",
"j  c #1B1B1C",
"k  c #220000",
"l  c #251407",
"z  c #221C16",
"x  c #2C1E11",
"c  c #211C1A",
"v  c #2C1C1A",
"b  c #261112",
"n  c #15230C",
"m  c #0A221D",
"M  c #15231B",
"N  c #1B231C",
"B  c #182616",
"V  c #21210D",
"C  c #24241C",
"Z  c #2A231D",
"A  c #23291B",
"S  c #2C2B1C",
"D  c #2A2817",
"F  c #332E1C",
"G  c #3D281D",
"H  c #2B311D",
"J  c #32311A",
"K  c #001A22",
"L  c #0B1C21",
"P  c #091526",
"I  c #141D23",
"U  c #1C1E22",
"Y  c #191725",
"T  c #221D22",
"R  c #2E1E25",
"E  c #0C2224",
"W  c #142224",
"Q  c #1C2423",
"!  c #152926",
"~  c #1C2A23",
"^  c #14252B",
"/  c #19262C",
"(  c #1B2C29",
")  c #15282A",
"_  c #1D352B",
"`  c #1B3429",
"'  c #1C2E32",
"]  c #122030",
"[  c #232424",
"{  c #2A2523",
"}  c #242A25",
"|  c #2A2B23",
" . c #252429",
".. c #2A252A",
"X. c #232B2A",
"o. c #2C2C2A",
"O. c #322B24",
"+. c #322D2B",
"@. c #352724",
"#. c #233424",
"$. c #23332B",
"%. c #2C322D",
"&. c #2A3D2C",
"*. c #263C28",
"=. c #333425",
"-. c #3B3624",
";. c #32332C",
":. c #39342B",
">. c #313829",
",. c #3C3B2C",
"<. c #393A24",
"1. c #212C34",
"2. c #2F2C31",
"3. c #342D34",
"4. c #223435",
"5. c #2C3333",
"6. c #2D3B32",
"7. c #24343A",
"8. c #2D3C3B",
"9. c #243C31",
"0. c #343534",
"q. c #333934",
"w. c #3A3B34",
"e. c #353438",
"r. c #3C3C3C",
"t. c #373737",
"y. c #453829",
"u. c #433D3A",
"i. c #463B38",
"p. c #503F36",
"a. c #3D432D",
"s. c #3D4225",
"d. c #27463D",
"f. c #3D4333",
"g. c #36423C",
"h. c #3B413D",
"j. c #334735",
"k. c #28422D",
"l. c #515017",
"z. c #4A4516",
"x. c #43442E",
"c. c #484529",
"v. c #444334",
"b. c #4A4634",
"n. c #4B4C34",
"m. c #44443C",
"M. c #4B453C",
"N. c #4D4C3C",
"B. c #464A35",
"V. c #574C38",
"C. c #5E523E",
"Z. c #52472A",
"A. c #604E3F",
"S. c #67522F",
"D. c #3E3E41",
"F. c #284247",
"G. c #324644",
"H. c #3D4343",
"J. c #3D4942",
"K. c #374A47",
"L. c #3F524F",
"P. c #334D52",
"I. c #3A585D",
"U. c #434443",
"Y. c #454A45",
"T. c #4B4B45",
"R. c #434549",
"E. c #444C4B",
"W. c #4B4D4B",
"Q. c #4D4546",
"!. c #534D49",
"~. c #5D4E4F",
"^. c #594943",
"/. c #4D544D",
"(. c #4F5B47",
"). c #535243",
"_. c #53524C",
"`. c #5D594C",
"'. c #5B574C",
"]. c #4C4E50",
"[. c #4B5652",
"{. c #465956",
"}. c #545352",
"|. c #5F5A54",
" X c #565B5C",
".X c #585C5B",
"XX c #555D53",
"oX c #665A48",
"OX c #615C5C",
"+X c #635853",
"@X c #715A53",
"#X c #52604F",
"$X c #5F6054",
"%X c #59625E",
"&X c #55655C",
"*X c #6A6447",
"=X c #69625F",
"-X c #676856",
";X c #736A5D",
":X c #786A59",
">X c #787358",
",X c #7A7649",
"<X c #5C5E61",
"1X c #615F61",
"2X c #476667",
"3X c #5C6466",
"4X c #646465",
"5X c #6C6B64",
"6X c #666969",
"7X c #776862",
"8X c #6C746E",
"9X c #78736A",
"0X c #6E6F7B",
"qX c #6C7970",
"wX c #777776",
"eX c #8E6F5E",
"rX c #83715C",
"tX c #847261",
"yX c #897A6B",
"uX c #88796F",
"iX c #73817C",
"pX c #928554",
"aX c #8C877C",
"sX c #968A7A",
"dX c #9B8A6F",
"fX c #A18F73",
"gX c #A9977D",
"hX c #938D88",
"jX c #B49E88",
"kX c #A39B95",
"lX c #B8A38F",
"zX c #B8A487",
"xX c #BAA896",
"cX c #C5AD99",
/* pixels */
"                                                                                                                                ",
"                                                                                                                                ",
"                                                                                                                                ",
"                                                                                                                                ",
"                                                                                                                                ",
"                                                                                                                                ",
"                                                            W.R.R./.                                                            ",
"                                                      wX_.X.5 0 T 8 9  .                                                        ",
"                4X4X4X  hX                            H.& 9XsXuX^.:X:Xi.                                                        ",
"              wXt.[ t.W.4X4X|.                        H.:.xXcXfXdXjXgX:X7.                                                      ",
"              wX. ..} . O A.V.^.                    4X+ i.jXcXjXlXjXzXA.E.                                                      ",
"              0XH.O = 7 . -.G l ).                  wX7XO.rXhXuX7X~.tXM.r.                                                      ",
"                6X).D.+ . f.=.,.b.                  +XkXp.uXA { +X. '.;X. W.                                                    ",
"                  W.3.{ v.4 >.b.O.Z                 -X_.@.eXyX@X7Xi.7XV.. }.                                                    ",
"                  W.0.,.b.n N 2 a O.;.            $X>XF Q.oXeXtX+X_.$Xn o.;.;.                                                  ",
"                <XuX*XZ.| =.4 O.c ;.1             $XJ C ~.;XeXsX5X6XY.=.;.o.a                                                   ",
"                  9X,Xl.| ,.O.a a a .         4Xu.m.z & 3.!.sXaX6X{.%XU.=.| 1 5._._.Y.                                          ",
"                    ).n.c.A =.%.C t.r.    qX&Xh.*.m.O.& ;.. V.aX8X Xj o.H S . < Q h.[.Y.1 t.                                    ",
"                      m.B.: . m.[ W.R.. | &.k.j.&.%.2 d /.hX1X. . ].qX/.4 | ~ k.} C M s s {                                     ",
"                        m.} O | Y.Q.. , #.*.*.*.M 6 X } XXaX7X. Q H.iXg.f y d.d.c v N q.N p                                     ",
"                        }.;.a . t..X... ; ; ; < t j j > N M.6XU.Q [ [.G.Y 2.4.4.d b +.N ~ q.                                    ",
"                        r.. p p . j   T R.h.q.A . j j M i f R.q.Z :.6.! ..i.w c j Z u.Y.[.g.                                    ",
"                          j . . $ O . [ R.E.6X4XQ.+.a e ! ( O N.).M.[ W s v k z h.i.^.q.( .                                     ",
"                          }.f 7 $ , , . . H B N j # o p 7 / h H f.=.X.1 s { U.c U.~.;X. + e.                                    ",
"                          _.f r 7 o 1 o.N j.q.} . r.r h 6 # y N (.%.f # ;.U.3XD.r.XX8X8.i H.                                    ",
"                          0.$ 0 q . . q.#.M k.M [ m.r r r 0.e.j =.} I e q.K.2XI.&.&X2Xg.G.8. X                                  ",
"                          e.D...& +.;Xv.B Q N i | M.# e U { R.N >.q.$.~ 6.{.F.P.;.{.{.K.H.}  .                                  ",
"                          ].4X<Xc M.oXc.d %., # | T.e L j b @.S a.h.Q ` d.#X-X<.c 1.8.j :.!..                                   ",
"                            U e.S.Z.+X| x C / u ,.w.. d z v 2.N >.$.W G._ (.-XX {  . ...{ v.J                                   ",
"                              w.pXl.P o.x j 4.y =.| . Z F = u u 9 L ' 7.9.} ~ 3 -Xy.. p j Z <.,.                                ",
"                              T.rX* U X R R P x.n.. d { 1 I ) ^ W 4.F.P.1.Q ;.V b.y.$ = a O z m.                                ",
"                               .* y.o.o c R X oXn.= a O t ) L u + ^ F.{.5.} o.Z . & 2 X q + j m.                                ",
"                                - 1 ; %.j - y.V.; a 0 = a y Q [ [ X.) ! = } { C +.g X q q + d T.                                ",
"                                  7 g.8.4.X S.G + - g { a @ t.Y.}.t.8.8.. 3.{ 1 -.z $ w q . C m.                                ",
"                                    [ [ . V.oX. p O a d a { W.o...N X.N r X.X.{ M.@.$ a q . H <.                                ",
"                                      7 !.7X{ + q O . . o d 0.# h $ . . 7 X.2.m.:XC.c = a | |                                   ",
"                                        OXo.. w f $ o . p s . g T p $ . :.w.:.:.S O.& O                                         ",
"                                              . + r j . p 7 $ $ p $ 1 . O.b.@.c 0 . O._.                                        ",
"                                              :.z 6 f r s # r h # ; r . e ,.O.. r . +.|.                                        ",
"                                              `.=.+ W y r r h M h h > 6 ^ P p z s o .                                           ",
"                                              U.[ . I f y e y r g j y u t ( t c C o $                                           ",
"                                              ;.o r h I r y 6 o . + y u W m ; c C ~ p .                                         ",
"                                              w.. h u h 6 y y + . + r ! ! W , 2 >.B h .                                         ",
"                                              %.o h h h f I r 7 . + r W W E h d ,.#.( o                                         ",
"                                            < $.M u r h h h y 7 + @ y h / ^ > a a.k.! o                                         ",
"                                            $.6.r y y y y f r 7 . + o u ^ E h 0 v.&.m s                                         ",
"                                            U.5.r h h 7 r U p $ . o $ o m ~ W 5 b.a.` | Y.                                      ",
"                                            h.Q u u h r f g s # . # d o m ~ Q . b.a.` B T.                                      ",
"                                            U.h r y y # f h f O . . d g s N I 9 ,.x.9.s W.                                      ",
"                                            h.h t Q r # y j [ p . . h T + h ! 8 <.n.9.< U.                                      ",
"                                            h., W h r + p p g $ . o p s @ s / 9 F c.$.< U.                                      ",
"                                          E.8.$ [ u u 7 y r $ . . o $ 7 p q I K A c.$.X.q.                                      ",
"                                          [.6.s # h h . 7 # + . . . . o + O f L 3 <.N M Q 4X                                    ",
"                                          [.g.h s u f h r q $ . $ $ . s q $ y E M a.B o U  X                                    ",
"                                          E.6.o r Q f U f f q $ . . $ g p 1 f i t ,.H o @ <X                                    ",
"                                          3Xt . . 6 f q q f p . t.t.. r f 1 N E 6 :.D . . 6X                                    ",
"                                          3X~ . f U @ 7 q g q . U.r.o.e.. 1 , I 5 -.J | d                                       ",
"                                          %X. o # T q U w q . a       Q.... +     z.l.-.                                        ",
"                                        6X8X.       q [ g q +           e.@ p     J c.                                          ",
"                                                      3.q q q           w ..g     c                                             ",
"                                                      U f @ T           g 3.g                                                   ",
"                                                    . @ w . o.          q g U @                                                 ",
"                                                    7 g q . } r.        O + p q +                                               ",
"                                                    $ $ O . $           . @ $ $ o                                               "
};
