/* XPM */
static char *_e449b73a1c347068adf79dc9ec252e3e799RolGDSN34ynL[] = {
/* columns rows colors chars-per-pixel */
"64 64 218 2 ",
"   c None",
".  c #010102",
"X  c #090606",
"o  c #060906",
"O  c #0C0903",
"+  c #04050A",
"@  c #0B050B",
"#  c #060B0C",
"$  c #0C0C0C",
"%  c #110400",
"&  c #130A02",
"*  c #130E0D",
"=  c #10050F",
"-  c #06130D",
";  c #0A130B",
":  c #0C1A0D",
">  c #001004",
",  c #14140D",
"<  c #1C160E",
"1  c #1B1B0C",
"2  c #141907",
"3  c #000012",
"4  c #040E13",
"5  c #0C0D12",
"6  c #030318",
"7  c #030C1A",
"8  c #0E0A1C",
"9  c #120D13",
"0  c #170915",
"q  c #051212",
"w  c #0C1314",
"e  c #0D1B16",
"r  c #0E1519",
"t  c #0D1A1B",
"y  c #041B19",
"u  c #131314",
"i  c #1A1613",
"p  c #141B15",
"a  c #1B1A15",
"s  c #141419",
"d  c #1A161B",
"f  c #131B1C",
"g  c #1B1B1B",
"h  c #220000",
"j  c #22120E",
"k  c #211B16",
"l  c #211D1A",
"z  c #2C1C1A",
"x  c #261112",
"c  c #0A221D",
"v  c #172010",
"b  c #15221B",
"n  c #1B231C",
"m  c #1A2C1C",
"M  c #21210D",
"N  c #24231C",
"B  c #2A231D",
"V  c #23291B",
"C  c #2C2B1C",
"Z  c #252216",
"A  c #332E1C",
"S  c #2B311D",
"D  c #32311A",
"F  c #001A22",
"G  c #0B1C21",
"H  c #071724",
"J  c #111C23",
"K  c #1C1E22",
"L  c #1E1F2A",
"P  c #221D22",
"I  c #0E2323",
"U  c #072028",
"Y  c #132224",
"T  c #1B2323",
"R  c #152926",
"E  c #1C2B23",
"W  c #14252B",
"Q  c #19262C",
"!  c #1C2E29",
"~  c #15282A",
"^  c #1B3226",
"/  c #1D352B",
"(  c #1D3A2F",
")  c #1C2E32",
"_  c #122030",
"`  c #232424",
"'  c #2A2423",
"]  c #242926",
"[  c #2A2B24",
"{  c #252529",
"}  c #2A252B",
"|  c #232B2A",
" . c #2C2C2A",
".. c #322D25",
"X. c #322D2C",
"o. c #352724",
"O. c #23332B",
"+. c #2C322D",
"@. c #273A28",
"#. c #333425",
"$. c #3B3624",
"%. c #3B3924",
"&. c #31332D",
"*. c #39332B",
"=. c #313829",
"-. c #3C3C2C",
";. c #363B26",
":. c #212C34",
">. c #2F2C31",
",. c #332D34",
"<. c #2D3334",
"1. c #243C31",
"2. c #24343A",
"3. c #2D3C3B",
"4. c #273731",
"5. c #343634",
"6. c #3A3534",
"7. c #333935",
"8. c #353438",
"9. c #3B3C3B",
"0. c #323C3A",
"q. c #433E2F",
"w. c #483C2F",
"e. c #453C36",
"r. c #443C39",
"t. c #483B3A",
"y. c #503F36",
"u. c #3D432D",
"i. c #3C4027",
"p. c #27453D",
"a. c #29493D",
"s. c #37433D",
"d. c #3D403C",
"f. c #3B4530",
"g. c #434513",
"h. c #50501D",
"j. c #424226",
"k. c #46472D",
"l. c #454435",
"z. c #4B4633",
"x. c #45443B",
"c. c #4B463E",
"v. c #4D4C3B",
"b. c #4D4D31",
"n. c #554C3A",
"m. c #5D513E",
"M. c #604E3F",
"N. c #284247",
"B. c #324644",
"V. c #3D4343",
"C. c #3D4943",
"Z. c #374A47",
"A. c #3F524F",
"S. c #334D52",
"D. c #3A585D",
"F. c #434443",
"G. c #454A45",
"H. c #4B4B45",
"J. c #434449",
"K. c #4B4D4B",
"L. c #4A4746",
"P. c #5B4D44",
"I. c #554E49",
"U. c #5D4E4F",
"Y. c #564545",
"T. c #4D544D",
"R. c #4F5B47",
"E. c #54524B",
"W. c #5F544E",
"Q. c #545D49",
"!. c #475A54",
"~. c #4A5A54",
"^. c #435D5F",
"/. c #485351",
"(. c #545451",
"). c #555D53",
"_. c #565B5C",
"`. c #5F5B56",
"'. c #675B4B",
"]. c #645854",
"[. c #715A53",
"{. c #52604F",
"}. c #59625A",
"|. c #69625F",
" X c #6A6852",
".X c #746A5C",
"XX c #786A59",
"oX c #5C5E61",
"OX c #476667",
"+X c #54666A",
"@X c #636F65",
"#X c #6C6B64",
"$X c #666669",
"%X c #766562",
"&X c #7A6A63",
"*X c #6C746E",
"=X c #7B7369",
"-X c #777775",
";X c #8E6F5E",
":X c #83715C",
">X c #847261",
",X c #897A6B",
"<X c #907867",
"1X c #73817C",
"2X c #9B8A6F",
"3X c #8C877C",
"4X c #9B8C7D",
"5X c #918877",
"6X c #A18F73",
"7X c #A9977D",
"8X c #9B8E84",
"9X c #95908B",
"0X c #B49E88",
"qX c #A39B95",
"wX c #B8A38F",
"eX c #B8A487",
"rX c #BAA896",
"tX c #C5AD99",
/* pixels */
"                                                                                                                                ",
"                                                                                                                                ",
"                                                                                                                                ",
"                                                                                                                                ",
"                                                                                                                                ",
"                                                                                                                                ",
"                                                                                                                                ",
"                                                                                                                                ",
"                                                                                                                                ",
"                                                                                                                                ",
"                                                                                                                                ",
"                                                                                                                                ",
"                                                                                                                                ",
"                                                                                                                                ",
"                                                                                                                                ",
"                                                                                                                                ",
"                                                                                                                                ",
"                                                                                                                                ",
"                                                                                                                                ",
"                                                                                                                                ",
"                                                                                                                                ",
"                                                                                                                                ",
"                                                                                                                                ",
"                                                                                                                                ",
"                                                                                                                                ",
"                                                                                                                                ",
"                                                                                                                                ",
"                                                                                                                                ",
"                                                                                                                                ",
"                                                                                                                                ",
"                                                                                                                                ",
"                                                                                                                                ",
"                                                                                                                                ",
"                                                                                                                                ",
"                                                                                                                                ",
"                                                                                                                                ",
"                                                                                                                                ",
"                                                                                                                                ",
"                                                                                                                                ",
"                                                                                                                                ",
"                                                                                                                                ",
"                                                                                                                                ",
"                                                                                                                                ",
"                                                                  ;.x.H.x.l.-.                                                  ",
"                                                                [ S l a a l $.D . { oX                                          ",
"                        $X_._.$X                                [ . . X X X ' z.I.] <.V.5.. s.7.u [ 8.                          ",
"                      i . @ T ] 7.F.V.H.H.F.                    i u 9 9 9 u a P *.V.B.F + ! ~.T n p ,                           ",
"                    $.[ . o . b | : : v n  .p o o . .     `.I.O * 9 s 9 @ * u X.g Z.s.0.. 7.G.n 7.p G.                          ",
"                  j.h.A Z S V E O.O.1./ / ^ c R ! b , $ . X...& N 9 @ & < $ . { 3.^.OX*X&XY.r. .n b T.G.                        ",
"                l D g.$.*.-.u.i.j.k.b.k.f.i.@.1.@.m m o o + . A m.o.l u & q.q.{ ! !.}.).W.r.B x z B 9.(.                        ",
"        . X           + q t f v V C $.-.l.v.l.-.-.#.N N p 5 8 C XXz.#.X.. z.'.' l 5.=.d.F.9.g k g ] n (.                        ",
"        $ 5 @         Y G t I U F 7 6 7 + 3 $ < i < a g a . k *.c.} , ` B M 1 X $.A.D.3.l k g ( a.1.: &.                        ",
"        $ u P d d s @ ; b u r r K Y R b K R f - f - - e u #.o.*. .| } '  .+.E  X XB.OX+XF.h i :.p.^ o , p +.                    ",
"        $ @ d ,.P @ . , , < O $ 5 p g n E m Y W I R t ^ H *.z.6.{ | ,.[  .T | R.{.~.A.V.{ z t.} u [ C [ [ *.E.K.                ",
"        . + * d s 8.} . s s 5 + u = @ e f I W Q Y Y Y e _ - #.*.5 w . ; 4.) O.( a.4.7.+.p i } T s 2 S [ &.[ . . 9.K.2.          ",
"                    F.5.w g s + $ g g f + o t t Y Y f t q + . . . g 3.R ^.S.2.B.E T w - , Y W C.s.T. .F.&.M v..Xy.M.XXw.{       ",
"                       .+ $ . . # u p g f $ # w w r e u - w u $ . ] 3.~ N.N.) Y E | J r { ` 5./.1X-Xg }.G.}..X].&X0X0X:X7       ",
"                      d.6.. $ . X X . . o o + + + + + s p - $ i $ g 8.| ~ 2.J | s.7.] +.+.c.5.N B./._.~.@XE.e.. U.wX7XXX6 K.    ",
"                      F.8.. $ . . . . + . . . X . + + s f # 9 g f [ (.` + T 7 #.k.=.&.Q.u.n.N T { . *X@X.X].%X].%XwX2XP.P J.    ",
"          9.        i . . $ . . . $ ; $ $ $ ; w # + + r b p $ g $  .G.] t Y b n C a n n S v.9.V.. . 5X3X4X>X[.' -XwX6X,X8 J.    ",
"        $ ` } N $ X . 9 u $ $ X $ p P s u r w r r w q r f e , . ,.K.7.{ H Q y X.X.J.8.r t O F.$X|.].n.5X:X;X<XB 8XtXwX4X3 K.    ",
"        . . . = 9 0 9 d u d 9 # r u f g d K s f f r r w # # 5 i a ` = q W G * B j ' 5.# Q :.f c.3X9X. I.XX'.:X,X>XeXrX=X|       ",
"        + u s 0 0 s 0 9 9 s 5 5 w t r s s r r f r 5 4 s w f w u o i j a p , A k g P u 4 # R y b ).T.+.,.U.Y.o.L.X.e.*.& K.      ",
"        $ g = g ,.` P 5 5 K f + 5 + + # w 5 r f f f J f r w . . . a ' , o ' B a G 4 w f p q b - ] x & & Z D I.qX#X+ J.J.-X      "
};
