/* XPM */
static char *_e1e56841a734b6bad7f184044230c7bDu9i6q0rCoekf9PL[] = {
/* columns rows colors chars-per-pixel */
"64 64 256 2 ",
"   c #2D2D1B",
".  c #1D2E29",
"X  c #2A2C2B",
"o  c #282A27",
"O  c #352B28",
"+  c #2D342C",
"@  c #283627",
"#  c #35352A",
"$  c #2D2C34",
"%  c #2B2B39",
"&  c #342D33",
"*  c #382A38",
"=  c #2C3334",
"-  c #2B3838",
";  c #343334",
":  c #3C343A",
">  c #3C3C3B",
",  c #363837",
"<  c #212D25",
"1  c #43362B",
"2  c #433938",
"3  c #462F34",
"4  c #37442C",
"5  c #38463A",
"6  c #2F4933",
"7  c #454939",
"8  c #53493D",
"9  c #48523A",
"0  c #504D38",
"q  c #61463C",
"w  c #4F643F",
"e  c #372E45",
"r  c #2A3742",
"t  c #3A3944",
"y  c #38374D",
"u  c #463B46",
"i  c #553B48",
"p  c #523C54",
"a  c #3B4444",
"s  c #3C4647",
"d  c #3C5449",
"f  c #35474C",
"g  c #3D7978",
"h  c #3E746C",
"j  c #444443",
"k  c #4C4345",
"l  c #444C43",
"z  c #44454B",
"x  c #444C4B",
"c  c #4B4B4C",
"v  c #4C4848",
"b  c #544C4C",
"n  c #564847",
"m  c #4B5342",
"M  c #46534B",
"N  c #4C534B",
"B  c #495749",
"V  c #545345",
"C  c #54544D",
"Z  c #5B544D",
"A  c #545C4C",
"S  c #595748",
"D  c #4B4B53",
"F  c #474855",
"G  c #534C53",
"H  c #594D54",
"J  c #564758",
"K  c #4C5453",
"L  c #4D5B53",
"P  c #495759",
"I  c #545353",
"U  c #5B5354",
"Y  c #545A53",
"T  c #5B5B54",
"R  c #55545B",
"E  c #5B545B",
"W  c #545B5B",
"Q  c #5B5A5B",
"!  c #62564C",
"~  c #654957",
"^  c #62555C",
"/  c #625C5B",
"(  c #655756",
")  c #655150",
"_  c #4B644D",
"`  c #59634A",
"'  c #4D635C",
"]  c #4B6958",
"[  c #54635C",
"{  c #5B635C",
"}  c #556657",
"|  c #4C725D",
" . c #60625E",
".. c #5A4E65",
"X. c #4B5763",
"o. c #545C63",
"O. c #5C5B63",
"+. c #5D5C6A",
"@. c #585565",
"#. c #585C72",
"$. c #4A5267",
"%. c #635464",
"&. c #645B64",
"*. c #635C6B",
"=. c #675568",
"-. c #665875",
";. c #664D67",
":. c #4B6967",
">. c #546464",
",. c #5B6363",
"<. c #536A64",
"1. c #54646B",
"2. c #5B636C",
"3. c #546A6B",
"4. c #596A6A",
"5. c #477468",
"6. c #53736D",
"7. c #4A6C75",
"8. c #546C73",
"9. c #576776",
"0. c #4B7374",
"q. c #4C737D",
"w. c #437A7B",
"e. c #477977",
"r. c #547376",
"t. c #626468",
"y. c #656475",
"u. c #60717B",
"i. c #3A857B",
"p. c #318A7A",
"a. c #448178",
"s. c #3B7D84",
"d. c #3C7C95",
"f. c #576A84",
"g. c #437C82",
"h. c #487987",
"j. c #537687",
"k. c #467C94",
"l. c #4F718D",
"z. c #706686",
"x. c #3A8383",
"c. c #3C848B",
"v. c #378988",
"b. c #37918A",
"n. c #3B8594",
"m. c #358C94",
"M. c #3C8B9A",
"N. c #388898",
"B. c #2A9699",
"V. c #33929C",
"C. c #369597",
"Z. c #2B8D8E",
"A. c #1DA596",
"S. c #2AA49B",
"D. c #1F9DAE",
"F. c #378CA5",
"G. c #299AA8",
"H. c #3394A3",
"J. c #3698A7",
"K. c #289CB4",
"L. c #339AB5",
"P. c #2A8CAC",
"I. c #19A9A9",
"U. c #15B3AA",
"Y. c #19ABB8",
"T. c #18B4BA",
"R. c #0CB0B4",
"E. c #26A5A9",
"W. c #33A2AB",
"Q. c #24A4BA",
"!. c #27A6B7",
"~. c #30A6B7",
"^. c #438284",
"/. c #43838C",
"(. c #47898B",
"). c #448697",
"_. c #429391",
"`. c #448BA4",
"'. c #4592AD",
"]. c #04C3BB",
"[. c #18AAC4",
"{. c #09BAC7",
"}. c #15B5C4",
"|. c #15B5CC",
" X c #18B6C8",
".X c #16ADD3",
"XX c #0ABBD7",
"oX c #13BCD2",
"OX c #16B8D7",
"+X c #0DAECA",
"@X c #25A8C6",
"#X c #25B1CE",
"$X c #0DBFE1",
"%X c #16BBE9",
"&X c #22BCE2",
"*X c #329AC4",
"=X c #40A3C3",
"-X c #06C5C9",
";X c #03C4D3",
":X c #05C4DB",
">X c #02CCDB",
",X c #09C8D7",
"<X c #16C4D6",
"1X c #02D3D4",
"2X c #01D5DA",
"3X c #10C6C6",
"4X c #02CCE4",
"5X c #07C8E7",
"6X c #16C3E8",
"7X c #01D4E4",
"8X c #01D4EC",
"9X c #01DBEC",
"0X c #04D8E6",
"qX c #05CCF5",
"wX c #01D4F2",
"eX c #01DCF4",
"rX c #01D5FC",
"tX c #03DDFD",
"yX c #0BD9F8",
"uX c #15D0F7",
"iX c #00E4ED",
"pX c #02EAE8",
"aX c #04F5EB",
"sX c #01E4F4",
"dX c #01EAF4",
"fX c #02E4FD",
"gX c #0BE5FE",
"hX c #02ECFD",
"jX c #0BEBFE",
"kX c #0AE9F4",
"lX c #13ECFE",
"zX c #16E9FA",
"xX c #01F3F4",
"cX c #01F3FE",
"vX c #0BF2FE",
"bX c #07F7F7",
"nX c #16F4FD",
"mX c #15F3EA",
"MX c #28EBFE",
"NX c #36EBFC",
"BX c #28F6FD",
"VX c #39F8FB",
"CX c #30FBE8",
"ZX c #11D3DC",
"AX c #45F9FC",
"SX c #57F8FD",
"DX c #4FE9FD",
"FX c #6BEFF6",
"GX c #7EECDF",
"HX c #94DBEF",
"JX c #A9DBEA",
"KX c #8DE8F2",
"LX c #AFE4E9",
"PX c #97D9D7",
"IX c #F3EEF7",
"UX c #D1DCDE",
/* pixels */
"$ n cXfXO G M T I I I G K I I I J ! [ -.# 6 7.%.& ^ fXhX+ G hXXX$ l yXcX@ 8 wXfXp # % -X}.c V.tXeXyXa.bXrX<XsXF.W.).+ 7.yX@ l $X",
"b.Y.$ N { F O / W W I c c I W { Q Q ] *.Z 2 f k wXb.T.!.sX5X) b.fXfX@.B.hXhX0 -XA - wXAX*.s.X.8XjX1Xt.+.eX4XH.{.Y.! s c t.<XtXZ ",
"n v P t.# . D : W  .I v G G Y O.' %.[ [ t.R : , B.XXO { cXQ.t +.Y.zXc n J.yX:.% o V AXP.L.) 4.5.} wXhX9XxXqXoXvXr.o N C t fXfXo ",
"= U 5 ,.fXfXX * l W I b Y Y N W Y 1.t.U :.v.R 6 + ~ }.q.F I.q.5.w.C B.K.' t.c 8 t DXnXN s.] &.*.^ gXtX8XT.!.xXJ.O k.R G E.$ 6 ( ",
"E D f 1 F.<X<.s , v c C Q Y c W Q O.T ,.1.Z.M.n T a - t.zXhX& D hXhXe 7 hXdX: % jXSXZ.b.W } Q A R 1XY.pX!.).!.a , e.OX  f 9.$.% ",
"aXX O P * 9 Q k , j v c I G c U { ;.Y e.8.4.V.*.+ k G m.$ &.1X{.& 7 .XcXo X & dXKX-.[ ).e.c r.Z n.4XG.&XV.o.- z x.@ j W n 1 O KX",
"h.tX>X@ g 9.& v j 5 > j c c c Q Q R ,.:.g f.9.G.7.# ; 5 bXfX  U hXvX1 , [.d j LXbXb K 8.6.J.l.3.t.:. .*X7X_ 1 & D p.j.s = sXKXNX",
"U T.lXe.O $ Y I j ; ; t c v c Y R ` j.M 9.E.A 4X5Xc k D 1 7.fX4X* l sX^ & X KXBXU.%X{ N.*.2.] G G t.S m.L & I U u i @ O BXHXjX7 ",
"5.' &.OXfXo.  u ( w.X O x J 7 Q K 4.g.9.,.i.Q.eXhX7XJ j s.g r B bXjXO d , DXVXE.gXm.W / 8.g ( 1.*.U _ >.X T R @ J ;   SXHX} m F.",
"k.W ^ B.hX8X} , = O E , t m R M T <.w.7./.V.V.}.F.xXB.o v -.I.gXX.O.E o MXFX&.fXcX Xv.y.3.^.r.7.4.O.~ t , 2 v @.= ] LXSX& s.4.).",
"..Q v.G.t.b.+Xw.r W 5 X , - =.~ / 8.h.x.F.).n.T.fXC jXfX= 7 V 6Xs.^ X  .JXfX1XjXhXXXS.n.:.[ =.] U.k.+ > s O.0 * bXJXlXO j.r.k J.",
"} R t.6.s ) ^.N.@X1 4 X., = 5 Y <.k./.x.c.j.m.4XOXJ.P.8X,.f z 5 >.K ; PXmXF.vXdXcXQ.S. XB.g.8.V.g.T e u v 5 , nXSX-Xu p.I ,. .:.",
"6.w G Q ] ^ I X.i.`.i D n : . V 0.k.).i.m.(.G.5X!.+XQ.^.hXc 2 4.O ; FXVXnXjXfXxXiXy.s.K.F.@XB.G.b @ 5 9.r u SXAXK 8.@XH  ._ /.8.",
"Y 7.%.R *.T I W o.2.OX6 , : 2 , 8.h.x.m.Q. XY.@XC.dX4X>XhX<X# J O zXKXcXiXjXfXvX,Xe.J.K.M.T.e.P * u 5 3 U.HXVXV G.O.N g.k.E G.#X",
"^ @.H v @.8.( U 4.D A 5XJ 3 F = c 1.m.K. X:X X}.XX.XL.8X}.eXsXX hXPXbXdXfX5XmXdXgXU.fXdXOXE.&.7 4 , e kXPXdXX h.{ U ^ ` m #XI.XX",
"L ! L T T Q T Y Z 7.t.[ 0XG.@ 2 @ R W.#XY. X<X7X2XeXsX<X}.G.cXAXFXMXjXlX8XdXcXcXjXw.8XcXsX4.k t & * VXFXhXQ Z R b { 1.f.^.E.m.F.",
"U Y A O.9.x.<.W 1.:.6.W f.0X'.@ ; 1 O.C.8XoXhXtX.XjX7XfXqX{.jXzXxXsXjXcXhXcXjXgXcXiX4XE.5.J F X D GXAX, sXK.8.6.:.T ! %Xm / 3.a.",
"*.U L +.8.( E 8.r.2.h.x.2.E.dXcXv o > fXoXdX[.gXhXeXfXdXeXeXyXhXfXtXvXzXbXkXcXcXhXjX=XtXJ.2 % hXKXDXX.0X-.!.).o.Q 9.G.G.} { #.@.",
"b :.x.1.<.<. .Q H.v.J.E.v.f.oXcXzXY o u m.zXcXXXiXY.yXvXtXjXcXhXfXfXhXlXcXjXjXcXxX5XrXR.f ; aXKXxXe H.Z h k.q.Z.Y !.m.0..XY j 8.",
"O.Q Q o.<.] Q 9.7.:.h./.B.).G.R.yXMXcX% n B.7XtXtXeXhXxXbXhXkXhXcXhXhXcXhXfXfXhXxXV.V.; O FXJXE.L W.h.:.| 0.S.-.E.m.Y.L.m.a.y.j ",
"; b ) / } Q Q 1./ +.>./ 8.w.W.:XA.cXbXK.j v.gXhXxXhXhXcXcXfXhXdXsX8XuXcXhXhXsXxXcX|.W s.KXLX).8.S.1.W @.b.[.|.>X/.^.f.}.2X`.# 6 ",
". # 5 G 3.3.%.W ^.2.Q 8.9.e.S.OX5XL.}.MXFXBXrXbXcXjXqX5XkXqX@X5XG.J.Y.,XgXvXcXjXcX<XhXPXKXdXyXF.1.k.t.J.@.^.U t.E I.@XA.z.x = u ",
"j.u X t :.Y 4.F.w.Q 1.F.V.H.}.[.#.).dXrXmXsXvXtXfXfXtXeX>XW.:.U *.' &.9.].dXhXcXhXgX9XlXdXxXpXhXV.-X(.8.e.cXV.J *.L.fX .  y / 0 ",
"; R.<XO < ;.I.<.F._.R.Q.0.c.T.g.T.;XgXaXqXcXfXdXeX8XS.7.G ) g.x.J C 9 2 ;.!.9XvXgXT.|.tXcXoXfXcXgX[ Y.K.r.sX/ W e.<.v * N @ % OX",
"cXM @ !.N.  4 &.8.L.x.H.9.v.c.V.B.@X$X;XfXfX5XhXW.K.M j.dXxXlXSXaX1.@.v a t Y iX|.{.fXvXhX8XjXxXtXE.}. XhX<XW.>.| j * # . cXkX# ",
"dXn.jXU M E u r @._ { ).V.@X#X4X XOXeX9XhXfXK.B.l.s xXSXUXIXHXJXVX.XxXdX0.n j ^ `.E.oX,X{.!.fXhXnXl.Q vXdXI.J.P t * 4 @XfX$ Y fX",
"G.O.xXpXqXH F 7 > $.v.OXsX2XeX5X7X{.gXtXrXfXL.7.l bXHXIXIXUXnXVXmXE.jXlX2Xj.z r X.^.|.Q.E.E.,XtXpXT.iXvX:.g.R o , #XE.O V.nXhXp ",
"cX^ u pXzX' l n # & J 0.].5X8XdX5XY.yXtX;X8X`.O.V FXUXIXAXhXjX^.9XF.>XiXtXB.^.j 5 ,.5X&X}.:XT.$X%XJ.Y.N.4.l O %.Q + G.(.:.6.dXA.",
"M V.{.X.b $X~.<.K : & n ~.9XoX!.5XT.fXsX}.!.Q 8 T.HXIXNXg hXlXyXrXjX>X%XlX1XJ.V , L :XtX9XfXY.~.I.d.{.I , x H d W fXL.T XX X4Xy.",
"MX& a gXcXN X 9XbXx.t o & L.rXT.4X4XjXhXyX*Xn l gXAXDX2XcXlXhXhXjXdXiXtXcXfXf.:.3 F G.sX9XgXT.J.y.xXq., v z 9.5 Q bXpXm @.hXhXq ",
"o bXhX5 * fXvXR O /.Y.| ; # i fX4XeXhXjXyXF.R @.VXnXxXpXhXgXxXhXhXeXlXhXdX;X<.a.2 u c.9X5XgX|.A.s.n o x n s (.gXfXo %.oXpXu 2 cX",
"lX# @ dXBXa   5XcX~ * W D 5 = c qXwXeX5XV.Z n U hXVXzX5X4XhXdXgXhXvXhXhXjXM.fXO.l t l.cX7XfX|.K.- $ l # t jXsX* 7 nXlX$ 5 lXdX+ ",
"D fXkXM > hXjXR X sXj.a 7 @ fXlXm.).5X0X:Xj.# :.dXMXbXdXhXgXjXcXkXnXhXdXxX@X2.I.l u H.sX~.5XXXI.eXl * Z L @ =.cXqX, s fXbX& # xX",
"aXx  .hXcXJ Y T.cX~ = F * jXKXcX>X6XfX8XoXh.5 +.hXjXcXjXhXfXhXcXhXbXjXjX>XZ.h.U i 5 D.hX9X>X5XdXNXAXH.% p A.G ; 0.mXjXu 4 vXnX% ",
"v.gXeXQ fX{.hX&.U Q 3 * VXPXdXv.;X8X0X,XY.w.j i sXfXjXjXhX8XyXxXcXcXjXlXsX&.I l + l 9XgX8XeXjXjXOXbXAXpX: u M f.^.i h fXgX: 5 cX",
"oX$XgXJ.<XQ.cXo.a X _ VXMX#.H.8XG.|.T.{.Y.^.b O N.Q.7XcXcXjXfXhXgXcXxXiX1X*.D I : E ,XOXE.wXgXhXhXdX}.MXhX- k 0 v R ).[ ].fXbXK ",
"dXR _ |.hXV @ v n j.MXzXT.cXe.,X!.OX}. X XC.9., 9 O.M.{.8XhXjXcXjX9XhX;X&.7.9.> # P  XeXjXqXU.wXcXC.J.z n.kXT = n $.N V <X:.B.tX",
"; vXlX9 % #.9.e E.NXBXdXdX).tXE.8X8XXXL. XE.h.c 3 J J.,X6XtX8X%XfX6X9XN.9 @.l # K [ 5XcXxXcXhX-XvX.XT.T.M.j.kXzX@ O u =.yXd ^ 4X",
"R.k O T Y - 1 pXnXfXU.hXfXR.fXx.9XXX4Xm.XXE./.Q 5 2 ' p.N.F.)./.E.{.J.t.' > @ D F.5X;X).}.iXlXfXdXfX`.C P.).hXjXH.k f y . R hX8.",
"D ;Xk.t : B hXBXx.).[.F.m.;Xk.|.{.J.qXC.wXQ.M.0.s.t O 5 o.w.0.] O.7.v.R t O ~ :.7X;X{.fX>XOXfXhXtX8XJ.dXT.!.b.Y ;X&X9 7 ).O o gX",
"C z + @ K.zXkXT ( 1.8XeX7XfX@XG.0X/.Y.I.Q.Q.b.[.x.>.u ; , s v m d G 3 @ t G f.eXdXfX2XOXXXF.hXeXkX{.G.H.N.2.( 3.A *.I.[ % x ,.$ ",
"M : u fXNXcXX.,.:.2.>X5X!.U.V.Y.Q.2X5XE.H.5XZ.6XL.).>.m 2 t e % X e 5 7 t.E.1XjX XhXjXcX@X8X;XyX+X XJ.6.} [ Q N m ! %.1.^.u O ^.",
"3 @.lXzXZ.7 Y 2.h.2.C.I.G.Q.L.T.L.j.[.b.c x.<X XY.G.n.1.Q A A V m D +.N.[.gXhXhXeXjX3.E.7X).hX;X@X XT.g.W >.O.I @.R b B 3.l.B & ",
"cXpXcXY A O.Y q.0.g.).).V.}.8X5XwXT.c # o.$XqXiXW.G.M.r.2.7.w.l.7.:.!.hXfXhXcXiXOXiX`.O E b.>XrXeX:X@XL.).1.I ^ B 0.E v 8 @.g.sX",
"BXF.G o.S #.`.N _ `.@XD.M.:XfX-Xh.5 @ l.BXsXv.`.c.v.s.8.<.5.5.8.(.r.T.sX6X;XfXjXbXxXBX].$ F 1.5XvXsX,X}.m.{ _ W %.^ B E S k @.nX",
": K ~ V T 9.h.c.w.M.`.I.T.XX@X( s & `.BXbX(.pXF.j.g.g.g.s.B.!.L.R..XtXtXOXXXfXxXpXhXbXMXB.O t >.pXjXcX;XG./.9.E h.x m ' D &.w = ",
"A &.M *.M j.}.1.).b.`.4XQ.3.I ; $ dXMXjX{.4X4Xh.G.V.^.r.g.V.H.F.).|.sXcXcXfXjXhXkXcXfXBXaXn a O ..~.dXfXOXT.Z.O.! ( t.o.*.L m =.",
"W ( ,.:.O.:.w.4.,.Y.hXxXj., t + kXVXhXQ.fXjXi.OXH.V.H.G.[.[.E.v.!.E./.M. XoXpXhXhXfXvXhXhXhXz 7 @ F `.,XoX).x.C.o.m =.h k.Y U N.",
"2.E _ *.=.} e.N.B.} 3.R = B O }.SXdX.XT.6XOXb.L.i.F.9.'.XXk.T.a 7 OXY.L.tXxXhXcXhXkX<XtXlXxXhX% 2 - 2 e.1X{.`.p.[ Z s.tX).9.I <.",
"W <.7.] ,.k.^.9.`.h.n # : * U SXsX#X.XU.N.b.5.c.=.r.v.{.b.>Xl : * ! Y.5X<XtXjXjXcXjXiXcXiX@XjXg.t , $   %.z.0.o.F.&.T }.I. X/.! ",
"Q r.g.4.9.w.i.Z.q.a = > x o CXnXj.x.-XG.-.c.h.j.n.^.I.O.}.@.O Q D ; / 5.6X}.c.dXfX~.sXtX;XQ.1XkXB.6 J : & > B.8.' /.s.j.S ).k.L ",
"s.f.} <.l.7.O.Q 7 $ k a * NXVXJ r.E.3XM.g.H.F.5.d._.F.1Xy.3 K s 5 D % B.I.7X5XkXhXH.9XoX@X6X{.eX}.C a s D = = ^ N.<.A n.q.j.#.w.",
"7.h.a.r.q.>.z @ 2 k x , gXVX9 8.m.@XF.e.i.c.).<.6.0.tXtX# + X.3.9.5 O J ,XY.5X[.OXsXhX;XW.Y.,X.X4X%Xu # - 5 S o I t.%.i.5.Z.9.5.",
":.y.F.Z.L 4 4 p z b , F.SXg b.W %.).:.5.h.7.9.r.l.Y.3X2 u R 7 8XcX7 E $ v OX8.{.N.8XOX3XE.v.1X X,XfX X& , 8 ..a   n Q 2.o.6.&.&.",
"j._ X.@., j E P P = 1 SX#Xm /.@.A x.,.3.f.W Z ] W  X- +  .) hXc n / @.l O ] Z.c.c.s.:.n.~.M.H.E.V.} dXQ K 5 X Y z > r -.Z.g %.w.",
"r.5.Q - o 9.I.2 $ ; VXdXv { ..T / n.&.' Q ( W O.+.m # %.:.% 1 vXlX@ a +.c : ! k.{ +.h.h.g e.=.B.G.!.Q M.$.1 &.s + J x 1 n B.k.T ",
":.i < E e.  $ _ ; gXnX@ U -.6 O.W <.O.J Q I P a.V j s : G {.hXo @ @XdXs O u k Y <.k.l.7.h.8.P 5.5.G.h.3.x.z o J F.o.X 7 f z 2.3.",
"= z I & G N.oX& pXAX- e.M b _.n 4.^ U Y Y U H p u + i xXcX# a nXhX3 : bXbX; X 7 ( v.{ Y 8 [ K.y.8.k.y.{ v.N...@ $ fXlXk O # 4 X.",
"n . J OXx.2 : U AXv.C ^ #.Z { U T K E I d C ( s : D.>.5 ..dX<X< L hXtX# 5 r.H e G h Q 4.Y ~ w.N 0.h.v.[ [ I./.4 M 3 I 5.Z.J u # ",
"7 bXL.9 ` , > SXXXW ( 9 A $.N t.I K T C s m b f l > N kX8XJ =.hXXX2 t.}.hXJ O m s T E Q %.v V &.[ 9.q.,.R f.M...6 D ^ >.P ..R + ",
"[ :.[.W J   BXhXD &.J ..T V W I R U c c C u & = J |.[.^.J.Y.H.{ T.H.[.+.c.G.8X> o e T _ K P R / N R I [ x.j.h.m.L p 7 ^ XX5.o *.",
").U g.}.$ lXBX# w.I A ' R C =.` E K z c b 2 t w.&.7.n.,.h E.iX4.9.s.4Xg f.M.,Xi.k.X n %.b W N c 8 :.I ) h.5.4.T.W u c +.e.a.Y.M.",
"X.bXtXO gXVXX.` 3.` E J.K L o.Z b M x k > ; P b.E.z ^.jX:X> y.fXpXi A 3XhX0.u K.pX5 ; 6 0 I 0 +.S h =.I R T 5.J.@XZ.w.W z ,.MXn.",
"7XO + m vXC.J G U F o.5 G c l ..C j b l , > u - / hX1X$ q hXhX& 5 fXcXz o 5XmXP * G , ; ....m I J R L Z ] 8.9.O.2.E.7 1.dX/ @ 0."
};
