/* XPM */
static char *_d0cbb3abbc74ff7aa98ac0a61c7b4dcVYoVhD3q2x3KpG9b[] = {
/* columns rows colors chars-per-pixel */
"64 64 236 2 ",
"   c #2B2B2C",
".  c #2C2B27",
"X  c #2B2B33",
"o  c #2B2B3B",
"O  c #272A32",
"+  c #2D313B",
"@  c #2C3033",
"#  c #33333A",
"$  c #383739",
"%  c #302E31",
"&  c #3C3C45",
"*  c #3C3E49",
"=  c #353745",
"-  c #383D52",
";  c #2B3346",
":  c #413B47",
">  c #3D4146",
",  c #3B4759",
"<  c #394B61",
"1  c #43444A",
"2  c #4C4B4D",
"3  c #454649",
"4  c #51534F",
"5  c #4B4B53",
"6  c #4C4D5A",
"7  c #444754",
"8  c #524E58",
"9  c #4C525A",
"0  c #4C5156",
"q  c #525253",
"w  c #53545C",
"e  c #54595D",
"r  c #5A5A5E",
"t  c #585759",
"y  c #4C514D",
"u  c #5D615C",
"i  c #61635D",
"p  c #545462",
"a  c #555B64",
"s  c #5B5C64",
"d  c #5B5D6A",
"f  c #565868",
"g  c #505669",
"h  c #625D65",
"j  c #615E6A",
"k  c #5C626B",
"l  c #5C6265",
"z  c #5C6372",
"x  c #5C6579",
"c  c #626365",
"v  c #63646C",
"b  c #6B666B",
"n  c #656A6D",
"m  c #6B6B6D",
"M  c #676965",
"N  c #6E726F",
"B  c #71736E",
"V  c #646572",
"C  c #656A73",
"Z  c #6B6C74",
"A  c #656D7B",
"S  c #6D6D7A",
"D  c #686675",
"F  c #726E7C",
"G  c #706E75",
"H  c #6E7175",
"J  c #6D737B",
"K  c #6E7979",
"L  c #737276",
"P  c #72747C",
"I  c #76797D",
"U  c #7A7A7D",
"Y  c #787679",
"T  c #716D6C",
"R  c #7E837F",
"E  c #87887E",
"W  c #6D6E81",
"Q  c #6D7483",
"!  c #6C7789",
"~  c #747582",
"^  c #7A7783",
"/  c #767A84",
"(  c #7B7B84",
")  c #74758A",
"_  c #757C8B",
"`  c #7C7E8A",
"'  c #787689",
"]  c #7B7E92",
"[  c #767E94",
"{  c #817D83",
"}  c #827E8B",
"|  c #827E92",
" . c #7D8085",
".. c #7D828C",
"X. c #79848E",
"o. c #7C8493",
"O. c #7E8A95",
"+. c #7F859A",
"@. c #7E8B9A",
"#. c #768195",
"$. c #7F9299",
"%. c #828285",
"&. c #82848C",
"*. c #88868C",
"=. c #83898C",
"-. c #8A8A8D",
";. c #848985",
":. c #838593",
">. c #898693",
",. c #848A95",
"<. c #8A8C95",
"1. c #84869A",
"2. c #89879A",
"3. c #858C9B",
"4. c #8B8D9B",
"5. c #908E9C",
"6. c #918B94",
"7. c #8D9195",
"8. c #85929D",
"9. c #8C929C",
"0. c #889398",
"q. c #929295",
"w. c #92939D",
"e. c #95999A",
"r. c #9A9A9C",
"t. c #99959C",
"y. c #9CA19B",
"u. c #A0A29C",
"i. c #858DA2",
"p. c #8B8EA2",
"a. c #898FAA",
"s. c #8688A4",
"d. c #928EA2",
"f. c #938FAA",
"g. c #8692A3",
"h. c #8C93A3",
"j. c #8D99A5",
"k. c #8690AA",
"l. c #8D95AA",
"z. c #8E9AAB",
"x. c #8698A2",
"c. c #9295A3",
"v. c #9A96A3",
"b. c #949AA5",
"n. c #9A9BA5",
"m. c #9296AA",
"M. c #9995AA",
"N. c #949BAB",
"B. c #9A9DAA",
"V. c #8C96B0",
"C. c #8E9BB3",
"Z. c #959DB3",
"A. c #9B9EB2",
"S. c #979AB7",
"D. c #A29EA7",
"F. c #A19FB4",
"G. c #A89FB0",
"H. c #9CA2A5",
"J. c #95A0AC",
"K. c #9CA2AC",
"L. c #9BAAAF",
"P. c #96A1B4",
"I. c #9CA3B3",
"U. c #9BA4BA",
"Y. c #9DA8BB",
"T. c #98A4B8",
"R. c #8FA2A9",
"E. c #A4A4AB",
"W. c #ABABAB",
"Q. c #A6A5A9",
"!. c #B7AAAC",
"~. c #A2A4B4",
"^. c #A3AAB4",
"/. c #ABABB3",
"(. c #A2A5BA",
"). c #A4ABBB",
"_. c #ABACBA",
"`. c #A9A7B6",
"'. c #B2AFB7",
"]. c #AEB1B6",
"[. c #ACB1BB",
"{. c #A6B1B8",
"}. c #B3B3B5",
"|. c #B3B2BC",
" X c #BAB6BD",
".X c #BBBBBC",
"XX c #B8B8B7",
"oX c #B2B3AD",
"OX c #C4BCBC",
"+X c #BAC0BE",
"@X c #C2C3BD",
"#X c #9EA8C1",
"$X c #A5ADC2",
"%X c #A7ADC4",
"&X c #ABB3C3",
"*X c #A9B4C8",
"=X c #BBBBC2",
"-X c #B9B8C5",
";X c #B0B5CD",
":X c #C2BEC4",
">X c #C3BDCB",
",X c #BCC1C6",
"<X c #C3C2C4",
"1X c #C3C3CC",
"2X c #C6CACB",
"3X c #CBCBCD",
"4X c #C8C7C9",
"5X c #CCCCD2",
"6X c #C7CAD5",
"7X c #D2CED5",
"8X c #CAD1D5",
"9X c #D2D3D6",
"0X c #D6D5DB",
"qX c #DBDADD",
"wX c #D8D7DA",
"eX c #D3D1CC",
"rX c #D7E3DF",
"tX c #E7E4DF",
"yX c #DDDDE2",
"uX c #D2D4E3",
"iX c #E1DFE9",
"pX c #DEE4E5",
"aX c #E3E3E4",
"sX c #E4E5EC",
"dX c #EAEBED",
"fX c #E9E7EB",
"gX c #F3F2EF",
"hX c #EAECF2",
"jX c #EAEAF6",
"kX c #F2EDF6",
"lX c #F2F2F4",
"zX c #F3F4FC",
"xX c #FBF6FD",
"cX c #FEFEFE",
"vX c #F8F9F8",
"bX c #EEF0FF",
/* pixels */
"4.( ` %.1 *.yX1Xq k :.3.3.3.h.+.` / Z P &.P * =XqX( Z } ^ &.,.:.} I *.s G iXyXM J v.w.4.D.q.,.*.` F 1 /.dXw.p ` i.p.g.,.:.H Z B ",
",.^ *.6 B pX4X2 1 S X.@.@.@.@._ Z ~ P ~ f # .XsXw.o } Y ( / ..( ( } 1 v yXfXJ & ,.2.,.,.v.t.:.9.D 3 8XdXe.  J X.+.g.1.1.{ b s & ",
"4.` k t yX3X& 3 Z ` _ #.o.i.@.#./ ` %.P $ }.hXQ.O Y ^ ( ` ^ P } <.D 8 0XfX{ # Z / i.3.c.1. ...0.# 5XaXe.  k o.8.$.s.k.9.<.Z % q.",
"3./ $ r..X  e S C Z ) Q +.o.X.! / %.( & <.aXQ.O c B L %...P ~ | U X }.0XT & F F :.1.,...8.J 9.7 w.5X{   M ( +.3.@.i.+.@.%.h 3 >X",
"( L l s   D P W v w J f A ` J `  ./ Z r W.<.X J Z c F | ( ( I ` k Z c.e , ../ n J ! ..%.3.:.B Z ( % 2 z :.! Z F ! i.O.1...q n 1 ",
"Y s t e Z ..>.P ~ 5 c.,X6 s Z Z ( / v j 5 & P ( P s M F ) ..:.( D s 2 Z } :.0.s I -.d F 1.c.G M q C ^ X.) %.2 <.<.x ` X.P c t h ",
"S C / o.:.h._ _ / l X E.7XI p S V S s a Z P J ` / 1 6..XY J 1.~ k Z ( ( | :.5.( v <X/.& U :.L s ~ :.+.4.3.c.Z 2 7X'.l _ P L ^ ..",
"D P h.m.C.l.l.,.,.S e   E.qXP 5 Z c / ( v C / ~ :.G   W.9XR e U / ,._ :.o.o.p.N.d . qX4Xt c J ^ 1.1.>.c.b.4.`   c hX6Xs J _ &.@.",
"}.9 1.g.V.C.Z.l.X.+.J 2 .  .[.I 8 / :.] J S ( ` ..*.s   4XaX%.s 2.:.O./ o.c.9.h.v.@ l dX3Xr Z 2.i.,.p.c.9.&.( S   m sX7Xf ..@.s.",
"fX7.V a.h.Z.k.z.] / ` Z 0 . H OXA C | ^ o.o.o.` ( ( %.9 . <XqX..V :.:.O.:./ <.4.4.(   r iX XM ( 3.h.l.l.l.l.:.J H   3 wX:XZ O.o.",
"s r.C o.o.Z.3.J P &.Z ~ / d X n ( Z ,.+.o.] ~ Z ..` / ^ q   }.1Xc Z >.<./ S <.c.<...&.& & E.L H l.i.<.:.2.4.~ Z Y ^ 1   '.7.U P ",
"C @ <.) ,...W   W.H.6  .o.1.k $ l <./ :.` ` J / / v I ..( v   e F I =. .&.=.~ ` <...( 9.Z X k *.:.2.4.:.^ d *.Y / 9.&.s . { >.~ ",
"l./ S S / p X r.yXe J X.Q h.:.Z P n C H ( I :.W n r.,./ ,.*.` q c >...2.2.Z M 1X/.^ 9.9.0./ S <.3.z.h.A + 1X,Xn ..h.4.../ k ( ,.",
"Z.+./ P e X .XlXU 2 ` / +.9.8.) ! P C J ,.3.k s <X Xw :.2.0.1.%./ } l.4.p { dX<X6 <.c.l.j.i.1.I ,.:.2 3 wXhXk A g.3.9.1.3.2.~ =.",
"Z.i.o.`   }.cX.X  / o.1.9.N.p.#.A S / _ :.z k 0X0XX J ( ,.9.,.:.&.:.` ; n.xX3XX P c.c.4.x.m.3._ { b <.dXhXb 1 >.p.` p.j.g.4./ m ",
"N.:.i.6 Q.cX:X% s ] l.i.9.J.j.3.P J &.1.7 w yXfXZ s e./ / ,.3...2.9.  e.xX7X* A 9.l.c.0.<.p.g.,.= :.cXlX*.X I 3.:.p.p.x.O.*.N & ",
"9.,.Q c fX<X  s ' _ o.j.c.m.z.k.O...4.J c 9XpXU * :.<.o.:.:.<.2.c.z ,.lX7X& z 1.h.c.w.9.>.c.M.A h aXtX%.X J :.n.3.l.l.i.o.:.5 W.",
"l.3.r <.r.. s o.` V Q ) o.g.3.3.,.h.:.6 ].fX..= ..` ) ..o.O.4.c.,.9 1X5X& z :.1.p.c.h.S.m.d.N.; /.7Xc X J / 9.<.,.p.l.l.p.K s  X",
"V.~ s y   ..O.m.%.w ..<.g _ g...1.<.I v E.Z & ,._ J S S / o...9.L J / s ^ 1.3._ / ..1.h.h.9.J b J X f ` :.o.P ^ | O.m.z.p.v T X ",
",.S w W @.c.l.j.:.! n <X}.< _ X.1.5.b h # j :.*.,.P :.<.Z ..p...N s t <.w.O.B./ b Q.*.) x.g.K b V ( ,.1.h.c.c *.[.&.+.N.1.D Z ` ",
"/ J X.,.s.a.k.h.V.p.O m pX=X, J 5.` V P :.3.<.,.4./ ^ 7XoX6 ..o.n ( ,.=.<.4.<.h.d W.0X0.Q j./ } 4.:.h.2.9.h.` X .XqX<.:.3.! ] +.",
"%.f _ _ o.l.1.9.C.z./   s yX,X7 S ] ] p.g.3.g.1.3.5.X E dX.Xp / &.,.p.9.b.z.l.w...  @XdXc.f ! #.4.h.h.g.h.h.0.I   0XlX<.J ..X.a.",
"yXS A Q ] @.i.h.j.l.+.Z   > 5X.Xp 3.p.@.i.h.O.l.m.9.5.  -.zX4X/ :.4.8.N.c.c.A.3.l.K . +XhXr.r 1.l.N.h.4.m.x.b.b.C   9XaX9.X.3.h.",
".XE.S 1.o.o.i.l.l.] ] _ (     |.7.S x.+.4.4.,.9.1.4.c...  q.fX.X/ 8.p.c.b.h.l.B.,.9.~ X XXeX^ ^ l.N.N.4.9.J.m.3.<.Z   |.3X&.,.3.",
"  N ,.1.g.+.,.O.x H.B.1.l.:.p   :.~ p.9.,.1.C d ^.~.` 4.7.X s /.9.:.9.8.9.Z.N.1.4.9.h.(   L <.^ ,.:.3.i.m.} :.9.i.4.) . { Q. ...",
"&.6 ( <.k.g.Q $ '.rX,.s.l.l.9.~ e ` ....' w o 1XpX&.,.7.9.9.p & U ,.h.h.R.h.x E.:X9.g.Z.<.6 M ( ,.1.4.2.z f 5X/.+.,.9.c.5 ( (  .",
"l.4.%.o.4.W 1 4XvX-.k m.3.z.l.8.&.Z U ` 1 q wXzX*.p w.p.w.h.9._ C :.4.I.c.< |.hXW.` l.m.S.N._ Q <.c.1.  Y hXyX_ 3.g.p.:.1.S N F ",
"m.h.,.` Z q 1XcXQ.  l.i.l.g.3.,.,.2.4.s q iXcX6.X q.o.<.z.h.l.p.<.` 4.&.; <XcX X  ,.3.V.n.z.N.:.&. .  %.xXdXO X.,.3.N.3.:.<.n n ",
"N.9.o.I 1 W.cX}.. / k.a.3.g.s.8.p.2.Q p aXcXe.> 4.i.1.i.9.m.n.l.,.N.&.+ 5XcX,X  o.h.g.K.C.n.m.B.4.X oXcXkX> d 9.,.2.g.l.4.d.B 5 ",
"m.3.%.2 -Xu.7X  D / o.:.k.m.4.k.g.J 3 5XlX<.v e.o.o.i.3.m.J.I.p.E.b.= 8XcX<Xq :.9.g.Z.N.c.j.N.B.9 |.cXhXl 5 :.a.8.k.8.g.g.2.n h ",
"h._ b t :Xs 5 Z _ M f [ b.k.l.g.<.Z ( ,XY - :.} o.+.3.l.l.B.b.h.~.a u.zX=XX %.c.3.m.C.N.Z.m.Y./ r sX1Xs & / 3.k.l.8.a.c.4.1.b E.",
"b./ 9 L 1 r / o.1.a U H z Z.x.+.( ~  .> s 4.:.' :.,.,.l.N.h.m.l.] A /.4.o ..d.,.3.@.U.b.j.J.N.C w.*.  t _ ] _ _ [ z.i.e.2.} U -.",
"b.( q Z z O.i.@.2.M E eX*.- :.( ^ S ( J p.3.a.i.,.P ( ] 3.P.m.h./ =.C 6 4.c.Z./ w.E./ l.N.Z.4./ Y 8 ` :.1.h.a y.B.x h.h.4.^ ( f ",
":./ v ..3.i.l.j.3.} 2 XXhXH.X ( ~ / o.,.a.Z.h.8.l.Q 9.5Xh./ I.c.U I &.p.p.h.N.g.S 7X5XS i.L.:.( :.c.w.:.h.h._ L 2X+Xg c.,.' ` 1.",
"* J / s.3.s.P.P.m.b.o..  XgXXX  / :.i.k.Z.S.Z.i.9.9.s 4XlXq.) I.} ,.<.4.m.j.N.U.~ Z lXaXn 3.c.4.m.m.m.3.,.p.m.q i lXqXV >.,.4.3.",
"5XX ) 1.g.C.P.A.c.h.I.v   .XcX}.7 ,.l.j.k.C.l.b.h.N.J   wXcXH.J b.S.g.,.j.n.h.n.B.  K xXjX{ 4.Z.z.m.Z.z.g.l.2.w.  Y cXiXS 1.:.,.",
"fX}.p 3.h.h.m.l.b.b.X.*.z   =XzXw.D b.l.j.k.h.m.z.9.L.C X qXcXQ...A.g.j.I.J.c.w.B.9.  q vXsX%.a.m.z.Z.l.h.p.c.,.>.. ^ cXqX%.m.,.",
"C :X<.J ` o.l.M.w.p 7.] b.~   9.`.M <.J.z.3.g.c.9.m.p.<.l   4X5X^ <.b.M.Z.N.J.(.h.:.,.# w 4X_.=.h.b.U.h.1.K.J 5 &.*.  b 0X:Xm.5.",
"6 5 q.,.*.4.N.v 7 7X4XV U.7.X.# c w.` 4.9.1.3.Z.P.X.c.n.} C = %.6.q.v.N.l.Z.).#.5.E.e.h.w o -.7.<.5.w.:.w.X B =X( O.<.e : 9.Q.g.",
"w.Z ( *.} 5.; t dXcXG o.Z.3.Z.p.S / / ..h.l.K.J.x ,XyX:.1.9.&.p Y q.B.N.).C.9 ,XiXK.S.B.N.*.q *.b.9.<.I   -.xX|.` ,.9.5.P s <.9.",
",.8.*.Z I 3 E xXcX-.  h.V.V.S.j.3.` G <.b.Y.n.d 5XxXH.' <.2.c.,.W.D.>.).4.d iXcX^.o.S.J.J.N.h.1.:.4.Y . W.cX2Xj 2.2.0.x.4.3._ :.",
"V.,.1.<.s t cXcXXX  %.h.m.S.S.N.3.4.<.} N.c.> uXcXQ.> w.<.2.4.w.D.>.c.} s jXcX|.- 3.B.B.A.9.b.z.*.I X r.cXyXX P <.0.2.p.g.4.4.w.",
"N.2.,...  aXcXW.. ( 4.3.m.U.l.3.` / *.i.:.; B.cXeX  >.*.2.c.w.<.1.0.^   7XcX X+ >.w.e.x.h.9.7.<.*.= <XvXyX$ v 4.,.<.4.w.4.4.*.C ",
"m.*.,.o eXcXq.  Z :.p.k.m.B.N.h.../ 5.w.= -.cXpX6 P 6.*.,.4.0.,.h.<.X 4XcX'.+ / 4.h.6.<.>.d.8.0.  -XcXsXh p &.4.,.3.m.l.<.<.H c ",
"w.,.C E jXe.  P o._ o.P.m.J.N.h.5.c.n.J ;.cXaXs A <.6.0.5.w.c.h.B.9 -XcX-XX ` 3.c.h.g.h.w.9.D.f t.cX2Xw f } <.h.4.h.j.9.,.<.$ -X",
"m.,.M  .H # Q 0.:.x I l 3.m.l.m.9.v.2.c 9XrX5 V 9.1...h.O.2.<.K.*.Z =X`.7 %.,.,.,.b.j.l.m.b.j.w W.W.5 q / ` } _ 9.c.l.z.c./ Z *.",
"9.! h r q ,.l.j.,.v 7.,X0 ! Z.| 4.n.{ F <.p Z 4.9...~ Z <.<.<.v.( L Z a ..w.e.^ ..S ..b.h.e./ Z b w / :.4.9.D 4./ | I.j.c.L P v ",
"c.I A o.3.m.Z.b.w.,.: 6XzX9 S w.4.7.m c c &.9.w.b.U ~.=XZ &.N.<.L L U ,.w.4.B.<.s 9XW.C m.I./ U ( 1.9.9.w.b.L Z wXL.Q I.9.^ } ,.",
"Z / <.4.s.Z.V.S.Z.N.k X qXvXP V b.] ` 4.l.N.m.9.b.<.s yXfXh %.w./ <.c.c.v.b.w.K.j -.vXOXf c.g.c.c.c.b.w.w.M.<.6 q.cX.XJ n._ :.l.",
"W.6 *.) h.Z.h.m.I.Z.2.> . 9XzXJ Q b.9.S.U.N.b.b.B.L.F 3 lXkX^ -.m.m.b.7.c.I.U.m.m.  -.cX1Xw ] c.j.N.m.e.M.j.w.,.. W.cX1XA v.9.Z.",
"cXq.W O.1.p.N.J.P.Y.4.K 3 o .XtXb 9.C.h.c.B.g.U.~.~.E.p w xXvX;.0.N.N.N.).E.N.N.b.9.% -.cX4XZ 4.N.I.K.b.z.B.N.E.&.  E.cX=X*.n.I.",
"q.[.( h.9.x.m.K.(...+.v.l.r X H.).W ~.S.P.R.n.b.h.B.F.q.w m wX2X:.B.b.I.~.A.B.L.j.w.6.  >.3Xq.9.A.F.I.g.m.L.~.4.e.<.+ U 6Xn.5.c.",
"2 6 B.h.N.m.B.<.< 8X=Xk.).U.^ w U q.b.J.k.w.G Z 0X>X0.I.H.k b !.n.w.~.J.m.J._.:.w.D.n.t.a 2 ,.w.w.3.M.d.I.' -.W.M.w.<.k i ^.<.w.",
"9.( &.v.I.Y.Q 2 kXvXW (.S.~.#X9./ :.9.,.<.6 s xXbXC ~.L.K.J.:.U U w.E.B.[.I.o qXaXt.n.(.J...C *.j.D.b.w.7 *.xX_.w.n.B.w.....<.w.",
"~.N.n.4.n.a Z cXcX= 4.).P.#XY.K.h. .7.9.# 5.cXcXw 2.J.B.{.U.~.b.<.p.b.&Xk.> zXcXq.&.K.~.#XI.9.*.w.J.6.X u.cX1X} B.B.K.m.w.c.` %.",
"{.Y.b.4.Z %.cXcX7.6 $X#XU.U.P.Z.I.~.~.f 7.cXcXZ F I.B.I.L.).).E.n.v.I./ l cXcXt.k v.v.Y.(.~.(.B.7.*.   XcX8X& c.c.N.Y.K.U.n.} I ",
"$XI.J. .k 8XcXQ.X 9.U.S.Y.$XT.Y.L.v.n *.cXcX%.I L.m.(.~.Q.!.'.~.n.[.:.k cXcXL.w B.K.U.).`.^.L.`.H.X dXcXyX* ^ B.v.b.(.`.B.B.*.r ",
"(.N.q.4 dXE.XX+ <.1.9.I.Y.$X$XY.).:.Z zXvXv &.^.l.I.N.E. X!.!./.|.c.z zXcXW.L E.~.L.).).$X).$X}.X sXcXuX& W b.B.I.~.I.K.~.^.{ Y ",
"Y.<.Z Z :Xr C -.4.P Z 9.&X%X$XY.J...t. X5 &.B.h.n.A._.;X`.'./.^.{.r 2XvXb.r E.B.I.L.&X).^.$X&X( <.hXH.= P <.N.K.Y.N.J.^.Y.H.%.4X",
").9.c &.2 / 4.P.E.Z n.w.! ).#Xn.v.4.<.l b.I.N.N.N.M.S.*X_.G._./.2.c.`.v F B.E.t.c.J.$X^.L.).`.&.b.q j *.,.9.,.:.p.I.n.B.K.w.6.Y ",
"Y.<.k &.=.J.U.B.I.X.-.cX-X- j.l.6...j.l.S.#XY.^./.9.0.r.I.&X`.I.0.0./ =.~.Y._.>.E.-Xp.~.~.&Xb.,.E 2.b.b.B.E.C [.}.P B.~.~.0.<.<.",
"c.=.^ I.P.Y.).$X~.r.a r.cXwXp :.5.b.P.N.#X*X*X(.-X4./.bX}.q.-X^.<.w./.F.~.).'.`.c qXkX>.B.|.M.e.H.~.`.n.A.~.w.1 aXfX*.n.B.N.B.A.",
"~ *.4.(.Y.U.;X&X^.^.N.X v.cXaX0 c.N.N._.;X*X;X$X]._.; 1XxXOX2.OXr./.|.F._.&X).|.w.  cXcX5.v.^.I.~.)._.Y.J.Q.H.|   cXcX<.J.~.~.L.",
"sXv c.P.*X;X;X&X(.Y.E./   :XcX8X( m.-X7X-X;X).&X).&Xv.  wXxXOXq.}.'.G.`.&X&X_._./.m q cXcXr.B.Y.).).&XY.~.I.`.v.m s cXcXw.~.).)."
};
