/* XPM */
static char *_0d4458212c5482dd8a5c3a785bf7c40X8ITcB43iRb83M7d[] = {
/* columns rows colors chars-per-pixel */
"64 64 249 2 ",
"   c None",
".  c #000000",
"X  c #090A0C",
"o  c #1A140D",
"O  c #070614",
"+  c #140C13",
"@  c #141515",
"#  c #1E1A11",
"$  c #16191A",
"%  c #1B1C1C",
"&  c #171618",
"*  c #0D1013",
"=  c #21160A",
"-  c #251D14",
";  c #221D1D",
":  c #271913",
">  c #3B0600",
",  c #1E201F",
"<  c #343A0A",
"1  c #2B241C",
"2  c #27251A",
"3  c #332A1C",
"4  c #33271B",
"5  c #2C3618",
"6  c #35381B",
"7  c #2C2B0A",
"8  c #1B1C22",
"9  c #1A1D28",
"0  c #221F20",
"q  c #1E2121",
"w  c #1E233D",
"e  c #242323",
"r  c #2A2524",
"t  c #2A2A24",
"y  c #262929",
"u  c #2B2B2A",
"i  c #262826",
"p  c #322D2B",
"a  c #352D22",
"s  c #34332C",
"d  c #393728",
"f  c #2E3132",
"g  c #343533",
"h  c #3B3433",
"j  c #3B3A34",
"k  c #3D3C3A",
"l  c #363833",
"z  c #302E2F",
"x  c #501A02",
"c  c #473416",
"v  c #473008",
"b  c #4D3B22",
"n  c #463B29",
"m  c #513E25",
"M  c #453D35",
"N  c #433A39",
"B  c #523F31",
"V  c #783C00",
"C  c #374608",
"Z  c #3D4515",
"A  c #3F5600",
"S  c #3D4228",
"D  c #3D4437",
"F  c #475703",
"G  c #434B13",
"H  c #484817",
"J  c #584817",
"K  c #4A5716",
"L  c #53581B",
"P  c #424700",
"I  c #725016",
"U  c #556300",
"Y  c #54631C",
"T  c #5B6C1D",
"R  c #596719",
"E  c #5B711C",
"W  c #646D1B",
"Q  c #67751A",
"!  c #726D14",
"~  c #474629",
"^  c #565D21",
"/  c #44433C",
"(  c #4A423C",
")  c #4D493C",
"_  c #444836",
"`  c #524A37",
"'  c #47563B",
"]  c #58573A",
"[  c #544027",
"{  c #665827",
"}  c #6A4C3C",
"|  c #675539",
" . c #78573B",
".. c #735428",
"X. c #5A6322",
"o. c #5D6C21",
"O. c #5C642A",
"+. c #636C24",
"@. c #656826",
"#. c #776B28",
"$. c #637423",
"%. c #6A7424",
"&. c #6A7C26",
"*. c #6D752B",
"=. c #6D7D2A",
"-. c #677923",
";. c #757E2C",
":. c #7B7C2C",
">. c #76762A",
",. c #65673C",
"<. c #6B7434",
"1. c #787C36",
"2. c #756B35",
"3. c #02154A",
"4. c #021958",
"5. c #000A4A",
"6. c #32374E",
"7. c #00036C",
"8. c #001C64",
"9. c #001D6E",
"0. c #000575",
"q. c #001E74",
"w. c #001978",
"e. c #012074",
"r. c #02227A",
"t. c #0B2476",
"y. c #14287A",
"u. c #102364",
"i. c #27316A",
"p. c #394346",
"a. c #39425E",
"s. c #454642",
"d. c #4A4640",
"f. c #4A4A45",
"g. c #4D4D4A",
"h. c #454948",
"j. c #544C44",
"k. c #524E4A",
"l. c #5A4F47",
"z. c #4C5647",
"x. c #52524C",
"c. c #5A544C",
"v. c #5A5547",
"b. c #555552",
"n. c #5A5653",
"m. c #5B5A54",
"M. c #5D5D5A",
"N. c #55585A",
"B. c #4C5156",
"V. c #635B4D",
"C. c #645847",
"Z. c #795B4A",
"A. c #635D55",
"S. c #625E5B",
"D. c #58654A",
"F. c #5C6258",
"G. c #5C7051",
"H. c #66654E",
"J. c #77674A",
"K. c #646354",
"L. c #6B6554",
"P. c #63625D",
"I. c #69655D",
"U. c #6C6C5C",
"Y. c #676956",
"T. c #75695A",
"R. c #787655",
"E. c #6C7654",
"W. c #575A6B",
"Q. c #5D6968",
"!. c #656562",
"~. c #6A6663",
"^. c #676964",
"/. c #6C6B64",
"(. c #6C6C6A",
"). c #726D6C",
"_. c #726C64",
"`. c #6B726B",
"'. c #737364",
"]. c #74726C",
"[. c #7A746C",
"{. c #797867",
"}. c #767471",
"|. c #7B7A74",
" X c #7D7C79",
".X c #787876",
"XX c #697776",
"oX c #645F61",
"OX c #89780C",
"+X c #8B7533",
"@X c #845E36",
"#X c #876945",
"$X c #86784B",
"%X c #846652",
"&X c #8A7754",
"*X c #947755",
"=X c #827869",
"-X c #827E7D",
";X c #827E74",
":X c #977B62",
">X c #A37B63",
",X c #7B852D",
"<X c #77862C",
"1X c #7C8736",
"2X c #7E8440",
"3X c #84872A",
"4X c #838C33",
"5X c #8A8839",
"6X c #97883B",
"7X c #8B9434",
"8X c #889439",
"9X c #949A3A",
"0X c #96882C",
"qX c #99A239",
"wX c #A5AD3B",
"eX c #AF973F",
"rX c #868845",
"tX c #9A8D43",
"yX c #8D9543",
"uX c #979746",
"iX c #878656",
"pX c #9C9251",
"aX c #A4954A",
"sX c #A88E56",
"dX c #9CA54A",
"fX c #ABA855",
"gX c #B6A65B",
"hX c #ABB555",
"jX c #AAB055",
"kX c #858369",
"lX c #83817C",
"zX c #898478",
"xX c #988A73",
"cX c #A9906B",
"vX c #B6A96C",
"bX c #C1B268",
"nX c #C1987F",
"mX c #BEC066",
"MX c #CDC45F",
"NX c #001D8C",
"BX c #042584",
"VX c #7E7E81",
"CX c #768E8A",
"ZX c #888684",
"AX c #969383",
"SX c #978F81",
"DX c #B1A88E",
"FX c #A29988",
"GX c #C8A784",
/* pixels */
"                                                                                                                                ",
"                                                                                                                                ",
"                                                                                                                                ",
"                                                                                                                                ",
"                                                                                oXA.                                            ",
"                                                                                 XoX                                            ",
"                                                                              -X-XS.                                            ",
"                                                                               X}.P.                                            ",
"                                                                            ).}.S.~.                                            ",
"                            3.5.6.x.f.      m.M.                          I.)..X-X(.                                            ",
"                  3.3.4.8.e.r.w.B.s.f       m.m.                    !.].]./.m.ZX-X).I.                                          ",
"            4.8.e.e.e.r.BXBXe.t.h.j k f.  k s.k u                   m.~.(.M.)..X~./.P./.A.                                      ",
"            8.r.r.r.w.w.t.t.9.u.j.K.M.m.M.F.M.P.S.A.f.N / / f.n.!.~.m.S.^./.(.~.S.~.(.)./.                                      ",
"            8.q.r.BXt.i.0.0.7.u.lX.Xm.(..X.X|.|.}.}.P.b.!.!.I.]..X].m.F.m.!.!.P.~.!.!.!.M.                                      ",
"            8.q.q.t.7.N.=XA.6.s.AX(.M..X|.].|.|.}.^.P.m.m.oXS.{.=XkXM.(..X].(.).).(.(.N.K.3X                                    ",
"            3.4.4.8.8.7.-XGXcX&Xu b./.^.I.~./.(.(.^.M.P.h.[ &XDXDXDX`.]..XM.).).).}.}.(.R.qX:.                                  ",
"            4.q.e.e.r.r.0.W.;X%Xk k.c.P.I.I.P.n.x.M.P.M.h.J.vXFXL.R.|..X.X/.-X-X).(.].oX8X9X5X%.                                ",
"            a.0.r.w.e.r.BX0.0.w d.oX~.;X-X XlX`.!.oXg.b.x.d 4 . . m.-XzXZX;X).I.oX(.(.Y.qXqX4X&.                                ",
"            B.0.y.r.e.w.w.BXi.h.x.] }  .C.C.T.%XZ.U.U.k.g.& $ r % x.|.AXSXSX;X'.[.[.S.rXwXqX1X<X                                ",
"          <XD.7.BXt.t.BXBXBXBXN.A.{ v @XI I I V x OX$Xn.N u % e . m.|.(.].[.[.[.[._.n.yXwX9X<X<X                                ",
"        5 R <.8.9.w.w.NXNXNX0.A.A.u 1.1.> x 2.1X@.I X.L.j.i % e . K.AX6.z.1X$XiXiX2X{.9X8X<X<X<X%.                              ",
"      ^ o.*.E 6.i.i.6.B.B.W.Q.L.j.7 uXjX..#.fXhX>.H F E.A.q 0 % . / `.D F.3X3X3X0X7X8X8X1X<X-.<Xo.                              ",
"    1.pXfX6XQ o.&.<XQ ! U U.(.L.d.G 5XaXaXsXgXdX2X,.F ,.c.r 8 2 O D 2XVXz.%.,X3X:.3X;.4X<X%.Y R T $.<X                          ",
"    5XgXbXjX1X<XE =.=.+.W D.M.C.J.R #.+XaX6X5X1XrXR.U ] j.p % e X w XXCXh.L X.+.%.<X;.<X&.Y >.;.-.8XdX1X                        ",
"    rXaXvXmXhXdX<X<XE Y     m.V.*X[ c J.4X$XJ < J.iXU ] C.p ; e $ q D XXF.P L ^ +.=.%.E R $.tXgXfXhXjX8X                        ",
"    tX6XaXjXhXhX8X1Xo.C       C.&X:X%XxX} >XC.Z.%X$XU ] V.t ; % @ , q N.Q.        o.X.Y <X1XfXgXgXvXjXyX                        ",
"    +X6X6XuXdXdX1XyXyXO.      v.+XcXpX>X@X>X%X:X#X .U ] V.; e % @ @ %             L $.=.yXdXjXvXtXsXfXdX                        ",
"    >.6X5XuXdXdX1XyXyX<.          $X#X..@X@X#X$X| { F ` j.. X & % @               O.=.1XyXdXpXpXtX6XpXdX1X                      ",
"      *.7X8X8XrX1X1X<.          ..+X{ J #.c { #XJ { H.S.A.h.f.u . X                 o.<.rXyXtX5X6X6XtX8X                        ",
"        ,X*.T $.X.X.          M.L.5X0XeXMX0XOXOXOXC.}.}.[.[.{.T.g g                   <.1XyX5X5X+X+X5X                          ",
"      $.<X&.T K K C         !.].).].'.&XeXpXcXzX).n.h.g.n.c.c.V.l.V.                  X.$.$.=.<.:.6X5X                          ",
"    +.+.T &.&.Y Z C <       M.].I./.|.`.n.~.VXZXZXZX XS.x.b.M.g.M M                   X.X.K K C o.%.;.                          ",
"      *.X.K Y K Z a s 3     x._.S.a I.-X|.`./.]. XZXZX.X^.S.M.A.x.a                 Z Y G G < H L Y T Y                         ",
"        <XL C S M N h h     x.b.m.A.[.).v.s.U.^.F.x.P.].VXZX X(.N.b.                6 6 6 6 7 < K $.-.                          ",
"          Y h N h p u r ; ~ e ]./.d.Q.}.c.l.].x.m.m.g e m.(. XZXZX X(.N.g.        a p h j j M 6 G $.o.                          ",
"          s N p r r 0 O H %.R ~ s.g.2Xn./ / x.f.n.A.. k h.. s.M.].lXZX).!./       0 r p p p h N ~ K                             ",
"            r e r # + 3 { #.3X;.L _ f.6.h. Xg.d.c.( . b.u u m.. e n./.].A.L.'.V.# & & 0 0 r t h / Z               j             ",
"            ; ; & + o H W %.3XaX9XQ ! ,X<.c.h./ j.l r x.. b.g.. m.P.g.( '.FX;Xn.m.g.h r + + r u h               g j             ",
"              @ o = 7 J #.;.<X,X,X<X4X,XQ F u / j.g.b.g.e m.i u /.F.k.V.SXzXl.;XZX].x.s h p # ; %             i j               ",
"                o H L W +X5X7X7X<XQ Q R W X.u s j h.b.m.m.S.l k.!.g.N =XxXl.j._.^..X].!.(.~.x.D _             p j               ",
"                  < K +.;.4X4X7X3XW W Q R Z 8 , j l j f.x.m.M.P.N.D l.=XA.a A.M . P.[.].|.|.).x.N x.          f.k               ",
"                        H @.3X7X,XQ W T R Z 8 . /./.= r g s.b.m.g.l ( L.M s C.V.c.L.T.p u _.].(.).|.].f.( n.K.(                 ",
"                      O O # L ;.3XQ R L K t 8 . _.V.c b : - p u g g r ( f B } d ` C.K./ ) ~.~./ g.`.~.M v.k.g./                 ",
"                    X @ @ $ $ S $.W R ^ Z % $   /.( c m [ v m.K.g.f.X % 5 | | H >X .H Z.H.K.P.& j (.M j.l.1 g !.m.6.            ",
"                    q i y y y q s ~ d % $ i     I.n c m b c L.'.K.k q q ^ R A ^ J.P :XGX..] Z.F.].P.( V.d.1 ~.}./.I.            ",
"                    e q , 8 $ $ * O * y y       ].c b m c m ~.M.c.e $ 8 d K K Q F A 2.$XG nXsXp.I.d.l.c.n d./.!.M.SXDXDX        ",
"                  @ * * @ @ @ % q u g i X     }.|.c [ [ c ` A.A.P.u % $ O * 5 K F +.Q F #.$X| ) d.d.v.( M m.M.b.~.zXAXDX        ",
"                  $ % q q q y f g g q X       I.P.c c b c A.|.lXP.e g f y , @ @ 5 K R K >.Q C   h j.C.M N m.b.k.(..X;X(.        ",
"                  @ % e y y i q q @ X         ].K.3 m m v A.[.'.m.. q f f f y i 8 8 7 G O.o.        j.n ( ) j.j.    n.          ",
"                    $ $ @ @ @ @ @ @ @         ].P.v c v v ) A.P.K.e * @ $ % 8 q q $ $                     M /                   ",
"                      q % @ $ $ % 8 -         I./.'._.V.` ) m.K./.) X $ @ @ @ @ @ q                                             ",
"                      @ , e e i i r 4             /.[.|.;X|.;XlX  # e q 8 % % % q                                               ",
"                    # = - - # - 1 n n 4                   L._.    3 n 1 ; ; ; 1 @ o                                             ",
"                2 1 : 2 3 4 - # : 1 6 1                         - a 4 - # # 2 3 4 : =                                           ",
"            s D D z.z.D 1 : 3 a 1 o 1                             - o - 3 3 1 - i S j p 2                                       ",
"          d S d 6 6 D D.G.z.g : 3 -                                 - 3 : r S z.D.D.' D D D                                     ",
"          j ) ` v.` ~ n _ D.G.' 2 2                                 # t z.D.D.' ~ a 3 d n ~ d                                   ",
"          d z.H.Y.H.H.H.] ` ' E.d                                     ' D.' ~ ] ] ] v.D.v.` /                                   ",
"              Y.{.E.U.Y.E.Y._ '                                       ' _ l.H.K.Y.K.Y.Y.D.j.S                                   ",
"                kX{.U.F.D.]                                               ] D.H.U.R.{.'.A.                                      ",
"                                                                                                                                ",
"                                                                                                                                ",
"                                                                                                                                ",
"                                                                                                                                "
};
