/* XPM */
static char *result[] = {
/* columns rows colors chars-per-pixel */
"64 64 248 2 ",
"   c #000000",
".  c #09080B",
"X  c #1B150E",
"o  c #060613",
"O  c #140C13",
"+  c #141414",
"@  c #1E1A12",
"#  c #151919",
"$  c #1C1C1B",
"%  c #181618",
"&  c #0E0E0E",
"*  c #251D15",
"=  c #221D1D",
"-  c #271914",
";  c #291204",
":  c #1E201F",
">  c #343A0A",
",  c #2B251C",
"<  c #27231B",
"1  c #34291D",
"2  c #31241A",
"3  c #2B3619",
"4  c #35381B",
"5  c #2C2A09",
"6  c #1B1C22",
"7  c #1A1D28",
"8  c #221F20",
"9  c #1F222B",
"0  c #242322",
"q  c #2A2524",
"w  c #2A2A24",
"e  c #2C2B2A",
"r  c #272927",
"t  c #322E2B",
"y  c #352D22",
"u  c #34332C",
"i  c #393728",
"p  c #353633",
"a  c #3B3433",
"s  c #3B3A34",
"d  c #3D3C3A",
"f  c #363833",
"g  c #2F3030",
"h  c #501A02",
"j  c #463214",
"k  c #493618",
"l  c #473009",
"z  c #4D3B22",
"x  c #463B29",
"c  c #513E25",
"v  c #453D35",
"b  c #433A39",
"n  c #523F31",
"m  c #783C00",
"M  c #374608",
"N  c #3C4415",
"B  c #3F5600",
"V  c #3D4228",
"C  c #3D4437",
"Z  c #475702",
"A  c #434B13",
"S  c #484817",
"D  c #584817",
"F  c #4A5716",
"G  c #53581B",
"H  c #424700",
"J  c #725016",
"K  c #556300",
"L  c #54631C",
"P  c #5B6C1D",
"I  c #596819",
"U  c #5B711C",
"Y  c #646C1B",
"T  c #67751A",
"R  c #726D14",
"E  c #474629",
"W  c #565D21",
"Q  c #44423C",
"!  c #4A423C",
"~  c #4D493C",
"^  c #444836",
"/  c #524A37",
"(  c #47563B",
")  c #585639",
"_  c #544027",
"`  c #665827",
"'  c #79582A",
"]  c #6A4C3C",
"[  c #675539",
"{  c #78573B",
"}  c #614620",
"|  c #5A6322",
" . c #5D6C21",
".. c #5C642A",
"X. c #636C24",
"o. c #666826",
"O. c #776B28",
"+. c #637423",
"@. c #6A7424",
"#. c #6A7C26",
"$. c #6D752B",
"%. c #6D7D2A",
"&. c #677923",
"*. c #757E2C",
"=. c #7B7C2C",
"-. c #76762A",
";. c #65673C",
":. c #6B7434",
">. c #787C36",
",. c #756B35",
"<. c #02154A",
"1. c #021958",
"2. c #000A4A",
"3. c #32374E",
"4. c #00036C",
"5. c #001C64",
"6. c #001D6E",
"7. c #000075",
"8. c #000B75",
"9. c #001E74",
"0. c #001978",
"q. c #012074",
"w. c #02227A",
"e. c #0B2476",
"r. c #14287A",
"t. c #102364",
"y. c #27316A",
"u. c #394346",
"i. c #39425E",
"p. c #454642",
"a. c #4B4640",
"s. c #4A4A45",
"d. c #4D4D4A",
"f. c #454948",
"g. c #544C44",
"h. c #524E4A",
"j. c #5A4F47",
"k. c #4C5647",
"l. c #52524C",
"z. c #5B544B",
"x. c #5A5547",
"c. c #555552",
"v. c #5A5653",
"b. c #5B5A54",
"n. c #5D5D5A",
"m. c #55585A",
"M. c #4C5156",
"N. c #63574A",
"B. c #635B4D",
"V. c #645945",
"C. c #795B4A",
"Z. c #635D55",
"A. c #625E5B",
"S. c #57664A",
"D. c #5B635A",
"F. c #5C7051",
"G. c #66654E",
"H. c #77674A",
"J. c #646354",
"K. c #6B6554",
"L. c #63625D",
"P. c #69655D",
"I. c #6B6A59",
"U. c #75695A",
"Y. c #787655",
"T. c #6C7654",
"R. c #575A6B",
"E. c #5D6968",
"W. c #656562",
"Q. c #6A6663",
"!. c #676964",
"~. c #6C6B64",
"^. c #6C6C6A",
"/. c #726D6C",
"(. c #726C64",
"). c #6B726B",
"_. c #74726C",
"`. c #7A746C",
"'. c #777567",
"]. c #767471",
"[. c #7B7A74",
"{. c #7D7C79",
"}. c #787876",
"|. c #697776",
" X c #645F61",
".X c #89780C",
"XX c #8B7533",
"oX c #845E36",
"OX c #876945",
"+X c #86784B",
"@X c #846652",
"#X c #8A7754",
"$X c #96795C",
"%X c #907041",
"&X c #827869",
"*X c #827E7D",
"=X c #827F74",
"-X c #977B62",
";X c #A37B63",
":X c #7B852D",
">X c #77862C",
",X c #7C8736",
"<X c #7E8440",
"1X c #84872A",
"2X c #838C33",
"3X c #8A8839",
"4X c #97883B",
"5X c #8B9434",
"6X c #889439",
"7X c #949A3A",
"8X c #96882C",
"9X c #99A239",
"0X c #A5AD3B",
"qX c #AF973F",
"wX c #868845",
"eX c #9A8D43",
"rX c #8D9543",
"tX c #979746",
"yX c #878656",
"uX c #9C9251",
"iX c #A4954A",
"pX c #A88E56",
"aX c #9CA54A",
"sX c #ABA855",
"dX c #B6A65B",
"fX c #ABB555",
"gX c #AAB055",
"hX c #83817C",
"jX c #8A8478",
"kX c #92876F",
"lX c #A9906B",
"zX c #B8AA63",
"xX c #B4A974",
"cX c #C1B268",
"vX c #C1987F",
"bX c #BEC066",
"nX c #CDC45F",
"mX c #001D8C",
"MX c #042584",
"NX c #7E7E81",
"BX c #768E8A",
"VX c #888684",
"CX c #969383",
"ZX c #978F81",
"AX c #B1A88E",
"SX c #A29988",
"DX c #C8A784",
"FX c None",
/* pixels */
"FXFXFXFXFXFXFXFXFXFXFXFXFXFXFXFXFXFXFXFXFXFXFXFXFXFXFXFXFXFXFXFXFXFXFXFXFXFXFXFXFXFXFXFXFXFXFXFXFXFXFXFXFXFXFXFXFXFXFXFXFXFXFXFX",
"FXFXFXFXFXFXFXFXFXFXFXFXFXFXFXFXFXFXFXFXFXFXFXFXFXFXFXFXFXFXFXFXFXFXFXFXFXFXFXFXFXFXFXFXFXFXFXFXFXFXFXFXFXFXFXFXFXFXFXFXFXFXFXFX",
"FXFXFXFXFXFXFXFXFXFXFXFXFXFXFXFXFXFXFXFXFXFXFXFXFXFXFXFXFXFXFXFXFXFXFXFXFXFXFXFXFXFXFXFXFXFXFXFXFXFXFXFXFXFXFXFXFXFXFXFXFXFXFXFX",
"FXFXFXFXFXFXFXFXFXFXFXFXFXFXFXFXFXFXFXFXFXFXFXFXFXFXFXFXFXFXFXFXFXFXFXFXFXFXFXFXFXFXFXFXFXFXFXFXFXFXFXFXFXFXFXFXFXFXFXFXFXFXFXFX",
"FXFXFXFXFXFXFXFXFXFXFXFXFXFXFXFXFXFXFXFXFXFXFXFXFXFXFXFXFXFXFXFXFXFXFXFXFXFXFXFXFXFXFXFXFXFXFXFXFXFXFXFXFXFXFXFXFXFXFXFXFXFXFXFX",
"FXFXFXFXFXFXFXFXFXFXFXFXFXFXFXFXFXFXFXFXFXFXFXFXFXFXFXFXFXFXFXFXFXFXFXFXFXFXFXFXFXFXFXFXFXFXFXFXFXFXFXFXFXFXFXFXFXFXFXFXFXFXFXFX",
"FXFXFXFXFXFXFXFXFXFXFXFXFXFXFXFXFXFXFXFXFXFXFXFXFXFXFXFXFXFXFXFXFXFXFXFXFXFXFXFXFXFXFXFXFXFXFXFXFXFXFXFXFXFXFXFXFXFXFXFXFXFXFXFX",
"FXFXFXFXFXFXFXFXFXFXFXFXFXFXFXFXFXFXFXFXFXFXFXFXFXFXFXFXFXFXFXFXFXFXFXFXFXFXFXFXFXFXFXFXFXFXFXFXFXFXFXFXFXFXFXFXFXFXFXFXFXFXFXFX",
"FXFXFXFXFXFXFXFXFXFXFXFXFXFXFXFXFXFXFXFXFXFXFXFXFXFXFXFXFXFXFXFXFXFXFXFXFXFXFXFXFXFXFXFXFXFXFXFXFXFXFXFXFXFXFXFXFXFXFXFXFXFXFXFX",
"FXFXFXFXFXFXFXFXFXFXFXFXFXFXFXFXFXFXFXFXFXFXFXFXFXFXFXFXFXFXFXFXFXFXFXFXFXFXFXFXFXFXFXFXFXFXFXFXFXFXFXFXFXFXFXFXFXFXFXFXFXFXFXFX",
"FXFXFXFXFXFXFXFXFXFXFXFXFXFXFXFXFXFXFXFXFXFXFXFXFXFXFXFXFXFXFXFXFXFXFXFXFXFXFXFXFXFXFXFXFXFXFXFXFXFXFXFXFXFXFXFXFXFXFXFXFXFXFXFX",
"FXFXFXFXFXFXFXFXFXFXFXFXFXFXFXFXFXFXFXFXFXFXFXFXFXFXFXFXFXFXFXFXFXFXFXFXFXFXFXFXFXFXFXFXFXFXFXFXFXFXFXFXFXFXFXFXFXFXFXFXFXFXFXFX",
"FXFXFXFXFXFXFXFXFXFXFXFXFXFXFXFXFXFXFXFXFXFXFXFXFXFXFXFXFXFXFXFXFXFXFXFXFXFXFXFXFXFXFXFXFXFXFXFXFXFXFXFXFXFXFXFXFXFXFXFXFXFXFXFX",
"FXFXFXFXFXFXFXFXFXFXFXFXFXFXFXFXFXFXFXFXFXFXFXFXFXFXFXFXFXFXFXFXFXFXFXFXFXFXFXFXFXFXFXFXFXFXFXFXFXFXFXFXFXFXFXFXFXFXFXFXFXFXFXFX",
"FXFXFXFXFXFXFXFXFXFXFXFXFXFXFXFXFXFXFXFXFXFXFXFXFXFXFXFXFXFXFXFXFXFXFXFXFXFXFXFXFXFXFXFXFXFXFXFXFXFXFXFXFXFXFXFXFXFXFXFXFXFXFXFX",
"FXFXFXFXFXFXFXFXFXFXFXFXFXFXFXFXFXFXFXZ.W.FXFXFXFXFXFXFXFXFXFXFXFXFXFXFXFXFXFXFXFXFXFXFXFXFXFXFXFXFXFXFXFXFXFXFXFXFXFXFXFXFXFXFX",
"FXFXFXFXFXFXFXFXFXFXFXFXFXFXFXFXFXFXFXW.{.FXFXFXFXFXFXFXFXFXFXFXFXFXFXFXFXFXFXFXFXFXFXFXFXFXFXFXFXFXFXFXFXFXFXFXFXFXFXFXFXFXFXFX",
"FXFXFXFXFXFXFXFXFXFXFXFXFXFXFXFXFXFXFXA.*X*XFXFXFXFXFXFXFXFXFXFXFXFXFXFXFXFXFXFXFXFXFXFXFXFXFXFXFXFXFXFXFXFXFXFXFXFXFXFXFXFXFXFX",
"FXFXFXFXFXFXFXFXFXFXFXFXFXFXFXFXFXFXFX X].*XFXFXFXFXFXFXFXFXFXFXFXFXFXFXFXFXFXFXFXFXFXFXFXFXFXFXFXFXFXFXFXFXFXFXFXFXFXFXFXFXFXFX",
"FXFXFXFXFXFXFXFXFXFXFXFXFXFXFXFXFXFXFX~. X]./.FXFXFXFXFXFXFXFXFXFXFXFXFXFXFXFXFXFXFXFXFXFXFXFXFXFXFXFXFXFXFXFXFXFXFXFXFXFXFXFXFX",
"FXFXFXFXFXFXFXFXFXFXFXFXFXFXFXFXFXFXFX/.}.]./.A.FXFXFXFXFXFXFXFXFXFXFXFXFXn.b.FXFXFXs.h.3.2.2.FXFXFXFXFXFXFXFXFXFXFXFXFXFXFXFXFX",
"FXFXFXFXFXFXFXFXFXFXFXFXFXFXFXFXFXFXW./.*XVXZ.(._.].W.FXFXFXFXFXFXFXFXFXFXv.v.FXFXFXg a.M.0.9.9.5.1.1.<.FXFXFXFXFXFXFXFXFXFXFXFX",
"FXFXFXFXFXFXFXFXFXFXFXFXFXFXFXFXZ.(. XQ.Q.}./.n.^.!.b.FXFXFXFXFXFXFXFXFXe Q Q d FXp.d d d.e.0.MXMXw.q.q.q.5.1.FXFXFXFXFXFXFXFXFX",
"FXFXFXFXFXFXFXFXFXFXFXFXFXFXFXFX~./.^.Q.A.Q.^.Q.Q.D.c.~.L.c.d.Q Q b s.L.n.A.n.L.n.b.A.L.h.t.9.r.e.9.9.w.w.q.5.FXFXFXFXFXFXFXFXFX",
"FXFXFXFXFXFXFXFXFXFXFXFXFXFXFXFXn. XW.W.Q.W.W.W.n.D.n._.{.].W.W.P.l.W.]._.[.{.}.[.(.v.[.hX1.8.7.7.y.e.w.w.9.5.FXFXFXFXFXFXFXFXFX",
"FXFXFXFXFXFXFXFXFXFXFXFXFXFXFX1XG.n.^.^././.^./.].^.b.kX&X`.A.A.Z.c.L.!.].{.[._.[.}.n.^.CXf.3.n.&Xm.8.e.6.9.5.FXFXFXFXFXFXFXFXFX",
"FXFXFXFXFXFXFXFXFXFXFXFXFXFX>X9XY.^.).]./././.A.[.).^.SXAXxX#Xz p.L.n.~./.!.~.P.Q.!.Q.v.e +XlXDX*X4.5.5.1.1.1.FXFXFXFXFXFXFXFXFX",
"FXFXFXFXFXFXFXFXFXFXFXFXFXT 5X9XrXW._.^./.*X*X~.[.[.[.'.K.xXAXY.f.m.A.n.z.b.n.W.W.A.v.h.3.H.kXR.7.0.q.w.9.9.1.FXFXFXFXFXFXFXFXFX",
"FXFXFXFXFXFXFXFXFXFXFXFXFX$.,X9X9XJ.^.^. XW./.=XVXhX<XR.o   2 i d.c.d.A.W.^.hX*X}.*XW.A.M.9 7.7.e.w.9.w.w.8.i.FXFXFXFXFXFXFXFXFX",
"FXFXFXFXFXFXFXFXFXFXFXFXFX*.,X9X0XwXW.`.`.'.=XZXCXCX[.l.6 r # % d.l.I.I.C.U.U.N.] C.] ) h.f.y.MXw.q.w.9.e.7.m.FXFXFXFXFXFXFXFXFX",
"FXFXFXFXFXFXFXFXFXFXFXFXFX:X,X7X0XrXv.(.`.`.].]._.!.<Xm.  0 $ r Q v.+X.Xh m J J J oXl ` Z.M.MXMXMXMXe.w.r.4.F.T FXFXFXFXFXFXFXFX",
"FXFXFXFXFXFXFXFXFXFXFXFX@.:X>X>X6X7XY.yXyXyX+X>.l.3.CXE.  0 # r g.U.G O.` ,X$.h ; XX-.y Z.Z.8.mXmXmX0.0.0.5.+.I 3 FXFXFXFXFXFXFX",
"FXFXFXFXFXFXFXFXFXFXFXFX .&.+.*.,X5X5X5X8X1X1X1XE.y.'.Q   $ 6 < Z.T.Z S *.fXdX,.' dXtX5 s.I.E.M.M.M.y.i.y.3.U $. .W FXFXFXFXFXFX",
"FXFXFXFXFXFXFXFXFXFX%.+.P I L +.>X1X=.1X1X1X=.T M.<X'.Q   : 0 r z.[ Z ;.,XaXdXpXiXiX6XA a.K.).I.K T #.:X&.U T eXsXuX>.FXFXFXFXFX",
"FXFXFXFXFXFXFXFXFX,XaX7X&.*.-.L >X>X:X>X&.X.| G u.BX).u o r 6 t g.W K +X+X1X3X4XuXXXo.L H.N.n.S.I X.*.#.U T 6XgXzXzXwXFXFXFXFXFX",
"FXFXFXFXFXFXFXFXFXrXgXgXsXdX4X+.I L @.%.+.G G H E.<Xd r # $ < u x.) K yXH.M D +X2XH.k D $XN.N.FXFXW  .T >XaXfXbXcXiXwXFXFXFXFXFX",
"FXFXFXFXFXFXFXFXFXrXgXzXdXzXsX6X>XL L U FXFXFXFXNXR.7 : + 6 < w B.) K +X@XU.] lX[ lX@X$X#XN.FXFXFXA | ,X6XfXfXfXiXeXeXFXFXFXFXFX",
"FXFXFXFXFXFXFXFXFXaXsXiXuXzXzXtX6X%.+.F FXFXFXFXFXFX: & + $ $ $ Z.[ Z { OX$X@X;X{ ;X$XlX%Xz.FXFXFX:.rXtX,XgXaXtXeX4XXXFXFXFXFXFX",
"FXFXFXFXFXFXFXFX<XaXtXeX4XeXaXtXrX,X:...FXFXFXFXFXFXFX# $ % &   / g.Z ` ] +XOXoX' ' OX%XFXFXFXFXFX:.rX6X,XaXaXtX3X4XO.FXFXFXFXFX",
"FXFXFXFXFXFXFXFXFX3X4X4X4XwXwXrXwX:...FXFXFXFXFXFXFXFX.   e s.f.J.L.G.` } XX` k O.D ` XX` FXFXFXFXFX:.2X>XrX,X6X5X$.FXFXFXFXFXFX",
"FXFXFXFXFXFXFXFXFXFX3XXX8X3X3XrX,X:.FXFXFXFXFXFXFXFXFXp u U.&X`.`._.].V.R 8X.XXXnXqXXX8XK.D.FXFXFXFXFXG | +. .&.:XFXFXFXFXFXFXFX",
"FXFXFXFXFXFXFXFXFXFX2X4X=.$.>XX.+. .FXFXFXFXFXFXFXFXFXB.j.N.z.z.b.d.p.c.[.jXpXuXiX+X'.'._.`.P.FXFXFXFX> F F U &.#.+.FXFXFXFXFXFX",
"FXFXFXFXFXFXFXFXFXFX*.+. .N A F  .L FXFXFXFXFXFXFXFXFXv v h.n.c.c.D.{.VXVXVXNX^.m.^.{.I.~./.n.FXFXFX> > N L >X&.P +.X.FXFXFXFXFX",
"FXFXFXFXFXFXFXFXFX| P L L A N A N L N FXFXFXFXFXFXFXFXt l.D.n.A.!.}.VXVX[._.~.~.[.=XU.y J.~.l.FXFX3 u i N F G F P $.FXFXFXFXFXFX",
"FXFXFXFXFXFXFXFXFXFX&.+.F > 5 1 4 4 4 FXFXFXFXFXFXFXFXc.n.^.{.hX{.].P.l.D.!.~.! x.(.'.L.b.c.l.FXFXp a b b x M G *.FXFXFXFXFXFXFX",
"FXFXFXFXFXFXFXFXFXFX .+.A 4 a b a a t 1 FXFXFXFXd.m.!.{.VXVX{.^.m.0 u n.b.l.'.g.v.(.D.p.~._.0 E < q q t a b f L FXFXFXFXFXFXFXFX",
"FXFXFXFXFXFXFXFXFXFXFXA E v b t t t q q FXFXFX^ W.].hXVX_.b.a.  s.b   Z.Z.s.l.Q Q b.hXs.p.V P @.k o 8 q q t b u FXFXFXFXFXFXFXFX",
"FXFXFXf FXFXFXFXFXFXFXV ! i e q 8 8 % $ % Z.'.I.Z.'.~.v.0   m.r r c.  Q z.p.s.{.d.u.p.E G >XXX@.o.1 O = q q w FXFXFXFXFXFXFXFXFX",
"FXFXFXd p FXFXFXFXFXFXFXa e 0 O & q a d.v.z.jXSX'.! d.L.b.  l.l.  l.r u l.p.f.c.:.:XT R 7XiX2X-.o.A X O X = 6 FXFXFXFXFXFXFXFXFX",
"FXFXFXFXd r FXFXFXFXFXFX= 0 X t d e c./.VX[.j.jXkXZ.d.D.~.e 0 b.0 l.c.d.g.^ w Z Y :X1X:X:X:X>X=.O.D 5 @ + + FXFXFXFXFXFXFXFXFXFX",
"FXFXFXFXs e FXFXFXFXFXFX^ v l.W.~.W.'.}.~.'.g.j.jX&X! d.W.l.s D.n.c.c.f.s u e | +.I U T >X6X5X8X=.o.G H X FXFXFXFXFXFXFXFXFXFXFX",
"FXFXFXFXC a.FXFXFXFXFXl.b l./.{.[._.].Z.  v Z.y Z.&Xj.C m. XA.b.c.s.s f s $ 7 N I T T Y 2X5X2X:X*.X.D > FXFXFXFXFXFXFXFXFXFXFXFX",
"FXFXFXFXFXa.J.b.! s._.[.).)._.~.e e (.U.z.B.x.u ! K.! p d.c.l.p.p w ; ~.~.  6 N I Y I T 1X6X1XX.S FXFXFXFXFXFXFXFXFXFXFXFXFXFXFX",
"FXFXFXFXFX! s.h.j.v L.^.s.Q P.~.a.b Z.V./ 4 ] n a ! < p f g t * * k j B.(.  6 w A L I T ,X*.G @ o o FXFXFXFXFXFXFXFXFXFXFXFXFXFX",
"FXFXFX3.b.W.f 1 j.g.v ~.d + L.I.V.OXS { ;XS ) ] 3 % & a.s.L.b.l c c j / ~.FX# : N G I Y +.V # # % + & FXFXFXFXFXFXFXFXFXFXFXFXFX",
"FXFXFXP.~.].W., ~ N.! L._.D.C.` ' DX$XH H.W B I W 7 9 d L.(.P.j z c k x P.FXFXr 6 * 4 E u 7 r e r 0 : FXFXFXFXFXFXFXFXFXFXFXFXFX",
"FXAXAXjXn.L.^.! x v.j.a.P.u.;XvXA +X,.Z B T F A N 6 # r l.b.P.z k c z k /.FXFXFXFX+ + + + + + + # $ FXFXFXFXFXFXFXFXFXFXFXFXFXFX",
"FXAXCXjXW.c.D.n.x ~ z.! a.a.[ +X$.Z T P F N # + : r g f p J.L./ k c c k [.].FXFX2 x x , * X - * @ @ FXFXFXFXFXFXFXFXFXFXFXFXFXFX",
"FX].*X].!.h.c.b.b v N.g.i FXM >X=.F F % # < , < $ % @ + e hX[.Z.j c k j L.P.FXFX2 4 < @ - * 1 1 * - < : FXFXFXFXFXFXFXFXFXFXFXFX",
"FXFXc.FXFXh.g.g.! i g.FXFXFXFXL  .3 u f s , * 2 1 1 - X Q '.=Xb.j c c j J.'.FXFXFX2 X , 1 1 - q ^ k.S.C C i FXFXFXFXFXFXFXFXFXFX",
"FXFXFXFXFXFXv v FXFXFXFXFXFXFXFXV C ( ( S.S.( C q * 1 * t L.Z./ l l l 1 L./.FXFXFXFX< 1 * g k.S.S.V i 3 y i i FXFXFXFXFXFXFXFXFX",
"FXFXFXFXFXFXFXFXFXFXFXFXFXFXFXi E i i y 3 E k.S.S.k.w X FXZ.b.~ / B.(.'.~.P.FXFXFXFX* * k.F.S.( E E / x.) ~ s FXFXFXFXFXFXFXFXFX",
"FXFXFXFXFXFXFXFXFXFXFXFXFXFXFX! ) g.V.x.x.) / / ^ S.( FXFXFX=X=X=X[.`.FXFXFXFXFXFXFXFXV F.( / ) G.G.G.K.G.s.i FXFXFXFXFXFXFXFXFX",
"FXFXFXFXFXFXFXFXFXFXFXFXFXFXFXV k.G.G.K.J.G.J.G.) ( ( FXFXFXFXFXFXFXFXFXFXFXFXFXFXFXFXFX( / I.G.G.(.T.'.I.FXFXFXFXFXFXFXFXFXFXFX"
};
