/* XPM */
static char *result[] = {
/* columns rows colors chars-per-pixel */
"64 64 249 2 ",
"   c #000000",
".  c #090A0C",
"X  c #1A140D",
"o  c #070614",
"O  c #140C13",
"+  c #141515",
"@  c #1E1A11",
"#  c #16191A",
"$  c #1B1C1C",
"%  c #171618",
"&  c #0D1013",
"*  c #21160A",
"=  c #251D14",
"-  c #221D1D",
";  c #271913",
":  c #3B0600",
">  c #1E201F",
",  c #343A0A",
"<  c #2B241C",
"1  c #27251A",
"2  c #332A1C",
"3  c #33271B",
"4  c #2C3618",
"5  c #35381B",
"6  c #2C2B0A",
"7  c #1B1C22",
"8  c #1A1D28",
"9  c #221F20",
"0  c #1E2121",
"q  c #1E233D",
"w  c #242323",
"e  c #2A2524",
"r  c #2A2A24",
"t  c #262929",
"y  c #2B2B2A",
"u  c #262826",
"i  c #322D2B",
"p  c #352D22",
"a  c #34332C",
"s  c #393728",
"d  c #2E3132",
"f  c #343533",
"g  c #3B3433",
"h  c #3B3A34",
"j  c #3D3C3A",
"k  c #363833",
"l  c #302E2F",
"z  c #501A02",
"x  c #473416",
"c  c #473008",
"v  c #4D3B22",
"b  c #463B29",
"n  c #513E25",
"m  c #453D35",
"M  c #433A39",
"N  c #523F31",
"B  c #783C00",
"V  c #374608",
"C  c #3D4515",
"Z  c #3F5600",
"A  c #3D4228",
"S  c #3D4437",
"D  c #475703",
"F  c #434B13",
"G  c #484817",
"H  c #584817",
"J  c #4A5716",
"K  c #53581B",
"L  c #424700",
"P  c #725016",
"I  c #556300",
"U  c #54631C",
"Y  c #5A651B",
"T  c #5B6C1D",
"R  c #586918",
"E  c #5B711C",
"W  c #646D1B",
"Q  c #67751A",
"!  c #726D14",
"~  c #474629",
"^  c #565D21",
"/  c #44433C",
"(  c #4A423C",
")  c #4D493C",
"_  c #444836",
"`  c #524A37",
"'  c #47563B",
"]  c #585639",
"[  c #544027",
"{  c #665827",
"}  c #6A4C3C",
"|  c #675539",
" . c #78573B",
".. c #735428",
"X. c #5A6322",
"o. c #5D6C21",
"O. c #5C642A",
"+. c #636C24",
"@. c #656826",
"#. c #776B28",
"$. c #637423",
"%. c #6A7424",
"&. c #6A7C26",
"*. c #6D752B",
"=. c #6D7D2A",
"-. c #677923",
";. c #757E2C",
":. c #7B7C2C",
">. c #76762A",
",. c #65673C",
"<. c #6B7434",
"1. c #787C36",
"2. c #756B35",
"3. c #02154A",
"4. c #021958",
"5. c #000A4A",
"6. c #32374E",
"7. c #00036C",
"8. c #001C64",
"9. c #001D6E",
"0. c #000575",
"q. c #001E74",
"w. c #001978",
"e. c #012074",
"r. c #02227A",
"t. c #0B2476",
"y. c #14287A",
"u. c #102364",
"i. c #27316A",
"p. c #394346",
"a. c #39425E",
"s. c #454642",
"d. c #4A4640",
"f. c #4A4A45",
"g. c #4D4D4A",
"h. c #454948",
"j. c #544C44",
"k. c #524E4A",
"l. c #5A4F47",
"z. c #4C5647",
"x. c #52524C",
"c. c #5A544C",
"v. c #5A5547",
"b. c #555552",
"n. c #5A5653",
"m. c #5B5A54",
"M. c #5D5D5A",
"N. c #55585A",
"B. c #4C5156",
"V. c #635B4D",
"C. c #645847",
"Z. c #795B4A",
"A. c #635D55",
"S. c #625E5B",
"D. c #57664A",
"F. c #5B635A",
"G. c #5C7051",
"H. c #66654E",
"J. c #77674A",
"K. c #646354",
"L. c #6B6554",
"P. c #63625D",
"I. c #69655D",
"U. c #6B6A59",
"Y. c #75695A",
"T. c #787655",
"R. c #6C7654",
"E. c #575A6B",
"W. c #5D6968",
"Q. c #656562",
"!. c #6A6663",
"~. c #676964",
"^. c #6C6B64",
"/. c #6C6C6A",
"(. c #726D6C",
"). c #726C64",
"_. c #6B726B",
"`. c #74726C",
"'. c #7A746C",
"]. c #777567",
"[. c #767471",
"{. c #7B7A74",
"}. c #7D7C79",
"|. c #787876",
" X c #697776",
".X c #645F61",
"XX c #89780C",
"oX c #8B7533",
"OX c #845E36",
"+X c #876945",
"@X c #86784B",
"#X c #846652",
"$X c #8A7754",
"%X c #96795C",
"&X c #907041",
"*X c #827869",
"=X c #827E7D",
"-X c #827E74",
";X c #977B62",
":X c #A37B63",
">X c #7B852D",
",X c #77862C",
"<X c #7C8736",
"1X c #7E8440",
"2X c #84872A",
"3X c #838C33",
"4X c #8A8839",
"5X c #97883B",
"6X c #8B9434",
"7X c #889439",
"8X c #949A3A",
"9X c #96882C",
"0X c #99A239",
"qX c #A5AD3B",
"wX c #AF973F",
"eX c #868845",
"rX c #9A8D43",
"tX c #8D9543",
"yX c #979746",
"uX c #878656",
"iX c #9C9251",
"pX c #A4954A",
"aX c #A88E56",
"sX c #9CA54A",
"dX c #ABA855",
"fX c #B6A65B",
"gX c #ABB555",
"hX c #AAB055",
"jX c #83817C",
"kX c #898478",
"lX c #92876F",
"zX c #A9906B",
"xX c #B8AA63",
"cX c #B4A974",
"vX c #C1B268",
"bX c #C1987F",
"nX c #BEC066",
"mX c #CDC45F",
"MX c #001D8C",
"NX c #042584",
"BX c #7E7E81",
"VX c #768E8A",
"CX c #888684",
"ZX c #969383",
"AX c #978F81",
"SX c #B1A88E",
"DX c #A29988",
"FX c #C8A784",
"GX c None",
/* pixels */
"GXGXGXGXGXGXGXGXGXGXGXGXGXGXGXGXGXGXGXGXGXGXGXGXGXGXGXGXGXGXGXGXGXGXGXGXGXGXGXGXGXGXGXGXGXGXGXGXGXGXGXGXGXGXGXGXGXGXGXGXGXGXGXGX",
"GXGXGXGXGXGXGXGXGXGXGXGXGXGXGXGXGXGXGXGXGXGXGXGXGXGXGXGXGXGXGXGXGXGXGXGXGXGXGXGXGXGXGXGXGXGXGXGXGXGXGXGXGXGXGXGXGXGXGXGXGXGXGXGX",
"GXGXGXGXGXGXGXGXGXGXGXGXGXGXGXGXGXGXGXGXGXGXGXGXGXGXGXGXGXGXGXGXGXGXGXGXGXGXGXGXGXGXGXGXGXGXGXGXGXGXGXGXGXGXGXGXGXGXGXGXGXGXGXGX",
"GXGXGXGXGXGXGXGXGXGXGXGXGXGXGXGXGXGXGXGXGXGXGXGXGXGXGXGXGXGXGXGXGXGXGXGXGXGXGXGXGXGXGXGXGXGXGXGXGXGXGXGXGXGXGXGXGXGXGXGXGXGXGXGX",
"GXGXGXGXGXGXGXGXGXGXGXGXGXGXGXGXGXGXGXGXGXGXGXGXGXGXGXGXGXGXGXGXGXGXGXGXGXGXGXGXGXGXGXGXGXGXGXGXGXGXGXGXGXGXGXGXGXGXGXGXGXGXGXGX",
"GXGXGXGXGXGXGXGXGXGXGXGXGXGXGXGXGXGXGXGXGXGXGXGXGXGXGXGXGXGXGXGXGXGXGXGXGXGXGXGXGXGXGXGXGXGXGXGXGXGXGXGXGXGXGXGXGXGXGXGXGXGXGXGX",
"GXGXGXGXGXGXGXGXGXGXGXGXGXGXGXGXGXGXGXGXGXGXGXGXGXGXGXGXGXGXGXGXGXGXGXGXGXGXGXGXGXGXGXGXGXGXGXGXGXGXGXGXGXGXGXGXGXGXGXGXGXGXGXGX",
"GXGXGXGXGXGXGXGXGXGXGXGXGXGXGXGXGXGXGXGXGXGXGXGXGXGXGXGXGXGXGXGXGXGXGXGXGXGXGXGXGXGXGXGXGXGXGXGXGXGXGXGXGXGXGXGXGXGXGXGXGXGXGXGX",
"GXGXGXGXGXGXGXGXGXGXGXGXGXGXGXGXGXGXGXGXGXGXGXGXGXGXGXGXGXGXGXGXGXGXGXGXGXGXGXGXGXGXGXGXGXGXGXGXGXGXGXGXGXGXGXGXGXGXGXGXGXGXGXGX",
"GXGXGXGXGXGXGXGXGXGXGXGXGXGXGXGXGXGXGXGXGXGXGXGXGXGXGXGXGXGXGXGXGXGXGXGXGXGXGXGXGXGXGXGX.XA.GXGXGXGXGXGXGXGXGXGXGXGXGXGXGXGXGXGX",
"GXGXGXGXGXGXGXGXGXGXGXGXGXGXGXGXGXGXGXGXGXGXGXGXGXGXGXGXGXGXGXGXGXGXGXGXGXGXGXGXGXGXGXGX}..XGXGXGXGXGXGXGXGXGXGXGXGXGXGXGXGXGXGX",
"GXGXGXGXGXGXGXGXGXGXGXGXGXGXGXGXGXGXGXGXGXGXGXGXGXGXGXGXGXGXGXGXGXGXGXGXGXGXGXGXGXGXGX=X=XS.GXGXGXGXGXGXGXGXGXGXGXGXGXGXGXGXGXGX",
"GXGXGXGXGXGXGXGXGXGXGXGXGXGXGXGXGXGXGXGXGXGXGXGXGXGXGXGXGXGXGXGXGXGXGXGXGXGXGXGXGXGXGX=X(.Q.GXGXGXGXGXGXGXGXGXGXGXGXGXGXGXGXGXGX",
"GXGXGXGXGXGXGXGXGXGXGXGXGXGXGXGXGXGXGXGXGXGXGXGXGXGXGXGXGXGXGXGXGXGXGXGXGXGXGXGXGXGX(.[..X!.GXGXGXGXGXGXGXGXGXGXGXGXGXGXGXGXGXGX",
"GXGXGXGXGXGXGXGXGXGXGXGXGXGXGXGXGXGX3.5.6.g.f.GXGXGXM.M.GXGXGXGXGXGXGXGXGXGXGXGXGXI.(.[.=X(.GXGXGXGXGXGXGXGXGXGXGXGXGXGXGXGXGXGX",
"GXGXGXGXGXGXGXGXGXGXGXGXGX3.4.4.8.e.w.w.B.s.d GXGXGXn.n.GXGXGXGXGXGXGXGXGXGX!.`.`.^.n.CX=X(.P.GXGXGXGXGXGXGXGXGXGXGXGXGXGXGXGXGX",
"GXGXGXGXGXGXGXGXGXGX4.8.9.e.t.r.NXNXw.t.f.M j s.GXM S s.y GXGXGXGXGXGXGXGXGXm.~./.S.(.|.!.!.P.^.A.GXGXGXGXGXGXGXGXGXGXGXGXGXGXGX",
"GXGXGXGXGXGXGXGXGXGX8.r.r.r.q.w.t.y.u.u.k.A.S.m.M.F.S.S.M.S.f.S / / g.n.P.~.b.P.~.~./.!.S.!.^.(.!.GXGXGXGXGXGXGXGXGXGXGXGXGXGXGX",
"GXGXGXGXGXGXGXGXGXGX8.e.r.r.t.y.7.0.0.u.jX{.n.(.[.|.}.{.`.[.Q.c.P.!.P.`.|.`.m.F.M.Q.Q.Q.~.Q.Q.Q.M.GXGXGXGXGXGXGXGXGXGXGXGXGXGXGX",
"GXGXGXGXGXGXGXGXGXGX8.9.9.t.9.B.*Xc.6.6.lX/.M.|.{.(.{.{.[.~.P.n.m.P.P.].'.lXm._.[.(./.(.(./.^.E.K.2XGXGXGXGXGXGXGXGXGXGXGXGXGXGX",
"GXGXGXGXGXGXGXGXGXGX4.4.8.8.8.7.kXFXcX$Xd c.~.~.!.I.!././.^.M.P.s.[ $XcXSXSX^.`.|.P./.(.(.[.`./.T.0X:.GXGXGXGXGXGXGXGXGXGXGXGXGX",
"GXGXGXGXGXGXGXGXGXGX4.9.q.q.t.q.0.E.-XJ.6.c.n.P.Q.I.P.m.c.M.P.M.h.Y.cXSXL.].{.{.{./.=X=X(.^.`..X7X0X4X%.GXGXGXGXGXGXGXGXGXGXGXGX",
"GXGXGXGXGXGXGXGXGXGXa.0.t.q.r.r.y.0.7.q d.F.~.jX-X=XCX/.Q..Xk.b.k.a <     m.=XkXCX{.(.!.S.(._.U.0X0X3X=.GXGXGXGXGXGXGXGXGXGXGXGX",
"GXGXGXGXGXGXGXGXGXGXB.0.y.w.q.q.q.NXy.6.v.v.} Z.l.C.Y.Y.Z.U.U.g.g.% # u % j.-XZXAXAX-X].`.'..X1XqX0X3X;.GXGXGXGXGXGXGXGXGXGXGXGX",
"GXGXGXGXGXGXGXGXGXQ G.7.y.t.t.r.NXNXNXN.A.{ c P P P P B z XX@Xn./ e $ w   m.{.^.(.[.[.'.'.).c.8XqX8X<X<XGXGXGXGXGXGXGXGXGXGXGXGX",
"GXGXGXGXGXGXGXGX4 U <.8.w.w.w.MXMXMX0.A.A.p >.1.: z 2.<X{ ! ^ Y.f.e # w   K.kX6.z.<X@XuXuXuXT.8X7X,X,X,X*.GXGXGXGXGXGXGXGXGXGXGX",
"GXGXGXGXGXGXGXX.@.*.T p.u.a.a.a.B.E.~.!.j.6 yXdX..2.hXgX,XG D J.A.7 - $   S 1Xa.F.2X2X2X6X6X6X6X<X,X-.&.o.GXGXGXGXGXGXGXGXGXGXGX",
"GXGXGXGXGXGX1.pXdX8X$.o.Q ,X,XQ I U./.L.f.C tXpXpXdXfXsX<X,.D D.V.e w 1   S _.VXb.! >X>X>XoX,X>X,X,XU U R $.=.GXGXGXGXGXGXGXGXGX",
"GXGXGXGXGXGXeXfXvXdX3X,XR ,X,XO.W D.N.C.J.Y #.oXpXrXoX3XuXT.I O.j.i 7 w o a _.VXh.K X.+.*.,X,X,XE R =.1.Q 7XsX<XGXGXGXGXGXGXGXGX",
"GXGXGXGXGXGXeXpXvXxXgXsX,XE E U GXGXV.V.%X[ x J.4X&XH , #XeXI ] l.a 1 $ # t p. XF.L ^ K o.=.$.E R E 5XfXdXxXgX7XGXGXGXGXGXGXGXGX",
"GXGXGXGXGXGXrX5XpXgXgXgX<X<XE C GXGXGXC.$X%X#XlX| zXl.Z.#XJ.I ] V.r $ w + $ 1 N.W.GXGXGXGXo.X.R &.7XdXfXxXxXhXtXGXGXGXGXGXGXGXGX",
"GXGXGXGXGXGXoX5X5XyXhXsX<X0XtX<.GXGXGXv.&XzX%XaXOX:X#X%X+X .I ] A.@ 0 $ % + $ GXGXGXGXGXGXK o.,XtXsXxXxXrXpXdXsXGXGXGXGXGXGXGXGX",
"GXGXGXGXGXGX*.5X4XtXsXsX<X7XyX<.GXGXGXGXGX&XoX..OXOXOX@X..{ D d.j.  . % $ + GXGXGXGXGXGXGXO.=.<XtXsXiXiX5X5XrXsXeXGXGXGXGXGXGXGX",
"GXGXGXGXGXGXGX*.5X7X<XtX<X<X<.GXGXGXGXGX{ oX{ H #.H { J.[ { K..XA.f.f.y   . GXGXGXGXGXGXGXGXX.*.1XtXeX4X5X5X5X7XGXGXGXGXGXGXGXGX",
"GXGXGXGXGXGXGXGX,X&.U $.^ ^ GXGXGXGXGXM.L.5XoXwXmXoXXXXXXXC.|.[.'.'.*XY.a f GXGXGXGXGXGXGXGXGX<.<XtX7X4X5XoX4XGXGXGXGXGXGXGXGXGX",
"GXGXGXGXGXGXGX$.-.,Xo.U J , GXGXGXGX~.`.[._.].$XrXpXzXlX(.b.h.B.n.c.c.V.l.V.GXGXGXGXGXGXGXGXGXo.$.$.1.*.:.5X3XGXGXGXGXGXGXGXGXGX",
"GXGXGXGXGXGX+.o.o.,X$.U F , , GXGXGXM.`.U.).}._.n.~.BXCXCXCX1XE.b.b.M.g.m m GXGXGXGXGXGXGXGXGXY X.J K C o.$.=.GXGXGXGXGXGXGXGXGX",
"GXGXGXGXGXGXGX*.R J J J , p s 2 GXGXg./.A.p L.-X{.).^.|.|.CXCXBX~..XM.S.x.p GXGXGXGXGXGXGXGXC J F F , F X.J E X.GXGXGXGXGXGXGXGX",
"GXGXGXGXGXGXGXGX>XJ V A M M g i GXGXx.b.n.K.].].c.( !.~.P.c.Q.`.}.BX}./.M.b.GXGXGXGXGXGXGXGX5 s 5 5 6 , J $.-.GXGXGXGXGXGXGXGXGX",
"GXGXGXGXGXGXGXGXGXY k p.M i e e 1 ~ w ]././ P./.c.l.].x.m.n.a u m./.|.CXCX}.~.N.g.GXGXGXGXp l g h h g 5 F $.E GXGXGXGXGXGXGXGXGX",
"GXGXGXGXGXGXGXGXGXa M i e e - o G *.Y ~ s.g.1XE.p.h.g.g.A.A.  j f.  d.m.`.jXCX[.Q.M GXGXGXe e p i i g M G F GXGXGXGXGXGXGXGXGXGX",
"GXGXGXGXGXGXGXGXGXGXr e e - O 4 { *.:.;.K A f.a.E.1Xh.s.c.M   b.y t M.  u b.^.].A.L.].A.% $ % - 9 e i g s.A GXGXGXGXGXGXGXf GXGX",
"GXGXGXGXGXGXGXGXGXGX$ - O O X H W >.2XpX8XQ ! <X,.v.f./ k.f e x.  x.g.  m.P.g./ ].DX-Xc.n.g.g e O O w i a GXGXGXGXGXGXGXf h GXGX",
"GXGXGXGXGXGXGXGXGXGXGX+ X = 6 H #.:.,X>X>X>X3X>XQ D t / j.k.b.g.w m.w i !.M.z.C.AXkXl.{.CX_.b.i g p @ w - GXGXGXGXGXGXu j GXGXGX",
"GXGXGXGXGXGXGXGXGXGXGXGXX G K @.oX4X6X7X,XQ R R W X.y d g s.b.n.M.M.j g.~.g.( *XlXl.j.].^.{.].~./.!.x.S S GXGXGXGXGXGXi h GXGXGX",
"GXGXGXGXGXGXGXGXGXGXGXGXGX, G +.&.2X3X7X3XW W Q R C 0 0 h f j d.b.N.M.S.N.j l.*XA.i A./   A.[.`.`.|.(.k./ c.GXGXGXGXGXs.j GXGXGX",
"GXGXGXGXGXGXGXGXGXGXGXGXGXGXGXGXG @.2X7X2XQ W R R C 7   /.).* < f s.b.b.g.k ( L.N a c.m.c.L.Y.y y ).`./._.[.(.f.( m.K.d.GXGXGXGX",
"GXGXGXGXGXGXGXGXGXGXGXGXGXGXGX. . @ K >.2XQ R R F r 7   ).V.x v 6 ; i d k f 1 ( g N } x ` C.L./ f.~.!./ g.^.P.m l.v.g./ GXGXGXGX",
"GXGXGXGXGXGXGXGXGXGXGXGXGXGX. % # # # A o.+.R ^ C 0 # GX^.) x n n c m.m.f.f.. 7 4 | | G :X .G Z.Z.K.P.% M /.M ` l.3 f !.n.p.GXGX",
"GXGXGXGXGXGXGXGXGXGXGXGXGXGX1 u t t t 0 a ~ s $ 7 0 GXGX!.b x n x x U.].K.S 0 8 K R V Y J.L %XFX{ { Z.F.(.I.( A.` e Q.[.!.P.GXGX",
"GXGXGXGXGXGXGXGXGXGXGXGXGXGX7 0 > $ # > + o & t y GXGXGX`.x x v x [ I.m.c.u # 7 5 J J Q D Z >.@XF bX:Xp.P.d.l.c.m f.!.M..XlXSXSX",
"GXGXGXGXGXGXGXGXGXGXGXGXGX+ & + + + + $ 0 y d t . GXGX[.-Xx [ n x ) S.S.P.t $ # o & 4 J F W E D *.@X,.) d.d.l.` b n.Q.b.!.CXZXSX",
"GXGXGXGXGXGXGXGXGXGXGXGXGX# $ $ 0 0 y d f f $ . GXGXGXU.P.x v n x A.{.jXQ.u k d y 7 + # 6 K U J :.Q V GXs j.V.m ( m.n.x./.|.}.~.",
"GXGXGXGXGXGXGXGXGXGXGXGXGX+ # u t t t 0 w # . GXGXGXGX].A.x v n x V.*X].c.  0 d d y t t 7 $ 4 C @.Y GXGXGXGXj.s / ` j.k.GXGXN.GX",
"GXGXGXGXGXGXGXGXGXGXGXGXGXGX# # + + & + + + + GXGXGXGX`.S.c x x c ` S.K.K.u & # # $ 7 0 0 $ % GXGXGXGXGXGXGXGXGXGXm m GXGXGXGXGX",
"GXGXGXGXGXGXGXGXGXGXGXGXGXGXGX$ # # # # $ 7 $ GXGXGXGXP.~.(.^.C.[ ) n.S.^./ . # + + & + + 7 GXGXGXGXGXGXGXGXGXGXGXGXGXGXGXGXGXGX",
"GXGXGXGXGXGXGXGXGXGXGXGXGXGXGX# 1 w w w u < 3 GXGXGXGXGXGX_.'.{.1XBX=X=XGX; u 7 7 $ % $ 0 GXGXGXGXGXGXGXGXGXGXGXGXGXGXGXGXGXGXGX",
"GXGXGXGXGXGXGXGXGXGXGXGXGXGX@ @ = = @ = < b b 3 GXGXGXGXGXGXGXGXGXW.(.GXGXp b < 1 1 1 w + X GXGXGXGXGXGXGXGXGXGXGXGXGXGXGXGXGXGX",
"GXGXGXGXGXGXGXGXGXGXGXGX1 < ; = 2 2 1 @ @ = b 3 GXGXGXGXGXGXGXGXGXGXGXGX1 2 < = @ X 1 2 3 ; * GXGXGXGXGXGXGXGXGXGXGXGXGXGXGXGXGX",
"GXGXGXGXGXGXGXGXGXGXk S ' ' z._ < ; 2 p < X ; GXGXGXGXGXGXGXGXGXGXGXGXGXGX= X = 3 3 3 ; < k k s u GXGXGXGXGXGXGXGXGXGXGXGXGXGXGX",
"GXGXGXGXGXGXGXGXGXs b s p 5 S D.D.z.d @ 2 1 GXGXGXGXGXGXGXGXGXGXGXGXGXGXGXGX= 2 ; e S z.D.D.' ' S A GXGXGXGXGXGXGXGXGXGXGXGXGXGX",
"GXGXGXGXGXGXGXGXGXs ) ` ] ) ~ ~ ' D.G.z.= = GXGXGXGXGXGXGXGXGXGXGXGXGXGXGXGX* r ' D.D.z.S 2 5 5 b ~ s GXGXGXGXGXGXGXGXGXGXGXGXGX",
"GXGXGXGXGXGXGXGXGXs z.H.L.K.c.H.| ` ' R.s GXGXGXGXGXGXGXGXGXGXGXGXGXGXGXGXGXGX' D.' ` ` ` ] C.v.v.) / GXGXGXGXGXGXGXGXGXGXGXGXGX",
"GXGXGXGXGXGXGXGXGXGXGXU.].R.U.U.U.H._ ' GXGXGXGXGXGXGXGXGXGXGXGXGXGXGXGXGXGXGX' _ ] H.H.K.L.U.H.H.x.A GXGXGXGXGXGXGXGXGXGXGXGXGX"
};
