/* XPM */
static char *result[] = {
/* columns rows colors chars-per-pixel */
"64 64 248 2 ",
"   c #000000",
".  c #090A0C",
"X  c #1A140D",
"o  c #070614",
"O  c #140C13",
"+  c #141414",
"@  c #1E1A11",
"#  c #151919",
"$  c #1B1C1C",
"%  c #171618",
"&  c #0D1013",
"*  c #21160A",
"=  c #251D14",
"-  c #221D1D",
";  c #271913",
":  c #3B0600",
">  c #1E201F",
",  c #343A0A",
"<  c #2B241C",
"1  c #27251A",
"2  c #332A1C",
"3  c #33271B",
"4  c #2C3618",
"5  c #35381B",
"6  c #2C2A09",
"7  c #1B1C22",
"8  c #1A1D28",
"9  c #221F20",
"0  c #1E2121",
"q  c #1E233D",
"w  c #242322",
"e  c #2A2524",
"r  c #2A2A24",
"t  c #272929",
"y  c #2B2B2A",
"u  c #272924",
"i  c #322D2B",
"p  c #352D22",
"a  c #34332C",
"s  c #393728",
"d  c #2E3132",
"f  c #343533",
"g  c #3B3433",
"h  c #3B3A34",
"j  c #3D3C3A",
"k  c #363833",
"l  c #302E2F",
"z  c #501A02",
"x  c #473416",
"c  c #473008",
"v  c #4D3B22",
"b  c #463B29",
"n  c #513E25",
"m  c #453D35",
"M  c #433A39",
"N  c #523F31",
"B  c #783C00",
"V  c #374608",
"C  c #3C4415",
"Z  c #3F5600",
"A  c #3D4228",
"S  c #3D4437",
"D  c #475703",
"F  c #434B13",
"G  c #484817",
"H  c #584817",
"J  c #4A5716",
"K  c #53581B",
"L  c #424700",
"P  c #725016",
"I  c #556300",
"U  c #54631C",
"Y  c #5A641B",
"T  c #5B6C1D",
"R  c #586918",
"E  c #5B711C",
"W  c #646D1B",
"Q  c #67751A",
"!  c #726D14",
"~  c #474629",
"^  c #565D21",
"/  c #44433C",
"(  c #4A423C",
")  c #4D493C",
"_  c #444836",
"`  c #524A37",
"'  c #47563B",
"]  c #585639",
"[  c #544027",
"{  c #665827",
"}  c #6A4C3C",
"|  c #675539",
" . c #78573B",
".. c #735428",
"X. c #5A6322",
"o. c #5D6C21",
"O. c #5C642A",
"+. c #636C24",
"@. c #656826",
"#. c #776B28",
"$. c #637423",
"%. c #6A7424",
"&. c #6A7C26",
"*. c #6D752B",
"=. c #6D7D2A",
"-. c #677923",
";. c #757E2C",
":. c #7B7C2C",
">. c #76762A",
",. c #65673C",
"<. c #6B7434",
"1. c #787C36",
"2. c #756B35",
"3. c #02154A",
"4. c #021958",
"5. c #000A4A",
"6. c #32374E",
"7. c #00036C",
"8. c #001C64",
"9. c #001D6E",
"0. c #000575",
"q. c #001E74",
"w. c #001978",
"e. c #012074",
"r. c #02227A",
"t. c #0B2476",
"y. c #14287A",
"u. c #102364",
"i. c #27316A",
"p. c #394346",
"a. c #39425E",
"s. c #454642",
"d. c #4A4640",
"f. c #4A4A45",
"g. c #4D4D4A",
"h. c #454948",
"j. c #544C44",
"k. c #524E4A",
"l. c #5A4F47",
"z. c #4C5647",
"x. c #52524C",
"c. c #5B544B",
"v. c #5A5547",
"b. c #555552",
"n. c #5A5653",
"m. c #5B5A54",
"M. c #5D5D5A",
"N. c #55585A",
"B. c #4C5156",
"V. c #635B4D",
"C. c #645847",
"Z. c #795B4A",
"A. c #635D55",
"S. c #625E5B",
"D. c #57664A",
"F. c #5B635A",
"G. c #5C7051",
"H. c #66654E",
"J. c #77674A",
"K. c #646354",
"L. c #6B6554",
"P. c #63625D",
"I. c #69655D",
"U. c #6B6A59",
"Y. c #75695A",
"T. c #787655",
"R. c #6C7654",
"E. c #575A6B",
"W. c #5D6968",
"Q. c #656562",
"!. c #6A6663",
"~. c #676964",
"^. c #6C6B64",
"/. c #6C6C6A",
"(. c #726D64",
"). c #726D6C",
"_. c #6B726B",
"`. c #74726C",
"'. c #7A746C",
"]. c #777567",
"[. c #767471",
"{. c #7B7A74",
"}. c #7D7C79",
"|. c #787876",
" X c #697776",
".X c #645F61",
"XX c #89780C",
"oX c #8B7533",
"OX c #845E36",
"+X c #876945",
"@X c #86784B",
"#X c #846652",
"$X c #8A7754",
"%X c #96795C",
"&X c #907041",
"*X c #827869",
"=X c #827E7D",
"-X c #827E74",
";X c #977B62",
":X c #A37B63",
">X c #7B852D",
",X c #77862C",
"<X c #7C8736",
"1X c #7E8440",
"2X c #84872A",
"3X c #838C33",
"4X c #8A8839",
"5X c #97883B",
"6X c #8B9434",
"7X c #889439",
"8X c #949A3A",
"9X c #96882C",
"0X c #99A239",
"qX c #A5AD3B",
"wX c #AF973F",
"eX c #868845",
"rX c #9A8D43",
"tX c #8D9543",
"yX c #979746",
"uX c #878656",
"iX c #9C9251",
"pX c #A4954A",
"aX c #A88E56",
"sX c #9CA54A",
"dX c #ABA855",
"fX c #B6A65B",
"gX c #ABB555",
"hX c #AAB055",
"jX c #83817C",
"kX c #898478",
"lX c #92876F",
"zX c #A9906B",
"xX c #B6A96C",
"cX c #C1B268",
"vX c #C1987F",
"bX c #BEC066",
"nX c #CDC45F",
"mX c #001D8C",
"MX c #042584",
"NX c #7E7E81",
"BX c #768E8A",
"VX c #888684",
"CX c #969383",
"ZX c #978F81",
"AX c #B1A88E",
"SX c #A29988",
"DX c #C8A784",
"FX c None",
/* pixels */
"FXFXFXFXFXFXFXFXFXFXFXFXFXFXFXFXFXFXFXFXFXFXFXFXFXFXFXFXFXFXFXFXFXFXFXFXFXFXFXFXFXFXFXFXFXFXFXFXFXFXFXFXFXFXFXFXFXFXFXFXFXFXFXFX",
"FXFXFXFXFXFXFXFXFXFXFXFXFXFXFXFXFXFXFXFXFXFXFXFXFXFXFXFXFXFXFXFXFXFXFXFXFXFXFXFXFXFXFXFXFXFXFXFXFXFXFXFXFXFXFXFXFXFXFXFXFXFXFXFX",
"FXFXFXFXFXFXFXFXFXFXFXFXFXFXFXFXFXFXFXFXFXFXFXFXFXFXFXFXFXFXFXFXFXFXFXFXFXFXFXFXFXFXFXFXFXFXFXFXFXFXFXFXFXFXFXFXFXFXFXFXFXFXFXFX",
"FXFXFXFXFXFXFXFXFXFXFXFXFXFXFXFXFXFXFXFXFXFXFXFXFXFXFXFXFXFXFXFXFXFXFXFXFXFXFXFXFXFXFXFXFXFXFXFXFXFXFXFXFXFXFXFXFXFXFXFXFXFXFXFX",
"FXFXFXFXFXFXFXFXFXFXFXFXFXFXFXFXFXFXFXFXFXFXFXFXFXFXFXFXFXFXFXFXFXFXFXFXFXFXFXFXFXFXFXFXFXFXFXFXFXFXFXFXFXFXFXFXFXFXFXFXFXFXFXFX",
"FXFXFXFXFXFXFXFXFXFXFXFXFXFXFXFXFXFXFXFXFXFXFXFXFXFXFXFXFXFXFXFXFXFXFXFXFXFXFXFXFXFXFXFXFXFXFXFXFXFXFXFXFXFXFXFXFXFXFXFXFXFXFXFX",
"FXFXFXFXFXFXFXFXFXFXFXFXFXFXFXFXFXFXFXFXFXFXFXFXFXFXFXFXFXFXFXFXFXFXFXFXFXFXFXFXFXFXFXFXFXFXFXFXFXFXFXFXFXFXFXFXFXFXFXFXFXFXFXFX",
"FXFXFXFXFXFXFXFXFXFXFXFXFXFXFXFXFXFXFXFXFXFXFXFXFXFXFXFXFXFXFXFXFXFXFXFXFXFXFXFXFXFXFXFXFXFXFXFXFXFXFXFXFXFXFXFXFXFXFXFXFXFXFXFX",
"FXFXFXFXFXFXFXFXFXFXFXFXFXFXFXFXFXFXFXFXFXFXFXFXFXFXFXFXFXFXFXFXFXFXFXFXFXFXFXFXFXFXFXFXFXFXFXFXFXFXFXFXFXFXFXFXFXFXFXFXFXFXFXFX",
"FXFXFXFXFXFXFXFXFXFXFXFXFXFXFXFXFXFXFXFXFXFXFXFXFXFXFXFXFXFXFXFXFXFXFXFXFXFXFXFXFXFXFXFXFXFXFXFXFXFXFXFXFXFXFXFXFXFXFXFXFXFXFXFX",
"FXFXFXFXFXFXFXFXFXFXFXFXFXFXFXFXFXFXFXA.Q.FXFXFXFXFXFXFXFXFXFXFXFXFXFXFXFXFXFXFXFXFXFXFXFXFXFXFXFXFXFXFXFXFXFXFXFXFXFXFXFXFXFXFX",
"FXFXFXFXFXFXFXFXFXFXFXFXFXFXFXFXFXFXFX.X|.FXFXFXFXFXFXFXFXFXFXFXFXFXFXFXFXFXFXFXFXFXFXFXFXFXFXFXFXFXFXFXFXFXFXFXFXFXFXFXFXFXFXFX",
"FXFXFXFXFXFXFXFXFXFXFXFXFXFXFXFXFXFXFXS.=X}.FXFXFXFXFXFXFXFXFXFXFXFXFXFXFXFXFXFXFXFXFXFXFXFXFXFXFXFXFXFXFXFXFXFXFXFXFXFXFXFXFXFX",
"FXFXFXFXFXFXFXFXFXFXFXFXFXFXFXFXFXFXFX!.[.=XFXFXFXFXFXFXFXFXFXFXFXFXFXFXFXFXFXFXFXFXFXFXFXFXFXFXFXFXFXFXFXFXFXFXFXFXFXFXFXFXFXFX",
"FXFXFXFXFXFXFXFXFXFXFXFXFXFXFXFXFXFXFX!..X[.).FXFXFXFXFXFXFXFXFXFXFXFXFXFXFXFXFXFXFXFXFXFXFXFXFXFXFXFXFXFXFXFXFXFXFXFXFXFXFXFXFX",
"FXFXFXFXFXFXFXFXFXFXFXFXFXFXFXFXFXFXFX).|.[.).I.FXFXFXFXFXFXFXFXFXFXFXFXFXS.M.FXFXFXf.k.6.5.3.FXFXFXFXFXFXFXFXFXFXFXFXFXFXFXFXFX",
"FXFXFXFXFXFXFXFXFXFXFXFXFXFXFXFXFXFXQ.).=XVXm.!.`.`.!.FXFXFXFXFXFXFXFXFXFXn.n.FXFXFXd d.B.w.r.q.8.4.3.3.FXFXFXFXFXFXFXFXFXFXFXFX",
"FXFXFXFXFXFXFXFXFXFXFXFXFXFXFXFXA.(.S./.!.|.).S./.Q.m.FXFXFXFXFXFXFXFXFXy S / j FXf.j h h.t.w.MXMXr.e.r.e.4.4.FXFXFXFXFXFXFXFXFX",
"FXFXFXFXFXFXFXFXFXFXFXFXFXFXFXFX!.`./.!.M.!.).!.~.P.b.~.P.b.g./ / M g.S.S.S.S.S.M.M.S.A.k.u.t.y.t.q.r.r.r.r.9.FXFXFXFXFXFXFXFXFX",
"FXFXFXFXFXFXFXFXFXFXFXFXFXFXFXFXm.P.Q.Q.~.P.Q.Q.F.F.m.(.|.`.P.!.I.x.P.[.[.|.|.|.[.^.m.{.kX4.0.0.0.y.t.r.r.t.8.FXFXFXFXFXFXFXFXFX",
"FXFXFXFXFXFXFXFXFXFXFXFXFXFXFX>XH.E.^./.).)./.).[./.F.kX*X'.F..Xm.n.P.~.[.|.{.).{.|.P.^.CX6.6.S.$XN.0.t.9.9.8.FXFXFXFXFXFXFXFXFX",
"FXFXFXFXFXFXFXFXFXFXFXFXFXFX:.0XT./.`.[.).`.).S.|.`.(.AXAXAX$X[ s.P.M././././.!.!.~.^.x.t $XzXDX=X7.u.8.8.4.3.FXFXFXFXFXFXFXFXFX",
"FXFXFXFXFXFXFXFXFXFXFXFXFX%.6X0X7XQ.`./.).=X=X/.{.{.[.T.L.AXxXY.h.M.F.M.b.n.E. XP.P.n.x.j J.kXE.0.w.r.w.e.8.4.FXFXFXFXFXFXFXFXFX",
"FXFXFXFXFXFXFXFXFXFXFXFXFX*.<X8X0XL.).).S..X).{.VXjXjXF.    3 s g.b.k.S.Q./.VX1XjXjX~.P.d.q 0.0.y.w.r.r.e.w.i.FXFXFXFXFXFXFXFXFX",
"FXFXFXFXFXFXFXFXFXFXFXFXFX,X3X0XqX1X.X'.`.].-XZXCXCX{.k.% r # # g.g.I.Y.Z.#XY.C.| Z.} ] c.s.y.y.t.e.r.r.t.7.N.FXFXFXFXFXFXFXFXFX",
"FXFXFXFXFXFXFXFXFXFXFXFXFX>X<X8XqXyXn.(.'.'.'.'.`./.{.m.  w $ e M n.T.XXz B P P P ..c { V.B.mXMXMXMXe.t.y.7.D.Q FXFXFXFXFXFXFXFX",
"FXFXFXFXFXFXFXFXFXFXFXFX%.>X,X<X6X8XT.*XtXuXT.oXa.6.lXU.  e # t j.T.^ ! @.1X2.z : 2.<.p A.A.0.mXmXmXw.w.w.8.<.U 4 FXFXFXFXFXFXFX",
"FXFXFXFXFXFXFXFXFXFXFXFXo.-.$.=.6X6X6X6X9X2X2X2XD.a.1X_   $ 7 1 A.L.D G :.hXdX#.#.fXtX6 j.Y.W.E.B.B.a.i.i.p.$.*.$.K FXFXFXFXFXFX",
"FXFXFXFXFXFXFXFXFXFX,X$.U U U $.,X>X;.>X>X>X;.%.N.1X1Xa.o 0 7 u v.,.D ,.1XsXfXdXpXdX4XF ) L.~.R.I ! Q >X-.E E 5XdXiX1.FXFXFXFXFX",
"FXFXFXFXFXFXFXFXFX<XsX8X-.;.>.U ,X,X=.,X%.+.@.K a.BXW.A o 0 1 i j.] I @X@X>XoX5XrXoX@.W J.V.N.D.W @.=.&.R ,X7XdXcXfXeXFXFXFXFXFX",
"FXFXFXFXFXFXFXFXFX7XhXgXdXfXrX$.R E Q ,X+.K K L W.1Xi.t + > 0 a l.] I uXJ., H uX<XJ.x [ %XV.m.FXFXX.o.$.,XsXgXbXcXpX4XFXFXFXFXFX",
"FXFXFXFXFXFXFXFXFXtXhXxXfXfXdX3X,XJ U E FXFXFXFXW.E.8 0 + > > r C.] I +X#XY.} zX .lX#X;X$XC.FXFXFXF o.3X7XgXgXhXpXrXrXFXFXFXFXFX",
"FXFXFXFXFXFXFXFXFXsXdXpXpXxXxXsXtX=.$.K FXFXFXFXFXFX$ O + 1 $ $ H.] D  .+X;X#X:X .:X%XzXoXl.FXFXFX<.eXsX<XhXsXyXeX5XoXFXFXFXFXFX",
"FXFXFXFXFXFXFXFX1XsXpX5X5XyXiXsXtX<X<.O.FXFXFXFXFXFXFX# % + O   j.` D { ..@X&XOXOX..oX&XFXFXFXFXFX<.tX3X<XsXsX8X4X5X#.FXFXFXFXFX",
"FXFXFXFXFXFXFXFXFXtX5X5X5X4X4XtXeX<.X.FXFXFXFXFXFXFXFX.   y f.h.K.K.K.{ H &X{ x oXH { OX| FXFXFXFXFX<.<X,XeX7X7X9X=.FXFXFXFXFXFX",
"FXFXFXFXFXFXFXFXFXFX9XoXoX4XeXtX1X=.FXFXFXFXFXFXFXFXFXf f Y.*X'.'.[.[.v.XXXXXX9XnXpXXX5XL.M.FXFXFXFXFX^ ^ $.X.-.<XFXFXFXFXFXFXFX",
"FXFXFXFXFXFXFXFXFXFX3X5X:.*.;.o.$.X.FXFXFXFXFXFXFXFXFXV.v.V.c.c.n.x.h.b.[.ZXzXiXrXeX].`.`.[.~.FXFXFXFX, J K o.&.&.$.FXFXFXFXFXFX",
"FXFXFXFXFXFXFXFXFXFX,X$.o.C J J o.U FXFXFXFXFXFXFXFXFXm M g.M.n.x.F.}.VXVXVXNX.XN./.-X!.U.(.M.FXFXFX, , C U &.&.o.$.$.FXFXFXFXFX",
"FXFXFXFXFXFXFXFXFXX.X.U K F , F J J C FXFXFXFXFXFXFXFXp k.M.M.M.~.|.VXVX|.[././.{.-XL.p K.`.x.FXFX5 a p V J U J T *.FXFXFXFXFXFX",
"FXFXFXFXFXFXFXFXFXFX-.E J , 6 4 4 s C FXFXFXFXFXFXFXFXb.M./.}.VX}.[.Q.x.F.!.!.d.l.].`.P.m.b.x.FXFXa g M / A V K ;.FXFXFXFXFXFXFX",
"FXFXFXFXFXFXFXFXFXFXo.$.J 5 M M h f l p FXFXFXFXf.N./.}.VXVX}.^.N.w f A.n.x.'.j.c.(.F.s.~.`.e ~ 9 e e i g M k Y FXFXFXFXFXFXFXFX",
"FXFXFXFXFXFXFXFXFXFXFXF ~ m g i i e e w FXFXFX/ Q.[.=XVX`.n.s.  f.j   m.n.f.k.s.s.n.1Xg./ ~ Y %.v o 9 e e i M s FXFXFXFXFXFXFXFX",
"FXFXFXk FXFXFXFXFXFXFXA / g y e e - ; $ % A.].L.V.'.!.n.e   m.y y b.  ( b.( B.1Xg.s.B.p.K ,XoX#.{ 4 O - e w e FXFXFXFXFXFXFXFXFX",
"FXFXFXh f FXFXFXFXFXFXFXs e e O O w g g.n.V.-XSX]./ z.P.b.  x.x.  k.r f k.s.B.b.,.>XW %.8XsX2X*.W G X O % - - FXFXFXFXFXFXFXFXFX",
"FXFXFXFXh u FXFXFXFXFXFX- w @ y k i x.`.VX|.l.kXZXV.k.M./.y w m.w g.b.k.j.M y D W >X2X>X>X>X,X>X#.H 6 * + + FXFXFXFXFXFXFXFXFXFX",
"FXFXFXFXh a FXFXFXFXFXFX_ S x.!./.~.`.{.!.].j.l.kX*X` g.Q.k.k P.M.m.b.f.m f t o.W R E Q ,X6X6X9XoXW K F X FXFXFXFXFXFXFXFXFXFXFX",
"FXFXFXFXj d.FXFXFXFXFXc.M k.).{.{.`.[.A.  M A.p A.*Xl.j N.P.F.N.x.f.k k k $ 8 C W Q W W 2X8X<X>X;.+.G , FXFXFXFXFXFXFXFXFXFXFXFX",
"FXFXFXFXFX/ K.m.( g.`.[._./.`./.y y Y.I.c.V.C.s m L.( k g.n.x.s.f r * I.^.  7 5 R R W Q 2X7X2X$.G FXFXFXFXFXFXFXFXFXFXFXFXFXFXFX",
"FXFXFXFXFX/ g.j.c.m Q./.g./ I.!.d._ K.C.` 5 } n g M e g f y a ; 3 x x A.(.  0 r F K R Q >X;.K @ o . FXFXFXFXFXFXFXFXFXFXFXFXFXFX",
"FXFXFXp.m.!.f < l.` M (.j + P.L.Z.Z.G  .:XG ] | 4 $ . d.k.S.m.c n v x ) ^.FX# $ C ^ R $.+.A # # % + . FXFXFXFXFXFXFXFXFXFXFXFXFX",
"FXFXFXI.!.`.Q.2 j.V.M .X`.M.Z.{ ..DX;XL J.^ V R ^ 8 0 S K.(.I.x x n x b I.FXFXy $ $ s ~ d 8 t t t w w FXFXFXFXFXFXFXFXFXFXFXFXFX",
"FXAXAXlXN.Q.~.( b c.l.j.Q.h.:XxXF $X2.Z D Q J J C 7 $ w c.F.P.n x n v v (.FXFXFXt t & o & $ $ $ $ 0 w FXFXFXFXFXFXFXFXFXFXFXFXFX",
"FXAXCXjX!.b.P.M.g ) c.) d.d.| @X*.D Q W F J 4 & o # $ t Q.F.K.) x n n x {.[.FXFX& u d y 0 $ + + + & + + FXFXFXFXFXFXFXFXFXFXFXFX",
"FX[.}.|.!.x.n.n.( m C.j.g FXV Q ;.J U J 4 % + 0 t d k 0 P.jX{.A.x n v x K.I.FXFXFX. 0 d f d t w 0 > % # FXFXFXFXFXFXFXFXFXFXFXFX",
"FXFXN.FXFXk.j.) _ s j.FXFXFXFXY @.C # # > 1 7 $ # % & w m.'.'.A.x v n c K.`.FXFXFXFX+ + & + + + + # # FXFXFXFXFXFXFXFXFXFXFXFXFX",
"FXFXFXFXFXFX/ m FXFXFXFXFXFXFXFXFXFXFX> + & & + % # . / I.K.A.) c x c x K.`.FXFXFXFX> > $ # # % $ > FXFXFXFXFXFXFXFXFXFXFXFXFXFX",
"FXFXFXFXFXFXFXFXFXFXFXFXFXFXFXFXFXFXFXFX0 $ $ $ $ w 1 = /.A.m.) N C.^.`.^.K.FXFXFXFX3 < e w w 9 > % FXFXFXFXFXFXFXFXFXFXFXFXFXFX",
"FXFXFXFXFXFXFXFXFXFXFXFXFXFXFXFXFXFXFXX # < - - 1 e s 2 FXkX-X-X-X[.'.^.FXFXFXFXFX3 b b 3 = @ = = @ @ FXFXFXFXFXFXFXFXFXFXFXFXFX",
"FXFXFXFXFXFXFXFXFXFXFXFXFXFXFXFXFXFX* ; 3 3 1 * @ = 2 p = FX(.P.FXFXFXFXFXFXFXFXFX< 5 1 @ ; = 2 2 ; = < 1 FXFXFXFXFXFXFXFXFXFXFX",
"FXFXFXFXFXFXFXFXFXFXFXFXFXFXFXFX1 s k k < ; 3 3 2 = X = FXFXFXFXFXFXFXFXFXFXFXFXFXFX3 X < 2 2 ; 2 _ z.' ' S a FXFXFXFXFXFXFXFXFX",
"FXFXFXFXFXFXFXFXFXFXFXFXFXFXFXh _ _ ' D.D.z.S < ; 2 = FXFXFXFXFXFXFXFXFXFXFXFXFXFXFXFX1 2 @ d ' G.z.S C p s s s FXFXFXFXFXFXFXFX",
"FXFXFXFXFXFXFXFXFXFXFXFXFXFXs ~ b 5 s 4 A z.D.G.z.u X FXFXFXFXFXFXFXFXFXFXFXFXFXFXFXFX1 1 z.G.D._ ~ ~ ) ] ] ) h FXFXFXFXFXFXFXFX",
"FXFXFXFXFXFXFXFXFXFXFXFXFXFX_ ` v.v.C.v.] ` ~ _ G.' FXFXFXFXFXFXFXFXFXFXFXFXFXFXFXFXFXFXa G.' ` | H.V.K.L.H.z.s FXFXFXFXFXFXFXFX",
"FXFXFXFXFXFXFXFXFXFXFXFXFXFXA x.G.H.L.H.H.H.H.v._ ' FXFXFXFXFXFXFXFXFXFXFXFXFXFXFXFXFXFXFX' ) H.U.U.^.R.].U.FXFXFXFXFXFXFXFXFXFX"
};
