/* XPM */
static char *result[] = {
/* columns rows colors chars-per-pixel */
"64 64 249 2 ",
"   c #000000",
".  c #090A0C",
"X  c #1B150E",
"o  c #060613",
"O  c #140C13",
"+  c #141414",
"@  c #1E1A12",
"#  c #151919",
"$  c #1C1C1C",
"%  c #171618",
"&  c #0E0E0E",
"*  c #21160A",
"=  c #251D14",
"-  c #211D1D",
";  c #271913",
":  c #3B0600",
">  c #1E201F",
",  c #343A0A",
"<  c #22211D",
"1  c #2C251B",
"2  c #2D2618",
"3  c #33291D",
"4  c #31251A",
"5  c #2B3619",
"6  c #35381B",
"7  c #2C2A09",
"8  c #1B1C22",
"9  c #1A1D28",
"0  c #221F20",
"q  c #1F2221",
"w  c #1E233D",
"e  c #242322",
"r  c #292524",
"t  c #2A2A24",
"y  c #2C2B2A",
"u  c #272926",
"i  c #322D2B",
"p  c #352D22",
"a  c #34332C",
"s  c #393728",
"d  c #353633",
"f  c #3B3433",
"g  c #3B3A34",
"h  c #3D3C3A",
"j  c #363833",
"k  c #2F3030",
"l  c #501A02",
"z  c #473416",
"x  c #473009",
"c  c #4D3B22",
"v  c #463B29",
"b  c #513E25",
"n  c #453D35",
"m  c #433A39",
"M  c #523F31",
"N  c #783C00",
"B  c #374608",
"V  c #3C4515",
"C  c #3F5600",
"Z  c #3D4228",
"A  c #3D4437",
"S  c #475702",
"D  c #434B13",
"F  c #484817",
"G  c #584817",
"H  c #4A5716",
"J  c #53581B",
"K  c #424700",
"L  c #725016",
"P  c #556300",
"I  c #54631C",
"U  c #5B6C1D",
"Y  c #596819",
"T  c #5B711C",
"R  c #646C1B",
"E  c #67751A",
"W  c #726D14",
"Q  c #474629",
"!  c #565D21",
"~  c #44433C",
"^  c #4A423C",
"/  c #4D493C",
"(  c #444836",
")  c #524A37",
"_  c #47563B",
"`  c #585639",
"'  c #544027",
"]  c #665827",
"[  c #79582A",
"{  c #6A4C3C",
"}  c #675539",
"|  c #78573B",
" . c #614620",
".. c #5A6322",
"X. c #5D6C21",
"o. c #5C642A",
"O. c #636C24",
"+. c #656826",
"@. c #776B28",
"#. c #637423",
"$. c #6A7424",
"%. c #6A7C26",
"&. c #6D752B",
"*. c #6D7D2A",
"=. c #677923",
"-. c #757E2C",
";. c #7B7C2C",
":. c #76762A",
">. c #65673C",
",. c #6B7434",
"<. c #787C36",
"1. c #756B35",
"2. c #02154A",
"3. c #021958",
"4. c #000A4A",
"5. c #32374E",
"6. c #00036C",
"7. c #001C64",
"8. c #001D6E",
"9. c #000575",
"0. c #001E74",
"q. c #001978",
"w. c #012074",
"e. c #02227A",
"r. c #0B2476",
"t. c #14287A",
"y. c #102364",
"u. c #27316A",
"i. c #394346",
"p. c #39425E",
"a. c #454642",
"s. c #4B4640",
"d. c #4A4A45",
"f. c #4D4D4A",
"g. c #454948",
"h. c #544C44",
"j. c #524E4A",
"k. c #5A4F47",
"l. c #4C5647",
"z. c #52524C",
"x. c #5B544B",
"c. c #5A5547",
"v. c #555552",
"b. c #5A5653",
"n. c #5B5A54",
"m. c #5D5D5A",
"M. c #55585A",
"N. c #4C5156",
"B. c #63574A",
"V. c #635B4D",
"C. c #645945",
"Z. c #795B4A",
"A. c #635D55",
"S. c #625E5B",
"D. c #57664A",
"F. c #5B635A",
"G. c #5C7051",
"H. c #66654E",
"J. c #77674A",
"K. c #646354",
"L. c #6B6554",
"P. c #63625D",
"I. c #69655D",
"U. c #6B6A59",
"Y. c #75695A",
"T. c #787655",
"R. c #6C7654",
"E. c #575A6B",
"W. c #5D6968",
"Q. c #656562",
"!. c #6A6663",
"~. c #676964",
"^. c #6C6B64",
"/. c #6C6C6A",
"(. c #726D6C",
"). c #726C64",
"_. c #6B726B",
"`. c #74726C",
"'. c #7A746C",
"]. c #777567",
"[. c #767471",
"{. c #7B7A74",
"}. c #7D7C79",
"|. c #787876",
" X c #697776",
".X c #645F61",
"XX c #89780C",
"oX c #8B7533",
"OX c #845E36",
"+X c #876945",
"@X c #86784B",
"#X c #846652",
"$X c #8A7754",
"%X c #96795C",
"&X c #907041",
"*X c #827869",
"=X c #827E7D",
"-X c #827F74",
";X c #977B62",
":X c #A37B63",
">X c #7B852D",
",X c #77862C",
"<X c #7C8736",
"1X c #7E8440",
"2X c #84872A",
"3X c #838C33",
"4X c #8A8839",
"5X c #97883B",
"6X c #8B9434",
"7X c #889439",
"8X c #949A3A",
"9X c #96882C",
"0X c #99A239",
"qX c #A5AD3B",
"wX c #AF973F",
"eX c #868845",
"rX c #9A8D43",
"tX c #8D9543",
"yX c #979746",
"uX c #878656",
"iX c #9C9251",
"pX c #A4954A",
"aX c #A88E56",
"sX c #9CA54A",
"dX c #ABA855",
"fX c #B6A65B",
"gX c #ABB555",
"hX c #AAB055",
"jX c #83817C",
"kX c #8A8478",
"lX c #92876F",
"zX c #A9906B",
"xX c #B8AA63",
"cX c #B4A974",
"vX c #C1B268",
"bX c #C1987F",
"nX c #BEC066",
"mX c #CDC45F",
"MX c #001D8C",
"NX c #042584",
"BX c #7E7E81",
"VX c #768E8A",
"CX c #888684",
"ZX c #969383",
"AX c #978F81",
"SX c #B1A88E",
"DX c #A29988",
"FX c #C8A784",
"GX c None",
/* pixels */
"GXGXGXGXGXGXGXGXGXGXGXGXGXGXGXGXGXGXGXGXGXGXGXGXGXGXGXGXGXGXGXGXGXGXGXGXGXGXGXGXGXGXGXGXGXGXGXGXGXGXGXGXGXGXGXGXGXGXGXGXGXGXGXGX",
"GXGXGXGXGXGXGXGXGXGXGXGXGXGXGXGXGXGXGXGXGXGXGXGXGXGXGXGXGXGXGXGXGXGXGXGXGXGXGXGXGXGXGXGXGXGXGXGXGXGXGXGXGXGXGXGXGXGXGXGXGXGXGXGX",
"GXGXGXGXGXGXGXGXGXGXGXGXGXGXGXGXGXGXGXGXGXGXGXGXGXGXGXGXGXGXGXGXGXGXGXGXGXGXGXGXGXGXGXGXGXGXGXGXGXGXGXGXGXGXGXGXGXGXGXGXGXGXGXGX",
"GXGXGXGXGXGXGXGXGXGXGXGXGXGXGXGXGXGXGXGXGXGXGXGXGXGXGXGXGXGXGXGXGXGXGXGXGXGXGXGXGXGXGXGXGXGXGXGXGXGXGXGXGXGXGXGXGXGXGXGXGXGXGXGX",
"GXGXGXGXGXGXGXGXGXGXGXGXGXGXGXGXGXGXGXGXGXGXGXGXGXGXGXGXGXGXGXGXGXGXGXGXGXGXGXGXGXGXGXGXGXGXGXGXGXGXGXGXGXGXGXGXGXGXGXGXGXGXGXGX",
"GXGXGXGXGXGXGXGXGXGXGXGXGXGXGXGXGXGXGXGXGXGXGXGXGXGXGXGXGXGXGXGXGXGXGXGXGXGXGXGXGXGXGXGXGXGXGXGXGXGXGXGXGXGXGXGXGXGXGXGXGXGXGXGX",
"GXGXGXGXGXGXGXGXGXGXGXGXGXGXGXGXGXGXGXGXGXGXGXGXGXGXGXGXGXGXGXGXGXGXGXGXGXGXGXGXGXGXGXGXGXGXGXGXGXGXGXGXGXGXGXGXGXGXGXGXGXGXGXGX",
"GXGXGXGXGXGXGXGXGXGXGXGXGXGXGXGXGXGXGXGXGXGXGXGXGXGXGXGXGXGXGXGXGXGXGXGXGXGXGXGXGXGXGXGXGXGXGXGXGXGXGXGXGXGXGXGXGXGXGXGXGXGXGXGX",
"GXGXGXGXGXGXGXGXGXGXGXGXGXGXGXGXGXGXGXGXGXGXGXGXGXGXGXGXGXGXGXGXGXGXGXGXGXGXGXGXGXGXGXGXGXGXGXGXGXGXGXGXGXGXGXGXGXGXGXGXGXGXGXGX",
"GXGXGXGXGXGXGXGXGXGXGXGXGXGXGXGXGXGXGXGXGXGXGXGXGXGXGXGXGXGXGXGXGXGXGXGXGXGXGXGXGXGXGXGXGXGXGXGXGXGXGXGXGXGXGXGXGXGXGXGXGXGXGXGX",
"GXGXGXGXGXGXGXGXGXGXGXGXGXGXGXGXGXGXGXGXGXGXGXGXGXGXGXGXGXGXGXGXGXGXGXGXGXGXGXGXGXGXGXGXGXGXGXGXGXGXGXGXGXGXGXGXGXGXGXGXGXGXGXGX",
"GXGXGXGXGXGXGXGXGXGXGXGXGXGXGXGXGXGXGXGXGXGXGXGXGXGXGXGXGXGXGXGXGXGXGXGXGXGXGXGXGXGXGXGXGXGXGXGXGXGXGXGXGXGXGXGXGXGXGXGXGXGXGXGX",
"GXGXGXGXGXGXGXGXGXGXGXGXGXGXGXGXGXGXGXGXGXGXGXGXGXGXGXGXGXGXGXGXGXGXGXGXGXGXGXGXGXGXGXGXGXGXGXGXGXGXGXGXGXGXGXGXGXGXGXGXGXGXGXGX",
"GXGXGXGXGXGXGXGXGXGXGXGXGXGXGXGXGXGXGXGXGXGXGXGXGXGXGXGXGXGXGXGXGXGXGXGXGXGXGXGXGXGXGXQ.n.GXGXGXGXGXGXGXGXGXGXGXGXGXGXGXGXGXGXGX",
"GXGXGXGXGXGXGXGXGXGXGXGXGXGXGXGXGXGXGXGXGXGXGXGXGXGXGXGXGXGXGXGXGXGXGXGXGXGXGXGXGXGXGX}..XGXGXGXGXGXGXGXGXGXGXGXGXGXGXGXGXGXGXGX",
"GXGXGXGXGXGXGXGXGXGXGXGXGXGXGXGXGXGXGXGXGXGXGXGXGXGXGXGXGXGXGXGXGXGXGXGXGXGXGXGXGXGX=X=XS.GXGXGXGXGXGXGXGXGXGXGXGXGXGXGXGXGXGXGX",
"GXGXGXGXGXGXGXGXGXGXGXGXGXGXGXGXGXGXGXGXGXGXGXGXGXGXGXGXGXGXGXGXGXGXGXGXGXGXGXGXGXGX=X(.P.GXGXGXGXGXGXGXGXGXGXGXGXGXGXGXGXGXGXGX",
"GXGXGXGXGXGXGXGXGXGXGXGXGXGXGXGXGXGXGXGXGXGXGXGXGXGXGXGXGXGXGXGXGXGXGXGXGXGXGXGXGX(.[..X^.GXGXGXGXGXGXGXGXGXGXGXGXGXGXGXGXGXGXGX",
"GXGXGXGXGXGXGXGXGXGXGXGXGXGXGXGXGX2.4.5.z.g.GXGXGXn.S.GXGXGXGXGXGXGXGXGXGXGXGXGX!.(.[.}.(.GXGXGXGXGXGXGXGXGXGXGXGXGXGXGXGXGXGXGX",
"GXGXGXGXGXGXGXGXGXGXGXGX2.3.3.7.w.e.0.N.s.k GXGXGXb.b.GXGXGXGXGXGXGXGXGXGX~.'.`.!.n.CX=X(.P.GXGXGXGXGXGXGXGXGXGXGXGXGXGXGXGXGXGX",
"GXGXGXGXGXGXGXGXGX3.7.w.w.w.r.q.NXr.r.g.g h a.GX5.a.~ y GXGXGXGXGXGXGXGXGXn.Q./.S.(.|.!.!..X^.A.GXGXGXGXGXGXGXGXGXGXGXGXGXGXGXGX",
"GXGXGXGXGXGXGXGXGX7.w.e.e.0.q.t.t.8.y.j.P.S.n.m.Q.E..Xm.P.d.m m ~ g.b.P.^.v.F.~.^.(.Q.S.Q./.`.!.GXGXGXGXGXGXGXGXGXGXGXGXGXGXGXGX",
"GXGXGXGXGXGXGXGXGX7.w.e.e.r.t.9.9.6.3.kX{.n./.{.[.1X{.[.[.P.v.Q.~.!.`.|./.n.F.m.Q.P.Q.!.~.~.P.A.GXGXGXGXGXGXGXGXGXGXGXGXGXGXGXGX",
"GXGXGXGXGXGXGXGXGX7.8.8.r.9.M.*Xb.5.i.ZX/.m.{.{.`.{.}.[.~.P.b.b.Q.F.'.*XlXS./.[.`././.(././.m.F.2XGXGXGXGXGXGXGXGXGXGXGXGXGXGXGX",
"GXGXGXGXGXGXGXGXGX3.3.3.7.y.6.=XFXzX$Xk z.!./.!.!.^./.^./.m.F.a.v $XcXSXDX].`.|.S.(.(.(.|.(./.T.0X;.GXGXGXGXGXGXGXGXGXGXGXGXGXGX",
"GXGXGXGXGXGXGXGXGX3.8.0.e.e.0.9.E.kXJ.5.z.b.S.Q.Q.S.b.x.m.P.m.g.@XSXSXL.].'.|.|./.=X=X(.^.[.Q.tX8X4X$.GXGXGXGXGXGXGXGXGXGXGXGXGX",
"GXGXGXGXGXGXGXGXGXp.9.e.e.e.q.t.9.6.w s.S.~.=X=X-XCX_.Q..Xf.v.j.s 2     D.jXjXCX-X(..XS.(.(.L.0X0X3X&.GXGXGXGXGXGXGXGXGXGXGXGXGX",
"GXGXGXGXGXGXGXGXGXM.9.t.q.0.e.r.t.t.g.z.` { Z.C.B.Y.Y.Z.Y.U.z.f.+ % u % z.{.ZXZXAX*X'.(.'..X1XqX0X3X-.GXGXGXGXGXGXGXGXGXGXGXGXGX",
"GXGXGXGXGXGXGXGXE G.6.r.r.r.NXNXNXNXv.A.] x L L L L N l XX@Xx.m t $ e   V.1XBX X'.'.'.[.).v.7XqX6X,X>XGXGXGXGXGXGXGXGXGXGXGXGXGX",
"GXGXGXGXGXGXGX5 I ,.7.q.q.q.MXMXMX9.A.A.p :.<.: l @.<X+.L J Y.h.t # e   K.kX5.N.3X@XuXuXuXT.8X0X>X,X,X,XGXGXGXGXGXGXGXGXGXGXGXGX",
"GXGXGXGXGXGX! +.$.U i.u.u.p.N.z.E.W.L.d.7 yXhX[ 1.dXgX,XD S R.A.e $ $   i. X5.v.2X2X2X9X6X7X6X>X,X#.=.X.GXGXGXGXGXGXGXGXGXGXGXGX",
"GXGXGXGXGX<.yXdX5X=.X.=.>X%.W P W._.L./ D 4XdXaXaXfXsXeXH.S >.c.u 0 > o i.BX1Xl.E ,X>X>X2X,X<X,X#.I I T #.-.GXGXGXGXGXGXGXGXGXGX",
"GXGXGXGXGXeXfXvXgX,X,XT %.*.+.R D.m.B.Z.Y O.oXpX5X4X2X@XT.P ` h.i > e . a _.VXg.J ..O.*.,X;.,X=.I :.<.=.tXsX<XGXGXGXGXGXGXGXGXGX",
"GXGXGXGXGX4XaXvXnXgX0X,X#.X.! GXGXV.B.%XJ z J.;.@XG , J.uXP ! c.a < - # u h 1XF.K J J O.*.$.U U #.5XfXdXgXhXtXGXGXGXGXGXGXGXGXGX",
"GXGXGXGXGXrXrXpXgXgXgX7X<XX.D GXGXGXB.%X;XZ.zX} zX{ Y.#X@XP ` V.t - $ + 8 9 E.BXGXGXGXGXU I I *.3XdXfXfXxXhXtXGXGXGXGXGXGXGXGXGX",
"GXGXGXGXGXoX5X5XyXsXgX<XtXtX+.GXGXGXx.oXzX;X:X| aX#X%X+X| S } A.$ - > + + 9 GXGXGXGXGXGXJ #.*.tXsXxXxXrXpXdXsXGXGXGXGXGXGXGXGXGX",
"GXGXGXGXGX:.5X4XtXsXsX<X7XtXR.GXGXGXGXGX&XOX[ OXOX+X+X| ] S ) h.  & % # + GXGXGXGXGXGXGXo.,.<XtXyXiXyXrX5XyXsX1XGXGXGXGXGXGXGXGX",
"GXGXGXGXGXGX&.6X7X7XeX<X<X,.GXGXGXGXGX] oX] G @.c ] OX .] G.S.A.g.d.i   . GXGXGXGXGXGXGXGX..,.tXyXtXoX5X5XrX7XGXGXGXGXGXGXGXGXGX",
"GXGXGXGXGXGXGX,X#.U #.I ! GXGXGXGXGXm.L.5XoXwXmXoXXX2XXXc.'.'.'.'.*XY.a d GXGXGXGXGXGXGXGXGX,.<XtXeX4X5XoX4XGXGXGXGXGXGXGXGXGXGX",
"GXGXGXGXGXGX#.=.,XX.J H , GXGXGXGXI.[.[.(.T.uXrXrXzXlX).b.g.f.b.x.c.V.k.V.GXGXGXGXGXGXGXGXGX..#.O.,X&.-.9X4XGXGXGXGXGXGXGXGXGXGX",
"GXGXGXGXGXO.#.U %.%.I V , , GXGXGXF.`.U.^.}./.M.~.VXCXCXCX=X.Xf.b.m.f.n n GXGXGXGXGXGXGXGXGXI I H H V X.O.,XGXGXGXGXGXGXGXGXGXGX",
"GXGXGXGXGXGX&.U H J H V p s 6 GXGXf./.K.p L.-X{.).^.'.|.CXCX[./.P.m.m.j.i GXGXGXGXGXGXGXGXV J H V B V ..H X.U GXGXGXGXGXGXGXGXGX",
"GXGXGXGXGXGXGX,XJ B v m n f a GXGXl.b.n.P.].).B.s.!./.m.v.P.`.}.=X}./.m.v.GXGXGXGXGXGXGXGX6 6 6 5 7 , H #.=.GXGXGXGXGXGXGXGXGXGX",
"GXGXGXGXGXGXGXGXY d m f y t r - Q u `.^.~ P./.x.h.(.j.A.n.d e m./.}.CXCX}.!.M.f.GXGXGXGXp i f m f h s C #.X.GXGXGXGXGXGXGXGXGXGX",
"GXGXGXGXGXGXGXGXs m i y r 0 o F $.Y Q a.f.1XE.g.N.N.f.b.A.  h d.  a.n.`.jXCX[.Q.~ GXGXGXr r r i i f m Q D GXGXGXGXGXGXGXGXGXGXGX",
"GXGXGXGXGXGXGXGXGXr 0 r - O 2 ] @.;.-.J Z d.5.N.1Xd.g.z.~   v.y y m.  u b.^.'.A.L.].V.% $ $ 0 0 y y f m Z GXGXGXGXGXGXGXd GXGXGX",
"GXGXGXGXGXGXGXGXGX0 8 X O X H R -.2XpXyXE E >X>.x.d.~ z.a y f.  z.f.  b.P.l.~ ].DX-XB.b.f.f r & O e i a GXGXGXGXGXGXGXa g GXGXGX",
"GXGXGXGXGXGXGXGXGXGXO @ * 7 G @.;.>X>X>X2X3X2XE S t ~ h.f.v.f.e b.e a ~.F.f.V.lXkXk.}.CX(.j.k h i ; 0 - GXGXGXGXGXGXt h GXGXGXGX",
"GXGXGXGXGXGXGXGXGXGXGXX D J +.:.9X6X7X,XE Y Y R ..y d n s.v.b.m.m.h f.~.j.^ *XkXh.h.]./.{.`.Q./.Q.z.g ( GXGXGXGXGXGXk j GXGXGXGX",
"GXGXGXGXGXGXGXGXGXGXGXGX, F O.;.>X3X7X3XR E E Y V 9 $ j d f d.v.m.F.P.M.m k.*XA.p L.n   P.'.`.'.{.(.j.~ x.GXGXGXGXGXs.h GXGXGXGX",
"GXGXGXGXGXGXGXGXGXGXGXGXGXGXGXF O.2X6X3XE Y Y Y 6 8   ^.).* t a a.v.b.f.g ^ I.n a c.n.c.L.Y.y y _.`././.[.(.d.s.n.K.a.GXGXGXGXGX",
"GXGXGXGXGXGXGXGXGXGXGXGXGXGXo o @ J ;.<XE Y P H 5 8   `.B.z z 4 - y y d d 1 ^ k ' { z ) B.K.^ s.^.I.~ f.^.I.m k.j.h.~ GXGXGXGXGX",
"GXGXGXGXGXGXGXGXGXGXGXGXGX& + # # # Z X.R Y ! V 8 # GX^./ z b b x n.A.h.g.& 8 5 } } F :X| D J.C.K.P.% h /.m h.k.2 d Q.b.i.GXGXGX",
"GXGXGXGXGXGXGXGXGXGXGXGXGXq u u u u 9 a Q s # 8 u GXGXI.v z b c z K.).P.A q 9 ! Y B ! J.K ;XFX[ ] Z.K.`.P.^ B.^ 1 !.[.!.I.GXGXGX",
"GXGXGXGXGXGXGXGXGXGXGXGXGXGX% % + # + + + + + GXGXGXGX].c c c z Q I.n.x.e # 9 V D H E C C 1.$XD bX:Xi.!.s.k.x.n s.~.Q.m.AXSXSXGX",
"GXGXGXGXGXGXGXGXGXGXGXGXGXGXGX$ # # # # $ > - GXGXGX[.{.z b b z ) P.K.k d k u > % % V H U E S &.@X} _ s./ k./ v m.Q.z.!.CXZXSXGX",
"GXGXGXGXGXGXGXGXGXGXGXGXGXGXGX# > < 1 e u r 4 GXGXGXI.L.z c ' x A.[.jXa & # # $ > e q # # J H -.E B GXf h.B.n ^ b.v.z.~.|.}.~.GX",
"GXGXGXGXGXGXGXGXGXGXGXGXGXGX@ @ = = @ = 2 v v 4 GXGX`.K.z c Q x b.-X].s.& < < $ $ - + $ GXGXV O.Y GXGXGXGX) s ^ ) j.j.GXGXb.GXGX",
"GXGXGXGXGXGXGXGXGXGXGXGX< 1 ; ; 3 3 < @ @ = s 2 GXGX).P.4 x z x ) A.P.f 3 = * ; = 3 2 @ * GXGXGXGXGXGXGXGXGXGXGXn n GXGXGXGXGXGX",
"GXGXGXGXGXGXGXGXGXGXj A _ _ l.( 3 ; 3 p 2 X 4 GXGXGXI.^.`.).V.' / n.A.2 + = 3 3 1 ; 1 A g a < GXGXGXGXGXGXGXGXGXGXGXGXGXGXGXGXGX",
"GXGXGXGXGXGXGXGXGXs s s 6 5 A D.D.l.k @ 3 = GXGXGXGXGXGXGX[.{.jX-X{.GXGX= 3 ; 1 A l.D.D._ _ A j GXGXGXGXGXGXGXGXGXGXGXGXGXGXGXGX",
"GXGXGXGXGXGXGXGXGXg ) ) c.) v Q _ D.G.l.< = GXGXGXGXGXGXGXGXGXGXGXGXGXGXX t l.D.D.` Z 6 6 s s Q v GXGXGXGXGXGXGXGXGXGXGXGXGXGXGX",
"GXGXGXGXGXGXGXGXGXs N.K.L.K.H.C.} ) _ R.s GXGXGXGXGXGXGXGXGXGXGXGXGXGXGXGX_ D.( ) ) ` ` C.c.` h.( GXGXGXGXGXGXGXGXGXGXGXGXGXGXGX",
"GXGXGXGXGXGXGXGXGXGXGX~.1XR.U.U.U.H.( _ GXGXGXGXGXGXGXGXGXGXGXGXGXGXGXGXGX_ _ l.V.K.L.H.L.H.H.l.g GXGXGXGXGXGXGXGXGXGXGXGXGXGXGX"
};
