/* XPM */
static char *result[] = {
/* columns rows colors chars-per-pixel */
"64 64 249 2 ",
"   c #000000",
".  c #08090B",
"X  c #1A140D",
"o  c #050514",
"O  c #140C13",
"+  c #141514",
"@  c #1E1A12",
"#  c #151919",
"$  c #1B1C1C",
"%  c #171618",
"&  c #0D1013",
"*  c #21160A",
"=  c #251D14",
"-  c #221D1D",
";  c #271913",
":  c #3B0600",
">  c #1E201F",
",  c #343A0A",
"<  c #2B241C",
"1  c #27231B",
"2  c #332A1C",
"3  c #33271B",
"4  c #2B3619",
"5  c #35381B",
"6  c #2C2A09",
"7  c #1B1C22",
"8  c #1A1D28",
"9  c #221F20",
"0  c #1E2121",
"q  c #1E233D",
"w  c #242322",
"e  c #2A2524",
"r  c #2A2A24",
"t  c #272929",
"y  c #2C2B2A",
"u  c #272924",
"i  c #322D2B",
"p  c #352D22",
"a  c #34332C",
"s  c #393728",
"d  c #2E3132",
"f  c #353533",
"g  c #3B3433",
"h  c #3B3A33",
"j  c #3D3C3A",
"k  c #363833",
"l  c #302F2F",
"z  c #501A02",
"x  c #473416",
"c  c #473008",
"v  c #4D3B22",
"b  c #463B29",
"n  c #513E25",
"m  c #453D35",
"M  c #433A39",
"N  c #523F31",
"B  c #783C00",
"V  c #374608",
"C  c #3C4515",
"Z  c #3F5600",
"A  c #3D4228",
"S  c #3D4437",
"D  c #475702",
"F  c #434B13",
"G  c #484817",
"H  c #584817",
"J  c #4A5716",
"K  c #53581B",
"L  c #424700",
"P  c #725016",
"I  c #556300",
"U  c #54631C",
"Y  c #5B6C1D",
"T  c #596819",
"R  c #5B711C",
"E  c #646C1B",
"W  c #67751A",
"Q  c #726D14",
"!  c #474629",
"~  c #565D21",
"^  c #44433C",
"/  c #4A423C",
"(  c #4D493C",
")  c #444836",
"_  c #524A37",
"`  c #47563B",
"'  c #585639",
"]  c #544027",
"[  c #665827",
"{  c #79582A",
"}  c #6A4C3C",
"|  c #675539",
" . c #78573B",
".. c #614620",
"X. c #5A6322",
"o. c #5D6C21",
"O. c #5C642A",
"+. c #636C24",
"@. c #656826",
"#. c #776B28",
"$. c #637423",
"%. c #6A7424",
"&. c #6A7C26",
"*. c #6D752B",
"=. c #6D7D2A",
"-. c #677923",
";. c #757E2C",
":. c #7B7C2C",
">. c #76762A",
",. c #65673C",
"<. c #6B7434",
"1. c #787C36",
"2. c #756B35",
"3. c #02154A",
"4. c #021958",
"5. c #000A4A",
"6. c #32374E",
"7. c #00036C",
"8. c #001C64",
"9. c #001D6E",
"0. c #000575",
"q. c #001E74",
"w. c #001978",
"e. c #012074",
"r. c #02227A",
"t. c #0B2476",
"y. c #14287A",
"u. c #102364",
"i. c #27316A",
"p. c #394346",
"a. c #39425E",
"s. c #454642",
"d. c #4B4640",
"f. c #4A4A45",
"g. c #4D4D4A",
"h. c #454948",
"j. c #544C44",
"k. c #524E4A",
"l. c #5A4F47",
"z. c #4C5647",
"x. c #52524C",
"c. c #5B544B",
"v. c #5A5547",
"b. c #555552",
"n. c #5A5653",
"m. c #5B5A54",
"M. c #5D5D5A",
"N. c #55585A",
"B. c #4C5156",
"V. c #635B4D",
"C. c #645847",
"Z. c #795B4A",
"A. c #635D55",
"S. c #625E5B",
"D. c #57664A",
"F. c #5B635A",
"G. c #5C7051",
"H. c #66654E",
"J. c #77674A",
"K. c #646354",
"L. c #6B6554",
"P. c #63625D",
"I. c #69655D",
"U. c #6B6A59",
"Y. c #75695A",
"T. c #787655",
"R. c #6C7654",
"E. c #575A6B",
"W. c #5D6968",
"Q. c #656562",
"!. c #6A6663",
"~. c #676964",
"^. c #6C6B64",
"/. c #6C6C6A",
"(. c #726D6C",
"). c #726C64",
"_. c #6B726B",
"`. c #74726C",
"'. c #7A746C",
"]. c #777567",
"[. c #767471",
"{. c #7B7A74",
"}. c #7D7C79",
"|. c #787876",
" X c #697776",
".X c #645F61",
"XX c #89780C",
"oX c #8B7533",
"OX c #845E36",
"+X c #876945",
"@X c #86784B",
"#X c #846652",
"$X c #8A7754",
"%X c #96795C",
"&X c #907041",
"*X c #827869",
"=X c #827E7D",
"-X c #817E74",
";X c #977B62",
":X c #A37B63",
">X c #7B852D",
",X c #77862C",
"<X c #7C8736",
"1X c #7E8440",
"2X c #84872A",
"3X c #838C33",
"4X c #8A8839",
"5X c #97883B",
"6X c #8B9434",
"7X c #889439",
"8X c #949A3A",
"9X c #96882C",
"0X c #99A239",
"qX c #A5AD3B",
"wX c #AF973F",
"eX c #868845",
"rX c #9A8D43",
"tX c #8D9543",
"yX c #979746",
"uX c #878656",
"iX c #9C9251",
"pX c #A4954A",
"aX c #A88E56",
"sX c #9CA54A",
"dX c #ABA855",
"fX c #B6A65B",
"gX c #ABB555",
"hX c #AAB055",
"jX c #83817C",
"kX c #8A8478",
"lX c #92876F",
"zX c #A9906B",
"xX c #B8AA63",
"cX c #B4A974",
"vX c #C1B268",
"bX c #C1987F",
"nX c #BEC066",
"mX c #CDC45F",
"MX c #001D8C",
"NX c #042584",
"BX c #7E7E81",
"VX c #768E8A",
"CX c #888684",
"ZX c #969383",
"AX c #978F81",
"SX c #B1A88E",
"DX c #A29988",
"FX c #C8A784",
"GX c None",
/* pixels */
"GXGXGXGXGXGXGXGXGXGXGXGXGXGXGXGXGXGXGXGXGXGXGXGXGXGXGXGXGXGXGXGXGXGXGXGXGXGXGXGXGXGXGXGXGXGXGXGXGXGXGXGXGXGXGXGXGXGXGXGXGXGXGXGX",
"GXGXGXGXGXGXGXGXGXGXGXGXGXGXGXGXGXGXGXGXGXGXGXGXGXGXGXGXGXGXGXGXGXGXGXGXGXGXGXGXGXGXGXGXGXGXGXGXGXGXGXGXGXGXGXGXGXGXGXGXGXGXGXGX",
"GXGXGXGXGXGXGXGXGXGXGXGXGXGXGXGXGXGXGXGXGXGXGXGXGXGXGXGXGXGXGXGXGXGXGXGXGXGXGXGXGXGXGXGXGXGXGXGXGXGXGXGXGXGXGXGXGXGXGXGXGXGXGXGX",
"GXGXGXGXGXGXGXGXGXGXGXGXGXGXGXGXGXGXGXGXGXGXGXGXGXGXGXGXGXGXGXGXGXGXGXGXGXGXGXGXGXGXGXGXGXGXGXGXGXGXGXGXGXGXGXGXGXGXGXGXGXGXGXGX",
"GXGXGXGXGXGXGXGXGXGXGXGXGXGXGXGXGXGXGXGXGXGXGXGXGXGXGXGXGXGXGXGXGXGXGXGXGXGXGXGXGXGXGXGXGXGXGXGXGXGXGXGXGXGXGXGXGXGXGXGXGXGXGXGX",
"GXGXGXGXGXGXGXGXGXGXGXGXGXGXGXGXGXGXGXGXGXGXGXGXGXGXGXGXGXGXGXGXGXGXGXGXGXGXGXGXGXGXGXGXGXGXGXGXGXGXGXGXGXGXGXGXGXGXGXGXGXGXGXGX",
"GXGXGXGXGXGXGXGXGXGXGXGXGXGXGXGXGXGXGXGXGXGXGXGXGXGXGXGXGXGXGXGXGXGXGXGXGXGXGXGXGXGXGXGXGXGXGXGXGXGXGXGXGXGXGXGXGXGXGXGXGXGXGXGX",
"GXGXGXGXGXGXGXGXGXGXGXGXGXGXGXGXGXGXGXGXGXGXGXGXGXGXGXGXGXGXGXGXGXGXGXGXGXGXGXGXGXGXGXGXGXGXGXGXGXGXGXGXGXGXGXGXGXGXGXGXGXGXGXGX",
"GXGXGXGXGXGXGXGXGXGXGXGXGXGXGXGXGXGXGXGXGXGXGXGXGXGXGXGXGXGXGXGXGXGXGXGXGXGXGXGXGXGXGXGXGXGXGXGXGXGXGXGXGXGXGXGXGXGXGXGXGXGXGXGX",
"GXGXGXGXGXGXGXGXGXGXGXGXGXGXGXGXGXGXGXGXGXGXGXGXGXGXGXGXGXGXGXGXGXGXGXGXGXGXGXGXGXGXGXGXGXGXGXGXGXGXGXGXGXGXGXGXGXGXGXGXGXGXGXGX",
"GXGXGXGXGXGXGXGXGXGXGXGXGXGXGXGXGXGXGXGXGXGXGXGXGXGXGXGXGXGXGXGXGXGXGXGXGXGXGXGXGXGXGXGXGXGXGXGXGXGXGXGXGXGXGXGXGXGXGXGXGXGXGXGX",
"GXGXGXGXGXGXGXGXGXGXGXGXGXGXGXGXGXGXGXGXGXGXGXGXGXGXGXGXGXGXGXGXGXGXGXGXGXGXGXGXGXGXGX!.m.GXGXGXGXGXGXGXGXGXGXGXGXGXGXGXGXGXGXGX",
"GXGXGXGXGXGXGXGXGXGXGXGXGXGXGXGXGXGXGXGXGXGXGXGXGXGXGXGXGXGXGXGXGXGXGXGXGXGXGXGXGXGXGX}..XGXGXGXGXGXGXGXGXGXGXGXGXGXGXGXGXGXGXGX",
"GXGXGXGXGXGXGXGXGXGXGXGXGXGXGXGXGXGXGXGXGXGXGXGXGXGXGXGXGXGXGXGXGXGXGXGXGXGXGXGXGXGX=X=XS.GXGXGXGXGXGXGXGXGXGXGXGXGXGXGXGXGXGXGX",
"GXGXGXGXGXGXGXGXGXGXGXGXGXGXGXGXGXGXGXGXGXGXGXGXGXGXGXGXGXGXGXGXGXGXGXGXGXGXGXGXGXGX=X`..XGXGXGXGXGXGXGXGXGXGXGXGXGXGXGXGXGXGXGX",
"GXGXGXGXGXGXGXGXGXGXGXGXGXGXGXGXGXGXGXGXGXGXGXGXGXGXGXGXGXGXGXGXGXGXGXGXGXGXGXGXGX(.[..X!.GXGXGXGXGXGXGXGXGXGXGXGXGXGXGXGXGXGXGX",
"GXGXGXGXGXGXGXGXGXGXGXGXGXGXGXGXGX3.5.6.g.h.GXGXGXM.M.GXGXGXGXGXGXGXGXGXGXGXGXGXS.(.[.|./.GXGXGXGXGXGXGXGXGXGXGXGXGXGXGXGXGXGXGX",
"GXGXGXGXGXGXGXGXGXGXGXGX3.4.4.8.e.r.w.B.s.d GXGXGXn.n.GXGXGXGXGXGXGXGXGXGXQ.`.`.!.A.CX=X(.I.GXGXGXGXGXGXGXGXGXGXGXGXGXGXGXGXGXGX",
"GXGXGXGXGXGXGXGXGX4.4.e.e.e.e.NXNXe.t.f.h j f.GXj ^ M i GXGXGXGXGXGXGXGXGXm.!./.S.(.|.!./.S.^.A.GXGXGXGXGXGXGXGXGXGXGXGXGXGXGXGX",
"GXGXGXGXGXGXGXGXGX9.r.r.e.e.q.t.y.9.u.j.P.S.m.M.S.S.F.F.S.f.M ^ ^ g.b.I.~.n.F.~.!./.!.S.!.(.`.!.GXGXGXGXGXGXGXGXGXGXGXGXGXGXGXGX",
"GXGXGXGXGXGXGXGXGX8.q.r.w.q.i.7.0.0.4.}.{.m.^.|.|.}.{.[.[.P.x.Q.Q.Q.[.|.^.m.F.M..XQ.P.~.~.Q.Q.m.GXGXGXGXGXGXGXGXGXGXGXGXGXGXGXGX",
"GXGXGXGXGXGXGXGXGX9.q.9.t.7.E.*Xn.6.h.ZX^.P.|.{.(.{.}.`.~.P.n.M.F.S.'.*XlXF./.|.(.(./.`.(.~.M.F.3XGXGXGXGXGXGXGXGXGXGXGXGXGXGXGX",
"GXGXGXGXGXGXGXGXGX3.4.8.8.u.7.=XFXzX$Xd x.!.~.!.I.~./.).^.M.P.s.N $XcXSXDX].(.|.S./.(.(.[.`./.T.8X:.GXGXGXGXGXGXGXGXGXGXGXGXGXGX",
"GXGXGXGXGXGXGXGXGX4.9.e.r.w.w.0.E.kXJ.j x.b.P.I.Q.P.n.x.M.P.M.h.J.cXSXL.].{.|.|./.=XCX(.^._.Q.tX0X6X#.GXGXGXGXGXGXGXGXGXGXGXGXGX",
"GXGXGXGXGXGXGXGXGXa.w.e.w.r.r.y.0.7.6._ S.!.=X=X}.jX`.Q..Xg.b.g.s 3     F.jXkXkX-X(..XS.(.(.U.0X0X3X*.GXGXGXGXGXGXGXGXGXGXGXGXGX",
"GXGXGXGXGXGXGXGXGXN.7.t.q.q.r.r.NXNXs.l.'  .Z.v.C.Y.Y.Z.Y.U.g.g.# # u % j.{.ZXZXAX-X].'.'..X1XqX0X3X;.GXGXGXGXGXGXGXGXGXGXGXGXGX",
"GXGXGXGXGXGXGXGXW D.7.y.r.t.NXNXNXNXB.V.[ c P P P P B z XXT.c./ u $ w   W.1X/.`.|.'.'.'.).n.yXqX6X<X,XGXGXGXGXGXGXGXGXGXGXGXGXGX",
"GXGXGXGXGXGXGX4 T ,.8.w.w.w.MXNXMX0.A.A.p 2.1.: z 2.4X[ Q X.Y.d.t % e   F.kX6.B.1.eXuXuX$XT.8X7X,X,X<X%.GXGXGXGXGXGXGXGXGXGXGXGX",
"GXGXGXGXGXGXK o.>.R p.u.a.a.a.g.E.E.Y.j.6 tXfX#.#.dXgX:.G D J.m.1 0 >   s.].p.F.2X2X2X2X6X6X6X3X,X$.&.R GXGXGXGXGXGXGXGXGXGXGXGX",
"GXGXGXGXGX1.iXfXrXW R $.,X&.Q Q ~._.A.( G 7XaXpXaXdXsX<X,.D H.V.u 0 w   ^ `.1Xz.W oX2X2X2X,X<X,X$.U U Y $.,XGXGXGXGXGXGXGXGXGXGX",
"GXGXGXGXGXeXfXvXdX6X,XR &.&.+.T D.m.C.J.U @.oXpXrXoX3XuXT.I ' _ i > > & d W.VXa.K X.+.&.,X,X,X-.U >.;.-.tXsX<XGXGXGXGXGXGXGXGXGX",
"GXGXGXGXGXeXpXvXnXgX8X,X$.o.~ GXGXm.V.%XK x J.<XeXH , +XuXI ' ' a 0 > # 0 6.VXW.L K K +.&.%.Y U $.5XfXdXhXhX7XGXGXGXGXGXGXGXGXGX",
"GXGXGXGXGXrX5XiXgXgXgX7X<XY F GXGXGXC.$X%X#XzX} zXC.Z.+X@XI ' A.r - $ + $ 9 N.W.GXGXGXGXo.T U -.3XhXxXxXxXhXtXGXGXGXGXGXGXGXGXGX",
"GXGXGXGXGXoX5X5XyXsXhX<XsXtX,.GXGXGXc.&XzX%X%X .:X#X;XJ. .D | V.$ $ 1 % + $ GXGXGXGXGXGXK $.,XtXsXxXxXrXpXdXsXGXGXGXGXGXGXGXGXGX",
"GXGXGXGXGX>.5X4XtXsXsX<X3XtX<.GXGXGXGXGX&XOX{ OXOX+X@X} [ D _ k.  . % $ # GXGXGXGXGXGXGXO.=.<XtXsXiXrXeX5XpXsX<XGXGXGXGXGXGXGXGX",
"GXGXGXGXGXGX*.8X7X7XtX,X<X<.GXGXGXGXGX[ oX[ H #.x [ oX..[ H.S.A.f.f.y   . GXGXGXGXGXGXGXGXO.<.eXtXtXoX5X5X5XeXGXGXGXGXGXGXGXGXGX",
"GXGXGXGXGXGXGX,X%.Y $.~ ~ GXGXGXGXGXM.U.4XoXwXmX9XXXXXXXC.[.`.`.'.*XY.a k GXGXGXGXGXGXGXGXGX<.1XtXtX4X5XoX4XGXGXGXGXGXGXGXGXGXGX",
"GXGXGXGXGXGX$.&.&.R K J , GXGXGXGXI.`.`.`.].@XwXaXzXkX/.b.h.g.m.c.c.A.v.V.GXGXGXGXGXGXGXGXGXo.$.+.;.*.:.5X3XGXGXGXGXGXGXGXGXGXGX",
"GXGXGXGXGX+.R R -.,XU C , , GXGXGXM.`.U.U.}./.N.~.CXCXCXCX}.F.g.b.m.k.m m GXGXGXGXGXGXGXGXGXU U J J V o.-.,XGXGXGXGXGXGXGXGXGXGX",
"GXGXGXGXGXGX=.R C U J C p a 5 GXGXx.(.A.p I.-X{.^.~.[.=XCXCX|./.Q.S.F.g.p GXGXGXGXGXGXGXGXC U F C C C K J R X.GXGXGXGXGXGXGXGXGX",
"GXGXGXGXGXGXGX:.K V s M M g l GXGXx.b.m.P.`.].v.d.!.!.Q.b.P.[.}.}.}./.M.b.GXGXGXGXGXGXGXGX5 5 5 4 6 , J $.-.GXGXGXGXGXGXGXGXGXGX",
"GXGXGXGXGXGXGXGXU g / g i e w 1 ! w ].^.s.F.).c.k.(.x.n.m.f w m./.}.CXCX}.!.N.g.GXGXGXGXp i g g M m s D $.o.GXGXGXGXGXGXGXGXGXGX",
"GXGXGXGXGXGXGXGXs M i e e 9 o G %.T ! s.f.kXn.s.B.B.f.m.A.  j f.  s.n.`.CXjX'.!./ GXGXGXe e e i i g M ! F GXGXGXGXGXGXGXGXGXGXGX",
"GXGXGXGXGXGXGXGXGXe e e - O 2 [ >.:.;.K A f.6.g.1Xf./ v.^   b.y y m.  e n.!.'.V.L.].A.% % - 9 1 e e a / A GXGXGXGXGXGXGXk GXGXGX",
"GXGXGXGXGXGXGXGXGX- - % O * G T ;.2XpX8XW W >X<.m.f.) k.g t g.  x.x.  m.F.g.( ].DX-Xc.m.k.g e & O 9 i a GXGXGXGXGXGXGXf h GXGXGX",
"GXGXGXGXGXGXGXGXGXGX+ O * 6 H #.>X,X>X>X>X3X2XE D t ^ k.g.b.x.w m.w i ~.F.g.V.AXkXl.{.CX/.b.l j i @ 9 - GXGXGXGXGXGXu j GXGXGXGX",
"GXGXGXGXGXGXGXGXGXGXGXX F K @.oX9X4X6X,XW R T E X.y g h f.b.n.m.S.j g.~.g./ *XkXl.l.`.^.|.`.!.~.Q.b.m ) GXGXGXGXGXGXa f GXGXGXGX",
"GXGXGXGXGXGXGXGXGXGXGXGX, J E ,X>X3X6X3XE E %.T C 8 $ k k k f.k.N.M.S.N.S l.*XA.p A.m   A.'.`.{.{.(.x.M x.GXGXGXGXGXf.S GXGXGXGX",
"GXGXGXGXGXGXGXGXGXGXGXGXGXGXGXG o.3X6X3XW T T T , $   ^.).* < f s.b.b.g.h m L.m p l.V.V.I.Y.y t /.`./._.[.`.f./ n.K.s.GXGXGXGXGX",
"GXGXGXGXGXGXGXGXGXGXGXGXGXGXo o @ K :.<XW T U F r 0   `.V.x x 3 $ a l f g w / d N Z.5 _ C.A.s.h.!.!.^ g./.Q.m l.k.g.^ GXGXGXGXGX",
"GXGXGXGXGXGXGXGXGXGXGXGXGX. # # # # A +.E E ~ C 0 # GX!.( x ] ] c n.S.g.f.. 7 4 | | G :X .G OXZ.H.P.+ M ).M l.l.3 k Q.m.p.GXGXGX",
"GXGXGXGXGXGXGXGXGXGXGXGXGX0 u u t t 8 a ! 5 $ 7 u GXGXI.b x n v x U.).P.S 0 8 X.T V K J.L %XFX[ [ Z.F.`.!.M V.d.< I.[.!.L.GXGXGX",
"GXGXGXGXGXGXGXGXGXGXGXGXGXw 0 $ # # $ & o & t u GXGXGX`.x v v x v I.m.c.> # 0 C F J W Z Z 2.$XF cX:Xh.I./ k.c.b d.~.S.M.kXSXSXGX",
"GXGXGXGXGXGXGXGXGXGXGXGXGX# $ $ 0 t t d f f 0 . GXGX[.*Xx ] ] x _ S.K.d k d t > + # C J R W D *.&XC.f.d.( c.( b M.P.b.Q.CXZXSXGX",
"GXGXGXGXGXGXGXGXGXGXGXGXGXGX# # + + + + & # + GXGXGXI.P.x x ] c K.{.jXi & + # > > > > # % K J ;.W V GXs j.C.m / n.b.x.!.|.=X(.GX",
"GXGXGXGXGXGXGXGXGXGXGXGXGXGXGX$ # # # # # 8 $ GXGXGX`.K.2 n ] x n.{.].s.. $ & + & + + > GXGXC +.X.GXGXGXGXj.s m _ k.k.GXGXm.GXGX",
"GXGXGXGXGXGXGXGXGXGXGXGXGXGXGX# - w w e w < 3 GXGXGX`.P.x c x c _ K.I.h w 7 7 $ % 0 0 GXGXGXGXGXGXGXGXGXGXGXGXGXm m GXGXGXGXGXGX",
"GXGXGXGXGXGXGXGXGXGXGXGXGXGX@ @ = = ; = 3 s b 3 GXGXP.^.(.!.A.d.( m.K.2 b 1 1 1 - 1 % X GXGXGXGXGXGXGXGXGXGXGXGXGXGXGXGXGXGXGXGX",
"GXGXGXGXGXGXGXGXGXGXGXGX1 < ; = 2 2 1 @ @ < x < GXGXGXGX^.].1XCX{.-Xm.2 3 = @ @ = 2 < @ * GXGXGXGXGXGXGXGXGXGXGXGXGXGXGXGXGXGXGX",
"GXGXGXGXGXGXGXGXGXGXk S ` ` z.) < ; 3 2 < X 1 GXGXGXGXGXGXGXGXGXI.).GX= @ = 3 3 3 ; < S k p u GXGXGXGXGXGXGXGXGXGXGXGXGXGXGXGXGX",
"GXGXGXGXGXGXGXGXGXs s s 4 s A D.D.z.d 1 2 = GXGXGXGXGXGXGXGXGXGXGXGXGXGX= 3 ; e S z.D.D.` ` S S GXGXGXGXGXGXGXGXGXGXGXGXGXGXGXGX",
"GXGXGXGXGXGXGXGXGXA _ _ v._ b ! ` D.G.` 1 = GXGXGXGXGXGXGXGXGXGXGXGXGXGXX r z.D.D.' A 5 5 s s ! b GXGXGXGXGXGXGXGXGXGXGXGXGXGXGX",
"GXGXGXGXGXGXGXGXGXs z.H.L.H.D.C.| ( ` R.s GXGXGXGXGXGXGXGXGXGXGXGXGXGXGXGX` D.) _ _ ' ' C.v.' ( / GXGXGXGXGXGXGXGXGXGXGXGXGXGXGX",
"GXGXGXGXGXGXGXGXGXGXGXU.].].U.U.U.H.) ` GXGXGXGXGXGXGXGXGXGXGXGXGXGXGXGXGX` S v.V.K.L.H.L.H.F.g.A GXGXGXGXGXGXGXGXGXGXGXGXGXGXGX"
};
