/* XPM */
static char *result[] = {
/* columns rows colors chars-per-pixel */
"64 64 249 2 ",
"   c #000000",
".  c #090A0C",
"X  c #1A140D",
"o  c #070614",
"O  c #140C13",
"+  c #141515",
"@  c #1E1A11",
"#  c #16191A",
"$  c #1B1C1C",
"%  c #171618",
"&  c #0D1013",
"*  c #21160A",
"=  c #251D14",
"-  c #221D1D",
";  c #271913",
":  c #3B0600",
">  c #1E201F",
",  c #343A0A",
"<  c #2B241C",
"1  c #27251A",
"2  c #332A1C",
"3  c #33271B",
"4  c #2C3618",
"5  c #35381B",
"6  c #2C2B0A",
"7  c #1B1C22",
"8  c #1A1D28",
"9  c #221F20",
"0  c #1E2121",
"q  c #1E233D",
"w  c #242323",
"e  c #2A2524",
"r  c #2A2A24",
"t  c #262929",
"y  c #2B2B2A",
"u  c #262826",
"i  c #322D2B",
"p  c #352D22",
"a  c #34332C",
"s  c #393728",
"d  c #2E3132",
"f  c #343533",
"g  c #3B3433",
"h  c #3B3A34",
"j  c #3D3C3A",
"k  c #363833",
"l  c #302E2F",
"z  c #501A02",
"x  c #473416",
"c  c #473008",
"v  c #4D3B22",
"b  c #463B29",
"n  c #513E25",
"m  c #453D35",
"M  c #433A39",
"N  c #523F31",
"B  c #783C00",
"V  c #374608",
"C  c #3D4515",
"Z  c #3F5600",
"A  c #3D4228",
"S  c #3D4437",
"D  c #475703",
"F  c #434B13",
"G  c #484817",
"H  c #584817",
"J  c #4A5716",
"K  c #53581B",
"L  c #424700",
"P  c #725016",
"I  c #556300",
"U  c #54631C",
"Y  c #5A651B",
"T  c #5B6C1D",
"R  c #586918",
"E  c #5B711C",
"W  c #646D1B",
"Q  c #67751A",
"!  c #726D14",
"~  c #474629",
"^  c #565D21",
"/  c #44433C",
"(  c #4A423C",
")  c #4D493C",
"_  c #444836",
"`  c #524A37",
"'  c #47563B",
"]  c #585639",
"[  c #544027",
"{  c #665827",
"}  c #6A4C3C",
"|  c #675539",
" . c #78573B",
".. c #735428",
"X. c #5A6322",
"o. c #5D6C21",
"O. c #5C642A",
"+. c #636C24",
"@. c #656826",
"#. c #776B28",
"$. c #637423",
"%. c #6A7424",
"&. c #6A7C26",
"*. c #6D752B",
"=. c #6D7D2A",
"-. c #677923",
";. c #757E2C",
":. c #7B7C2C",
">. c #76762A",
",. c #65673C",
"<. c #6B7434",
"1. c #787C36",
"2. c #756B35",
"3. c #02154A",
"4. c #021958",
"5. c #000A4A",
"6. c #32374E",
"7. c #00036C",
"8. c #001C64",
"9. c #001D6E",
"0. c #000575",
"q. c #001E74",
"w. c #001978",
"e. c #012074",
"r. c #02227A",
"t. c #0B2476",
"y. c #14287A",
"u. c #102364",
"i. c #27316A",
"p. c #394346",
"a. c #39425E",
"s. c #454642",
"d. c #4A4640",
"f. c #4A4A45",
"g. c #4D4D4A",
"h. c #454948",
"j. c #544C44",
"k. c #524E4A",
"l. c #5A4F47",
"z. c #4C5647",
"x. c #52524C",
"c. c #5A544C",
"v. c #5A5547",
"b. c #555552",
"n. c #5A5653",
"m. c #5B5A54",
"M. c #5D5D5A",
"N. c #55585A",
"B. c #4C5156",
"V. c #635B4D",
"C. c #645847",
"Z. c #795B4A",
"A. c #635D55",
"S. c #625E5B",
"D. c #57664A",
"F. c #5B635A",
"G. c #5C7051",
"H. c #66654E",
"J. c #77674A",
"K. c #646354",
"L. c #6B6554",
"P. c #63625D",
"I. c #69655D",
"U. c #6B6A59",
"Y. c #75695A",
"T. c #787655",
"R. c #6C7654",
"E. c #575A6B",
"W. c #5D6968",
"Q. c #656562",
"!. c #6A6663",
"~. c #676964",
"^. c #6C6B64",
"/. c #6C6C6A",
"(. c #726D6C",
"). c #726C64",
"_. c #6B726B",
"`. c #74726C",
"'. c #7A746C",
"]. c #777567",
"[. c #767471",
"{. c #7B7A74",
"}. c #7D7C79",
"|. c #787876",
" X c #697776",
".X c #645F61",
"XX c #89780C",
"oX c #8B7533",
"OX c #845E36",
"+X c #876945",
"@X c #86784B",
"#X c #846652",
"$X c #8A7754",
"%X c #96795C",
"&X c #907041",
"*X c #827869",
"=X c #827E7D",
"-X c #827E74",
";X c #977B62",
":X c #A37B63",
">X c #7B852D",
",X c #77862C",
"<X c #7C8736",
"1X c #7E8440",
"2X c #84872A",
"3X c #838C33",
"4X c #8A8839",
"5X c #97883B",
"6X c #8B9434",
"7X c #889439",
"8X c #949A3A",
"9X c #96882C",
"0X c #99A239",
"qX c #A5AD3B",
"wX c #AF973F",
"eX c #868845",
"rX c #9A8D43",
"tX c #8D9543",
"yX c #979746",
"uX c #878656",
"iX c #9C9251",
"pX c #A4954A",
"aX c #A88E56",
"sX c #9CA54A",
"dX c #ABA855",
"fX c #B6A65B",
"gX c #ABB555",
"hX c #AAB055",
"jX c #83817C",
"kX c #898478",
"lX c #92876F",
"zX c #A9906B",
"xX c #B8AA63",
"cX c #B4A974",
"vX c #C1B268",
"bX c #C1987F",
"nX c #BEC066",
"mX c #CDC45F",
"MX c #001D8C",
"NX c #042584",
"BX c #7E7E81",
"VX c #768E8A",
"CX c #888684",
"ZX c #969383",
"AX c #978F81",
"SX c #B1A88E",
"DX c #A29988",
"FX c #C8A784",
"GX c None",
/* pixels */
"GXGXGXGXGXGXGXGXGXGXGXGXGXGXGXGXGXGXGXGXGXGXGXGXGXGXGXGXGXGXGXGXGXGXGXGXGXGXGXGXGXGXGXGXGXGXGXGXGXGXGXGXGXGXGXGXGXGXGXGXGXGXGXGX",
"GXGXGXGXGXGXGXGXGXGXGXGXGXGXGXGXGXGXGXGXGXGXGXGXGXGXGXGXGXGXGXGXGXGXGXGXGXGXGXGXGXGXGXGXGXGXGXGXGXGXGXGXGXGXGXGXGXGXGXGXGXGXGXGX",
"GXGXGXGXGXGXGXGXGXGXGXGXGXGXGXGXGXGXGXGXGXGXGXGXGXGXGXGXGXGXGXGXGXGXGXGXGXGXGXGXGXGXGXGXGXGXGXGXGXGXGXGXGXGXGXGXGXGXGXGXGXGXGXGX",
"GXGXGXGXGXGXGXGXGXGXGXGXGXGXGXGXGXGXGXGXGXGXGXGXGXGXGXGXGXGXGXGXGXGXGXGXGXGXGXGXGXGXGXGXGXGXGXGXGXGXGXGXGXGXGXGXGXGXGXGXGXGXGXGX",
"GXGXGXGXGXGXGXGXGXGXGXGXGXGXGXGXGXGXGXGXGXGXGXGXGXGXGXGXGXGXGXGXGXGXGXGXGXGXGXGXGXGXGXGXGXGXGXGXGXGXGXGXGXGXGXGXGXGXGXGXGXGXGXGX",
"GXGXGXGXGXGXGXGXGXGXGXGXGXGXGXGXGXGXGXGXGXGXGXGXGXGXGXGXGXGXGXGXGXGXGXGXGXGXGXGXGXGXGXGXGXGXGXGXGXGXGXGXGXGXGXGXGXGXGXGXGXGXGXGX",
"GXGXGXGXGXGXGXGXGXGXGXGXGXGXGXGXGXGXGXGXGXGXGXGXGXGXGXGXGXGXGXGXGXGXGXGXGXGXGXGXGXGXGXGXGXGXGXGXGXGXGXGXGXGXGXGXGXGXGXGXGXGXGXGX",
"GXGXGXGXGXGXGXGXGXGXGXGXGXGXGXGXGXGXGXGXGXGXGXGXGXGXGXGXGXGXGXGXGXGXGXGXGXGXGXGXGXGXGXGXGXGXGXGXGXGXGXGXGXGXGXGXGXGXGXGXGXGXGXGX",
"GXGXGXGXGXGXGXGXGXGXGXGXGXGXGXGXGXGXGXGXGXGXGXGXGXGXGXGXGXGXGXGXGXGXGXGXGXGXGXGXGXGXGXGXGXGXGXGXGXGXGXGXGXGXGXGXGXGXGXGXGXGXGXGX",
"GXGXGXGXGXGXGXGXGXGXGXGXGXGXGXGXGXGXA..XGXGXGXGXGXGXGXGXGXGXGXGXGXGXGXGXGXGXGXGXGXGXGXGXGXGXGXGXGXGXGXGXGXGXGXGXGXGXGXGXGXGXGXGX",
"GXGXGXGXGXGXGXGXGXGXGXGXGXGXGXGXGXGXS.=XGXGXGXGXGXGXGXGXGXGXGXGXGXGXGXGXGXGXGXGXGXGXGXGXGXGXGXGXGXGXGXGXGXGXGXGXGXGXGXGXGXGXGXGX",
"GXGXGXGXGXGXGXGXGXGXGXGXGXGXGXGXGXGXS.=X=XGXGXGXGXGXGXGXGXGXGXGXGXGXGXGXGXGXGXGXGXGXGXGXGXGXGXGXGXGXGXGXGXGXGXGXGXGXGXGXGXGXGXGX",
"GXGXGXGXGXGXGXGXGXGXGXGXGXGXGXGXGXGXQ.(.=XGXGXGXGXGXGXGXGXGXGXGXGXGXGXGXGXGXGXGXGXGXGXGXGXGXGXGXGXGXGXGXGXGXGXGXGXGXGXGXGXGXGXGX",
"GXGXGXGXGXGXGXGXGXGXGXGXGXGXGXGXGXGX!..X[.(.GXGXGXGXGXGXGXGXGXGXGXGXGXGXGXGXGXGXGXGXGXGXGXGXGXGXGXGXGXGXGXGXGXGXGXGXGXGXGXGXGXGX",
"GXGXGXGXGXGXGXGXGXGXGXGXGXGXGXGXGXGX(.|.[.(.I.GXGXGXGXGXGXGXGXGXGXGXGXGXS.M.GXGXGXh.x.6.5.3.GXGXGXGXGXGXGXGXGXGXGXGXGXGXGXGXGXGX",
"GXGXGXGXGXGXGXGXGXGXGXGXGXGXGXGXGX!.(.=XCXm.!.`.`.~.GXGXGXGXGXGXGXGXGXGXn.n.GXGXGXd d.B.w.r.e.8.4.4.3.GXGXGXGXGXGXGXGXGXGXGXGXGX",
"GXGXGXGXGXGXGXGXGXGXGXGXGXGXGXA.I.P.!.!.|.(.M./.~.m.GXGXGXGXGXGXGXGXGXy j / j GXs.j g h.t.w.NXMXr.e.e.9.4.4.GXGXGXGXGXGXGXGXGXGX",
"GXGXGXGXGXGXGXGXGXGXGXGXGXGXGX^.`./.!.M.!.(./.~.F.b.~.P.b.g./ M M f.S.M.P.S.S.M.m..XA.j.u.9.y.y.q.q.r.r.r.8.GXGXGXGXGXGXGXGXGXGX",
"GXGXGXGXGXGXGXGXGXGXGXGXGXGXGXM.Q.Q.Q.~.Q.Q..XM.F.m.].`.`.!.~.!.x.I.`.[.{.}.|.{.).N.-X=X3.w.0.0.i.t.r.r.q.8.GXGXGXGXGXGXGXGXGXGX",
"GXGXGXGXGXGXGXGXGXGXGXGXGXGX2XK.M.~./.[././.(.[./.m.lXkX'.M.P.m.m.P.~.{.|.{.(.{.|.S.(.AXs.6.l.*XN.7.t.e.q.8.GXGXGXGXGXGXGXGXGXGX",
"GXGXGXGXGXGXGXGXGXGXGXGXGX;.sX1X/.[.[.(.(./.S.|.`./.SXSXcX%Xb s.F.M.~.).~.^.I.I.~.!.b.y $XzXFX=X7.9.8.4.4.3.GXGXGXGXGXGXGXGXGXGX",
"GXGXGXGXGXGXGXGXGXGXGXGX%.7X7X7X.X(.).(.CX=X^.|.{.{.).H.DXcXT.h.M.P.A.b.m.P.!.~..Xb.b.j Y.;XW.MXq.r.r.e.9.8.GXGXGXGXGXGXGXGXGXGX",
"GXGXGXGXGXGXGXGXGXGXGXGX*.3X0X0XI./.).S.!.(.{.CXkX}.A.    3 s g.b.g..XQ./.jX}.=X=X^.S.s.q 7.0.NXw.r.r.r.0.a.GXGXGXGXGXGXGXGXGXGX",
"GXGXGXGXGXGXGXGXGXGXGXGX;.3X0XqX1X.X].'.].-XAXAXZX{.x.% t % % g.g.U.^.Z.#XY.C.v.Z.} l.x.h.y.y.NXr.r.q.t.7.N.GXGXGXGXGXGXGXGXGXGX",
"GXGXGXGXGXGXGXGXGXGXGXGX,X<X7XqXyXb.).'.'.'.'.`.~.1XW.o w $ e / n.T.XXz B P P P ..B ^ A.B.w.NXNXNXt.r.y.7.D.Q GXGXGXGXGXGXGXGXGX",
"GXGXGXGXGXGXGXGXGXGXGX%.,X,X<X0X8XT.*XuXuXeX1.b.6.kXF.  w $ u j.Y.Y W { oX2.6 : 1.<.p A.A.w.MXMXMXw.w.9.8.<.R 4 GXGXGXGXGXGXGXGX",
"GXGXGXGXGXGXGXGXGXGXGXo.&.$.,X<X6X6X6X9X2X2X2XF.p.]./   $ 7 - A.R.D F >.gXfXOX..hXyX6 j.Y.W.E.B.B.6.i.i.p.o.#.+.^ GXGXGXGXGXGXGX",
"GXGXGXGXGXGXGXGXGX,X$.R U R $.,X2X,X2X>X>X>XQ z. X[./   1 9 r c.,.D ,.4XhXfXpXpXpX4XC ) A./.G.I ! %.,X%.E $.8XdXsX<.GXGXGXGXGXGX",
"GXGXGXGXGXGXGXGX<XsX8X$.:.2.U &.,X;.,X*.+.X.K f.VX Xs & 0 7 p j.] I @XuX2XoX5XpXoX@.R L.C.m.D.W +.=.&.E ,X<XhXvXxXeXGXGXGXGXGXGX",
"GXGXGXGXGXGXGXGX7XhXhXdXfXrXE R T -.=.+.K K V N. XS u + 7 1 i C.^ I uXJ.V H @X2XJ.x H %XV.m.GXGXX.o.$.,X0XgXnXxXpXeXGXGXGXGXGXGX",
"GXGXGXGXGXGXGXGXtXhXxXfXfXdX3X,XR U o.GXGXGXGX_.N.0 > + $ 9 r A.] I J.#XY.} zX| zX#X;X$XC.GXGXGXC T <X7XgXgXfXpXrX5XGXGXGXGXGXGX",
"GXGXGXGXGXGXGXGXsXdXiXiXxXxXsXtX=.$.K GXGXGXGXGXGX0 & + 9 $ $ V.,.D  .+X%X+X:XZ.:X%XzX&Xc.GXGXGX$.tXsX<XhXsXyX5XrXoXGXGXGXGXGXGX",
"GXGXGXGXGXGXGX1XsXpX5X5XiXsXsXtX<X=.O.GXGXGXGXGXGXGX+ $ % &   j.) D ..| &X+XOXOX..+X@XGXGXGXGXGX<.yX7X<XsXsXtX4X5X#.GXGXGXGXGXGX",
"GXGXGXGXGXGXGXGX7X5X5X5X4XeXtXeX<.O.GXGXGXGXGXGXGXGX.   y f.s.A.S.K.{ H OX@.x #.H P oX{ GXGXGXGXGX<.<X<XeX7X7X6X*.GXGXGXGXGXGXGX",
"GXGXGXGXGXGXGXGXGX4XoX5X4X4XtX1X<.GXGXGXGXGXGXGXGXGXg a Y.'.{.'.'.`.C.! XXXX9XmXwX9X4XL.M.GXGXGXGXGX^ ^ o.o.&.,XGXGXGXGXGXGXGXGX",
"GXGXGXGXGXGXGXGXGX3X5X:.*.;.$.$.X.GXGXGXGXGXGXGXGXGXV.v.V.v.c.b.x.s.b.`.lXzXaXrX@X].`.`.`.^.GXGXGXGX4 J U T &.&.$.GXGXGXGXGXGXGX",
"GXGXGXGXGXGXGXGXGX;.$.o.C F J R X.GXGXGXGXGXGXGXGXGXm m g.m.n.g.Q.}.CXCXCXBX/.N._.|.^.I.`.F.GXGXGX, , G U &.&.o.o.+.GXGXGXGXGXGX",
"GXGXGXGXGXGXGXGXY o.J X.F , F F J C GXGXGXGXGXGXGXGXp x.M.S..X/.|.CXCX}.[.^.^.{.kXL.p A.^.x.GXGX4 s p , J U J o.*.GXGXGXGXGXGXGX",
"GXGXGXGXGXGXGXGXGX<.$.J , 6 5 5 5 5 GXGXGXGXGXGXGXGXb.M./.}.CX}.[.Q.c.F.~.U.( c.].].P.b.b.x.GXGXi g M m A V K :.GXGXGXGXGXGXGXGX",
"GXGXGXGXGXGXGXGXGXo.$.Z 5 g M g f i s GXGXGXGXg.N.Q.}.CXCX}.~.m.w a m.m.x.].j.n.^.P.s.^.`.w ~ 1 e y i g M h U GXGXGXGXGXGXGXGXGX",
"GXGXGXGXGXGXGXGXGXGXF ~ m g i i r e - GXGXGX( P.[.jXCX`.M.s.  f.j   m.A.f.x./ 6.m.kXf.s.A Y -.G o 9 e t i M s GXGXGXGXGXGXGXGXGX",
"GXGXk GXGXGXGXGXGXGXA ( g r e w - $ $ $ A.'.L.A.'.!.n.1   M.t y b.  / c.s.f.1XE.6.g.~ K ,XoX#.{ 3 O - e w r GXGXGXGXGXGXGXGXGXGX",
"GXGXj a GXGXGXGXGXGXGXa i w O O e g g.m.V.=XDX]./ g.F.m.  g.x.  k.t a k./ f.m.<.>XQ Q yXpX2X>.W G X O X - - GXGXGXGXGXGXGXGXGXGX",
"GXGXGXS u GXGXGXGXGXGX- 1 @ i g i b./.CX-Xc.kXlXV.k.F.~.a w m.w k.b.k.j./ r D W >X3X>X>X>X,X:.#.H 6 = O + GXGXGXGXGXGXGXGXGXGXGX",
"GXGXGXh i GXGXGXGXGXGX_ S x.~.^.~.`.{.^.).l.l.kX*Xm k.~.k.k M.m.b.b.h.M a t X.W R W Q ,X7X6X4X>.W K F X GXGXGXGXGXGXGXGXGXGXGXGX",
"GXGXGXj f.GXGXGXGXGXx./ x.(.|.{.`.'.A.  m A.p A.-Xl.j m..XS.N.b.f.j k h $ 8 C T Q Q Q 3X6X2X>X;.@.K , GXGXGXGXGXGXGXGXGXGXGXGXGX",
"GXGXGXGXs.K.m.( d.`.[._./.`.).y y Y.Y.c.V.C.g m K.N k g.b.b.h.f r * !.^.  7 5 R R R Q 2X6X2X+.F GXGXGXGXGXGXGXGXGXGXGXGXGXGXGXGX",
"GXGXGXGX/ j.k.l.m ~.^.g./ I.!.f./ K.C.` 5 } N g ( w k f d i ; 6 v c V.).  7 4 F K R Q 2X:.K @ o o GXGXGXGXGXGXGXGXGXGXGXGXGXGXGX",
"GXGXp.m.~.k < l.l.m ^.j % P.K.C.Z.G  .:Xv | | 4 % & s.j.P.m.c [ n x ` !.GX# $ C K R $.+.A # $ # % . GXGXGXGXGXGXGXGXGXGXGXGXGXGX",
"GXGXI.!.`.~.< ) A.N !.(.A.Z.{ ..FX;XV 2.U V W U 8 0 j S.).I.x x n x b I.GXGXu 7 1 s ~ d 8 t r t w 0 GXGXGXGXGXGXGXGXGXGXGXGXGXGX",
"SXSXlXm..X~.s.b c.j.d.!.S :XFXF @X2.Z Z Q J J 5 7 # w c.M.I.[ x n v x `.GXGXGXt t & o & # # # > 0 0 GXGXGXGXGXGXGXGXGXGXGXGXGXGX",
"SXZXCXQ.b.S.M.b ) l.d.d.f.C.+X*.D Q +.D J 4 O o # $ y P.K.P.) x n n x {.[.GXGX& t d t 1 # + + + + + + GXGXGXGXGXGXGXGXGXGXGXGXGX",
"(.=X[.~.b.b.m.( m C.l.a GXV ,X&.J R K 4 # & 0 t d f t P.jX{.K.c n v x P.I.GXGXGX. 0 d f d t 0 0 $ $ # GXGXGXGXGXGXGXGXGXGXGXGXGX",
"GXN.GXGXk.j.) ( s j.GXGXGXGXU W C 6 # 8 t t d d d 0   n.].{.n.x n n c P.`.GXGXGXGX& # 0 t t t t 0 $ + GXGXGXGXGXGXGXGXGXGXGXGXGX",
"GXGXGXGXGXm m GXGXGXGXGXGXGXGXGXGX# # 0 0 0 $ + # . w K.K.M.` c c x 3 K.`.GXGXGXGX+ + + + + + + + # GXGXGXGXGXGXGXGXGXGXGXGXGXGX",
"GXGXGXGXGXGXGXGXGXGXGXGXGXGXGXGXGXGX> + + & + % # . d.^.K.m.) [ V.).(.).P.GXGXGXGX$ 0 # # # + $ 0 GXGXGXGXGXGXGXGXGXGXGXGXGXGXGX",
"GXGXGXGXGXGXGXGXGXGXGXGXGXGXGXGXGXGXGX0 0 # 7 7 0 w = GXkX-X{.jX{.'.^.GXGXGXGXGXGX3 < u w w e - % GXGXGXGXGXGXGXGXGXGXGXGXGXGXGX",
"GXGXGXGXGXGXGXGXGXGXGXGXGXGXGXGXGXGXX X < - $ 1 < b 2 GXGX^.L.GXGXGXGXGXGXGXGXGX2 v b < = = ; = = $ GXGXGXGXGXGXGXGXGXGXGXGXGXGX",
"GXGXGXGXGXGXGXGXGXGXGXGXGXGXGXGXGXX ; 3 2 = ; @ = < 2 = GXGXGXGXGXGXGXGXGXGXGXGX3 2 1 @ @ = 2 2 ; ; 4 1 GXGXGXGXGXGXGXGXGXGXGXGX",
"GXGXGXGXGXGXGXGXGXGXGXGXGXGXGXr a s h e ; 3 2 2 = @ = GXGXGXGXGXGXGXGXGXGXGXGXGXGX< X < 2 3 ; e _ z.' S S a GXGXGXGXGXGXGXGXGXGX",
"GXGXGXGXGXGXGXGXGXGXGXGXGXGXS S _ ' D.D.z.S r = 3 = GXGXGXGXGXGXGXGXGXGXGXGXGXGXGXGX1 2 - a z.D.D.S 5 4 p b s GXGXGXGXGXGXGXGXGX",
"GXGXGXGXGXGXGXGXGXGXGXGXGXs ~ s s 5 4 A z.D.D.' r @ GXGXGXGXGXGXGXGXGXGXGXGXGXGXGXGX= = z.G.D.' ~ b ` v.] ) h GXGXGXGXGXGXGXGXGX",
"GXGXGXGXGXGXGXGXGXGXGXGXGX_ ] l.v.C.] ] ] ~ _ D.' GXGXGXGXGXGXGXGXGXGXGXGXGXGXGXGXGXGXA G.' ` ] H.H.H.L.D.k.s GXGXGXGXGXGXGXGXGX",
"GXGXGXGXGXGXGXGXGXGXGXGXGXh ] F.L.L.K.L.H.H.j.' ' GXGXGXGXGXGXGXGXGXGXGXGXGXGXGXGXGXGXGX' ` U.H.H.).R.].U.GXGXGXGXGXGXGXGXGXGXGX"
};
