/* XPM */
static char *result[] = {
/* columns rows colors chars-per-pixel */
"64 64 249 2 ",
"   c #000000",
".  c #08090B",
"X  c #1A140D",
"o  c #050514",
"O  c #140C13",
"+  c #141514",
"@  c #1E1A12",
"#  c #151919",
"$  c #1B1C1C",
"%  c #171618",
"&  c #0D1013",
"*  c #21160A",
"=  c #251D14",
"-  c #221D1D",
";  c #271913",
":  c #3B0600",
">  c #1E201F",
",  c #343A0A",
"<  c #2B241C",
"1  c #27231B",
"2  c #332A1C",
"3  c #33271B",
"4  c #2B3619",
"5  c #35381B",
"6  c #2C2A09",
"7  c #1B1C22",
"8  c #1A1D28",
"9  c #221F20",
"0  c #1E2121",
"q  c #1E233D",
"w  c #242322",
"e  c #2A2524",
"r  c #2A2A24",
"t  c #272929",
"y  c #2C2B2A",
"u  c #272924",
"i  c #322D2B",
"p  c #352D22",
"a  c #34332C",
"s  c #393728",
"d  c #2E3132",
"f  c #353533",
"g  c #3B3433",
"h  c #3B3A33",
"j  c #3D3C3A",
"k  c #363833",
"l  c #302F2F",
"z  c #501A02",
"x  c #473416",
"c  c #473008",
"v  c #4D3B22",
"b  c #463B29",
"n  c #513E25",
"m  c #453D35",
"M  c #433A39",
"N  c #523F31",
"B  c #783C00",
"V  c #374608",
"C  c #3C4515",
"Z  c #3F5600",
"A  c #3D4228",
"S  c #3D4437",
"D  c #475702",
"F  c #434B13",
"G  c #484817",
"H  c #584817",
"J  c #4A5716",
"K  c #53581B",
"L  c #424700",
"P  c #725016",
"I  c #556300",
"U  c #54631C",
"Y  c #5B6C1D",
"T  c #596819",
"R  c #5B711C",
"E  c #646C1B",
"W  c #67751A",
"Q  c #726D14",
"!  c #474629",
"~  c #565D21",
"^  c #44433C",
"/  c #4A423C",
"(  c #4D493C",
")  c #444836",
"_  c #524A37",
"`  c #47563B",
"'  c #585639",
"]  c #544027",
"[  c #665827",
"{  c #79582A",
"}  c #6A4C3C",
"|  c #675539",
" . c #78573B",
".. c #614620",
"X. c #5A6322",
"o. c #5D6C21",
"O. c #5C642A",
"+. c #636C24",
"@. c #656826",
"#. c #776B28",
"$. c #637423",
"%. c #6A7424",
"&. c #6A7C26",
"*. c #6D752B",
"=. c #6D7D2A",
"-. c #677923",
";. c #757E2C",
":. c #7B7C2C",
">. c #76762A",
",. c #65673C",
"<. c #6B7434",
"1. c #787C36",
"2. c #756B35",
"3. c #02154A",
"4. c #021958",
"5. c #000A4A",
"6. c #32374E",
"7. c #00036C",
"8. c #001C64",
"9. c #001D6E",
"0. c #000575",
"q. c #001E74",
"w. c #001978",
"e. c #012074",
"r. c #02227A",
"t. c #0B2476",
"y. c #14287A",
"u. c #102364",
"i. c #27316A",
"p. c #394346",
"a. c #39425E",
"s. c #454642",
"d. c #4B4640",
"f. c #4A4A45",
"g. c #4D4D4A",
"h. c #454948",
"j. c #544C44",
"k. c #524E4A",
"l. c #5A4F47",
"z. c #4C5647",
"x. c #52524C",
"c. c #5B544B",
"v. c #5A5547",
"b. c #555552",
"n. c #5A5653",
"m. c #5B5A54",
"M. c #5D5D5A",
"N. c #55585A",
"B. c #4C5156",
"V. c #635B4D",
"C. c #645847",
"Z. c #795B4A",
"A. c #635D55",
"S. c #625E5B",
"D. c #57664A",
"F. c #5B635A",
"G. c #5C7051",
"H. c #66654E",
"J. c #77674A",
"K. c #646354",
"L. c #6B6554",
"P. c #63625D",
"I. c #69655D",
"U. c #6B6A59",
"Y. c #75695A",
"T. c #787655",
"R. c #6C7654",
"E. c #575A6B",
"W. c #5D6968",
"Q. c #656562",
"!. c #6A6663",
"~. c #676964",
"^. c #6C6B64",
"/. c #6C6C6A",
"(. c #726D6C",
"). c #726C64",
"_. c #6B726B",
"`. c #74726C",
"'. c #7A746C",
"]. c #777567",
"[. c #767471",
"{. c #7B7A74",
"}. c #7D7C79",
"|. c #787876",
" X c #697776",
".X c #645F61",
"XX c #89780C",
"oX c #8B7533",
"OX c #845E36",
"+X c #876945",
"@X c #86784B",
"#X c #846652",
"$X c #8A7754",
"%X c #96795C",
"&X c #907041",
"*X c #827869",
"=X c #827E7D",
"-X c #817E74",
";X c #977B62",
":X c #A37B63",
">X c #7B852D",
",X c #77862C",
"<X c #7C8736",
"1X c #7E8440",
"2X c #84872A",
"3X c #838C33",
"4X c #8A8839",
"5X c #97883B",
"6X c #8B9434",
"7X c #889439",
"8X c #949A3A",
"9X c #96882C",
"0X c #99A239",
"qX c #A5AD3B",
"wX c #AF973F",
"eX c #868845",
"rX c #9A8D43",
"tX c #8D9543",
"yX c #979746",
"uX c #878656",
"iX c #9C9251",
"pX c #A4954A",
"aX c #A88E56",
"sX c #9CA54A",
"dX c #ABA855",
"fX c #B6A65B",
"gX c #ABB555",
"hX c #AAB055",
"jX c #83817C",
"kX c #8A8478",
"lX c #92876F",
"zX c #A9906B",
"xX c #B8AA63",
"cX c #B4A974",
"vX c #C1B268",
"bX c #C1987F",
"nX c #BEC066",
"mX c #CDC45F",
"MX c #001D8C",
"NX c #042584",
"BX c #7E7E81",
"VX c #768E8A",
"CX c #888684",
"ZX c #969383",
"AX c #978F81",
"SX c #B1A88E",
"DX c #A29988",
"FX c #C8A784",
"GX c None",
/* pixels */
"GXGXGXGXGXGXGXGXGXGXGXGXGXGXGXGXGXGXGXGXGXGXGXGXGXGXGXGXGXGXGXGXGXGXGXGXGXGXGXGXGXGXGXGXGXGXGXGXGXGXGXGXGXGXGXGXGXGXGXGXGXGXGXGX",
"GXGXGXGXGXGXGXGXGXGXGXGXGXGXGXGXGXGXGXGXGXGXGXGXGXGXGXGXGXGXGXGXGXGXGXGXGXGXGXGXGXGXGXGXGXGXGXGXGXGXGXGXGXGXGXGXGXGXGXGXGXGXGXGX",
"GXGXGXGXGXGXGXGXGXGXGXGXGXGXGXGXGXGXGXGXGXGXGXGXGXGXGXGXGXGXGXGXGXGXGXGXGXGXGXGXGXGXGXGXGXGXGXGXGXGXGXGXGXGXGXGXGXGXGXGXGXGXGXGX",
"GXGXGXGXGXGXGXGXGXGXGXGXGXGXGXGXGXGXGXGXGXGXGXGXGXGXGXGXGXGXGXGXGXGXGXGXGXGXGXGXGXGXGXGXGXGXGXGXGXGXGXGXGXGXGXGXGXGXGXGXGXGXGXGX",
"GXGXGXGXGXGXGXGXGXGXGXGXGXGXGXGXGXGXGXGXGXGXGXGXGXGXGXGXGXGXGXGXGXGXGXGXGXGXGXGXGXGXGXGXGXGXGXGXGXGXGXGXGXGXGXGXGXGXGXGXGXGXGXGX",
"GXGXGXGXGXGXGXGXGXGXGXGXGXGXGXGXGXGXGXGXGXGXGXGXGXGXGXGXGXGXGXGXGXGXGXGXGXGXGXGXGXGXGXGXGXGXGXGXGXGXGXGXGXGXGXGXGXGXGXGXGXGXGXGX",
"GXGXGXGXGXGXGXGXGXGXGXGXGXGXGXGXGXGXGXGXGXGXGXGXGXGXGXGXGXGXGXGXGXGXGXGXGXGXGXGXGXGXGXGXGXGXGXGXGXGXGXGXGXGXGXGXGXGXGXGXGXGXGXGX",
"GXGXGXGXGXGXGXGXGXGXGXGXGXGXGXGXGXGXGXGXGXGXGXGXGXGXGXGXGXGXGXGXGXGXGXGXGXGXGXGXGXGXGXGXGXGXGXGXGXGXGXGXGXGXGXGXGXGXGXGXGXGXGXGX",
"GXGXGXGXGXGXGXGXGXGXGXGXGXGXGXGXGXGXGXGXGXGXGXGXGXGXGXGXGXGXGXGXGXGXGXGXGXGXGXGXGXGXGXGXGXGXGXGXGXGXGXGXGXGXGXGXGXGXGXGXGXGXGXGX",
"GXGXGXGXGXGXGXGXGXGXGXGXGXGXGXGXGXGXGXGXGXGXGXGXGXGXGXGXGXGXGXGXGXGXGXGXGXGXGXGXGXGXGXGXGXGXGXGXGXGXGXGXGXGXGXGXGXGXGXGXGXGXGXGX",
"GXGXGXGXGXGXGXGXGXGXGXGXGXGXGXGXGXGXGXGXGXGXGXGXGXGXGXGXGXGXGXGXGXGXGXGXGXGXGXGXGXGXGXGXGXGXGXGXGXGXGXGXGXGXGXGXGXGXGXGXGXGXGXGX",
"GXGXGXGXGXGXGXGXGXGXGXGXGXGXGXGXGXGXGXn.!.GXGXGXGXGXGXGXGXGXGXGXGXGXGXGXGXGXGXGXGXGXGXGXGXGXGXGXGXGXGXGXGXGXGXGXGXGXGXGXGXGXGXGX",
"GXGXGXGXGXGXGXGXGXGXGXGXGXGXGXGXGXGXGXQ.}.GXGXGXGXGXGXGXGXGXGXGXGXGXGXGXGXGXGXGXGXGXGXGXGXGXGXGXGXGXGXGXGXGXGXGXGXGXGXGXGXGXGXGX",
"GXGXGXGXGXGXGXGXGXGXGXGXGXGXGXGXGXGXGXS.=X=XGXGXGXGXGXGXGXGXGXGXGXGXGXGXGXGXGXGXGXGXGXGXGXGXGXGXGXGXGXGXGXGXGXGXGXGXGXGXGXGXGXGX",
"GXGXGXGXGXGXGXGXGXGXGXGXGXGXGXGXGXGXGX.X(.=XGXGXGXGXGXGXGXGXGXGXGXGXGXGXGXGXGXGXGXGXGXGXGXGXGXGXGXGXGXGXGXGXGXGXGXGXGXGXGXGXGXGX",
"GXGXGXGXGXGXGXGXGXGXGXGXGXGXGXGXGXGXGX^..X[.(.GXGXGXGXGXGXGXGXGXGXGXGXGXGXGXGXGXGXGXGXGXGXGXGXGXGXGXGXGXGXGXGXGXGXGXGXGXGXGXGXGX",
"GXGXGXGXGXGXGXGXGXGXGXGXGXGXGXGXGXGXGX(.-X[.(..XGXGXGXGXGXGXGXGXGXGXGXGXGXM.M.GXGXGXh.x.6.5.3.GXGXGXGXGXGXGXGXGXGXGXGXGXGXGXGXGX",
"GXGXGXGXGXGXGXGXGXGXGXGXGXGXGXGXGXGXS.[.=XCXA.!.`.`.!.GXGXGXGXGXGXGXGXGXGXn.b.GXGXGXd d.B.w.t.q.8.4.4.3.GXGXGXGXGXGXGXGXGXGXGXGX",
"GXGXGXGXGXGXGXGXGXGXGXGXGXGXGXGXA.^.P.!.!.|.(.M./.!.m.GXGXGXGXGXGXGXGXGXy ^ ^ j GXh.M h h.9.w.NXNXr.e.e.e.8.4.GXGXGXGXGXGXGXGXGX",
"GXGXGXGXGXGXGXGXGXGXGXGXGXGXGXGX!.`.^.!.S.!./.!.~.F.b.^.P.b.g.^ M ^ f.S.M.S.S.M.M.M.S.A.l.u.w.y.t.w.e.e.r.e.8.GXGXGXGXGXGXGXGXGX",
"GXGXGXGXGXGXGXGXGXGXGXGXGXGXGXGXM..XQ.Q.!.Q.Q.Q.M.F.m./.|.[.Q.Q.I.x.P.[.`.}.{.|.[.^.m.|.-Xu.7.0.0.i.t.r.r.w.8.GXGXGXGXGXGXGXGXGX",
"GXGXGXGXGXGXGXGXGXGXGXGXGXGXGX2XD..X/./.(.(././.|._.M.lX*X[.M.Q.M.n.P.~.[.}.{.`.{.{.P./.ZXp.6.n.].E.7.t.9.e.8.GXGXGXGXGXGXGXGXGX",
"GXGXGXGXGXGXGXGXGXGXGXGXGXGX:.0XT./.(.[.(.[.(.S.{._./.SXSXcX$Xn s.P.F.^.(.~.~.I.^.~.!.x.i $XcXFX-X7.8.8.4.4.3.GXGXGXGXGXGXGXGXGX",
"GXGXGXGXGXGXGXGXGXGXGXGXGX%.3X8XtXQ.[.^.(.=X=X!.{.|.[.Y.L.SXcXT.h.M.S.M.c.n.P.Q.I.P.n.x.6.J.kXE.0.w.t.q.e.q.8.GXGXGXGXGXGXGXGXGX",
"GXGXGXGXGXGXGXGXGXGXGXGXGX*.3X0X0XK.(./.S.S.(.-XCXCX-XA.    3 s g.b.g..XW./.CX}.=XjX~.P.s.q 7.0.t.r.r.r.r.w.6.GXGXGXGXGXGXGXGXGX",
"GXGXGXGXGXGXGXGXGXGXGXGXGX,X3X0XqXeXQ.'.'.'.-XAXAXZX'.x.% u # % g.g.Y.U.Z.#XY.l.c.Z.} l.v.p.y.NXr.e.q.w.t.0.N.GXGXGXGXGXGXGXGXGX",
"GXGXGXGXGXGXGXGXGXGXGXGXGX<X,X8XqX8Xn.).|.|.'.`._.~.{.F.  w $ u M n.@XXXz B P P P P c ~ V.b.NXNXNXNXt.r.y.7.D.W GXGXGXGXGXGXGXGX",
"GXGXGXGXGXGXGXGXGXGXGXGX&.,X,X>X6X8XT.*XuX1X@X4XB.p.kXH.  w $ t j.Y.X.E @.<X2.z : oX>.s A.A.0.MXMXMXw.w.w.8.<.U 4 GXGXGXGXGXGXGX",
"GXGXGXGXGXGXGXGXGXGXGXGXo.&.-.=.<X6X6X6X2X2X2X2XD.p._.`   $ $ 0 A.J.D G >.gXxX2.{ fXyX6 g.U.F.E.B.h.i.a.u.p.o.>.O.~ GXGXGXGXGXGX",
"GXGXGXGXGXGXGXGXGXGX=.$.Y U U -.,X3X:.2X2X2X>XW B. X XS   w 1 u v.,.D ,.<XsXfXaXpXpX7XC d.L.W.U.Q Q &.,X$.Y W yXdXsX1.GXGXGXGXGX",
"GXGXGXGXGXGXGXGXGX<XsXtX-.>.>.U ,X,X&.,X&.%.X.K z.VXBXd & w 7 i j.' I T.eX>X9X5XpXoX@.X.J.C.m.D.T @.=.&.R ,X6XgXvXfXeXGXGXGXGXGX",
"GXGXGXGXGXGXGXGXGX7XhXgXdXfXrXo.U R -.=.E K K c F.1X6.8 % 7 w i ' ' I uX#XV H @X>XT.x H %XV.A.GXGXU o.W ,X0XgXxXvXaXeXGXGXGXGXGX",
"GXGXGXGXGXGXGXGXGXtXgXxXfXxXdX7X&.U U R GXGXGXGXW.N.1 $ % 7 $ r V.' I @X#XY.} zX .lX#X;X%XC.GXGXGXF o.7X7XgXgXgXpXrXrXGXGXGXGXGX",
"GXGXGXGXGXGXGXGXGXsXdXaXrXxXxXsXtX,X$.! GXGXGXGXGXGX$ & % $ 1 1 A.' D  .+X$X#X:X .:X%XaX&Xl.GXGXGX,.tX8X<XhXsXyXrX5XoXGXGXGXGXGX",
"GXGXGXGXGXGXGXGX<XsXyX5XrXrXiXyXtX<X,XO.GXGXGXGXGXGXGX% $ % .   j._ D [ } $X+XOX{ { 2.&XGXGXGXGXGX<.tX7X<XsXsXtX4X5X#.GXGXGXGXGX",
"GXGXGXGXGXGXGXGXGXeXrXrXoX4XtXtXeX<.X.GXGXGXGXGXGXGXGX.   y s.f.K.S.L.[ ..oX[ x #...[ oX[ GXGXGXGXGX<.<X,XeX7X7X6X*.GXGXGXGXGXGX",
"GXGXGXGXGXGXGXGXGXGX4XoX5X4X7XtX<X<.GXGXGXGXGXGXGXGXGXk a Y.*X'.'.`.[.v.XXXXXX9XmXwXoX5XL.F.GXGXGXGXGX~ X.$.Y $.,XGXGXGXGXGXGXGX",
"GXGXGXGXGXGXGXGXGXGX7X9X>.>.;.+.$.o.GXGXGXGXGXGXGXGXGXV.l.V.c.c.n.g.s.N.(.lXzXaXrXuXT.`.`.'.~.GXGXGXGX, J J o.&.,X$.GXGXGXGXGXGX",
"GXGXGXGXGXGXGXGXGXGX;.%.O.V J J Y U GXGXGXGXGXGXGXGXGX^ M g.M.b.x.P.BXCXZXCXBXQ.b.(.}.!.U.`.F.GXGXGX, , F U &.&.Y R +.GXGXGXGXGX",
"GXGXGXGXGXGXGXGXGXU o.U U C V F F U C GXGXGXGXGXGXGXGXp k.M.M.Q.~.|.CXCX|.[.~.~.{.-XL.p K.(.z.GXGX5 a p C J U J Y *.GXGXGXGXGXGX",
"GXGXGXGXGXGXGXGXGXGX&.$.J , * 5 5 5 5 GXGXGXGXGXGXGXGXb.M./.}.=X}.[.Q.x.S.Q.!.( c.`.'.K.m.b.x.GXGXi M M m h V K ;.GXGXGXGXGXGXGX",
"GXGXGXGXGXGXGXGXGXGXo.$.J 5 M M g f i p GXGXGXGXg.N.Q.}.CXCX}.^.M.w a m.A.k.`.j.c.).P.s.^.[.w ! 9 e e i g ^ g U GXGXGXGXGXGXGXGX",
"GXGXGXGXGXGXGXGXGXGXGXF ! M g i i e e e GXGXGX^ I.[.CXkX(.m.h.  f.j   M.n.f.B.h.^ n.}.f./ A E %.G o 9 e e i M s GXGXGXGXGXGXGXGX",
"GXGXGXf GXGXGXGXGXGXGXA ^ a r e w 9 % - % A.].L.m.`.^.n.u   m.y y b.  / n.s.B.1Xg.p.h.! K ;.:.#.[ 2 O % e e e GXGXGXGXGXGXGXGXGX",
"GXGXGXh f GXGXGXGXGXGXGXa y e O O u g g.m.c.-XDX*X/ g.P.M.  g.k.  x.u f j./ h.m.,.>XW W 8XpX2X>.E G X + X - 7 GXGXGXGXGXGXGXGXGX",
"GXGXGXGXh t GXGXGXGXGXGX- w @ y h l x.`.CX{.l.kXAXC.g.F.~.y w M.w g.b.g.k.^ t D W >X2X>X>X2X,X>X#.H 6 * + % GXGXGXGXGXGXGXGXGXGX",
"GXGXGXGXk l GXGXGXGXGXGX) m x.Q.~.!.'.{.^.'.l.l.kX*X) k.Q.k.k S.m.m.b.h.m a t O.E T R W ,X6X6X4XoXE K F X GXGXGXGXGXGXGXGXGXGXGX",
"GXGXGXGXS d.GXGXGXGXGXc.M g.`.{.[.`.[.A.  m A.p A.*Xl.j N.Q.S.N.b.f.k k k $ 0 C Y -.E E 2X7X3X2X=.+.H , GXGXGXGXGXGXGXGXGXGXGXGX",
"GXGXGXGXGXs.K.c.( f.(.|./._.`.).y i Y.L.c.V.c.a ) A./ s g.b.b.h.k e * ).^.  8 C T E R W 3X6X2Xo.G GXGXGXGXGXGXGXGXGXGXGXGXGXGXGX",
"GXGXGXGXGX^ g.k.l.m Q.~.g.^ I.^.f.^ K.C._ 5 } ] f / 1 f k l a = ; x c A.].  7 r D J T W 3X;.K $ o o GXGXGXGXGXGXGXGXGXGXGXGXGXGX",
"GXGXGXp.m.Q.k 3 l.j.M /.j % P.K.Z. .F  .:XG } | 4 $ & f.j.A.V., ] n x d.^.GX# $ 5 K T +.@.A # # # % . GXGXGXGXGXGXGXGXGXGXGXGXGX",
"GXGXGXI.^.[.Q.< ( V.N !.`.F.Z.[ | FX%XL +X~ V T ~ 8 0 j S.).S.x v n x b I.GXGXu $ $ C ! i 8 t t t w w GXGXGXGXGXGXGXGXGXGXGXGXGX",
"GXSXSXkXS.Q.^./ b c.l.d.I.p.aXFXF @X2.Z Z -.J J 5 7 # w v.F.I.] x n v x ].GXGXGXy t & o & $ # 0 $ 0 w GXGXGXGXGXGXGXGXGXGXGXGXGX",
"GXSXZXjX!.n.P.M.m ( l./ d.s.| #X*.D W Y J C + + 7 y d f d K.P._ x ] n x {.[.GXGX. > d f d t 0 0 $ $ # GXGXGXGXGXGXGXGXGXGXGXGXGX",
"GX(.=X|.!.x.b.n.M m V.j.s GXV W ;.J J $ # > 0 > $ # + & y jX'.K.x n n x I.I.GXGXGX+ # & + + + + # # GXGXGXGXGXGXGXGXGXGXGXGXGXGX",
"GXGXb.GXGXk.j.j.m s j.GXGXGXGXT @.C GXGX$ + + & + % # . d.`.{.V.x n b c K.`.GXGXGX$ 7 7 # # # $ > GXGXGXGXGXGXGXGXGXGXGXGXGXGXGX",
"GXGXGXGXGXGXm m GXGXGXGXGXGXGXGXGXGXGXGXGX0 $ $ 7 7 0 1 h K.A.( c c x c P.`.GXGXGX3 3 w w w e = % GXGXGXGXGXGXGXGXGXGXGXGXGXGXGX",
"GXGXGXGXGXGXGXGXGXGXGXGXGXGXGXGXGXGXGXGXX % w = 1 1 < s 2 M.M._ ] C.Y.`.^.P.GXGX3 b b < = @ = ; @ @ GXGXGXGXGXGXGXGXGXGXGXGXGXGX",
"GXGXGXGXGXGXGXGXGXGXGXGXGXGXGXGXGXGXGXX ; 3 5 ; @ X ; 2 2 A.-X{.=X{.`./.GXGXGXGX3 5 1 * ; = 3 2 ; ; 4 1 GXGXGXGXGXGXGXGXGXGXGXGX",
"GXGXGXGXGXGXGXGXGXGXGXGXGXGXGXGXGX1 s k k < ; 3 2 2 < X = GX).P.GXGXGXGXGXGXGXGXGX< X < p 3 ; e ) z.` S S k GXGXGXGXGXGXGXGXGXGX",
"GXGXGXGXGXGXGXGXGXGXGXGXGXGXGXGXA S ` ` D.G.z.A e ; 3 = GXGXGXGXGXGXGXGXGXGXGXGXGXGX1 2 = y z.G.D.S 5 s s b s GXGXGXGXGXGXGXGXGX",
"GXGXGXGXGXGXGXGXGXGXGXGXGXGXGXb ! s s p 4 A z.D.D.z.r X GXGXGXGXGXGXGXGXGXGXGXGXGXGX= = z.G.D.` ! b ( ' _ ( s GXGXGXGXGXGXGXGXGX",
"GXGXGXGXGXGXGXGXGXGXGXGXGXGXGX) ' j.C.v.' ' _ _ ) D.` GXGXGXGXGXGXGXGXGXGXGXGXGXGXGXGXs G.` _ ' H.H.H.H.D.k.s GXGXGXGXGXGXGXGXGX",
"GXGXGXGXGXGXGXGXGXGXGXGXGXGXGXh z.H.H.L.K.K.H.H.v.` ` GXGXGXGXGXGXGXGXGXGXGXGXGXGXGXGXGX` ` H.H.U.^.T.].U.GXGXGXGXGXGXGXGXGXGXGX"
};
