/* XPM */
static char *result[] = {
/* columns rows colors chars-per-pixel */
"64 64 249 2 ",
"   c #000000",
".  c #090A0C",
"X  c #1B150E",
"o  c #060613",
"O  c #140C13",
"+  c #141414",
"@  c #1E1A12",
"#  c #151919",
"$  c #1C1C1C",
"%  c #171618",
"&  c #0E0E0E",
"*  c #21160A",
"=  c #251D14",
"-  c #211D1D",
";  c #271913",
":  c #3B0600",
">  c #1E201F",
",  c #343A0A",
"<  c #22211D",
"1  c #2C251B",
"2  c #2D2618",
"3  c #33291D",
"4  c #31251A",
"5  c #2B3619",
"6  c #35381B",
"7  c #2C2A09",
"8  c #1B1C22",
"9  c #1A1D28",
"0  c #221F20",
"q  c #1F2221",
"w  c #1E233D",
"e  c #242322",
"r  c #292524",
"t  c #2A2A24",
"y  c #2C2B2A",
"u  c #272926",
"i  c #322D2B",
"p  c #352D22",
"a  c #34332C",
"s  c #393728",
"d  c #353633",
"f  c #3B3433",
"g  c #3B3A34",
"h  c #3D3C3A",
"j  c #363833",
"k  c #2F3030",
"l  c #501A02",
"z  c #473416",
"x  c #473009",
"c  c #4D3B22",
"v  c #463B29",
"b  c #513E25",
"n  c #453D35",
"m  c #433A39",
"M  c #523F31",
"N  c #783C00",
"B  c #374608",
"V  c #3C4515",
"C  c #3F5600",
"Z  c #3D4228",
"A  c #3D4437",
"S  c #475702",
"D  c #434B13",
"F  c #484817",
"G  c #584817",
"H  c #4A5716",
"J  c #53581B",
"K  c #424700",
"L  c #725016",
"P  c #556300",
"I  c #54631C",
"U  c #5B6C1D",
"Y  c #596819",
"T  c #5B711C",
"R  c #646C1B",
"E  c #67751A",
"W  c #726D14",
"Q  c #474629",
"!  c #565D21",
"~  c #44433C",
"^  c #4A423C",
"/  c #4D493C",
"(  c #444836",
")  c #524A37",
"_  c #47563B",
"`  c #585639",
"'  c #544027",
"]  c #665827",
"[  c #79582A",
"{  c #6A4C3C",
"}  c #675539",
"|  c #78573B",
" . c #614620",
".. c #5A6322",
"X. c #5D6C21",
"o. c #5C642A",
"O. c #636C24",
"+. c #656826",
"@. c #776B28",
"#. c #637423",
"$. c #6A7424",
"%. c #6A7C26",
"&. c #6D752B",
"*. c #6D7D2A",
"=. c #677923",
"-. c #757E2C",
";. c #7B7C2C",
":. c #76762A",
">. c #65673C",
",. c #6B7434",
"<. c #787C36",
"1. c #756B35",
"2. c #02154A",
"3. c #021958",
"4. c #000A4A",
"5. c #32374E",
"6. c #00036C",
"7. c #001C64",
"8. c #001D6E",
"9. c #000575",
"0. c #001E74",
"q. c #001978",
"w. c #012074",
"e. c #02227A",
"r. c #0B2476",
"t. c #14287A",
"y. c #102364",
"u. c #27316A",
"i. c #394346",
"p. c #39425E",
"a. c #454642",
"s. c #4B4640",
"d. c #4A4A45",
"f. c #4D4D4A",
"g. c #454948",
"h. c #544C44",
"j. c #524E4A",
"k. c #5A4F47",
"l. c #4C5647",
"z. c #52524C",
"x. c #5B544B",
"c. c #5A5547",
"v. c #555552",
"b. c #5A5653",
"n. c #5B5A54",
"m. c #5D5D5A",
"M. c #55585A",
"N. c #4C5156",
"B. c #63574A",
"V. c #635B4D",
"C. c #645945",
"Z. c #795B4A",
"A. c #635D55",
"S. c #625E5B",
"D. c #57664A",
"F. c #5B635A",
"G. c #5C7051",
"H. c #66654E",
"J. c #77674A",
"K. c #646354",
"L. c #6B6554",
"P. c #63625D",
"I. c #69655D",
"U. c #6B6A59",
"Y. c #75695A",
"T. c #787655",
"R. c #6C7654",
"E. c #575A6B",
"W. c #5D6968",
"Q. c #656562",
"!. c #6A6663",
"~. c #676964",
"^. c #6C6B64",
"/. c #6C6C6A",
"(. c #726D6C",
"). c #726C64",
"_. c #6B726B",
"`. c #74726C",
"'. c #7A746C",
"]. c #777567",
"[. c #767471",
"{. c #7B7A74",
"}. c #7D7C79",
"|. c #787876",
" X c #697776",
".X c #645F61",
"XX c #89780C",
"oX c #8B7533",
"OX c #845E36",
"+X c #876945",
"@X c #86784B",
"#X c #846652",
"$X c #8A7754",
"%X c #96795C",
"&X c #907041",
"*X c #827869",
"=X c #827E7D",
"-X c #827F74",
";X c #977B62",
":X c #A37B63",
">X c #7B852D",
",X c #77862C",
"<X c #7C8736",
"1X c #7E8440",
"2X c #84872A",
"3X c #838C33",
"4X c #8A8839",
"5X c #97883B",
"6X c #8B9434",
"7X c #889439",
"8X c #949A3A",
"9X c #96882C",
"0X c #99A239",
"qX c #A5AD3B",
"wX c #AF973F",
"eX c #868845",
"rX c #9A8D43",
"tX c #8D9543",
"yX c #979746",
"uX c #878656",
"iX c #9C9251",
"pX c #A4954A",
"aX c #A88E56",
"sX c #9CA54A",
"dX c #ABA855",
"fX c #B6A65B",
"gX c #ABB555",
"hX c #AAB055",
"jX c #83817C",
"kX c #8A8478",
"lX c #92876F",
"zX c #A9906B",
"xX c #B8AA63",
"cX c #B4A974",
"vX c #C1B268",
"bX c #C1987F",
"nX c #BEC066",
"mX c #CDC45F",
"MX c #001D8C",
"NX c #042584",
"BX c #7E7E81",
"VX c #768E8A",
"CX c #888684",
"ZX c #969383",
"AX c #978F81",
"SX c #B1A88E",
"DX c #A29988",
"FX c #C8A784",
"GX c None",
/* pixels */
"GXGXGXGXGXGXGXGXGXGXGXGXGXGXGXGXGXGXGXGXGXGXGXGXGXGXGXGXGXGXGXGXGXGXGXGXGXGXGXGXGXGXGXGXGXGXGXGXGXGXGXGXGXGXGXGXGXGXGXGXGXGXGXGX",
"GXGXGXGXGXGXGXGXGXGXGXGXGXGXGXGXGXGXGXGXGXGXGXGXGXGXGXGXGXGXGXGXGXGXGXGXGXGXGXGXGXGXGXGXGXGXGXGXGXGXGXGXGXGXGXGXGXGXGXGXGXGXGXGX",
"GXGXGXGXGXGXGXGXGXGXGXGXGXGXGXGXGXGXGXGXGXGXGXGXGXGXGXGXGXGXGXGXGXGXGXGXGXGXGXGXGXGXGXGXGXGXGXGXGXGXGXGXGXGXGXGXGXGXGXGXGXGXGXGX",
"GXGXGXGXGXGXGXGXGXGXGXGXGXGXGXGXGXGXGXGXGXGXGXGXGXGXGXGXGXGXGXGXGXGXGXGXGXGXGXGXGXGXGXGXGXGXGXGXGXGXGXGXGXGXGXGXGXGXGXGXGXGXGXGX",
"GXGXGXGXGXGXGXGXGXGXGXGXGXGXGXGXGXGXGXGXGXGXGXGXGXGXGXGXGXGXGXGXGXGXGXGXGXGXGXGXGXGXGXGXGXGXGXGXGXGXGXGXGXGXGXGXGXGXGXGXGXGXGXGX",
"GXGXGXGXGXGXGXGXGXGXGXGXGXGXGXGXGXGXGXGXGXGXGXGXGXGXGXGXGXGXGXGXGXGXGXGXGXGXGXGXGXGXGXGXGXGXGXGXGXGXGXGXGXGXGXGXGXGXGXGXGXGXGXGX",
"GXGXGXGXGXGXGXGXGXGXGXGXGXGXGXGXGXGXGXGXGXGXGXGXGXGXGXGXGXGXGXGXGXGXGXGXGXGXGXGXGXGXGXGXGXGXGXGXGXGXGXGXGXGXGXGXGXGXGXGXGXGXGXGX",
"GXGXGXGXGXGXGXGXGXGXGXGXGXGXGXGXGXGXGXGXGXGXGXGXGXGXGXGXGXGXGXGXGXGXGXGXGXGXGXGXGXGXGXGXGXGXGXGXGXGXGXGXGXGXGXGXGXGXGXGXGXGXGXGX",
"GXGXGXGXGXGXGXGXGXGXGXGXGXGXGXGXGXGXGXGXGXGXGXGXGXGXGXGXGXGXGXGXGXGXGXGXGXGXGXGXGXGXGXGXGXGXGXGXGXGXGXGXGXGXGXGXGXGXGXGXGXGXGXGX",
"GXGXGXGXGXGXGXGXGXGXGXGXGXGXGXGXGXGXGXGXGXGXGXGXGXGXGXGXGXGXGXGXGXGXGXGXGXGXGXGXGXGXGXGXGXGXGXGXGXGXGXGXGXGXGXGXGXGXGXGXGXGXGXGX",
"GXGXGXGXGXGXGXGXGXGXGXGXGXGXGXGXGXGXGXGXGXGXGXGXGXGXGXGXGXGXGXGXGXGXGXGXGXGXGXGXGXGXGXGXGXGXGXGXGXGXGXGXGXGXGXGXGXGXGXGXGXGXGXGX",
"GXGXGXGXGXGXGXGXGXGXGXGXGXGXGXGXGXGXGXGXGXGXGXGXGXGXGXGXGXGXGXGXGXGXGXGXGXGXGXGXGXGXGXGXGXGXGXGXGXGXGXGXGXGXGXGXGXGXGXGXGXGXGXGX",
"GXGXGXGXGXGXGXGXGXGXGXGXGXGXGXGXGXGXGXGXGXGXGXGXGXGXGXGXGXGXGXGXGXGXGXGXGXGXGXGXGXGXGXGXGXGXGXGXGXGXGXGXGXGXGXGXGXGXGXGXGXGXGXGX",
"GXGXGXGXGXGXGXGXGXGXGXGXGXGXGXGXGXGXGXA.Q.GXGXGXGXGXGXGXGXGXGXGXGXGXGXGXGXGXGXGXGXGXGXGXGXGXGXGXGXGXGXGXGXGXGXGXGXGXGXGXGXGXGXGX",
"GXGXGXGXGXGXGXGXGXGXGXGXGXGXGXGXGXGXGXQ.|.GXGXGXGXGXGXGXGXGXGXGXGXGXGXGXGXGXGXGXGXGXGXGXGXGXGXGXGXGXGXGXGXGXGXGXGXGXGXGXGXGXGXGX",
"GXGXGXGXGXGXGXGXGXGXGXGXGXGXGXGXGXGXGXS.=X=XGXGXGXGXGXGXGXGXGXGXGXGXGXGXGXGXGXGXGXGXGXGXGXGXGXGXGXGXGXGXGXGXGXGXGXGXGXGXGXGXGXGX",
"GXGXGXGXGXGXGXGXGXGXGXGXGXGXGXGXGXGXGXQ.(.=XGXGXGXGXGXGXGXGXGXGXGXGXGXGXGXGXGXGXGXGXGXGXGXGXGXGXGXGXGXGXGXGXGXGXGXGXGXGXGXGXGXGX",
"GXGXGXGXGXGXGXGXGXGXGXGXGXGXGXGXGXGXGX!..X|.(.GXGXGXGXGXGXGXGXGXGXGXGXGXGXGXGXGXGXGXGXGXGXGXGXGXGXGXGXGXGXGXGXGXGXGXGXGXGXGXGXGX",
"GXGXGXGXGXGXGXGXGXGXGXGXGXGXGXGXGXGXGX(.|.[.(.I.GXGXGXGXGXGXGXGXGXGXGXGXGXm.m.GXGXGXg.j.5.4.2.GXGXGXGXGXGXGXGXGXGXGXGXGXGXGXGXGX",
"GXGXGXGXGXGXGXGXGXGXGXGXGXGXGXGXGXGXI.(.=XCXA.!.`.`.Q.GXGXGXGXGXGXGXGXGXGXb.b.GXGXGXk s.N.q.e.r.7.3.3.2.GXGXGXGXGXGXGXGXGXGXGXGX",
"GXGXGXGXGXGXGXGXGXGXGXGXGXGXGXGXV.)..X~.!.|.(.S./.^.M.GXGXGXGXGXGXGXGXGXy ~ ~ h GXa.h g h.r.q.q.NXe.w.w.8.7.3.GXGXGXGXGXGXGXGXGX",
"GXGXGXGXGXGXGXGXGXGXGXGXGXGXGXGX!.`./.~.S.!./.!.Q.P.b.!.P.v.f.~ ~ m d.P.S.F.m.S.m.m.S.S.) y.q.t.r.0.0.e.e.w.7.GXGXGXGXGXGXGXGXGX",
"GXGXGXGXGXGXGXGXGXGXGXGXGXGXGXGXm.Q.Q.Q.~.P.Q..XF.F.n._.|.`.Q.!.I.z.P.[.`.{.}.|.|.).n.{.-Xy.9.9.9.t.r.0.e.w.7.GXGXGXGXGXGXGXGXGX",
"GXGXGXGXGXGXGXGXGXGXGXGXGXGXGX2XK.M.^./.`.(./.(.[./.m.lX*X'.m.S.m.n.F.^.[.{.{.(.{.{.F./.AXp.5.b.*XM.6.r.w.8.7.GXGXGXGXGXGXGXGXGX",
"GXGXGXGXGXGXGXGXGXGXGXGXGXGX;.0XT.~.[.[.(.'.(..X|.(.(.SXSXcX$XQ a.S.m.^./.~.^.Q.!.~.!.v.y $XcXFX=X6.y.7.3.3.2.GXGXGXGXGXGXGXGXGX",
"GXGXGXGXGXGXGXGXGXGXGXGXGX$.6X8XtXQ.`.!.(.=X=X!.|.|.[.).L.SXSX+Xg.m.m.m.x.n.S.Q.I.I.v.z.5.J.lXE.9.0.e.0.0.8.7.GXGXGXGXGXGXGXGXGX",
"GXGXGXGXGXGXGXGXGXGXGXGXGX*.<X8X0XI._./.S.I.(.{.CXCX1XE.    2 s f.v.j.Q.P./.CX}.=X=XQ..X/ w 6.9.r.q.e.e.e.9.p.GXGXGXGXGXGXGXGXGX",
"GXGXGXGXGXGXGXGXGXGXGXGXGX,X<X0XqXeX.X'.].].-XAXZXZX}.v.% t % % f.f.!.Y.Z.#XY.B.k.Z.{ ` l.i.t.NXe.e.e.e.t.6.M.GXGXGXGXGXGXGXGXGX",
"GXGXGXGXGXGXGXGXGXGXGXGXGX>X,X8XqXtXz.).'.'.[.[.(./.1XW.o e $ t ^ b.T.XXl N L L L L x ] V.N.NXNXNXNXr.r.r.6.D.E GXGXGXGXGXGXGXGX",
"GXGXGXGXGXGXGXGXGXGXGXGX&.,X,X,X8X8XT.uXuXuX@X<Xl.5.kXK.  e # u h.Y.J W +.<X1.l : <.;.s A.S.9.MXMXMXq.q.q.7.,.I 5 GXGXGXGXGXGXGX",
"GXGXGXGXGXGXGXGXGXGXGXGXX.=.=.,X<X6X6X6X6X2X2X2XD.i.].~   $ < e A.J.S D >XgXdX1.@.fXtX7 k.Y.W.E.f.N.p.u.u.5.X.&.O.J GXGXGXGXGXGX",
"GXGXGXGXGXGXGXGXGXGX*.#.T I I #.,X3X,X2X2X>X;.W N. X X( o 8 8 t z.>.S >.4XsXfXaXaXpX4XD s.L._.R.P W %.>X$.U #.rXdXsX<.GXGXGXGXGX",
"GXGXGXGXGXGXGXGXGX<XsX7X=.;.,.I %.,X-.,X&.+.Y J g.VX_.d & < < i h.` P T.@X>XoXrXrXoX+.Y Z.B.m.D.R O.*.%.T ,X,XhXxXfXeXGXGXGXGXGX",
"GXGXGXGXGXGXGXGXGX7XgXgXdXfXrXX.I U $.*.O.! J K F. XA e % 8 < a ` ` P uXJ.B G @X<.J.z ! %XV.n.GXGXJ X.#.,XsXgXnXvXpXeXGXGXGXGXGX",
"GXGXGXGXGXGXGXGXGXtXdXxXfXxXdX7X*.Y ..X.GXGXGXGXW.F.- $ + 8 $ t V.` P @X#XY.} zX{ zX#X;X%XB.GXGXGXV X.<X7XgXgXgXpXrX5XGXGXGXGXGX",
"GXGXGXGXGXGXGXGXGXsXdXaXrXxXxXsXtX*.#.H GXGXGXGXGXGX$ + + < - $ A.` P | +X;X#XaX| aX%XzXoXk.GXGXGXo.tXsX3XsXhXtX5X5X4XGXGXGXGXGX",
"GXGXGXGXGXGXGXGX1XsXyXrXrXrXsXyXtX,X,.o.GXGXGXGXGXGXGX# # # &   ) / S ] { +X+XOXOXL OX&XGXGXGXGXGX,.yX7X<XsXsXtX4X5X@.GXGXGXGXGX",
"GXGXGXGXGXGXGXGXGXtXrXoXoX5XrXtXtX,...GXGXGXGXGXGXGXGX.   y d.d.I.S.H.]  .OX] z @. .] oX] GXGXGXGXGX,.<X,.tXeX7X6X:.GXGXGXGXGXGX",
"GXGXGXGXGXGXGXGXGXGX4XoX4X4X4XtX<X,.GXGXGXGXGXGXGXGXGXj f Y.*X'.'.`.[.c.XXXXXX9XmXwXoX4XL.F.GXGXGXGXGX! ..#...T >XGXGXGXGXGXGXGX",
"GXGXGXGXGXGXGXGXGXGX7X9X;.,.,X#.#.X.GXGXGXGXGXGXGXGXGXA.k.V.x.x.n.f.g.M.(.lXzXaXrXuXT.`.[.[.I.GXGXGXGXB H I T ,X%.#.GXGXGXGXGXGX",
"GXGXGXGXGXGXGXGXGXGX-.#...V D H ....GXGXGXGXGXGXGXGXGXn n d.m.v.z.S.}.CXCXCXCX/.M._.}.!.I.`.m.GXGXGX, , V I =.,XX.O.O.GXGXGXGXGX",
"GXGXGXGXGXGXGXGXGXI X.I I V B D V I V GXGXGXGXGXGXGXGXi z.P.m.S.~.|.CXCX}.[.~./.{.-XL.p K.`.z.GXGX5 a p B H I H U *.GXGXGXGXGXGX",
"GXGXGXGXGXGXGXGXGXGX=.#.H , 7 6 6 6 6 GXGXGXGXGXGXGXGXv.m./.}.BX}.[.Q.z.m.~.!.^ k.].`.I.n.v.l.GXGXa f m m Z , J -.GXGXGXGXGXGXGX",
"GXGXGXGXGXGXGXGXGXGXU =.H 6 g f g d k p GXGXGXGXf.M.~.}.CXCX}.^.m.e a m.V.z.(.j.x.^.m.a.^.`.e Q 0 r r i f ~ f Y GXGXGXGXGXGXGXGX",
"GXGXGXGXGXGXGXGXGXGXGXD Q m f i i r r r GXGXGX~ I.(.CXjX`.n.a.  a.h   A.n.d.N.g.a.n.}.f.g.Z U $.F o - r r i m a GXGXGXGXGXGXGXGX",
"GXGXGXd GXGXGXGXGXGXGXZ n f y r r 0 % $ @ A.].L.A.'.!.n.e   m.u y v.  ~ x.s.N.1Xf.i.g.Q J -.oXW ] 3 O - r r r GXGXGXGXGXGXGXGXGX",
"GXGXGXn d GXGXGXGXGXGXGXf y e O O - f f.b.b.-XDX].( f.P.n.  f.v.  j.u d j.~ d.n.,.>XE W 8XsX4X:.+.H X O + - $ GXGXGXGXGXGXGXGXGX",
"GXGXGXGXg t GXGXGXGXGXGX- 1 @ i m i z.(.CX-Xk.kXZXc.f.F.^.i e m.e f.v.j.h.~ t S R >X3X>X>X>X>X;.@.G 7 * X + GXGXGXGXGXGXGXGXGXGX",
"GXGXGXGXg i GXGXGXGXGXGX( A z.Q.^.Q.`.{.^.`.k.k.kX*XM j.Q.f.j m.m.n.v.s.g k y ..R Y T E ,X7X6X4XoX+.J D X GXGXGXGXGXGXGXGXGXGXGX",
"GXGXGXGXh a.GXGXGXGXGXz.m z.(.{.{.[.`.K.  n A.p A.-Xk.h m.F.S.m.v.d.j g g q q V Y E E R 2X8X2X>X%.R G 7 GXGXGXGXGXGXGXGXGXGXGXGX",
"GXGXGXGXGXs.P.V.^ d.(.{./._.`./.y y ).L.x.V.x.a n L.^ j N.v.z.a.k t X I./.  8 6 Y Y R E 3X6X3XO.F GXGXGXGXGXGXGXGXGXGXGXGXGXGXGX",
"GXGXGXGXGX~ d.z.x.n Q.^.f.~ !.!.s.( L.C.) V { M d ~ 1 f j y a @ 7 c x V.`.  > t D P I $.>X;.H @ o o GXGXGXGXGXGXGXGXGXGXGXGXGXGX",
"GXGXGXa.b.Q.j 1 k.h.m ~.A + P.K.Z.| F | :XF } } 5 % o d.j.F.n.x b c z ^ ^.GX# q V ! Y O.O.Z # # # + & GXGXGXGXGXGXGXGXGXGXGXGXGX",
"GXGXGX).!.[.Q.1 ) A.^ I.`.K.Z.] } FX%XK Z.I B Y ! 9 q A K.).I.z c b z M I.GXGXe $ # 6 Q k 9 u u u u q GXGXGXGXGXGXGXGXGXGXGXGXGX",
"GXSXSXkXm.P.^.s.v x.k.^ I.i.:XbXV @X1.C C E H D v $ # e x.n.U.b z c c c ].GXGXGXGX+ @ + + + + + # # GXGXGXGXGXGXGXGXGXGXGXGXGXGX",
"GXSXZXCXQ.v.m.m.n / x./ d.d.} @X%.S E R H V # # $ u k j k P.P.) z b c z {.[.GXGXGX$ 8 $ # # # $ > GXGXGXGXGXGXGXGXGXGXGXGXGXGXGX",
"GX^.=X|.~.z.z.b.m n B.h.a GXB E -.H H # $ e q $ $ # + . i kX{.A.z b c z S.I.GXGXGX3 4 e e e 1 $ # GXGXGXGXGXGXGXGXGXGXGXGXGXGXGX",
"GXGXv.GXGXh.h.h.M s h.GXGXGXGXY O.V GXGX$ + - @ $ < < + s.].{.m.z b c z S.].GXGX3 v v 2 = @ = = @ @ GXGXGXGXGXGXGXGXGXGXGXGXGXGX",
"GXGXGXGXGXGX( n GXGXGXGXGXGXGXGXGXGXGX* ; 2 3 1 = X = 3 f K.A.) x x z x P.`.GXGX2 3 1 @ ; = 3 3 ; ; 5 < GXGXGXGXGXGXGXGXGXGXGXGX",
"GXGXGXGXGXGXGXGXGXGXGXGXGXGXGXGXGX< k j g 1 ; 4 3 3 = X 2 m.n./ b V.).(.!.I.GXGXGX1 X 2 p 3 ; r ( l._ A A a GXGXGXGXGXGXGXGXGXGX",
"GXGXGXGXGXGXGXGXGXGXGXGXGXGXGXGXZ A _ _ D.D._ A r = 2 = GXGX-X{.jX{.`.GXGXGXGXGXGXGX2 p @ a l.D.D.A 6 s p v s GXGXGXGXGXGXGXGXGX",
"GXGXGXGXGXGXGXGXGXGXGXGXGXGXGXv Q s s 6 5 Q l.D.D.l.t X GXGXGXGXGXGXGXGXGXGXGXGXGXGX= @ l.G.D._ Q v / ` ` / g GXGXGXGXGXGXGXGXGX",
"GXGXGXGXGXGXGXGXGXGXGXGXGXGXGX( ) c.C.c.c.` ) ) _ D._ GXGXGXGXGXGXGXGXGXGXGXGXGXGXGXGXs G._ ) C.V.K.H.L.D.j.s GXGXGXGXGXGXGXGXGX",
"GXGXGXGXGXGXGXGXGXGXGXGXGXGXGXg l.K.H.L.K.H.H.V.` _ _ GXGXGXGXGXGXGXGXGXGXGXGXGXGXGXGXGX_ _ H.L.U.R.R.].U.GXGXGXGXGXGXGXGXGXGXGX"
};
