/* XPM */
static char *result[] = {
/* columns rows colors chars-per-pixel */
"64 64 248 2 ",
"   c #000000",
".  c #09080B",
"X  c #1B150E",
"o  c #060613",
"O  c #140C13",
"+  c #141414",
"@  c #1E1A12",
"#  c #151919",
"$  c #1C1C1B",
"%  c #181618",
"&  c #0E0E0E",
"*  c #251D15",
"=  c #221D1D",
"-  c #271914",
";  c #291204",
":  c #1E201F",
">  c #343A0A",
",  c #2B251C",
"<  c #27231B",
"1  c #34291D",
"2  c #31241A",
"3  c #2B3619",
"4  c #35381B",
"5  c #2C2A09",
"6  c #1B1C22",
"7  c #1A1D28",
"8  c #221F20",
"9  c #1F222B",
"0  c #242322",
"q  c #2A2524",
"w  c #2A2A24",
"e  c #2C2B2A",
"r  c #272927",
"t  c #322E2B",
"y  c #352D22",
"u  c #34332C",
"i  c #393728",
"p  c #353633",
"a  c #3B3433",
"s  c #3B3A34",
"d  c #3D3C3A",
"f  c #363833",
"g  c #2F3030",
"h  c #501A02",
"j  c #463214",
"k  c #493618",
"l  c #473009",
"z  c #4D3B22",
"x  c #463B29",
"c  c #513E25",
"v  c #453D35",
"b  c #433A39",
"n  c #523F31",
"m  c #783C00",
"M  c #374608",
"N  c #3C4415",
"B  c #3F5600",
"V  c #3D4228",
"C  c #3D4437",
"Z  c #475702",
"A  c #434B13",
"S  c #484817",
"D  c #584817",
"F  c #4A5716",
"G  c #53581B",
"H  c #424700",
"J  c #725016",
"K  c #556300",
"L  c #54631C",
"P  c #5B6C1D",
"I  c #596819",
"U  c #5B711C",
"Y  c #646C1B",
"T  c #67751A",
"R  c #726D14",
"E  c #474629",
"W  c #565D21",
"Q  c #44423C",
"!  c #4A423C",
"~  c #4D493C",
"^  c #444836",
"/  c #524A37",
"(  c #47563B",
")  c #585639",
"_  c #544027",
"`  c #665827",
"'  c #79582A",
"]  c #6A4C3C",
"[  c #675539",
"{  c #78573B",
"}  c #614620",
"|  c #5A6322",
" . c #5D6C21",
".. c #5C642A",
"X. c #636C24",
"o. c #666826",
"O. c #776B28",
"+. c #637423",
"@. c #6A7424",
"#. c #6A7C26",
"$. c #6D752B",
"%. c #6D7D2A",
"&. c #677923",
"*. c #757E2C",
"=. c #7B7C2C",
"-. c #76762A",
";. c #65673C",
":. c #6B7434",
">. c #787C36",
",. c #756B35",
"<. c #02154A",
"1. c #021958",
"2. c #000A4A",
"3. c #32374E",
"4. c #00036C",
"5. c #001C64",
"6. c #001D6E",
"7. c #000075",
"8. c #000B75",
"9. c #001E74",
"0. c #001978",
"q. c #012074",
"w. c #02227A",
"e. c #0B2476",
"r. c #14287A",
"t. c #102364",
"y. c #27316A",
"u. c #394346",
"i. c #39425E",
"p. c #454642",
"a. c #4B4640",
"s. c #4A4A45",
"d. c #4D4D4A",
"f. c #454948",
"g. c #544C44",
"h. c #524E4A",
"j. c #5A4F47",
"k. c #4C5647",
"l. c #52524C",
"z. c #5B544B",
"x. c #5A5547",
"c. c #555552",
"v. c #5A5653",
"b. c #5B5A54",
"n. c #5D5D5A",
"m. c #55585A",
"M. c #4C5156",
"N. c #63574A",
"B. c #635B4D",
"V. c #645945",
"C. c #795B4A",
"Z. c #635D55",
"A. c #625E5B",
"S. c #57664A",
"D. c #5B635A",
"F. c #5C7051",
"G. c #66654E",
"H. c #77674A",
"J. c #646354",
"K. c #6B6554",
"L. c #63625D",
"P. c #69655D",
"I. c #6B6A59",
"U. c #75695A",
"Y. c #787655",
"T. c #6C7654",
"R. c #575A6B",
"E. c #5D6968",
"W. c #656562",
"Q. c #6A6663",
"!. c #676964",
"~. c #6C6B64",
"^. c #6C6C6A",
"/. c #726D6C",
"(. c #726C64",
"). c #6B726B",
"_. c #74726C",
"`. c #7A746C",
"'. c #777567",
"]. c #767471",
"[. c #7B7A74",
"{. c #7D7C79",
"}. c #787876",
"|. c #697776",
" X c #645F61",
".X c #89780C",
"XX c #8B7533",
"oX c #845E36",
"OX c #876945",
"+X c #86784B",
"@X c #846652",
"#X c #8A7754",
"$X c #96795C",
"%X c #907041",
"&X c #827869",
"*X c #827E7D",
"=X c #827F74",
"-X c #977B62",
";X c #A37B63",
":X c #7B852D",
">X c #77862C",
",X c #7C8736",
"<X c #7E8440",
"1X c #84872A",
"2X c #838C33",
"3X c #8A8839",
"4X c #97883B",
"5X c #8B9434",
"6X c #889439",
"7X c #949A3A",
"8X c #96882C",
"9X c #99A239",
"0X c #A5AD3B",
"qX c #AF973F",
"wX c #868845",
"eX c #9A8D43",
"rX c #8D9543",
"tX c #979746",
"yX c #878656",
"uX c #9C9251",
"iX c #A4954A",
"pX c #A88E56",
"aX c #9CA54A",
"sX c #ABA855",
"dX c #B6A65B",
"fX c #ABB555",
"gX c #AAB055",
"hX c #83817C",
"jX c #8A8478",
"kX c #92876F",
"lX c #A9906B",
"zX c #B8AA63",
"xX c #B4A974",
"cX c #C1B268",
"vX c #C1987F",
"bX c #BEC066",
"nX c #CDC45F",
"mX c #001D8C",
"MX c #042584",
"NX c #7E7E81",
"BX c #768E8A",
"VX c #888684",
"CX c #969383",
"ZX c #978F81",
"AX c #B1A88E",
"SX c #A29988",
"DX c #C8A784",
"FX c None",
/* pixels */
"FXFXFXFXFXFXFXFXFXFXFXFXFXFXFXFXFXFXFXFXFXFXFXFXFXFXFXFXFXFXFXFXFXFXFXFXFXFXFXFXFXFXFXFXFXFXFXFXFXFXFXFXFXFXFXFXFXFXFXFXFXFXFXFX",
"FXFXFXFXFXFXFXFXFXFXFXFXFXFXFXFXFXFXFXFXFXFXFXFXFXFXFXFXFXFXFXFXFXFXFXFXFXFXFXFXFXFXFXFXFXFXFXFXFXFXFXFXFXFXFXFXFXFXFXFXFXFXFXFX",
"FXFXFXFXFXFXFXFXFXFXFXFXFXFXFXFXFXFXFXFXFXFXFXFXFXFXFXFXFXFXFXFXFXFXFXFXFXFXFXFXFXFXFXFXFXFXFXFXFXFXFXFXFXFXFXFXFXFXFXFXFXFXFXFX",
"FXFXFXFXFXFXFXFXFXFXFXFXFXFXFXFXFXFXFXFXFXFXFXFXFXFXFXFXFXFXFXFXFXFXFXFXFXFXFXFXFXFXFXFXFXFXFXFXFXFXFXFXFXFXFXFXFXFXFXFXFXFXFXFX",
"FXFXFXFXFXFXFXFXFXFXFXFXFXFXFXFXFXFXFXFXFXFXFXFXFXFXFXFXFXFXFXFXFXFXFXFXFXFXFXFXFXFXFXFXFXFXFXFXFXFXFXFXFXFXFXFXFXFXFXFXFXFXFXFX",
"FXFXFXFXFXFXFXFXFXFXFXFXFXFXFXFXFXFXFXFXFXFXFXFXFXFXFXFXFXFXFXFXFXFXFXFXFXFXFXFXFXFXFXFXFXFXFXFXFXFXFXFXFXFXFXFXFXFXFXFXFXFXFXFX",
"FXFXFXFXFXFXFXFXFXFXFXFXFXFXFXFXFXFXFXFXFXFXFXFXFXFXFXFXFXFXFXFXFXFXFXFXFXFXFXFXFXFXFXFXFXFXFXFXFXFXFXFXFXFXFXFXFXFXFXFXFXFXFXFX",
"FXFXFXFXFXFXFXFXFXFXFXFXFXFXFXFXFXFXFXFXFXFXFXFXFXFXFXFXFXFXFXFXFXFXFXFXFXFXFXFXFXFXFXFXFXFXFXFXFXFXFXFXFXFXFXFXFXFXFXFXFXFXFXFX",
"FXFXFXFXFXFXFXFXFXFXFXFXFXFXFXFXFXFXFXFXFXFXFXFXFXFXFXFXFXFXFXFXFXFXFXFXFXFXFXFXFXFXFXFXFXFXFXFXFXFXFXFXFXFXFXFXFXFXFXFXFXFXFXFX",
"FXFXFXFXFXFXFXFXFXFXFXFXFXFXFXFXFXFXFXFXFXFXFXFXFXFXFXFXFXFXFXFXFXFXFXFXFXFXFXFXFXFXFXFXFXFXFXFXFXFXFXFXFXFXFXFXFXFXFXFXFXFXFXFX",
"FXFXFXFXFXFXFXFXFXFXFXFXFXFXFXFXFXFXFXFXFXFXFXFXFXFXFXFXFXFXFXFXFXFXFXFXFXFXFXFXFXFXFXFXFXFXFXFXFXFXFXFXFXFXFXFXFXFXFXFXFXFXFXFX",
"FXFXFXFXFXFXFXFXFXFXFXFXFXFXFXFXFXFXFXFXFXFXFXFXFXFXFXFXFXFXFXFXFXFXFXFXFXFXFXFXFXFXFXFXFXFXFXFXFXFXFXFXFXFXFXFXFXFXFXFXFXFXFXFX",
"FXFXFXFXFXFXFXFXFXFXFXFXFXFXFXFXFXFXFXFXFXFXFXFXFXFXFXFXFXFXFXFXFXFXFXFXFXFXFXFXFXFXFXFXFXFXFXFXFXFXFXFXFXFXFXFXFXFXFXFXFXFXFXFX",
"FXFXFXFXFXFXFXFXFXFXFXFXFXFXFXFXFXFXFXFXFXFXFXFXFXFXFXFXFXFXFXFXFXFXFXFXFXFXFXFXFXFXFXFXFXFXFXFXFXFXFXFXFXFXFXFXFXFXFXFXFXFXFXFX",
"FXFXFXFXFXFXFXFXFXFXFXFXFXFXFXFXFXFXFXFXFXFXFXFXFXFXFXFXFXFXFXFXFXFXFXFXFXFXFXFXFXFXFXFXFXFXFXFXFXFXFXFXFXFXFXFXFXFXFXFXFXFXFXFX",
"FXFXFXFXFXFXFXFXFXFXFXFXFXFXFXFXFXFXFXFXFXFXFXFXFXFXFXFXFXFXFXFXFXFXFXFXFXFXFXFXFXFXFXW.b.FXFXFXFXFXFXFXFXFXFXFXFXFXFXFXFXFXFXFX",
"FXFXFXFXFXFXFXFXFXFXFXFXFXFXFXFXFXFXFXFXFXFXFXFXFXFXFXFXFXFXFXFXFXFXFXFXFXFXFXFXFXFXFX*XP.FXFXFXFXFXFXFXFXFXFXFXFXFXFXFXFXFXFXFX",
"FXFXFXFXFXFXFXFXFXFXFXFXFXFXFXFXFXFXFXFXFXFXFXFXFXFXFXFXFXFXFXFXFXFXFXFXFXFXFXFXFXFX*X*XA.FXFXFXFXFXFXFXFXFXFXFXFXFXFXFXFXFXFXFX",
"FXFXFXFXFXFXFXFXFXFXFXFXFXFXFXFXFXFXFXFXFXFXFXFXFXFXFXFXFXFXFXFXFXFXFXFXFXFXFXFXFXFX*X_. XFXFXFXFXFXFXFXFXFXFXFXFXFXFXFXFXFXFXFX",
"FXFXFXFXFXFXFXFXFXFXFXFXFXFXFXFXFXFXFXFXFXFXFXFXFXFXFXFXFXFXFXFXFXFXFXFXFXFXFXFXFX/.].W.Q.FXFXFXFXFXFXFXFXFXFXFXFXFXFXFXFXFXFXFX",
"FXFXFXFXFXFXFXFXFXFXFXFXFXFXFXFXFX2.2.3.l.f.FXFXFXn.A.FXFXFXFXFXFXFXFXFXFXFXFXFXP./.].{./.FXFXFXFXFXFXFXFXFXFXFXFXFXFXFXFXFXFXFX",
"FXFXFXFXFXFXFXFXFXFXFXFX<.<.1.5.9.MX0.M.a.g FXFXFXm.v.FXFXFXFXFXFXFXFXFXFXW._._.~.b.VX*X/.W.FXFXFXFXFXFXFXFXFXFXFXFXFXFXFXFXFXFX",
"FXFXFXFXFXFXFXFXFX1.1.q.w.q.w.MXMX9.t.f.s d s.FXb C Q e FXFXFXFXFXFXFXFXFXb.!.^.A./.}. XQ.L.~.b.FXFXFXFXFXFXFXFXFXFXFXFXFXFXFXFX",
"FXFXFXFXFXFXFXFXFX5.w.w.w.q.9.r.r.q.t.d.L.L.b.n.n.A.A.n.A.s.v Q Q d.v.L.!.c. XW.Q./.Q.A.!.~._.!.FXFXFXFXFXFXFXFXFXFXFXFXFXFXFXFX",
"FXFXFXFXFXFXFXFXFX5.q.w.0.e.r.7.7.7.1.*X[.b./.].}.[.[._.].W.l.Q.W.L.`.}._.b.D.n. XQ.L.!.W.W. Xn.FXFXFXFXFXFXFXFXFXFXFXFXFXFXFXFX",
"FXFXFXFXFXFXFXFXFX5.6.9.e.8.m.&XN.3.f.CX~.A.}.[._.[.{.].!.A.v.b.W.D.`.&XkXb.^.]./.Q./._.^.^. XS.1XFXFXFXFXFXFXFXFXFXFXFXFXFXFXFX",
"FXFXFXFXFXFXFXFXFX<.1.5.5.t.4.*XDXlX#Xe c.Q.!.Q.Q.~.^.~.^.n. Xp.c $XxXAXSX).].}.A./././.]._.^.Y.9XXXFXFXFXFXFXFXFXFXFXFXFXFXFXFX",
"FXFXFXFXFXFXFXFXFX1.6.9.9.9.9.7.R.kXH.3.l.v.L.A.W.D.b.z.n.n.b.f.Y.xXSXP.'.[.}.}./.*X*X/.~._. XrX9X2X@.FXFXFXFXFXFXFXFXFXFXFXFXFX",
"FXFXFXFXFXFXFXFXFXy.0.w.w.q.w.r.8.7.<./  X(.=X{.{.hX/. X Xd.c.h.i 2     S.jXhXjX[._.W.A.^.|.T.9X9X2X#.FXFXFXFXFXFXFXFXFXFXFXFXFX",
"FXFXFXFXFXFXFXFXFXD.7.e.9.q.w.w.r.r.f.j.j.] C.] N.U.@XC.U.P.d.d.# # w # l.[.CXCXZX&X'.`.`. X<X0X9X,X*.FXFXFXFXFXFXFXFXFXFXFXFXFX",
"FXFXFXFXFXFXFXFXT S.4.r.w.e.MXMXMXMXM.Z.` l oXJ J J J h .X+Xv.! w $ 0   R.<X^._._.`.}.}.(.c.7X0X6X,X:XFXFXFXFXFXFXFXFXFXFXFXFXFX",
"FXFXFXFXFXFXFX3 I :.1.0.0.0.mXmXmX0.Z.Z.4 :.XX; h O.>.Y Y W U.s.r # r   E.jX3.l.3XY.yXyX#XY.5X9X,X>X:X@.FXFXFXFXFXFXFXFXFXFXFXFX",
"FXFXFXFXFXFXW o.$.U 3.y.y.i.M.f.R.E.U.g.5 tXgX' ,.gXfX-.A Z H.Z.< 6 6   Q '.u.D.1X1X1X8X5X5X5X2X>X&.&. .FXFXFXFXFXFXFXFXFXFXFXFX",
"FXFXFXFXFX>.uXsXeXU U &.1XT Y R F.).Z.s.A rXiXiXpXdXaX,X;.Z S.z.r 8 0   Q _.<Xk.@.=.1X1X1X>X2X>XU L I I +.>XFXFXFXFXFXFXFXFXFXFX",
"FXFXFXFXFXwXzXcXsX5XT U >X#.X.I x.m.N.C.L o.XX4XqXXX:XwX+XK W g.t : < & u E.BXi.G | X.%.>X*.>X#.I :.*.&.rXaX,XFXFXFXFXFXFXFXFXFX",
"FXFXFXFXFXwXiXzXbXfXaX>X+.P L FXFXb.N.$XW k H.3X+XD > @XyXK ) x.u = 6 # 0 3.BXE.H G G +.&.@.I I X.4XdXsXgXgX6XFXFXFXFXFXFXFXFXFX",
"FXFXFXFXFXeXeXiXgXfXfX6X,XP N FXFXFXN.#X-X@XlX] lX] K.@X+XK ) B.1 : : + : : m.E.FXFXFXFX .L L #.2XsXzXdXzXsXrXFXFXFXFXFXFXFXFXFX",
"FXFXFXFXFXXX4XeXtXaXgX2XaXwX:.FXFXFXz.%XlX$X;X{ lX@X$XOX{ Z [ J.$ : : + & : FXFXFXFXFXFXF  .>XrXaXzXzXiXpXsXaXFXFXFXFXFXFXFXFXFX",
"FXFXFXFXFXO.4X3XrXaXaX,X6XtX:.FXFXFXFXFXXXoX' oXoXOXOX] ` Z / g.  & # $ # FXFXFXFXFXFXFX..:.,XrXaXaXuXeX4XtXaX3XFXFXFXFXFXFXFXFX",
"FXFXFXFXFXFX$.5X3X6X6X>X,X:.FXFXFXFXFX` XX` D O.k o.oX} ` G.A.L.s.s.g   & FXFXFXFXFXFXFXFX..:.rXrX3X3XXX4X4XwXFXFXFXFXFXFXFXFXFX",
"FXFXFXFXFXFXFX,X&.L +.| W FXFXFXFXFXD.K.3XXXqXnXXX.X.X.XN.]._.`.'.&XP.u p FXFXFXFXFXFXFXFXFX$.<XrX6X3X4XXX3XFXFXFXFXFXFXFXFXFXFX",
"FXFXFXFXFXFXU >X#.P L F > FXFXFXFX!.`.]._.'.eXeXeXlXkX`.c.f.d.v.z.z.B.x.B.FXFXFXFXFXFXFXFXFX .+. .*.$.=.4X2XFXFXFXFXFXFXFXFXFXFX",
"FXFXFXFXFXX.P P >X&.L S > > FXFXFXn._.P.~.[.^.m.!.BXVXVXVX{.n.M.c.n.g.v v FXFXFXFXFXFXFXFXFX| I F A N  .&.>XFXFXFXFXFXFXFXFXFXFX",
"FXFXFXFXFXFX%.P F L F > u u 3 FXFXl.~.J.1 K.=X}.(.).}.[.VXVX}.!. XD.A.h.y FXFXFXFXFXFXFXFXN F S N N A L F P L FXFXFXFXFXFXFXFXFX",
"FXFXFXFXFXFXFX*.G > V b b a t FXFXl.c.v.L.'.'.j.p.P.~.L.z.L.].{.*X{.^.n.l.FXFXFXFXFXFXFXFX4 4 4 4 5 > F +.&.FXFXFXFXFXFXFXFXFXFX",
"FXFXFXFXFXFXFXFXI u ! a t e q = E 0 _.!.p.L.(.z.g.'.l.b.b.p 0 b.^.{.VXVX{.!.m.d.FXFXFXFXy t t b v a 4 A +. .FXFXFXFXFXFXFXFXFXFX",
"FXFXFXFXFXFXFXFXa b t q q 8 o S #.P V f.d.=Xv.s.Q l.d.b.b.  d s.  p.b._.VXVX/.W.Q FXFXFXr q q t t a v E A FXFXFXFXFXFXFXFXFXFXFX",
"FXFXFXFXFXFXFXFXFXt 8 8 = O 1 Y @.XX*.G E s.u.f.[.d.! z.p.  c.e e b.  q v.~._.Z.K.'.Z.% $ % 8 q r e a ! V FXFXFXFXFXFXFXf FXFXFX",
"FXFXFXFXFXFXFXFXFX8 = + O X S Y -.2XiX9XT T :X:.x.s.Q l.p r h.  l.d.  b.D.d.! &XSX=Xz.b.d.a 0 & O 0 e a FXFXFXFXFXFXFXu s FXFXFX",
"FXFXFXFXFXFXFXFXFXFX+ + * 5 D O.=.>X:X:X:X2X,XY Z w Q h.h.c.d.0 b.0 t !.D.d.N.ZXjXj.[.VX_.c.t d y @ = = FXFXFXFXFXFXr d FXFXFXFX",
"FXFXFXFXFXFXFXFXFXFXFXX A G Y XX8X5X5X*.T Y I Y | e u v p.c.v.b.D.d h.W.h.! &XjXj.j.(.~.]._.Q.~.!.l.v ^ FXFXFXFXFXFXu s FXFXFXFX",
"FXFXFXFXFXFXFXFXFXFXFXFX> S Y -.:X2X6X2XY Y T I N 6 $ f p d s.c.b.n.L.v.C j.&XZ.y Z.^   L._._.].}./.d.b c.FXFXFXFXFXa.d FXFXFXFX",
"FXFXFXFXFXFXFXFXFXFXFXFXFXFXFXS X.2X5X1XT U Y I N 7   ~.~.; q p f.c.c.d.f v P.v a N.N.z.K.U.e e )._.).~.]._.s.! v.J.p.FXFXFXFXFX",
"FXFXFXFXFXFXFXFXFXFXFXFXFXFXo o @ G *.2XT K L A r 6   (.x.j z 5 = t g p p < ! a n ] 4 / V.K.Q s.~.Q.Q d.).W.b j.h.h.Q FXFXFXFXFX",
"FXFXFXFXFXFXFXFXFXFXFXFXFX& + # # # V o.Y I W N : # FX~./ k c _ l Z.n.d.s.& 6 3 [ ) S ;X{ S C.C.J.L.+ d ~.v g.j.2 f W.v.u.FXFXFX",
"FXFXFXFXFXFXFXFXFXFXFXFXFX: 0 r r r 6 i E i # 6 r FXFXP.x k c x j P.(.J.s 6 7 G I B ` H.H $XDX` ` C.J._.L.! B./ 1 L.`.Q.P.FXFXFX",
"FXFXFXFXFXFXFXFXFXFXFXFXFXFX# # + + & + & + + FXFXFXFX'.k k _ k x P.b.c.r # $ N F F T B B ,.#XA xX;Xf.W.a.j.z.x a.!.L.n.jXAXAXFX",
"FXFXFXFXFXFXFXFXFXFXFXFXFXFX@ < < * @ < 1 i x 2 FXFX].[.k _ _ k / J.Z.u p g r 7 + # N F Y U Z $.@X[ s.a.~ l.! x n.L.l.W.VXCXAXFX",
"FXFXFXFXFXFXFXFXFXFXFXFX< 2 - - 1 1 < X @ < 4 2 FXFXL.K.j x z j Z.`.hXt + @ @ $ = , < # $ F F *.T B FXi g.N.v ! b.z.d.~.}.=X/.FX",
"FXFXFXFXFXFXFXFXFXFXf C C ( k.C 2 - 1 1 2 X 2 FXFXFX_.J.j c z j b.[.'.Q X < 1 1 2 - r f i u 3  .| FXFXFXFXg.i ! g.h.l.FXFXm.FXFX",
"FXFXFXFXFXFXFXFXFXi i i 4 4 ^ S.S.k.g < 1 * FXFXFXFX_.L.j l j l / D.L.u * 1 - q C k.S.S.( ( C C FXFXFXFXFXFXFXFXv v FXFXFXFXFXFX",
"FXFXFXFXFXFXFXFXFXs ~ ) x.( x E ( S.F.k.< * FXFXFXFXL.~._.(.B._ / b.Z.FXX w k.S.S.) V 4 4 i i E x FXFXFXFXFXFXFXFXFXFXFXFXFXFXFX",
"FXFXFXFXFXFXFXFXFXi d.D.K.G.G.V.[ ~ ( T.i FXFXFXFXFXFXFXFX_.[.=X[.=XFXFXFX( S.^ / / ) ) V.x.x./ ^ FXFXFXFXFXFXFXFXFXFXFXFXFXFXFX",
"FXFXFXFXFXFXFXFXFXFXFX!.<X(.T.J.I.G.^ ( FXFXFXFXFXFXFXFXFXFXFXFXFXFXFXFXFX( ( ) G.K.Z.G.K.G.S.g.s FXFXFXFXFXFXFXFXFXFXFXFXFXFXFX"
};
