/* XPM */
static char *result[] = {
/* columns rows colors chars-per-pixel */
"64 64 248 2 ",
"   c #000000",
".  c #090A0C",
"X  c #1A140D",
"o  c #070614",
"O  c #140C13",
"+  c #141414",
"@  c #1E1A11",
"#  c #151919",
"$  c #1B1C1C",
"%  c #171618",
"&  c #0D1013",
"*  c #21160A",
"=  c #251D14",
"-  c #221D1D",
";  c #271913",
":  c #3B0600",
">  c #1E201F",
",  c #343A0A",
"<  c #2B241C",
"1  c #27251A",
"2  c #332A1C",
"3  c #33271B",
"4  c #2C3618",
"5  c #35381B",
"6  c #2C2A09",
"7  c #1B1C22",
"8  c #1A1D28",
"9  c #221F20",
"0  c #1E2121",
"q  c #1E233D",
"w  c #242322",
"e  c #2A2524",
"r  c #2A2A24",
"t  c #272929",
"y  c #2B2B2A",
"u  c #272924",
"i  c #322D2B",
"p  c #352D22",
"a  c #34332C",
"s  c #393728",
"d  c #2E3132",
"f  c #343533",
"g  c #3B3433",
"h  c #3B3A34",
"j  c #3D3C3A",
"k  c #363833",
"l  c #302E2F",
"z  c #501A02",
"x  c #473416",
"c  c #473008",
"v  c #4D3B22",
"b  c #463B29",
"n  c #513E25",
"m  c #453D35",
"M  c #433A39",
"N  c #523F31",
"B  c #783C00",
"V  c #374608",
"C  c #3C4415",
"Z  c #3F5600",
"A  c #3D4228",
"S  c #3D4437",
"D  c #475703",
"F  c #434B13",
"G  c #484817",
"H  c #584817",
"J  c #4A5716",
"K  c #53581B",
"L  c #424700",
"P  c #725016",
"I  c #556300",
"U  c #54631C",
"Y  c #5A641B",
"T  c #5B6C1D",
"R  c #586918",
"E  c #5B711C",
"W  c #646D1B",
"Q  c #67751A",
"!  c #726D14",
"~  c #474629",
"^  c #565D21",
"/  c #44433C",
"(  c #4A423C",
")  c #4D493C",
"_  c #444836",
"`  c #524A37",
"'  c #47563B",
"]  c #585639",
"[  c #544027",
"{  c #665827",
"}  c #6A4C3C",
"|  c #675539",
" . c #78573B",
".. c #735428",
"X. c #5A6322",
"o. c #5D6C21",
"O. c #5C642A",
"+. c #636C24",
"@. c #656826",
"#. c #776B28",
"$. c #637423",
"%. c #6A7424",
"&. c #6A7C26",
"*. c #6D752B",
"=. c #6D7D2A",
"-. c #677923",
";. c #757E2C",
":. c #7B7C2C",
">. c #76762A",
",. c #65673C",
"<. c #6B7434",
"1. c #787C36",
"2. c #756B35",
"3. c #02154A",
"4. c #021958",
"5. c #000A4A",
"6. c #32374E",
"7. c #00036C",
"8. c #001C64",
"9. c #001D6E",
"0. c #000575",
"q. c #001E74",
"w. c #001978",
"e. c #012074",
"r. c #02227A",
"t. c #0B2476",
"y. c #14287A",
"u. c #102364",
"i. c #27316A",
"p. c #394346",
"a. c #39425E",
"s. c #454642",
"d. c #4A4640",
"f. c #4A4A45",
"g. c #4D4D4A",
"h. c #454948",
"j. c #544C44",
"k. c #524E4A",
"l. c #5A4F47",
"z. c #4C5647",
"x. c #52524C",
"c. c #5B544B",
"v. c #5A5547",
"b. c #555552",
"n. c #5A5653",
"m. c #5B5A54",
"M. c #5D5D5A",
"N. c #55585A",
"B. c #4C5156",
"V. c #635B4D",
"C. c #645847",
"Z. c #795B4A",
"A. c #635D55",
"S. c #625E5B",
"D. c #57664A",
"F. c #5B635A",
"G. c #5C7051",
"H. c #66654E",
"J. c #77674A",
"K. c #646354",
"L. c #6B6554",
"P. c #63625D",
"I. c #69655D",
"U. c #6B6A59",
"Y. c #75695A",
"T. c #787655",
"R. c #6C7654",
"E. c #575A6B",
"W. c #5D6968",
"Q. c #656562",
"!. c #6A6663",
"~. c #676964",
"^. c #6C6B64",
"/. c #6C6C6A",
"(. c #726D64",
"). c #726D6C",
"_. c #6B726B",
"`. c #74726C",
"'. c #7A746C",
"]. c #777567",
"[. c #767471",
"{. c #7B7A74",
"}. c #7D7C79",
"|. c #787876",
" X c #697776",
".X c #645F61",
"XX c #89780C",
"oX c #8B7533",
"OX c #845E36",
"+X c #876945",
"@X c #86784B",
"#X c #846652",
"$X c #8A7754",
"%X c #96795C",
"&X c #907041",
"*X c #827869",
"=X c #827E7D",
"-X c #827E74",
";X c #977B62",
":X c #A37B63",
">X c #7B852D",
",X c #77862C",
"<X c #7C8736",
"1X c #7E8440",
"2X c #84872A",
"3X c #838C33",
"4X c #8A8839",
"5X c #97883B",
"6X c #8B9434",
"7X c #889439",
"8X c #949A3A",
"9X c #96882C",
"0X c #99A239",
"qX c #A5AD3B",
"wX c #AF973F",
"eX c #868845",
"rX c #9A8D43",
"tX c #8D9543",
"yX c #979746",
"uX c #878656",
"iX c #9C9251",
"pX c #A4954A",
"aX c #A88E56",
"sX c #9CA54A",
"dX c #ABA855",
"fX c #B6A65B",
"gX c #ABB555",
"hX c #AAB055",
"jX c #83817C",
"kX c #898478",
"lX c #92876F",
"zX c #A9906B",
"xX c #B6A96C",
"cX c #C1B268",
"vX c #C1987F",
"bX c #BEC066",
"nX c #CDC45F",
"mX c #001D8C",
"MX c #042584",
"NX c #7E7E81",
"BX c #768E8A",
"VX c #888684",
"CX c #969383",
"ZX c #978F81",
"AX c #B1A88E",
"SX c #A29988",
"DX c #C8A784",
"FX c None",
/* pixels */
"FXFXFXFXFXFXFXFXFXFXFXFXFXFXFXFXFXFXFXFXFXFXFXFXFXFXFXFXFXFXFXFXFXFXFXFXFXFXFXFXFXFXFXFXFXFXFXFXFXFXFXFXFXFXFXFXFXFXFXFXFXFXFXFX",
"FXFXFXFXFXFXFXFXFXFXFXFXFXFXFXFXFXFXFXFXFXFXFXFXFXFXFXFXFXFXFXFXFXFXFXFXFXFXFXFXFXFXFXFXFXFXFXFXFXFXFXFXFXFXFXFXFXFXFXFXFXFXFXFX",
"FXFXFXFXFXFXFXFXFXFXFXFXFXFXFXFXFXFXFXFXFXFXFXFXFXFXFXFXFXFXFXFXFXFXFXFXFXFXFXFXFXFXFXFXFXFXFXFXFXFXFXFXFXFXFXFXFXFXFXFXFXFXFXFX",
"FXFXFXFXFXFXFXFXFXFXFXFXFXFXFXFXFXFXFXFXFXFXFXFXFXFXFXFXFXFXFXFXFXFXFXFXFXFXFXFXFXFXFXFXFXFXFXFXFXFXFXFXFXFXFXFXFXFXFXFXFXFXFXFX",
"FXFXFXFXFXFXFXFXFXFXFXFXFXFXFXFXFXFXFXFXFXFXFXFXFXFXFXFXFXFXFXFXFXFXFXFXFXFXFXFXFXFXFXFXFXFXFXFXFXFXFXFXFXFXFXFXFXFXFXFXFXFXFXFX",
"FXFXFXFXFXFXFXFXFXFXFXFXFXFXFXFXFXFXFXFXFXFXFXFXFXFXFXFXFXFXFXFXFXFXFXFXFXFXFXFXFXFXFXFXFXFXFXFXFXFXFXFXFXFXFXFXFXFXFXFXFXFXFXFX",
"FXFXFXFXFXFXFXFXFXFXFXFXFXFXFXFXFXFXFXFXFXFXFXFXFXFXFXFXFXFXFXFXFXFXFXFXFXFXFXFXFXFXFXFXFXFXFXFXFXFXFXFXFXFXFXFXFXFXFXFXFXFXFXFX",
"FXFXFXFXFXFXFXFXFXFXFXFXFXFXFXFXFXFXFXFXFXFXFXFXFXFXFXFXFXFXFXFXFXFXFXFXFXFXFXFXFXFXFXFXFXFXFXFXFXFXFXFXFXFXFXFXFXFXFXFXFXFXFXFX",
"FXFXFXFXFXFXFXFXFXFXFXFXFXFXFXFXFXFXFXFXFXFXFXFXFXFXFXFXFXFXFXFXFXFXFXFXFXFXFXFXFXFXFXFXFXFXFXFXFXFXFXFXFXFXFXFXFXFXFXFXFXFXFXFX",
"FXFXFXFXFXFXFXFXFXFXFXFXFXFXFXFXFXFXFXFXFXFXFXFXFXFXFXFXFXFXFXFXFXFXFXFXFXFXFXFXFXFXFXFXFXFXFXFXFXFXFXFXFXFXFXFXFXFXFXFXFXFXFXFX",
"FXFXFXFXFXFXFXFXFXFXFXFXFXFXFXFXFXFXFXFXFXFXFXFXFXFXFXFXFXFXFXFXFXFXFXFXFXFXFXFXFXFXFX!.n.FXFXFXFXFXFXFXFXFXFXFXFXFXFXFXFXFXFXFX",
"FXFXFXFXFXFXFXFXFXFXFXFXFXFXFXFXFXFXFXFXFXFXFXFXFXFXFXFXFXFXFXFXFXFXFXFXFXFXFXFXFXFXFX|.!.FXFXFXFXFXFXFXFXFXFXFXFXFXFXFXFXFXFXFX",
"FXFXFXFXFXFXFXFXFXFXFXFXFXFXFXFXFXFXFXFXFXFXFXFXFXFXFXFXFXFXFXFXFXFXFXFXFXFXFXFXFXFX=X=XS.FXFXFXFXFXFXFXFXFXFXFXFXFXFXFXFXFXFXFX",
"FXFXFXFXFXFXFXFXFXFXFXFXFXFXFXFXFXFXFXFXFXFXFXFXFXFXFXFXFXFXFXFXFXFXFXFXFXFXFXFXFXFX=X[..XFXFXFXFXFXFXFXFXFXFXFXFXFXFXFXFXFXFXFX",
"FXFXFXFXFXFXFXFXFXFXFXFXFXFXFXFXFXFXFXFXFXFXFXFXFXFXFXFXFXFXFXFXFXFXFXFXFXFXFXFXFX).[..X^.FXFXFXFXFXFXFXFXFXFXFXFXFXFXFXFXFXFXFX",
"FXFXFXFXFXFXFXFXFXFXFXFXFXFXFXFXFX3.5.6.x.f.FXFXFXm.M.FXFXFXFXFXFXFXFXFXFXFXFXFXI.).[.|.).FXFXFXFXFXFXFXFXFXFXFXFXFXFXFXFXFXFXFX",
"FXFXFXFXFXFXFXFXFXFXFXFX3.4.4.8.q.r.w.B.d.d FXFXFXn.n.FXFXFXFXFXFXFXFXFXFXQ.`.`.!.S.NX=X).I.FXFXFXFXFXFXFXFXFXFXFXFXFXFXFXFXFXFX",
"FXFXFXFXFXFXFXFXFX4.8.9.e.e.t.MXMXr.t.h.h j f.FXj / / y FXFXFXFXFXFXFXFXFXn.~./.S.).|.!.^.P.^.A.FXFXFXFXFXFXFXFXFXFXFXFXFXFXFXFX",
"FXFXFXFXFXFXFXFXFX8.r.r.e.e.q.y.t.t.u.j.S.S.m.M.F.S.M.P.S.f.M / / g.b.P.~.n.F.~.^./.!.S.!./.`.~.FXFXFXFXFXFXFXFXFXFXFXFXFXFXFXFX",
"FXFXFXFXFXFXFXFXFX8.e.w.r.t.y.0.0.0.3.kX{.m.^.|.|.{.}.`.[.Q.x.~.!.P.`.|.`.m.F.F.S.Q.Q.~.Q.Q.Q.S.FXFXFXFXFXFXFXFXFXFXFXFXFXFXFXFX",
"FXFXFXFXFXFXFXFXFX9.9.9.t.7.N.*Xn.6.a.CX/.S.{.{.).{.}.[.~.P.b.m.P..X'.*XkXm.^.[.).).)./././.M.D.2XFXFXFXFXFXFXFXFXFXFXFXFXFXFXFX",
"FXFXFXFXFXFXFXFXFX3.4.8.8.8.7.=XDXzX@Xt c.~.~.!.I.~./.^.^.M.P.s.~ $XxXAXAX_.`.{.S.).).).[.`./.T.0X:.FXFXFXFXFXFXFXFXFXFXFXFXFXFX",
"FXFXFXFXFXFXFXFXFX8.9.e.t.t.w.0.E.kXJ.j x.b.P.Q.!.P.b.b.m.S.M.h.Y.xXAXL.].'.|.|./.=X=X)./.`.Q.tX8X6X@.FXFXFXFXFXFXFXFXFXFXFXFXFX",
"FXFXFXFXFXFXFXFXFX6.w.r.w.q.r.y.0.0.q f.P.~.jX}.}.jX_.Q.Q.k.b.k.g 3     A.-X=XVX-X).!.S._._.K.0X0X3X>.FXFXFXFXFXFXFXFXFXFXFXFXFX",
"FXFXFXFXFXFXFXFXFXF.7.t.r.r.r.r.MXy.s.c.] } Z.C.C.Y.#XZ.U.Y.x.g.# # r % x.{.CXCXCX-X].].'.S.1XqX0X3X;.FXFXFXFXFXFXFXFXFXFXFXFXFX",
"FXFXFXFXFXFXFXFXQ G.7.y.t.t.MXMXMXMXb.V.{ c P P P P B z XXT.b./ r $ w   m.{./.].'.].'.'.(.n.8XqX7X<X>XFXFXFXFXFXFXFXFXFXFXFXFXFX",
"FXFXFXFXFXFXFX4 U +.8.w.w.w.mXmXmX0.A.A.i <.2.z 6 2.oX@.! ^ Y.j.u $ w   G.kX6.z.4X@XuXuX*XT.8X8X>X,X>X*.FXFXFXFXFXFXFXFXFXFXFXFX",
"FXFXFXFXFXFXK @.*.T 6.i.i.a.B.b.E.E.Y.l.6 yXdX..OXfXgX:.C D J.A.w $ $   f.].p.b.2X2X2X2X6X6X6X2X,X-.&.o.FXFXFXFXFXFXFXFXFXFXFXFX",
"FXFXFXFXFX1.sXdXrX$.R Q ,XQ ! I ~.W.A.) F 4XpXpXpXfXsX4X,.D ,.c.u > > . _ `.1XE.%.:.2X2X2X;.3X,XE U U E $.,XFXFXFXFXFXFXFXFXFXFX",
"FXFXFXFXFXeXfXcXdX7X,XE ,X&.+.T D.F.C.J.Y @.oXpXwXoX>XuXT.I ] ` a > > & a _.BXa.K X.+.*.;.,X,X&.U >.;.-.8XsX<XFXFXFXFXFXFXFXFXFX",
"FXFXFXFXFX4XaXcXbXgXsX,XE o.U FXFXm.C.%X^ x J.<X@XH , J.uXI ] v.a > 0 # 8 p.1XE.L K K +.&.*.T R o.rXfXdXgXgX7XFXFXFXFXFXFXFXFXFX",
"FXFXFXFXFXrX5XiXhXgXgX6X<Xo.C FXFXFXC.%X;X#XlX .zXl.J.#X+XI ] H.4 > # # 0 8 a.NXFXFXFXFXo.U U =.3XdXfXfXxXhXtXFXFXFXFXFXFXFXFXFX",
"FXFXFXFXFXoX5X5XtXsXgX<XsXeX@.FXFXFXc.&XzX%X:X .:X#X%X+X .I | A.$ $ $ % + $ FXFXFXFXFXFXK $.=.tXsXxXxXyXpXdXsXFXFXFXFXFXFXFXFXFX",
"FXFXFXFXFX#.5X4XyXsXsX<X<XyX<.FXFXFXFXFX&XoX..OXOX+X+X} { D ) j.  & % $ + FXFXFXFXFXFXFXO.=.,XtXyXiXiX5X5XpXsX1XFXFXFXFXFXFXFXFX",
"FXFXFXFXFXFX*.6X6X7XtX<.<X<.FXFXFXFXFX{ oX{ H #.x #.oXH { D.S.A.f.s.y   . FXFXFXFXFXFXFXFXO.<.tXtX4X4X5X5X5X7XFXFXFXFXFXFXFXFXFX",
"FXFXFXFXFXFXFX,X-.T $.X.X.FXFXFXFXFXM.J.oXoXwXnXoXXX9X! C.[.`.'.'.*XY.f f FXFXFXFXFXFXFXFXFX*.1XtX4X4X5XoX4XFXFXFXFXFXFXFXFXFXFX",
"FXFXFXFXFXFX$.,X=.T U J , FXFXFXFXI.'.`._.].@XrXpXzXlX(.b.h.g.b.c.c.V.v.V.FXFXFXFXFXFXFXFXFXO.$.$.,X*.;.6X4XFXFXFXFXFXFXFXFXFXFX",
"FXFXFXFXFX+.o.o.&.&.U C , , FXFXFXM._.U.^.{.`.N.!.=XVXVXVX}.F.b.b.m.k.M m FXFXFXFXFXFXFXFXFXU T J J C o.$.;.FXFXFXFXFXFXFXFXFXFX",
"FXFXFXFXFXFX*.X.J ^ J V p s 5 FXFXB.`.A.p L.kX{._.^.{.}.VXVX|./.Q.M.F.k.p FXFXFXFXFXFXFXFXC K F C , C X.J T X.FXFXFXFXFXFXFXFXFX",
"FXFXFXFXFXFXFX,XJ V A M M g i FXFXx.b.m.P.].Y.c.( !./.F.x.P.[.}.=X}.).N.b.FXFXFXFXFXFXFXFX5 5 5 5 6 , J $.&.FXFXFXFXFXFXFXFXFXFX",
"FXFXFXFXFXFXFXFXK h M g i e e - ~ w `././ F.^.c.k.).k.n.n.a w m./.}.VXVX}.~.N.h.FXFXFXFXp l l M g m 5 F $.o.FXFXFXFXFXFXFXFXFXFX",
"FXFXFXFXFXFXFXFXs M p i e 9 o G %.T A s.g.jXm.s.h.B.k.A.A.  j f.  s.m.`.jXVX[.!.( FXFXFXe e e i i m m ~ J FXFXFXFXFXFXFXFXFXFXFX",
"FXFXFXFXFXFXFXFXFXy w e - O 3 { #.oX,XY ~ f.p.g.1XB.s.c.d.  b.y y m.  w b.^.'.V.L.].A.% % $ 9 1 e y g M A FXFXFXFXFXFXFXf FXFXFX",
"FXFXFXFXFXFXFXFXFX7 7 X O X G +.;.2XyX8XW Q ;.<.m.f./ j.a t k.  x.x.  m.P.g.( ].SXkXn.n.g.g w O O e i a FXFXFXFXFXFXFXf h FXFXFX",
"FXFXFXFXFXFXFXFXFXFXX % * 6 H #.:.,X>X,X>X3X>XQ D t / j.g.b.g.w m.w i !.F.g.V.ZX-Xl.|.VX].x.i j y @ 9 - FXFXFXFXFXFXu h FXFXFXFX",
"FXFXFXFXFXFXFXFXFXFXFXX F J W oX9X6X6X,XQ W R W X.d a h h.b.n.m.M.k x.~.z.( *XlXl.l.(.(.{.`.!.^.!.k.m _ FXFXFXFXFXFXl h FXFXFXFX",
"FXFXFXFXFXFXFXFXFXFXFXFX, G +.;.>X3X7X3XW Q Q Y C 0 $ h k h j.b.N.S.S.N.j l.*XA.p A.m   A.[.[.[.{.).g.M x.FXFXFXFXFXf.j FXFXFXFX",
"FXFXFXFXFXFXFXFXFXFXFXFXFXFXFXG +.2X6X2XQ W R R 5 7   ^.I.* e l h.b.n.g.k ( L.m s c.V.c.U.Y.y y /.`./._.`.`.g.( m.K.d.FXFXFXFXFX",
"FXFXFXFXFXFXFXFXFXFXFXFXFXFXo o @ J ,X3X%.R J J 4 7   `.A.c v 3 = a d f f e ( d N } 5 ` C.L.( d.^.~./ z._.I.m l.l.f.M FXFXFXFXFX",
"FXFXFXFXFXFXFXFXFXFXFXFXFX& + # $ # s +.W Y ^ C $ # FX~.d.x v n c m.M.j.d.. 7 4 | | G :X .G Z.C.K.P.% M ).M j.l.< g ~.m.p.FXFXFX",
"FXFXFXFXFXFXFXFXFXFXFXFXFX0 u u t t 0 a ~ s # 8 u FXFXI.b x v v x P.(.K.j 0 8 ^ Y V X.J.V %XDX..{ Z.F.].I.M V.( < I.[.~.(.FXFXFX",
"FXFXFXFXFXFXFXFXFXFXFXFXFXw 0 $ $ # # & o & t t FXFXFX(.v v v v v I.F.c.w # 8 C J D Q D D 2.@XF vX:Xp.P.d.j.c.m d./.P.m.lXAXAXFX",
"FXFXFXFXFXFXFXFXFXFXFXFX+ & + + + + # 0 y l u O FXFX[.{.x n n x ` A.M.P.d # # & o 4 J D T Q D *.@X| f.d.d.c.) b m.P.x.Q.VXCXAXFX",
"FXFXFXFXFXFXFXFXFXFXFXFX# $ $ 0 w t d k d 0 . FXFXFXI.P.x x n c K.{.jXP.0 f d t 0 % # 1 K U J ,XQ V FXs j.C.b / n.b.x./.|.=X/.FX",
"FXFXFXFXFXFXFXFXFXFXFXFXFX# # + & + + + + # FXFXFXFX].K.x v v c V.{.].m.1 & # # $ 0 w 0 $ $ C @.R FXFXFXFXj.b ( j.j.k.FXFXb.FXFX",
"FXFXFXFXFXFXFXFXFXFXFXFXFXFX0 # # # # $ 0 $ FXFXFXFX`.P.c x x c ` M.A.I./ . # + + & + + $ FXFXFXFXFXFXFXFXFXFXFX_ M FXFXFXFXFXFX",
"FXFXFXFXFXFXFXFXFXFXFXFXFXFX# - 1 w w u e 3 FXFXFXFXI.^.].(.v.` ) M.A./.@ 1 7 7 $ $ 7 7 FXFXFXFXFXFXFXFXFXFXFXFXFXFXFXFXFXFXFXFX",
"FXFXFXFXFXFXFXFXFXFXFXFXFX@ X 1 ; = = < b b 2 FXFXFXFXFX^.].{.kX{.-XkXFX2 b r 1 1 - 1 + X FXFXFXFXFXFXFXFXFXFXFXFXFXFXFXFXFXFXFX",
"FXFXFXFXFXFXFXFXFXFXFX> 1 @ ; 2 2 = @ = = b = FXFXFXFXFXFXFXFXFXP.(.FX= 2 3 = @ ; = 2 3 ; * FXFXFXFXFXFXFXFXFXFXFXFXFXFXFXFXFXFX",
"FXFXFXFXFXFXFXFXFXa S ' z.D._ 3 ; 2 2 < @ = FXFXFXFXFXFXFXFXFXFXFXFXFXFX= @ = 3 2 3 ; r k k a 1 FXFXFXFXFXFXFXFXFXFXFXFXFXFXFXFX",
"FXFXFXFXFXFXFXFXs b s 5 4 _ D.D.' a ; < = FXFXFXFXFXFXFXFXFXFXFXFXFXFXFXFX= 3 ; e S z.D.D.' ' _ k FXFXFXFXFXFXFXFXFXFXFXFXFXFXFX",
"FXFXFXFXFXFXFXFXh ) ` v.` ~ b _ D.G.z.1 = FXFXFXFXFXFXFXFXFXFXFXFXFXFXFXFX@ u z.G.D.' A 4 5 s s ~ s FXFXFXFXFXFXFXFXFXFXFXFXFXFX",
"FXFXFXFXFXFXFXFXs z.K.H.L.V.H.v.` ' G.s FXFXFXFXFXFXFXFXFXFXFXFXFXFXFXFXFXFX' D.~ ` ` ] ] C.C.v.) _ FXFXFXFXFXFXFXFXFXFXFXFXFXFX",
"FXFXFXFXFXFXFXFXFXFXU.].R.R.U.H.U.' ' FXFXFXFXFXFXFXFXFXFXFXFXFXFXFXFXFXFXFX' _ v.C.H.K.K.K.L.D.j._ FXFXFXFXFXFXFXFXFXFXFXFXFXFX"
};
