/* XPM */
static char *adc9e5f298434a2082e81033683362f6lSl3QAHEQk2dT18G[] = {
/* columns rows colors chars-per-pixel */
"64 64 53 1 ",
"  c gray1",
". c gray2",
"X c #090909",
"o c #0E0E0E",
"O c gray7",
"+ c gray8",
"@ c #1B1B1B",
"# c #1E1E1E",
"$ c #232323",
"% c #252525",
"& c gray17",
"* c #2D2D2D",
"= c #323232",
"- c #353535",
"; c gray22",
": c #3F3F3F",
"> c gray26",
", c #464646",
"< c gray29",
"1 c gray31",
"2 c #505050",
"3 c #555555",
"4 c gray35",
"5 c #5F5F5F",
"6 c #606060",
"7 c gray40",
"8 c gray42",
"9 c #6C6C6C",
"0 c gray44",
"q c #747474",
"w c gray48",
"e c gray50",
"r c #818181",
"t c gray53",
"y c #898989",
"u c #8E8E8E",
"i c #939393",
"p c #959595",
"a c #9B9B9B",
"s c gray62",
"d c #A0A0A0",
"f c #A4A4A4",
"g c #AAAAAA",
"h c gray67",
"j c #B2B2B2",
"k c #B7B7B7",
"l c #B9B9B9",
"z c gray75",
"x c #C1C1C1",
"c c gray76",
"v c gray79",
"b c gray81",
"n c #D2D2D2",
/* pixels */
"+#=:-+.X@*,3596&=>;;>-=-:;:;--==-**-;---=*==----*&--%=:-3385**:#",
"+=<&oXX.&377ty5>:4<<1>>,<<,,>>:;>;;:,>:>:;:;;::;;,:=;<,;>t8;2,&=",
"+=:+ +==;298er<:;52,<>,,,,>::;:;>:;:>::::::>::::>1;-,,:17w71<,;%",
"OOX o%:34:808w3=-53,,:,>,>>;;::>>:::::::<<,,,,>,>>:,1>19y58q1:1$",
"X. .$=>38,688e6:;63>>:,>,>>:::,,:>>::>>>1<1<<<<,,:,2140w543791;=",
" .O@*:<154249q4>:52,,:>,>,>>>,,<>,,>:,<<1<<<<<<<,:134wr4-31295:%",
" .@$*:>>,4<5856:,4<,<;>>>,,,<<<1><<,,133,<<<<1<1<<160w6>>>,243:X",
" o*:,,>><33q43w-<3,,<::,>>,<<<1<,11<,244<<<1<112212wu6-:>=&>4<$.",
" o;1331<14<5yq,173<<,:;,>;,<<,<,,>>,<21,,1,,3,:32<wi5::*;=:>1:. ",
" X%<5325454<4uw#232<>>>:,:,1<,,>,>>,1<<,<><1:13><ey7,;-:==>>;#  ",
".O&:12234154,8e1221<,>>:<>,1,>,:>,,<<<,,1:<<:,2,0u9:,1-=&>1=+X.o",
"o$;*-2411<252>2r92,1<;-<<>,<,,,><<<,>>,,<,:,2,,9u8,><<;&*<>+ O$O",
"O*>**,4424<>42,6r611<;;,,:,<,,<<<1<,:>,<>,:,214y5<><,-->:;$XX%-@",
"@*,,:;>231>,12110071,<,;,;><,,<<1<,>>>,<<><,;309;<:-,:-1:+ @&&-$",
"$-241;-;1>13,:12<8q51<<:<:><,><<1<,,11<,<,<14yi994;=<2:-#oo-:->%",
"@=4441>=144,><<>=4eq5,,,1>,<>>,,,,,122<:>1,6dxllk8<<;,<% @=>:>2$",
"#=58873<=;5221>qxvbzt2,3<>;:>;>21<,,,>>>,17yjza71q316>+.%=;><32*",
"#-467642::14410znkggdu8:<<>;>1<;-,<,>,,,>wrpzi,<23:<<@X#=;>,<11&",
"$-4555532<:112undwqeq008:<1>;:>:<>:>,<<,8w40jr->,;%=% O;:,<<<1,&",
"#-33354324:>>2ig6;<6=#3y1,,<;=;13>-><<49p5:4re1*=&$+o+=:,,<<11<&",
"@=33443316,,><ti5*>2$o;6w2>,>:>;;><114wp7>,4351#$+O.o-<><<<1<<<&",
"@=3333323422;=5w5>:*+#,1r971:<<-:<217re7-;:::,:#+ .o%><<31<<<,>&",
"+*1111235252;-->>;&oX&2479e9,,1,2225wt6=,<:*-:*#X.+$-,>32<,<,>:&",
"@*11<1235261,5-+&$oo$;12428w51111<4ee5:;-;<<;:1: +=*;1,5<>:,,,,*",
"+&<12224335313<+&*-=;<<><2<tt<431,0y4;>-=>>;,2-o#&=;>,<1>>,,>,,&",
"@&<222347564483$-:,,<>>,;4<;ep32>7w5:->,>-:<,&OX&=;>,>,,>>,,,<<*",
"+&<122345455604#>;:231<13-2<>tp3yi5*--*::-;,=oX$-;>>>>>>,,<<111=",
"+%<222343366802+<-=>3521,6>1,:tiyr1&>,-;:>:%oO&:;:>,<<<<<111223-",
"+&<222233477683$4<;-,33<,5>2<-wt:605<<,:<>%.X*>:>,,<<<<12223234-",
"O&1222133353263&24<:;1343*1<:qq;>>8y9126>$.o*<<:<111<<<<2232333-",
"+&1221<12122384*2331>>14<4>;qq==2=>qt965#oo%,2<><<11<<112333323-",
"+&<331<11<358w7&5343<;->64>eq%-:=12<8y3 .@=>>>,,>,<<12343333222=",
"O&,>,<1<1245574>7322<11:>5e8;;,*:>>><1& @#*:,,<11111111141>,231&",
"+&,>>,1<2234585:376342,>$5uq-*;=:<31&. o&-:>133<1<1<111<3211221*",
"+&>>><112113683-371<74><59q81;--;22$.o++&:<,153<1<<<<,<<,,<,>:>&",
"O&<,<11<<,14562-64,16218y6<58<*;<<&  *>-%:11<21,11<,,,,,<<11111=",
"+*12222<,<37762>6676349r2;;502;<1%XXO#;6<<<<<,,,1<,>>>,,<1<1244-",
"+*23221,,<69964<66766wq2=-;,363,&o.O%*>3w7111<,,<,,>>>,,<,,1232*",
"@*2111<>>,49974,8745qw3%>:-=>64$.XoO*12>097421,><,>>>>,<2244322=",
"@*1<,,<,:;<7973>898qr2*:-*;;;1:.XO$=-;,3>7e82,>>,,>::><<<232<:>&",
"+*11,,,,<;3259<1w28e2-;==;-->;@ O**&><><,<1wq1,,>><,:13,221<<,>%",
"@*<,,,<,>;631w6-5yt3;;;;:=*;:%  o+-<;:1<>227ww9,,,<<:,21221<<,>&",
"#*,>,<<<<182202*8q4-*-:,;-==%o X++;3,:<<,5337wq11,11,,13<<<<,<,&",
"@&:>,<<,,33<76:4t4<<:><;;>;#XXO@%*&:52><2321237852121<12<,,<,,>&",
"+%:>,,,:251<63,w4<<1>,,-,-$X.@&=;>*&25221,12116r06224211,>>,,,,%",
"+$;:,,>:214329rr05-*,;=<,@ X#*-;>;;-=284<><<1237r05354<,>,>>>>>%",
"O%:::>>,,,359dzagp3;1:*<&..@&->>,:,>*;453>,><325tt9442,,>>>>:>:%",
"O%:;::,14768ujgi4tt<*<1& o$*&:1,<2,:>=-47>><257yyie621,,>,>>:::$",
"+$<2>,3285rewfu<<3422,%.+#*;>,<<<221,>;*67853elnggt3<32>:,<>::-$",
"+*,><2456rw3ws6=%=;=&$+.$&-><<1<21122<,,;7q5qzbpyutw9412,,>;->:#",
"O*,<5438eu5*7r3:&&&#o.o@=;,123224<<24235,137pzf63460rw4<,>>;=:>@",
"O%,2636ty5>:,55,=&#@o.@=><223333321344566;=3tpq3>,:;4083<:<1-;>#",
"@%>237rt4=;1;,2&%O..XO%>11333323146435522<;:5e9,>,=O@:7r71<2:-:$",
"+&357tr2;>::-,<%@.  o+*>233321121706354<>1,-,3,&%#+@*;3qt7<,,>-#",
"@=60ww4*:2>-->1*+oXO#%->33321<1128q7211<<,>:>*#$X.o=33<10q4,1<:%",
"#;60q1*>;;-,:;<%..o@%->133321<<127961::,11:-;=&*O%=:241,>q0122,=",
"$;et3;:-:-1>;,%  O#&*;<31333<<<<1331>>,<,>>::;;:<<<1122221ee:>5%",
"#1w4<,::<;;:,*.Xo@&-;><3334321<<1<<>>,>:,,,>>;-->366422<113wr<>5",
"=4q>=::;,1<<5* ##&;,<<2445543211>>:;:>:;,<<<,>::*:4972<22678ruy2",
"*-44:&<>=2,*;$ @$*:<<11244332<,,,11<>><1,,,<,>;;=%;682<323427ar@",
"@@,1@.,-<,% o+X+=;<3444565544221:>,:;;>>12321,::,--<54214:;8y3&#",
"O@O.  <,2$oX@$oO-;<244445433321<1<,,132,:>,<<,,,>>-&;44,,:5e6=**",
"o.    oo    .   ....oXXXXXXXXXX......XX. ........... .XX X+X  XO",
"-$#   ,= .$*;=%>1345555476455543123345775543211<,<<:&%-<,02#*-*,"
};
