/* XPM */
static char *e0ae36bc88f04c4aa33e604186c5eeb3TjbQHwenAdoxAHnL[] = {
/* columns rows colors chars-per-pixel */
"64 64 256 2 ",
"   c black",
".  c #010101",
"X  c #020202",
"o  c gray1",
"O  c #040404",
"+  c gray2",
"@  c #060606",
"#  c #070707",
"$  c gray3",
"%  c #090909",
"&  c #0B090A",
"*  c gray4",
"=  c #0B0B0B",
"-  c #0C0C0C",
";  c gray5",
":  c #0E0E0E",
">  c gray6",
",  c #101010",
"<  c #111111",
"1  c gray7",
"2  c #131313",
"3  c gray8",
"4  c #151515",
"5  c #161616",
"6  c gray9",
"7  c #181818",
"8  c #191919",
"9  c gray10",
"0  c #1B1B1B",
"q  c gray11",
"w  c #1D1D1D",
"e  c #1F1D1E",
"r  c #1E1E1E",
"t  c gray12",
"y  c #201E1F",
"u  c #211F20",
"i  c #202020",
"p  c gray13",
"a  c #222222",
"s  c #232323",
"d  c #252122",
"f  c #242223",
"g  c gray14",
"h  c #252525",
"j  c gray15",
"k  c #272727",
"l  c #282627",
"z  c #282828",
"x  c gray16",
"c  c #2A2A2A",
"v  c gray17",
"b  c #2F2B2C",
"n  c #2C2C2C",
"m  c #2D2D2D",
"M  c #2E2C2D",
"N  c gray18",
"B  c #2F2F2F",
"V  c #312D2E",
"C  c gray19",
"Z  c #313131",
"A  c #323031",
"S  c #333132",
"D  c #323232",
"F  c gray20",
"G  c #343233",
"H  c #343434",
"J  c #353535",
"K  c gray21",
"L  c #373737",
"P  c gray22",
"I  c #393939",
"U  c #3A3A3A",
"Y  c gray23",
"T  c #3D3B3C",
"R  c #3C3C3C",
"E  c gray24",
"W  c #3F3D3E",
"Q  c #3E3E3E",
"!  c #3F3F3F",
"~  c #413F40",
"^  c gray25",
"/  c #414141",
"(  c #424041",
")  c gray26",
"_  c #434343",
"`  c #454142",
"'  c #444243",
"]  c #454344",
"[  c #444444",
"{  c gray27",
"}  c #464445",
"|  c #474546",
" . c #464646",
".. c gray28",
"X. c #484445",
"o. c #484647",
"O. c #494748",
"+. c #484848",
"@. c #494949",
"#. c #4A4849",
"$. c #4B494A",
"%. c gray29",
"&. c #4B4B4B",
"*. c #4C4A4B",
"=. c #4D4B4C",
"-. c #4C4C4C",
";. c gray30",
":. c #4E4C4D",
">. c #4F4D4E",
",. c #4E4E4E",
"<. c gray31",
"1. c #514D4E",
"2. c #504E4F",
"3. c #514F50",
"4. c #505050",
"5. c #515151",
"6. c #525051",
"7. c #535152",
"8. c gray32",
"9. c #535353",
"0. c #555152",
"q. c #545253",
"w. c #565253",
"e. c #555354",
"r. c #575354",
"t. c gray33",
"y. c #555555",
"u. c #565455",
"i. c #575556",
"p. c #565656",
"a. c gray34",
"s. c #595758",
"d. c #585858",
"f. c gray35",
"g. c #5A5859",
"h. c #5A5A5A",
"j. c #5B5B5B",
"k. c #5D595A",
"l. c #5C5A5B",
"z. c #5D5B5C",
"x. c gray36",
"c. c #5D5D5D",
"v. c #5E5C5D",
"b. c #5F5D5E",
"n. c gray37",
"m. c #5F5F5F",
"M. c #605C5D",
"N. c #615D5E",
"B. c #605E5F",
"V. c #615F60",
"C. c #635F60",
"Z. c #606060",
"A. c gray38",
"S. c #626262",
"D. c gray39",
"F. c #646061",
"G. c #656364",
"H. c #646464",
"J. c #656565",
"K. c gray40",
"L. c #676767",
"P. c #686465",
"I. c #6A6667",
"U. c #686868",
"Y. c DimGray",
"T. c #6A6A6A",
"R. c gray42",
"E. c #6C6A6B",
"W. c #6D6B6C",
"Q. c #6C6C6C",
"!. c #6D6D6D",
"~. c #6E6C6D",
"^. c gray43",
"/. c #6F6F6F",
"(. c #706C6D",
"). c #716D6E",
"_. c #716F70",
"`. c gray44",
"'. c #717171",
"]. c #727071",
"[. c #727272",
"{. c gray45",
"}. c #747474",
"|. c gray46",
" X c #767676",
".X c #777777",
"XX c #787677",
"oX c gray47",
"OX c #797979",
"+X c gray48",
"@X c #7B7B7B",
"#X c #7C7A7B",
"$X c #7E7A7B",
"%X c #7C7C7C",
"&X c gray49",
"*X c #7E7C7D",
"=X c #7E7E7E",
"-X c gray50",
";X c #808080",
":X c #818181",
">X c gray51",
",X c #838383",
"<X c #848484",
"1X c gray52",
"2X c gray53",
"3X c #888687",
"4X c #898788",
"5X c #888888",
"6X c #8B898A",
"7X c gray54",
"8X c #8B8B8B",
"9X c #8C8889",
"0X c gray55",
"qX c #8D8D8D",
"wX c #8E8E8E",
"eX c gray56",
"rX c #918F90",
"tX c #909090",
"yX c gray57",
"uX c #929091",
"iX c #939393",
"pX c #949293",
"aX c gray58",
"sX c #959595",
"dX c #979596",
"fX c #979797",
"gX c #989898",
"hX c gray60",
"jX c #9B9B9B",
"kX c gray61",
"lX c #9D9D9D",
"zX c gray62",
"xX c #9F9F9F",
"cX c #A0A0A0",
"vX c gray63",
"bX c #A2A0A1",
"nX c #A2A2A2",
"mX c gray64",
"MX c #A5A3A4",
"NX c #A4A4A4",
"BX c #A5A5A5",
"VX c gray65",
"CX c #A8A6A7",
"ZX c #A9A9A9",
"AX c #AFAFAF",
"SX c gray69",
"DX c #B3B1B2",
"FX c #B4B4B4",
"GX c #BAB8B9",
"HX c #C7C5C6",
"JX c #C8C6C7",
"KX c #CCCACB",
"LX c #D1CFD0",
"PX c #D3D1D2",
"IX c #EBE9EA",
"UX c #F8F6F7",
/* pixels */
"  k D.p.  i v D N v v v k k N v N H D H 3 > P N   H n.8.  v L.;.  q 8.h.  q 8.h.0 >   ;.%.i ) 8.8.p.! h.8.;.h.) { ! $ U 8.  k %.",
"! %.  N H q $ H D D v k i N D H D D H H z 5 0 w 5.) @.@.p.;.D ) 8.p.N { 8.p.v %.v # ;.5XU ! U ;.p.;.H H 8.;.) %.{ D 0 i H ;.8.v ",
"i 0 N U #   0 > D H N i k v N U D H H H H v > > ) ;.  H h.{ , D %.n.q k { h.H     k yX{ ) H H ! H ;.n.8.n.;.%.p.U   i v q p.8.  ",
"# N 5 D p.p.  $ q N v i v v k D C P P N U ) h ,   C %.! i %.U U ! v ) { D H k i $ 0X'.q ! H H H H p.8.8.%.%.T.{   ) D k %.  $ N ",
"v i 0 , ) %.U 5 > q i k N v k D D P H H H ) ) k N q   P ^.8.  k L.D.  0 L.L.  # '.sX) ) D D D D v ;.%.p.{ ) { 0   ! %.  $ H D   ",
"^.  $ k   k D q > 0 q k v k i N H C C Y Y P ) H # q k ) # H ;.%.  k %.h.      h.cXH H ) ! N U D ! 8.{ %.{ H , 0 )   5 H N >   NX",
"U 8.;.  ! U   i 0 , , q i i i N H D P H Y Y P { U #   5 L.h.# k T.^.  , { 5 k AX^.k D U U ) U U H U H { 8.N   $ 0 ! ! 5   p.cX:X",
"D %.L.!     D v 0 # # 5 i i k N n H Y v P @.C ;.;.k i i O U p.;.  q p.H   # lX@X{ ;.H ) H U H v D H H ) N   N N q , $   :XNXD.q ",
"U H H ;.p.v   > H U   # i q i N n P ! P U Y { 5.f.;.h 0 ! )   n ^.D.  i   0X5X{ n.) D D U ! D H H N D H   D D   k $   sXNXU i ) ",
"! D N ) h.8.N , $   k , > k v k D U Y Y ! { { @.) f.{   i t @.t.N H D # %XlXH p.n.%.) U U ! U U U U v , > , 5 D $ H SXyX  ) U ! ",
"D N ) ) H ) %.U   N ,   > $ D D H Y Y Y ) ) ) @.t.C f.5.  t C ;.! D   H NXh.;.L.D.;.{ ! U H D U %.!   , i v i   T.SX'.  U U k ) ",
"H v H U v N ) ) ;.5 , N $   0 v P Y ) ) ) Y ) ;.;.{ ) 2.P w ; t H k   NX.X) ^.n.L.{ { %.) ! U { U N   q q , , .XsX;., ! D U H U ",
"! D N H H D N N ! ) i q i >   k Y ) ) Y ) ) { ;.@.@.@.) f.a w H   $ lX1X.Xh.D.h.8.U ! { ) { ) ) k   5 U # 5 sXsXk U %.v H D ! U ",
"D H D N H D v D H H ;.5 # , > , U ) ! ) { @.@.@.) 5.;.;.f.;.; z   '.lXT.p.L.p.D.%.! { ) ) %.! v   , q $ { NX%Xk { H k ! ! v ) %.",
"H D k k D U D N H k H ;.N   0   i H ) { %.;.%.@.;.%.{ 5.*.8.5.  8.ZXL.^.p.;.T.p.h.%.p.h.%.{ H 5 0 , $ T.cXp.  U H N H D v %.{ ;.",
"N v N D D D D D N U U H 8.{   5   v { @.@.@.;.5.;.t.t.%.@.{ b.tXjX.X'.h.;.T.h.T.h.U ;.L.8.U q >     1XlXp.N D v N H H U ! { ) ) ",
"v D H D U ! H D U U U D U p.) # #   D ) ;.;.8.8.;.t.5.p.,.;.8.OXn.8.n.D.D.T.L.D.T.8.;.{ U k i   i cXyX> 8.{ U U U N D ;.k H U ! ",
"H N v H ! D D U U H ! U H { p.h.0   5 8.;.8.%.p.t.8.8.f.5.5.8.p.8.8.L.'.T.T.L.T.h.D.{ p.) 5 # h.cX:Xi 8.D %.) H N ! { { H U D N ",
"v U ! H U H D H { ) { { ) U ;.L.%Xk   5 ) n.h.%.5. .8.p.p.Z.T.c.p.p.T.'.T.D.D.T.n.;.;.%.5   ^.lXD.$ { N U ) U ) D { ) U %.v q U ",
"N H D D H U H U U U U ! ) ) ) %.p.@Xh.  i { ;.8.8.5.S.J.L.J.J.f.n.p.D.D.h.8.8.L.D.{ {     jXNX{ v { ! H U U { H { ) %.) ) ) U q ",
"# i D D H H H H D U H H U ! { ;.{ n.L.%.5 ! h.n.J.S.Z.c.L.p.q.t.p.8.p.p.p.p.p.D.D.%.N ! cXFX) U ) H U D ! %.{ 8.! ! ! %.;.) 0 # ",
"  $ 5 v U U H H ! H H ! U U { ;.;.) %..XjX:X8.n.K.Z.8.;.c.5.o.2.{ ) { ;.n.L.D.L.D.;.n.lXcXp.h.) U ! U { D ! D U N %.{ { U q # , ",
"! ,   $ N H U ) ! D H ) ) { %.{ H ) p.8.^.L.p.8.p.p.5.8.;. .L Z D H H U %.D.D.T.L.p.8.T.h.L.8.8.) ;.) H U 8.) D D { n.D   > D k ",
"$ ;.;.$   v { U ) ) %.{ U ) %.! %.;.p.h.8.n.h.p.8.5.{ Y t C W ~ v v q 5 v { 8.L.h.{ %.p.p.%.D.D.n.D %.{ ! p.D N ! H q # v   # %.",
"L.i # { )   , H ! ) ) { U ) ! { { O.;.1.s.f.2.s.O.o.f W _.z.XXrXn.U v q 5 , D 8.%.%.8.n.h.;.h.L.8.{ %.%.h.;.{ U H i $ #   L.T.# ",
"h.) n.N i D 5 , N D H ) ) { %.;.*.=.q.3.r.q.o.} W u f.pXGXHXbXDX5X%.D.p.U v 0 N ) { ;.8.;.{ 8.n.D.! H n.p.{ { v $ # , %.p.# v 8.",
"{ U n.8.;.N 0 , , v ) %.8.;.8.;.3.;.r.r.r.r.X.T u z.MXIXUXHX#X3X@X{ T.T.8.U q , N ) %.{ { { ;.p.8.%.p.D.U ! N   > %.{   { L.D.0 ",
"T.N > 8.^.N k k $ $ q U ;.%.8.p.3.O.q.8.=.3.} S l dXKXLX4Xr.z.~ ;.) ;.p.8.) ! 5 0 H ;.%.%.;.%.%.;.) { { H 0   N D , { ! H ! 8.) ",
"i { %.N k ;.{ U N , # i { 8.%.%.;.O.p.r.O.o.S y *.CXLX*X~ r._.r.8.p.;.;.h.;.{ N > v ;.8.;.p.%.{ { ! %.N > 5 v 5 N 8.{ D ;.%.;.U ",
"@X$ # L.T.k   8.h.! >   > { 8.%.3.3.b.N.r.o.b y G.6XrX3.V._.V.z.h.8.n.;.n.8.U U > q { 8.8.p.%.{ H L.U > 5 0 U k H n.^.i N h.T.k ",
"  n.D.5 # h.n.D # ! %.H     i 8.3.r.N.N.r.~ V S 4X*XI.C.C.P.(.z.n.8.D.p.h.;.U U 5 , ! 8.;.p.%.{ ) q   q v 0 ! h.8.  N %.n., > D.",
"^.$   n..Xq   ;.T.N   N k q # q =.3.r.=.} S u S C.4X_.3.3.N.k.E.L.T.T.D.p.) p.D q $ ! h.;.p.%.{ #   5 > , ^.8.  i .X^.  , ^.^.  ",
"k p.D.q , p.h.N   8.U 5 ,   8.`.) ) ;.5.;.Y $ P r.@X^.f.r.h.W.L.^.T.n.n.n.{ U { q , { p.{ ;.%.{ 8.q # D D   H L.;.> 0 p.^.  $ D.",
"n.i H h.n.k H %.n.N $ h   T.jXT.;.;.8.8.*.! 3 N h.T.D.c.c.p.n.h.D.n.T.T.;.) U v q 5 { n.8.;.;.D.%X5X)   5 %.D   ! T.L.$ q n.^.  ",
") 8.8.D p.%.h.D H v $   :XNXZ.) ;.2.;.;.o.Y w 8 8.f.c.L.D.;.8.n.D.D.T.^.8.H v k # q 8.h.8.p.p.L.%..X0Xh.  , v U U 0 U L.h.# k D.",
";.;.n.{ ;.%.n.D 8   v 0X5XU { ;.{ ;.@.;.{ ) z % ) { ;.n.n.8.p.L.L.n.n.n.;.D k v $ N ;.%.) ;.8.n.p.n.%.'.p., 5 k i N ! H %.p.n.k ",
"p.D D %.n.v # h t ! %X@X{ n.! ;.{ ;.%.%.%.{ H > z D ) *.8.p.n.n.n.8.h.;.D U U > , v %.p.h.8.{ 8.n.{ { 5 ) ^.v   i v v N ;.H { p.",
"$ n..Xi   U H   { :X@Xh.f.! 5.{ 5.;.;.{ %.{ ! t $ t { ;.%.8.8.;.8.;.;.{ N v q # i H ;.h.D.n.8.%.h.%.%.%.! ! '.'.    > U 8.k v ;.",
"%.,   N N   O n.@XD.%.8.8.;.p.) 5.;.;.) ;.{ ) D , , H ) ! { ! ) { ;.) H D , $ i { 8.;.) %.h.L.h.p.T.) D ) ! p.n.) v q $   v h.U ",
"q ;.! 5 # n L..X! ! %.) ) %.) { %.{ ;.{ ;.@.! ! Y ; O 5 N ! U H H U ) D , $ i U ;.;.%.8.;.;.8.p.8.;.) p.%.%.) D ;.%.i i !     p.",
"N 0   # { .Xn.D H U 5.8.;.p.@.{ 5.) { @.{ %.) @.) N 0 > $ 5 i v k i >   , k U 8.h.8.8.%.;.) p.8.p.%.) { ) U H H D D %.N   i H $ ",
"k > 5 p.%Xp.v H H P ;.;.{ @.) @.{ ;.;.{ { ;.) ;.{ ) D i 5 > $     $ , i H { ;.h.%.n.D.L.{ 8.;.8.%.%.{ U H H D v i D N U ! >   ! ",
"  H '..X{ i v U ! P ) { { @.{ @.{ ! @.{ h ! ;.@.{ { ) U D N v i k v D ) %.p.h.h.8.p.U { ;.) p.;.{ %.%.! U H D v D v k v H ! v   ",
"D.'.p.N v N N U Y Y ) ) ) %.5.;.5.@.w   v ;.;.p.{ { ) U U U U ! U U { p.p.p.n.p.%.^.)   v ) ;.8.p.;.%.{ ) H D D N U N i v N ! p.",
".X) k N N U ! D H ) %.{ ) %.p.%.Y > ; ! %Xf.) ! ! ! ! U U U U U ! U { 8.;.8.h.p.L.h.@X%.  i U ;.n.p.;.%.) U N N D D v N N 0 N '.",
"> N H N D U ! ! Y ) { { %.;.@.N 5   ) OXT.) t.) ! ! ! U ! { { { %.%.8.8.;.%.8.n.D.n..X%X)   # H 8.h.h.;.{ ) H v ! i k D v H D # ",
"H v D N v ! %.H ) { ) ;.@.H v >   D.%Xc.%.5.;.! { ) ! U ! ) { ) ) %.8.h.n.p.p.D.p.D.D.T.^.k 0   D { p.8.%.{ ) H N D H H N N N v ",
"D D H U H H ! U H { p.c.! , ;   J.0Xt.{ 5.f.) %.) { ) { { %.{ ) { { ) ) %.%.8.T.L.p.L.D.D.D.0 5 # q ! 8.%.) ! ) D N N ! ! N N ) ",
"H D D H H H ! ) ) U H N   i # %.sXn.%.;.;.%.! { ) ) U ) %.! %.5 k %.{ { p.h.h.n.p.^.%.p.n.h.n.  , # > U 8.;.) ) D D ! 8.) U D D ",
"D U ! H H ! ) U ! ! k # 5   i jXn.%.%.{ ! ) U ! H U ! %.) ;.i $   D %.;.;.;.n.h.p.h.p.D.8.%.p.! , >     H H U H { H H %.{ ;.! D ",
"D ! U U U U ! ) U 5   0 0   5X.XU ! ;.{ U ! ! ! ! ! %.H %.N   D i # H U ;.%.) n.h.{ 8.h.%.{ ;.n.{   i ,   5 { U D ) ! U N ) ! D ",
"! ! H H ! U D N 5   i ,   :X1Xi ! { %.! U { ) U ! ) { ;.U # v 5 5 0 # ) %.;.;.8.p.%.;.;.%.;.%.8.%.v 5 q q   # D ) H N ! U ! H ! ",
"U ! ! U U H q # , 5 i # L.yXi ! ) { ) ! ! ) ) U U ! 8.8.$ $ v U U q   q ;.%.;.%.%.8.h.;.{ %.;.%.;.;.5 $ > 5 v   v D H ! U ) U U ",
"U H ) ) v 5 , 5 q k   ) yXU ) H H ) U ! ! H U U ! { %.5 , N i 8.h.q N   i %.U %.) ;.%.;.{ ) ;.%.;.h.%.  $ i N ,   v H U D U H H ",
"! D U N > , v N N   0 sX%.i ! D N ! H H U D H H H %., > H N p.q v H N v   U ) ) ! ) U ) { ) ) { { D h.H N >   N 5 , , D ! ! D ! ",
"U U N     U %.>   # 5XD.q U v D H ) H D U N D D H k   D U   5 T.^.  5 D i > N ) H H U U ! U U { ) { U ) i q H 0 $ i q , q ) ! D ",
"U q   k U #   v # T..X# N D i D D U D v N v v ! v 0 q $ i ;.n.    %.h.5   0 0 D U ! U U ! U D U U { U ! ! 0   i ) D   5 , q U U ",
"  0 v > v ! %.# n.:X> ! k k ! v U D N N N v k k 5   0 n.D.  5 ^.L.$ # T.^.$   , D ! H N k N { H U ! U H ! ) k $   8.'.q # # > D ",
"k   i %.! 0 $ N 0X) k D H v H D D v N N i v N q $ { U $ k h.;.  N 8.p.> 5 U D $ v ! H H D v U N U ! ! D D { ! > k > i U ) 0 > $ ",
"5 h.{ N H   , yX;.v H k D k v H v N N v i k i > 0 5 v n.8.i N n.;.q H %.L.v   q , D H D N k v H U H ! U N U ) D 5 k D H i N k > ",
"H U %.N i   1XL.k H i N k v D D N N i k v q $ # k %.%.! { %.) U { ) { H ! { ;.5   > D D k v v D v v N H ! ! ! ) v 5 q H ;.U   H ",
") H ! %.  '.%X# U N H H D N H D N v i i i $ , ! D U ! H H %.p.H U ! 8.U U ) ;.! !   0 D v N k k v D N v U ! U { H > k D ! ! %.) ",
"N L.8.  h.5XN D U D N ) N k D N v i i q , $ i { %.q ) T.;., H 8.h.0 v %.D.U , %.h.5   5 i v k D N U D v D D U { %.) U N 0 U .X! ",
";.#   i '.{ i v v k N 5 i k q v v i i 5 $ 5 5   D L.;.  i L.D.# , h.L.q   ;.T.k   q 5 $ N N q N k N D N H U U H U { i U n.D   U "
};
